M48
; DRILL file {KiCad 7.0.2} date Thu Apr 20 14:17:52 2023
; FORMAT={-:-/ absolute / metric / decimal}
; #@! TF.CreationDate,2023-04-20T14:17:52-04:00
; #@! TF.GenerationSoftware,Kicad,Pcbnew,7.0.2
; #@! TF.FileFunction,Plated,1,2,PTH
FMAT,2
METRIC
; #@! TA.AperFunction,Plated,PTH,ViaDrill
T1C0.500
; #@! TA.AperFunction,Plated,PTH,ComponentDrill
T2C0.800
; #@! TA.AperFunction,Plated,PTH,ComponentDrill
T3C1.000
%
G90
G05
T1
X121.158Y-72.009
X122.428Y-90.17
X123.063Y-84.455
X134.493Y-72.009
X141.732Y-114.173
X159.258Y-74.803
X168.529Y-104.648
X180.848Y-73.914
T2
X130.81Y-78.74
X130.81Y-101.6
X133.35Y-78.74
X133.35Y-101.6
X135.89Y-78.74
X135.89Y-101.6
X138.43Y-78.74
X138.43Y-101.6
X140.97Y-78.74
X140.97Y-101.6
X143.51Y-78.74
X143.51Y-101.6
X146.05Y-78.74
X146.05Y-101.6
X148.59Y-78.74
X148.59Y-101.6
X151.13Y-78.74
X151.13Y-101.6
X153.67Y-78.74
X153.67Y-101.6
X156.21Y-78.74
X156.21Y-101.6
X158.75Y-78.74
X158.75Y-101.6
X161.29Y-78.74
X161.29Y-101.6
X163.83Y-78.74
X163.83Y-101.6
X166.37Y-78.74
X166.37Y-101.6
X168.91Y-78.74
X168.91Y-101.6
X171.45Y-78.74
X171.45Y-101.6
X173.99Y-78.74
X173.99Y-101.6
X176.53Y-78.74
X176.53Y-101.6
X179.067Y-101.604
X179.07Y-78.74
X181.607Y-101.604
X181.61Y-78.74
X184.147Y-101.604
X184.15Y-78.74
T3
X115.57Y-88.265
X115.57Y-90.765
X115.57Y-93.265
X116.078Y-100.203
X116.078Y-102.703
X116.078Y-105.203
X117.406Y-64.715
X117.406Y-74.875
X117.406Y-77.415
X117.406Y-79.955
X117.406Y-82.495
X125.08Y-108.585
X126.238Y-71.01
X127.58Y-108.585
X128.738Y-71.01
X130.08Y-108.585
X131.238Y-71.01
X136.565Y-108.585
X137.922Y-71.01
X139.065Y-108.585
X140.422Y-71.01
X141.565Y-108.585
X142.922Y-71.01
X147.32Y-114.935
X147.995Y-108.585
X148.575Y-67.945
X148.575Y-70.485
X148.575Y-73.025
X149.86Y-114.935
X150.495Y-108.585
X152.4Y-114.935
X152.995Y-108.585
X154.94Y-114.935
X156.195Y-67.945
X156.195Y-70.485
X156.195Y-73.025
X159.425Y-109.745
X161.37Y-70.883
X161.925Y-109.745
X163.87Y-70.883
X164.425Y-109.745
X166.37Y-70.883
X170.815Y-109.855
X170.895Y-116.84
X172.745Y-69.85
X173.315Y-109.855
X173.395Y-116.84
X175.245Y-69.85
X175.815Y-109.855
X175.895Y-116.84
X177.745Y-69.85
X182.245Y-108.585
X184.23Y-70.883
X184.745Y-108.585
X186.73Y-70.883
X187.245Y-108.585
X189.23Y-70.883
T0
M30
