M48
; DRILL file {KiCad 7.0.1} date Tue Apr 18 11:23:08 2023
; FORMAT={-:-/ absolute / metric / decimal}
; #@! TF.CreationDate,2023-04-18T11:23:08-04:00
; #@! TF.GenerationSoftware,Kicad,Pcbnew,7.0.1
; #@! TF.FileFunction,Plated,1,2,PTH
FMAT,2
METRIC
; #@! TA.AperFunction,Plated,PTH,ViaDrill
T1C0.400
; #@! TA.AperFunction,Plated,PTH,ViaDrill
T2C0.500
; #@! TA.AperFunction,Plated,PTH,ComponentDrill
T3C1.000
%
G90
G05
T1
X176.53Y-74.93
T2
X121.285Y-90.805
X134.62Y-74.93
X140.335Y-113.665
X168.91Y-75.946
X170.18Y-104.14
T3
X115.316Y-88.265
X115.316Y-90.765
X115.316Y-93.265
X115.443Y-100.203
X115.443Y-102.703
X115.443Y-105.203
X117.406Y-64.715
X117.406Y-74.875
X117.406Y-77.415
X117.406Y-79.955
X117.406Y-82.495
X125.08Y-108.585
X127.025Y-71.01
X127.58Y-108.585
X128.272Y-78.7
X128.272Y-101.56
X129.525Y-71.01
X130.08Y-108.585
X130.811Y-78.7
X130.811Y-101.56
X132.025Y-71.01
X133.351Y-78.7
X133.351Y-101.56
X135.892Y-78.7
X135.892Y-101.56
X136.565Y-108.585
X138.431Y-78.7
X138.431Y-101.56
X138.47Y-71.01
X139.065Y-108.585
X140.97Y-71.01
X140.971Y-78.7
X140.971Y-101.56
X141.565Y-108.585
X143.47Y-71.01
X143.511Y-78.7
X143.511Y-101.56
X146.052Y-78.7
X146.052Y-101.56
X147.32Y-114.935
X147.995Y-108.585
X148.575Y-67.945
X148.575Y-70.485
X148.575Y-73.025
X148.591Y-78.7
X148.591Y-101.56
X149.86Y-114.935
X150.495Y-108.585
X151.131Y-78.7
X151.131Y-101.56
X152.4Y-114.935
X152.995Y-108.585
X153.671Y-78.7
X153.671Y-101.56
X154.94Y-114.935
X156.195Y-67.945
X156.195Y-70.485
X156.195Y-73.025
X156.212Y-78.7
X156.212Y-101.56
X158.751Y-78.7
X158.751Y-101.56
X159.425Y-109.745
X161.291Y-78.7
X161.291Y-101.56
X161.37Y-70.883
X161.925Y-109.745
X163.832Y-78.7
X163.832Y-101.56
X163.87Y-70.883
X164.425Y-109.745
X166.37Y-70.883
X166.371Y-78.7
X166.371Y-101.56
X168.911Y-78.7
X168.911Y-101.56
X170.815Y-109.855
X170.895Y-116.84
X171.451Y-78.7
X171.451Y-101.56
X172.745Y-69.85
X173.315Y-109.855
X173.395Y-116.84
X173.992Y-78.7
X173.992Y-101.56
X175.245Y-69.85
X175.815Y-109.855
X175.895Y-116.84
X176.531Y-78.7
X176.531Y-101.56
X177.745Y-69.85
X179.071Y-78.7
X179.071Y-101.56
X181.611Y-78.7
X181.611Y-101.56
X182.245Y-108.585
X184.23Y-70.883
X184.745Y-108.585
X186.73Y-70.883
X187.245Y-108.585
X189.23Y-70.883
T0
M30
