%TF.GenerationSoftware,KiCad,Pcbnew,7.0.1*%
%TF.CreationDate,2023-04-18T16:59:58-04:00*%
%TF.ProjectId,luison-electronics,6c756973-6f6e-42d6-956c-656374726f6e,rev?*%
%TF.SameCoordinates,Original*%
%TF.FileFunction,Drillmap*%
%TF.FilePolarity,Positive*%
%FSLAX45Y45*%
G04 Gerber Fmt 4.5, Leading zero omitted, Abs format (unit mm)*
G04 Created by KiCad (PCBNEW 7.0.1) date 2023-04-18 16:59:58*
%MOMM*%
%LPD*%
G01*
G04 APERTURE LIST*
%ADD10C,0.100000*%
%ADD11C,0.200000*%
%ADD12C,0.320000*%
G04 APERTURE END LIST*
D10*
X12065000Y-6223000D02*
X18516600Y-6223000D01*
X11112500Y-8445500D02*
X11112500Y-12001500D01*
X15697200Y-12700000D02*
X15697200Y-12039600D01*
X15697200Y-12039600D02*
X19431000Y-12039600D01*
X11112500Y-5524500D02*
X11112500Y-6223000D01*
X14528800Y-12700000D02*
X15697200Y-12700000D01*
X18669000Y-6223000D02*
X18669000Y-5918200D01*
X18669000Y-5918200D02*
X19431000Y-5918200D01*
X11620500Y-5524500D02*
X11874500Y-5524500D01*
X10668000Y-8509000D02*
X10668000Y-8509000D01*
X11112500Y-12001500D02*
X14528800Y-12039600D01*
X11874500Y-5524500D02*
X11874500Y-6223000D01*
X11874500Y-6223000D02*
X12065000Y-6223000D01*
X11112500Y-5524500D02*
X11620500Y-5524500D01*
X18516600Y-6223000D02*
X18669000Y-6223000D01*
X11112500Y-6223000D02*
X10033000Y-6223000D01*
X10033000Y-6223000D02*
X10033000Y-8445500D01*
X10033000Y-8445500D02*
X11112500Y-8445500D01*
X14528800Y-12039600D02*
X14528800Y-12700000D01*
X19431000Y-5918200D02*
X19431000Y-12039600D01*
D11*
D12*
X11333500Y-5745500D02*
X11653500Y-6065500D01*
X11653500Y-5745500D02*
X11333500Y-6065500D01*
X11333500Y-11460500D02*
X11653500Y-11780500D01*
X11653500Y-11460500D02*
X11333500Y-11780500D01*
X18890000Y-6139200D02*
X19210000Y-6459200D01*
X19210000Y-6139200D02*
X18890000Y-6459200D01*
X18890000Y-11460500D02*
X19210000Y-11780500D01*
X19210000Y-11460500D02*
X18890000Y-11780500D01*
D11*
X10275619Y-13017524D02*
X10275619Y-12817524D01*
X10275619Y-12817524D02*
X10323238Y-12817524D01*
X10323238Y-12817524D02*
X10351810Y-12827048D01*
X10351810Y-12827048D02*
X10370857Y-12846095D01*
X10370857Y-12846095D02*
X10380381Y-12865143D01*
X10380381Y-12865143D02*
X10389905Y-12903238D01*
X10389905Y-12903238D02*
X10389905Y-12931809D01*
X10389905Y-12931809D02*
X10380381Y-12969905D01*
X10380381Y-12969905D02*
X10370857Y-12988952D01*
X10370857Y-12988952D02*
X10351810Y-13008000D01*
X10351810Y-13008000D02*
X10323238Y-13017524D01*
X10323238Y-13017524D02*
X10275619Y-13017524D01*
X10475619Y-13017524D02*
X10475619Y-12884190D01*
X10475619Y-12922286D02*
X10485143Y-12903238D01*
X10485143Y-12903238D02*
X10494667Y-12893714D01*
X10494667Y-12893714D02*
X10513714Y-12884190D01*
X10513714Y-12884190D02*
X10532762Y-12884190D01*
X10599429Y-13017524D02*
X10599429Y-12884190D01*
X10599429Y-12817524D02*
X10589905Y-12827048D01*
X10589905Y-12827048D02*
X10599429Y-12836571D01*
X10599429Y-12836571D02*
X10608952Y-12827048D01*
X10608952Y-12827048D02*
X10599429Y-12817524D01*
X10599429Y-12817524D02*
X10599429Y-12836571D01*
X10723238Y-13017524D02*
X10704190Y-13008000D01*
X10704190Y-13008000D02*
X10694667Y-12988952D01*
X10694667Y-12988952D02*
X10694667Y-12817524D01*
X10828000Y-13017524D02*
X10808952Y-13008000D01*
X10808952Y-13008000D02*
X10799429Y-12988952D01*
X10799429Y-12988952D02*
X10799429Y-12817524D01*
X11056571Y-13017524D02*
X11056571Y-12817524D01*
X11056571Y-12817524D02*
X11123238Y-12960381D01*
X11123238Y-12960381D02*
X11189905Y-12817524D01*
X11189905Y-12817524D02*
X11189905Y-13017524D01*
X11370857Y-13017524D02*
X11370857Y-12912762D01*
X11370857Y-12912762D02*
X11361333Y-12893714D01*
X11361333Y-12893714D02*
X11342286Y-12884190D01*
X11342286Y-12884190D02*
X11304190Y-12884190D01*
X11304190Y-12884190D02*
X11285143Y-12893714D01*
X11370857Y-13008000D02*
X11351809Y-13017524D01*
X11351809Y-13017524D02*
X11304190Y-13017524D01*
X11304190Y-13017524D02*
X11285143Y-13008000D01*
X11285143Y-13008000D02*
X11275619Y-12988952D01*
X11275619Y-12988952D02*
X11275619Y-12969905D01*
X11275619Y-12969905D02*
X11285143Y-12950857D01*
X11285143Y-12950857D02*
X11304190Y-12941333D01*
X11304190Y-12941333D02*
X11351809Y-12941333D01*
X11351809Y-12941333D02*
X11370857Y-12931809D01*
X11466095Y-12884190D02*
X11466095Y-13084190D01*
X11466095Y-12893714D02*
X11485143Y-12884190D01*
X11485143Y-12884190D02*
X11523238Y-12884190D01*
X11523238Y-12884190D02*
X11542286Y-12893714D01*
X11542286Y-12893714D02*
X11551809Y-12903238D01*
X11551809Y-12903238D02*
X11561333Y-12922286D01*
X11561333Y-12922286D02*
X11561333Y-12979428D01*
X11561333Y-12979428D02*
X11551809Y-12998476D01*
X11551809Y-12998476D02*
X11542286Y-13008000D01*
X11542286Y-13008000D02*
X11523238Y-13017524D01*
X11523238Y-13017524D02*
X11485143Y-13017524D01*
X11485143Y-13017524D02*
X11466095Y-13008000D01*
X11647048Y-12998476D02*
X11656571Y-13008000D01*
X11656571Y-13008000D02*
X11647048Y-13017524D01*
X11647048Y-13017524D02*
X11637524Y-13008000D01*
X11637524Y-13008000D02*
X11647048Y-12998476D01*
X11647048Y-12998476D02*
X11647048Y-13017524D01*
X11647048Y-12893714D02*
X11656571Y-12903238D01*
X11656571Y-12903238D02*
X11647048Y-12912762D01*
X11647048Y-12912762D02*
X11637524Y-12903238D01*
X11637524Y-12903238D02*
X11647048Y-12893714D01*
X11647048Y-12893714D02*
X11647048Y-12912762D01*
X9828000Y-13245000D02*
X10028000Y-13445000D01*
X10028000Y-13245000D02*
X9828000Y-13445000D01*
X10256571Y-13237524D02*
X10380381Y-13237524D01*
X10380381Y-13237524D02*
X10313714Y-13313714D01*
X10313714Y-13313714D02*
X10342286Y-13313714D01*
X10342286Y-13313714D02*
X10361333Y-13323238D01*
X10361333Y-13323238D02*
X10370857Y-13332762D01*
X10370857Y-13332762D02*
X10380381Y-13351809D01*
X10380381Y-13351809D02*
X10380381Y-13399428D01*
X10380381Y-13399428D02*
X10370857Y-13418476D01*
X10370857Y-13418476D02*
X10361333Y-13428000D01*
X10361333Y-13428000D02*
X10342286Y-13437524D01*
X10342286Y-13437524D02*
X10285143Y-13437524D01*
X10285143Y-13437524D02*
X10266095Y-13428000D01*
X10266095Y-13428000D02*
X10256571Y-13418476D01*
X10466095Y-13418476D02*
X10475619Y-13428000D01*
X10475619Y-13428000D02*
X10466095Y-13437524D01*
X10466095Y-13437524D02*
X10456571Y-13428000D01*
X10456571Y-13428000D02*
X10466095Y-13418476D01*
X10466095Y-13418476D02*
X10466095Y-13437524D01*
X10551810Y-13256571D02*
X10561333Y-13247048D01*
X10561333Y-13247048D02*
X10580381Y-13237524D01*
X10580381Y-13237524D02*
X10628000Y-13237524D01*
X10628000Y-13237524D02*
X10647048Y-13247048D01*
X10647048Y-13247048D02*
X10656571Y-13256571D01*
X10656571Y-13256571D02*
X10666095Y-13275619D01*
X10666095Y-13275619D02*
X10666095Y-13294667D01*
X10666095Y-13294667D02*
X10656571Y-13323238D01*
X10656571Y-13323238D02*
X10542286Y-13437524D01*
X10542286Y-13437524D02*
X10666095Y-13437524D01*
X10789905Y-13237524D02*
X10808952Y-13237524D01*
X10808952Y-13237524D02*
X10828000Y-13247048D01*
X10828000Y-13247048D02*
X10837524Y-13256571D01*
X10837524Y-13256571D02*
X10847048Y-13275619D01*
X10847048Y-13275619D02*
X10856571Y-13313714D01*
X10856571Y-13313714D02*
X10856571Y-13361333D01*
X10856571Y-13361333D02*
X10847048Y-13399428D01*
X10847048Y-13399428D02*
X10837524Y-13418476D01*
X10837524Y-13418476D02*
X10828000Y-13428000D01*
X10828000Y-13428000D02*
X10808952Y-13437524D01*
X10808952Y-13437524D02*
X10789905Y-13437524D01*
X10789905Y-13437524D02*
X10770857Y-13428000D01*
X10770857Y-13428000D02*
X10761333Y-13418476D01*
X10761333Y-13418476D02*
X10751810Y-13399428D01*
X10751810Y-13399428D02*
X10742286Y-13361333D01*
X10742286Y-13361333D02*
X10742286Y-13313714D01*
X10742286Y-13313714D02*
X10751810Y-13275619D01*
X10751810Y-13275619D02*
X10761333Y-13256571D01*
X10761333Y-13256571D02*
X10770857Y-13247048D01*
X10770857Y-13247048D02*
X10789905Y-13237524D01*
X10980381Y-13237524D02*
X10999429Y-13237524D01*
X10999429Y-13237524D02*
X11018476Y-13247048D01*
X11018476Y-13247048D02*
X11028000Y-13256571D01*
X11028000Y-13256571D02*
X11037524Y-13275619D01*
X11037524Y-13275619D02*
X11047048Y-13313714D01*
X11047048Y-13313714D02*
X11047048Y-13361333D01*
X11047048Y-13361333D02*
X11037524Y-13399428D01*
X11037524Y-13399428D02*
X11028000Y-13418476D01*
X11028000Y-13418476D02*
X11018476Y-13428000D01*
X11018476Y-13428000D02*
X10999429Y-13437524D01*
X10999429Y-13437524D02*
X10980381Y-13437524D01*
X10980381Y-13437524D02*
X10961333Y-13428000D01*
X10961333Y-13428000D02*
X10951810Y-13418476D01*
X10951810Y-13418476D02*
X10942286Y-13399428D01*
X10942286Y-13399428D02*
X10932762Y-13361333D01*
X10932762Y-13361333D02*
X10932762Y-13313714D01*
X10932762Y-13313714D02*
X10942286Y-13275619D01*
X10942286Y-13275619D02*
X10951810Y-13256571D01*
X10951810Y-13256571D02*
X10961333Y-13247048D01*
X10961333Y-13247048D02*
X10980381Y-13237524D01*
X11132762Y-13437524D02*
X11132762Y-13304190D01*
X11132762Y-13323238D02*
X11142286Y-13313714D01*
X11142286Y-13313714D02*
X11161333Y-13304190D01*
X11161333Y-13304190D02*
X11189905Y-13304190D01*
X11189905Y-13304190D02*
X11208952Y-13313714D01*
X11208952Y-13313714D02*
X11218476Y-13332762D01*
X11218476Y-13332762D02*
X11218476Y-13437524D01*
X11218476Y-13332762D02*
X11228000Y-13313714D01*
X11228000Y-13313714D02*
X11247048Y-13304190D01*
X11247048Y-13304190D02*
X11275619Y-13304190D01*
X11275619Y-13304190D02*
X11294667Y-13313714D01*
X11294667Y-13313714D02*
X11304190Y-13332762D01*
X11304190Y-13332762D02*
X11304190Y-13437524D01*
X11399429Y-13437524D02*
X11399429Y-13304190D01*
X11399429Y-13323238D02*
X11408952Y-13313714D01*
X11408952Y-13313714D02*
X11428000Y-13304190D01*
X11428000Y-13304190D02*
X11456571Y-13304190D01*
X11456571Y-13304190D02*
X11475619Y-13313714D01*
X11475619Y-13313714D02*
X11485143Y-13332762D01*
X11485143Y-13332762D02*
X11485143Y-13437524D01*
X11485143Y-13332762D02*
X11494667Y-13313714D01*
X11494667Y-13313714D02*
X11513714Y-13304190D01*
X11513714Y-13304190D02*
X11542286Y-13304190D01*
X11542286Y-13304190D02*
X11561333Y-13313714D01*
X11561333Y-13313714D02*
X11570857Y-13332762D01*
X11570857Y-13332762D02*
X11570857Y-13437524D01*
X11961333Y-13228000D02*
X11789905Y-13485143D01*
X12218476Y-13237524D02*
X12237524Y-13237524D01*
X12237524Y-13237524D02*
X12256572Y-13247048D01*
X12256572Y-13247048D02*
X12266095Y-13256571D01*
X12266095Y-13256571D02*
X12275619Y-13275619D01*
X12275619Y-13275619D02*
X12285143Y-13313714D01*
X12285143Y-13313714D02*
X12285143Y-13361333D01*
X12285143Y-13361333D02*
X12275619Y-13399428D01*
X12275619Y-13399428D02*
X12266095Y-13418476D01*
X12266095Y-13418476D02*
X12256572Y-13428000D01*
X12256572Y-13428000D02*
X12237524Y-13437524D01*
X12237524Y-13437524D02*
X12218476Y-13437524D01*
X12218476Y-13437524D02*
X12199429Y-13428000D01*
X12199429Y-13428000D02*
X12189905Y-13418476D01*
X12189905Y-13418476D02*
X12180381Y-13399428D01*
X12180381Y-13399428D02*
X12170857Y-13361333D01*
X12170857Y-13361333D02*
X12170857Y-13313714D01*
X12170857Y-13313714D02*
X12180381Y-13275619D01*
X12180381Y-13275619D02*
X12189905Y-13256571D01*
X12189905Y-13256571D02*
X12199429Y-13247048D01*
X12199429Y-13247048D02*
X12218476Y-13237524D01*
X12370857Y-13418476D02*
X12380381Y-13428000D01*
X12380381Y-13428000D02*
X12370857Y-13437524D01*
X12370857Y-13437524D02*
X12361333Y-13428000D01*
X12361333Y-13428000D02*
X12370857Y-13418476D01*
X12370857Y-13418476D02*
X12370857Y-13437524D01*
X12570857Y-13437524D02*
X12456572Y-13437524D01*
X12513714Y-13437524D02*
X12513714Y-13237524D01*
X12513714Y-13237524D02*
X12494667Y-13266095D01*
X12494667Y-13266095D02*
X12475619Y-13285143D01*
X12475619Y-13285143D02*
X12456572Y-13294667D01*
X12647048Y-13256571D02*
X12656572Y-13247048D01*
X12656572Y-13247048D02*
X12675619Y-13237524D01*
X12675619Y-13237524D02*
X12723238Y-13237524D01*
X12723238Y-13237524D02*
X12742286Y-13247048D01*
X12742286Y-13247048D02*
X12751810Y-13256571D01*
X12751810Y-13256571D02*
X12761333Y-13275619D01*
X12761333Y-13275619D02*
X12761333Y-13294667D01*
X12761333Y-13294667D02*
X12751810Y-13323238D01*
X12751810Y-13323238D02*
X12637524Y-13437524D01*
X12637524Y-13437524D02*
X12761333Y-13437524D01*
X12932762Y-13237524D02*
X12894667Y-13237524D01*
X12894667Y-13237524D02*
X12875619Y-13247048D01*
X12875619Y-13247048D02*
X12866095Y-13256571D01*
X12866095Y-13256571D02*
X12847048Y-13285143D01*
X12847048Y-13285143D02*
X12837524Y-13323238D01*
X12837524Y-13323238D02*
X12837524Y-13399428D01*
X12837524Y-13399428D02*
X12847048Y-13418476D01*
X12847048Y-13418476D02*
X12856572Y-13428000D01*
X12856572Y-13428000D02*
X12875619Y-13437524D01*
X12875619Y-13437524D02*
X12913714Y-13437524D01*
X12913714Y-13437524D02*
X12932762Y-13428000D01*
X12932762Y-13428000D02*
X12942286Y-13418476D01*
X12942286Y-13418476D02*
X12951810Y-13399428D01*
X12951810Y-13399428D02*
X12951810Y-13351809D01*
X12951810Y-13351809D02*
X12942286Y-13332762D01*
X12942286Y-13332762D02*
X12932762Y-13323238D01*
X12932762Y-13323238D02*
X12913714Y-13313714D01*
X12913714Y-13313714D02*
X12875619Y-13313714D01*
X12875619Y-13313714D02*
X12856572Y-13323238D01*
X12856572Y-13323238D02*
X12847048Y-13332762D01*
X12847048Y-13332762D02*
X12837524Y-13351809D01*
X13075619Y-13237524D02*
X13094667Y-13237524D01*
X13094667Y-13237524D02*
X13113714Y-13247048D01*
X13113714Y-13247048D02*
X13123238Y-13256571D01*
X13123238Y-13256571D02*
X13132762Y-13275619D01*
X13132762Y-13275619D02*
X13142286Y-13313714D01*
X13142286Y-13313714D02*
X13142286Y-13361333D01*
X13142286Y-13361333D02*
X13132762Y-13399428D01*
X13132762Y-13399428D02*
X13123238Y-13418476D01*
X13123238Y-13418476D02*
X13113714Y-13428000D01*
X13113714Y-13428000D02*
X13094667Y-13437524D01*
X13094667Y-13437524D02*
X13075619Y-13437524D01*
X13075619Y-13437524D02*
X13056572Y-13428000D01*
X13056572Y-13428000D02*
X13047048Y-13418476D01*
X13047048Y-13418476D02*
X13037524Y-13399428D01*
X13037524Y-13399428D02*
X13028000Y-13361333D01*
X13028000Y-13361333D02*
X13028000Y-13313714D01*
X13028000Y-13313714D02*
X13037524Y-13275619D01*
X13037524Y-13275619D02*
X13047048Y-13256571D01*
X13047048Y-13256571D02*
X13056572Y-13247048D01*
X13056572Y-13247048D02*
X13075619Y-13237524D01*
X13218476Y-13237524D02*
X13218476Y-13275619D01*
X13294667Y-13237524D02*
X13294667Y-13275619D01*
X13589905Y-13513714D02*
X13580381Y-13504190D01*
X13580381Y-13504190D02*
X13561334Y-13475619D01*
X13561334Y-13475619D02*
X13551810Y-13456571D01*
X13551810Y-13456571D02*
X13542286Y-13428000D01*
X13542286Y-13428000D02*
X13532762Y-13380381D01*
X13532762Y-13380381D02*
X13532762Y-13342286D01*
X13532762Y-13342286D02*
X13542286Y-13294667D01*
X13542286Y-13294667D02*
X13551810Y-13266095D01*
X13551810Y-13266095D02*
X13561334Y-13247048D01*
X13561334Y-13247048D02*
X13580381Y-13218476D01*
X13580381Y-13218476D02*
X13589905Y-13208952D01*
X13751810Y-13304190D02*
X13751810Y-13437524D01*
X13704191Y-13228000D02*
X13656572Y-13370857D01*
X13656572Y-13370857D02*
X13780381Y-13370857D01*
X14008953Y-13437524D02*
X14008953Y-13237524D01*
X14094667Y-13437524D02*
X14094667Y-13332762D01*
X14094667Y-13332762D02*
X14085143Y-13313714D01*
X14085143Y-13313714D02*
X14066096Y-13304190D01*
X14066096Y-13304190D02*
X14037524Y-13304190D01*
X14037524Y-13304190D02*
X14018476Y-13313714D01*
X14018476Y-13313714D02*
X14008953Y-13323238D01*
X14218476Y-13437524D02*
X14199429Y-13428000D01*
X14199429Y-13428000D02*
X14189905Y-13418476D01*
X14189905Y-13418476D02*
X14180381Y-13399428D01*
X14180381Y-13399428D02*
X14180381Y-13342286D01*
X14180381Y-13342286D02*
X14189905Y-13323238D01*
X14189905Y-13323238D02*
X14199429Y-13313714D01*
X14199429Y-13313714D02*
X14218476Y-13304190D01*
X14218476Y-13304190D02*
X14247048Y-13304190D01*
X14247048Y-13304190D02*
X14266096Y-13313714D01*
X14266096Y-13313714D02*
X14275619Y-13323238D01*
X14275619Y-13323238D02*
X14285143Y-13342286D01*
X14285143Y-13342286D02*
X14285143Y-13399428D01*
X14285143Y-13399428D02*
X14275619Y-13418476D01*
X14275619Y-13418476D02*
X14266096Y-13428000D01*
X14266096Y-13428000D02*
X14247048Y-13437524D01*
X14247048Y-13437524D02*
X14218476Y-13437524D01*
X14399429Y-13437524D02*
X14380381Y-13428000D01*
X14380381Y-13428000D02*
X14370857Y-13408952D01*
X14370857Y-13408952D02*
X14370857Y-13237524D01*
X14551810Y-13428000D02*
X14532762Y-13437524D01*
X14532762Y-13437524D02*
X14494667Y-13437524D01*
X14494667Y-13437524D02*
X14475619Y-13428000D01*
X14475619Y-13428000D02*
X14466096Y-13408952D01*
X14466096Y-13408952D02*
X14466096Y-13332762D01*
X14466096Y-13332762D02*
X14475619Y-13313714D01*
X14475619Y-13313714D02*
X14494667Y-13304190D01*
X14494667Y-13304190D02*
X14532762Y-13304190D01*
X14532762Y-13304190D02*
X14551810Y-13313714D01*
X14551810Y-13313714D02*
X14561334Y-13332762D01*
X14561334Y-13332762D02*
X14561334Y-13351809D01*
X14561334Y-13351809D02*
X14466096Y-13370857D01*
X14637524Y-13428000D02*
X14656572Y-13437524D01*
X14656572Y-13437524D02*
X14694667Y-13437524D01*
X14694667Y-13437524D02*
X14713715Y-13428000D01*
X14713715Y-13428000D02*
X14723238Y-13408952D01*
X14723238Y-13408952D02*
X14723238Y-13399428D01*
X14723238Y-13399428D02*
X14713715Y-13380381D01*
X14713715Y-13380381D02*
X14694667Y-13370857D01*
X14694667Y-13370857D02*
X14666096Y-13370857D01*
X14666096Y-13370857D02*
X14647048Y-13361333D01*
X14647048Y-13361333D02*
X14637524Y-13342286D01*
X14637524Y-13342286D02*
X14637524Y-13332762D01*
X14637524Y-13332762D02*
X14647048Y-13313714D01*
X14647048Y-13313714D02*
X14666096Y-13304190D01*
X14666096Y-13304190D02*
X14694667Y-13304190D01*
X14694667Y-13304190D02*
X14713715Y-13313714D01*
X14789905Y-13513714D02*
X14799429Y-13504190D01*
X14799429Y-13504190D02*
X14818477Y-13475619D01*
X14818477Y-13475619D02*
X14828000Y-13456571D01*
X14828000Y-13456571D02*
X14837524Y-13428000D01*
X14837524Y-13428000D02*
X14847048Y-13380381D01*
X14847048Y-13380381D02*
X14847048Y-13342286D01*
X14847048Y-13342286D02*
X14837524Y-13294667D01*
X14837524Y-13294667D02*
X14828000Y-13266095D01*
X14828000Y-13266095D02*
X14818477Y-13247048D01*
X14818477Y-13247048D02*
X14799429Y-13218476D01*
X14799429Y-13218476D02*
X14789905Y-13208952D01*
X15151810Y-13513714D02*
X15142286Y-13504190D01*
X15142286Y-13504190D02*
X15123238Y-13475619D01*
X15123238Y-13475619D02*
X15113715Y-13456571D01*
X15113715Y-13456571D02*
X15104191Y-13428000D01*
X15104191Y-13428000D02*
X15094667Y-13380381D01*
X15094667Y-13380381D02*
X15094667Y-13342286D01*
X15094667Y-13342286D02*
X15104191Y-13294667D01*
X15104191Y-13294667D02*
X15113715Y-13266095D01*
X15113715Y-13266095D02*
X15123238Y-13247048D01*
X15123238Y-13247048D02*
X15142286Y-13218476D01*
X15142286Y-13218476D02*
X15151810Y-13208952D01*
X15228000Y-13304190D02*
X15228000Y-13437524D01*
X15228000Y-13323238D02*
X15237524Y-13313714D01*
X15237524Y-13313714D02*
X15256572Y-13304190D01*
X15256572Y-13304190D02*
X15285143Y-13304190D01*
X15285143Y-13304190D02*
X15304191Y-13313714D01*
X15304191Y-13313714D02*
X15313715Y-13332762D01*
X15313715Y-13332762D02*
X15313715Y-13437524D01*
X15437524Y-13437524D02*
X15418477Y-13428000D01*
X15418477Y-13428000D02*
X15408953Y-13418476D01*
X15408953Y-13418476D02*
X15399429Y-13399428D01*
X15399429Y-13399428D02*
X15399429Y-13342286D01*
X15399429Y-13342286D02*
X15408953Y-13323238D01*
X15408953Y-13323238D02*
X15418477Y-13313714D01*
X15418477Y-13313714D02*
X15437524Y-13304190D01*
X15437524Y-13304190D02*
X15466096Y-13304190D01*
X15466096Y-13304190D02*
X15485143Y-13313714D01*
X15485143Y-13313714D02*
X15494667Y-13323238D01*
X15494667Y-13323238D02*
X15504191Y-13342286D01*
X15504191Y-13342286D02*
X15504191Y-13399428D01*
X15504191Y-13399428D02*
X15494667Y-13418476D01*
X15494667Y-13418476D02*
X15485143Y-13428000D01*
X15485143Y-13428000D02*
X15466096Y-13437524D01*
X15466096Y-13437524D02*
X15437524Y-13437524D01*
X15561334Y-13304190D02*
X15637524Y-13304190D01*
X15589905Y-13237524D02*
X15589905Y-13408952D01*
X15589905Y-13408952D02*
X15599429Y-13428000D01*
X15599429Y-13428000D02*
X15618477Y-13437524D01*
X15618477Y-13437524D02*
X15637524Y-13437524D01*
X15856572Y-13304190D02*
X15856572Y-13504190D01*
X15856572Y-13313714D02*
X15875619Y-13304190D01*
X15875619Y-13304190D02*
X15913715Y-13304190D01*
X15913715Y-13304190D02*
X15932762Y-13313714D01*
X15932762Y-13313714D02*
X15942286Y-13323238D01*
X15942286Y-13323238D02*
X15951810Y-13342286D01*
X15951810Y-13342286D02*
X15951810Y-13399428D01*
X15951810Y-13399428D02*
X15942286Y-13418476D01*
X15942286Y-13418476D02*
X15932762Y-13428000D01*
X15932762Y-13428000D02*
X15913715Y-13437524D01*
X15913715Y-13437524D02*
X15875619Y-13437524D01*
X15875619Y-13437524D02*
X15856572Y-13428000D01*
X16066096Y-13437524D02*
X16047048Y-13428000D01*
X16047048Y-13428000D02*
X16037524Y-13408952D01*
X16037524Y-13408952D02*
X16037524Y-13237524D01*
X16228000Y-13437524D02*
X16228000Y-13332762D01*
X16228000Y-13332762D02*
X16218477Y-13313714D01*
X16218477Y-13313714D02*
X16199429Y-13304190D01*
X16199429Y-13304190D02*
X16161334Y-13304190D01*
X16161334Y-13304190D02*
X16142286Y-13313714D01*
X16228000Y-13428000D02*
X16208953Y-13437524D01*
X16208953Y-13437524D02*
X16161334Y-13437524D01*
X16161334Y-13437524D02*
X16142286Y-13428000D01*
X16142286Y-13428000D02*
X16132762Y-13408952D01*
X16132762Y-13408952D02*
X16132762Y-13389905D01*
X16132762Y-13389905D02*
X16142286Y-13370857D01*
X16142286Y-13370857D02*
X16161334Y-13361333D01*
X16161334Y-13361333D02*
X16208953Y-13361333D01*
X16208953Y-13361333D02*
X16228000Y-13351809D01*
X16294667Y-13304190D02*
X16370858Y-13304190D01*
X16323239Y-13237524D02*
X16323239Y-13408952D01*
X16323239Y-13408952D02*
X16332762Y-13428000D01*
X16332762Y-13428000D02*
X16351810Y-13437524D01*
X16351810Y-13437524D02*
X16370858Y-13437524D01*
X16513715Y-13428000D02*
X16494667Y-13437524D01*
X16494667Y-13437524D02*
X16456572Y-13437524D01*
X16456572Y-13437524D02*
X16437524Y-13428000D01*
X16437524Y-13428000D02*
X16428000Y-13408952D01*
X16428000Y-13408952D02*
X16428000Y-13332762D01*
X16428000Y-13332762D02*
X16437524Y-13313714D01*
X16437524Y-13313714D02*
X16456572Y-13304190D01*
X16456572Y-13304190D02*
X16494667Y-13304190D01*
X16494667Y-13304190D02*
X16513715Y-13313714D01*
X16513715Y-13313714D02*
X16523239Y-13332762D01*
X16523239Y-13332762D02*
X16523239Y-13351809D01*
X16523239Y-13351809D02*
X16428000Y-13370857D01*
X16694667Y-13437524D02*
X16694667Y-13237524D01*
X16694667Y-13428000D02*
X16675620Y-13437524D01*
X16675620Y-13437524D02*
X16637524Y-13437524D01*
X16637524Y-13437524D02*
X16618477Y-13428000D01*
X16618477Y-13428000D02*
X16608953Y-13418476D01*
X16608953Y-13418476D02*
X16599429Y-13399428D01*
X16599429Y-13399428D02*
X16599429Y-13342286D01*
X16599429Y-13342286D02*
X16608953Y-13323238D01*
X16608953Y-13323238D02*
X16618477Y-13313714D01*
X16618477Y-13313714D02*
X16637524Y-13304190D01*
X16637524Y-13304190D02*
X16675620Y-13304190D01*
X16675620Y-13304190D02*
X16694667Y-13313714D01*
X16770858Y-13513714D02*
X16780382Y-13504190D01*
X16780382Y-13504190D02*
X16799429Y-13475619D01*
X16799429Y-13475619D02*
X16808953Y-13456571D01*
X16808953Y-13456571D02*
X16818477Y-13428000D01*
X16818477Y-13428000D02*
X16828001Y-13380381D01*
X16828001Y-13380381D02*
X16828001Y-13342286D01*
X16828001Y-13342286D02*
X16818477Y-13294667D01*
X16818477Y-13294667D02*
X16808953Y-13266095D01*
X16808953Y-13266095D02*
X16799429Y-13247048D01*
X16799429Y-13247048D02*
X16780382Y-13218476D01*
X16780382Y-13218476D02*
X16770858Y-13208952D01*
M02*
