%TF.GenerationSoftware,KiCad,Pcbnew,(6.0.7)*%
%TF.CreationDate,2022-09-07T13:32:05-04:00*%
%TF.ProjectId,luison-electronics,6c756973-6f6e-42d6-956c-656374726f6e,rev?*%
%TF.SameCoordinates,Original*%
%TF.FileFunction,Legend,Top*%
%TF.FilePolarity,Positive*%
%FSLAX46Y46*%
G04 Gerber Fmt 4.6, Leading zero omitted, Abs format (unit mm)*
G04 Created by KiCad (PCBNEW (6.0.7)) date 2022-09-07 13:32:05*
%MOMM*%
%LPD*%
G01*
G04 APERTURE LIST*
%ADD10C,0.150000*%
%ADD11C,0.120000*%
G04 APERTURE END LIST*
D10*
%TO.C,PS_B1*%
X148534380Y-130873238D02*
X147534380Y-130873238D01*
X147534380Y-130492285D01*
X147582000Y-130397047D01*
X147629619Y-130349428D01*
X147724857Y-130301809D01*
X147867714Y-130301809D01*
X147962952Y-130349428D01*
X148010571Y-130397047D01*
X148058190Y-130492285D01*
X148058190Y-130873238D01*
X148486761Y-129920857D02*
X148534380Y-129778000D01*
X148534380Y-129539904D01*
X148486761Y-129444666D01*
X148439142Y-129397047D01*
X148343904Y-129349428D01*
X148248666Y-129349428D01*
X148153428Y-129397047D01*
X148105809Y-129444666D01*
X148058190Y-129539904D01*
X148010571Y-129730380D01*
X147962952Y-129825619D01*
X147915333Y-129873238D01*
X147820095Y-129920857D01*
X147724857Y-129920857D01*
X147629619Y-129873238D01*
X147582000Y-129825619D01*
X147534380Y-129730380D01*
X147534380Y-129492285D01*
X147582000Y-129349428D01*
X148629619Y-129158952D02*
X148629619Y-128397047D01*
X148010571Y-127825619D02*
X148058190Y-127682761D01*
X148105809Y-127635142D01*
X148201047Y-127587523D01*
X148343904Y-127587523D01*
X148439142Y-127635142D01*
X148486761Y-127682761D01*
X148534380Y-127778000D01*
X148534380Y-128158952D01*
X147534380Y-128158952D01*
X147534380Y-127825619D01*
X147582000Y-127730380D01*
X147629619Y-127682761D01*
X147724857Y-127635142D01*
X147820095Y-127635142D01*
X147915333Y-127682761D01*
X147962952Y-127730380D01*
X148010571Y-127825619D01*
X148010571Y-128158952D01*
X148534380Y-126635142D02*
X148534380Y-127206571D01*
X148534380Y-126920857D02*
X147534380Y-126920857D01*
X147677238Y-127016095D01*
X147772476Y-127111333D01*
X147820095Y-127206571D01*
%TO.C,C4*%
X88455142Y-106338666D02*
X88502761Y-106386285D01*
X88550380Y-106529142D01*
X88550380Y-106624380D01*
X88502761Y-106767238D01*
X88407523Y-106862476D01*
X88312285Y-106910095D01*
X88121809Y-106957714D01*
X87978952Y-106957714D01*
X87788476Y-106910095D01*
X87693238Y-106862476D01*
X87598000Y-106767238D01*
X87550380Y-106624380D01*
X87550380Y-106529142D01*
X87598000Y-106386285D01*
X87645619Y-106338666D01*
X87883714Y-105481523D02*
X88550380Y-105481523D01*
X87502761Y-105719619D02*
X88217047Y-105957714D01*
X88217047Y-105338666D01*
%TO.C,C1*%
X142049142Y-123062666D02*
X142096761Y-123110285D01*
X142144380Y-123253142D01*
X142144380Y-123348380D01*
X142096761Y-123491238D01*
X142001523Y-123586476D01*
X141906285Y-123634095D01*
X141715809Y-123681714D01*
X141572952Y-123681714D01*
X141382476Y-123634095D01*
X141287238Y-123586476D01*
X141192000Y-123491238D01*
X141144380Y-123348380D01*
X141144380Y-123253142D01*
X141192000Y-123110285D01*
X141239619Y-123062666D01*
X142144380Y-122110285D02*
X142144380Y-122681714D01*
X142144380Y-122396000D02*
X141144380Y-122396000D01*
X141287238Y-122491238D01*
X141382476Y-122586476D01*
X141430095Y-122681714D01*
%TO.C,R6*%
X142327333Y-136172380D02*
X141994000Y-135696190D01*
X141755904Y-136172380D02*
X141755904Y-135172380D01*
X142136857Y-135172380D01*
X142232095Y-135220000D01*
X142279714Y-135267619D01*
X142327333Y-135362857D01*
X142327333Y-135505714D01*
X142279714Y-135600952D01*
X142232095Y-135648571D01*
X142136857Y-135696190D01*
X141755904Y-135696190D01*
X143184476Y-135172380D02*
X142994000Y-135172380D01*
X142898761Y-135220000D01*
X142851142Y-135267619D01*
X142755904Y-135410476D01*
X142708285Y-135600952D01*
X142708285Y-135981904D01*
X142755904Y-136077142D01*
X142803523Y-136124761D01*
X142898761Y-136172380D01*
X143089238Y-136172380D01*
X143184476Y-136124761D01*
X143232095Y-136077142D01*
X143279714Y-135981904D01*
X143279714Y-135743809D01*
X143232095Y-135648571D01*
X143184476Y-135600952D01*
X143089238Y-135553333D01*
X142898761Y-135553333D01*
X142803523Y-135600952D01*
X142755904Y-135648571D01*
X142708285Y-135743809D01*
%TO.C,R2*%
X94829333Y-89944380D02*
X94496000Y-89468190D01*
X94257904Y-89944380D02*
X94257904Y-88944380D01*
X94638857Y-88944380D01*
X94734095Y-88992000D01*
X94781714Y-89039619D01*
X94829333Y-89134857D01*
X94829333Y-89277714D01*
X94781714Y-89372952D01*
X94734095Y-89420571D01*
X94638857Y-89468190D01*
X94257904Y-89468190D01*
X95210285Y-89039619D02*
X95257904Y-88992000D01*
X95353142Y-88944380D01*
X95591238Y-88944380D01*
X95686476Y-88992000D01*
X95734095Y-89039619D01*
X95781714Y-89134857D01*
X95781714Y-89230095D01*
X95734095Y-89372952D01*
X95162666Y-89944380D01*
X95781714Y-89944380D01*
%TO.C,C3*%
X136022221Y-96683142D02*
X135974602Y-96730761D01*
X135831745Y-96778380D01*
X135736507Y-96778380D01*
X135593649Y-96730761D01*
X135498411Y-96635523D01*
X135450792Y-96540285D01*
X135403173Y-96349809D01*
X135403173Y-96206952D01*
X135450792Y-96016476D01*
X135498411Y-95921238D01*
X135593649Y-95826000D01*
X135736507Y-95778380D01*
X135831745Y-95778380D01*
X135974602Y-95826000D01*
X136022221Y-95873619D01*
X136355554Y-95778380D02*
X136974602Y-95778380D01*
X136641268Y-96159333D01*
X136784126Y-96159333D01*
X136879364Y-96206952D01*
X136926983Y-96254571D01*
X136974602Y-96349809D01*
X136974602Y-96587904D01*
X136926983Y-96683142D01*
X136879364Y-96730761D01*
X136784126Y-96778380D01*
X136498411Y-96778380D01*
X136403173Y-96730761D01*
X136355554Y-96683142D01*
%TO.C,PSL1*%
X75185952Y-75304380D02*
X75185952Y-74304380D01*
X75566904Y-74304380D01*
X75662142Y-74352000D01*
X75709761Y-74399619D01*
X75757380Y-74494857D01*
X75757380Y-74637714D01*
X75709761Y-74732952D01*
X75662142Y-74780571D01*
X75566904Y-74828190D01*
X75185952Y-74828190D01*
X76138333Y-75256761D02*
X76281190Y-75304380D01*
X76519285Y-75304380D01*
X76614523Y-75256761D01*
X76662142Y-75209142D01*
X76709761Y-75113904D01*
X76709761Y-75018666D01*
X76662142Y-74923428D01*
X76614523Y-74875809D01*
X76519285Y-74828190D01*
X76328809Y-74780571D01*
X76233571Y-74732952D01*
X76185952Y-74685333D01*
X76138333Y-74590095D01*
X76138333Y-74494857D01*
X76185952Y-74399619D01*
X76233571Y-74352000D01*
X76328809Y-74304380D01*
X76566904Y-74304380D01*
X76709761Y-74352000D01*
X77614523Y-75304380D02*
X77138333Y-75304380D01*
X77138333Y-74304380D01*
X78471666Y-75304380D02*
X77900238Y-75304380D01*
X78185952Y-75304380D02*
X78185952Y-74304380D01*
X78090714Y-74447238D01*
X77995476Y-74542476D01*
X77900238Y-74590095D01*
%TO.C,LS_FR1*%
X41776380Y-107900380D02*
X41776380Y-108376571D01*
X40776380Y-108376571D01*
X41728761Y-107614666D02*
X41776380Y-107471809D01*
X41776380Y-107233714D01*
X41728761Y-107138476D01*
X41681142Y-107090857D01*
X41585904Y-107043238D01*
X41490666Y-107043238D01*
X41395428Y-107090857D01*
X41347809Y-107138476D01*
X41300190Y-107233714D01*
X41252571Y-107424190D01*
X41204952Y-107519428D01*
X41157333Y-107567047D01*
X41062095Y-107614666D01*
X40966857Y-107614666D01*
X40871619Y-107567047D01*
X40824000Y-107519428D01*
X40776380Y-107424190D01*
X40776380Y-107186095D01*
X40824000Y-107043238D01*
X41871619Y-106852761D02*
X41871619Y-106090857D01*
X41252571Y-105519428D02*
X41252571Y-105852761D01*
X41776380Y-105852761D02*
X40776380Y-105852761D01*
X40776380Y-105376571D01*
X41776380Y-104424190D02*
X41300190Y-104757523D01*
X41776380Y-104995619D02*
X40776380Y-104995619D01*
X40776380Y-104614666D01*
X40824000Y-104519428D01*
X40871619Y-104471809D01*
X40966857Y-104424190D01*
X41109714Y-104424190D01*
X41204952Y-104471809D01*
X41252571Y-104519428D01*
X41300190Y-104614666D01*
X41300190Y-104995619D01*
X41776380Y-103471809D02*
X41776380Y-104043238D01*
X41776380Y-103757523D02*
X40776380Y-103757523D01*
X40919238Y-103852761D01*
X41014476Y-103948000D01*
X41062095Y-104043238D01*
%TO.C,PSFC1*%
X118604142Y-75304380D02*
X118604142Y-74304380D01*
X118985095Y-74304380D01*
X119080333Y-74352000D01*
X119127952Y-74399619D01*
X119175571Y-74494857D01*
X119175571Y-74637714D01*
X119127952Y-74732952D01*
X119080333Y-74780571D01*
X118985095Y-74828190D01*
X118604142Y-74828190D01*
X119556523Y-75256761D02*
X119699380Y-75304380D01*
X119937476Y-75304380D01*
X120032714Y-75256761D01*
X120080333Y-75209142D01*
X120127952Y-75113904D01*
X120127952Y-75018666D01*
X120080333Y-74923428D01*
X120032714Y-74875809D01*
X119937476Y-74828190D01*
X119747000Y-74780571D01*
X119651761Y-74732952D01*
X119604142Y-74685333D01*
X119556523Y-74590095D01*
X119556523Y-74494857D01*
X119604142Y-74399619D01*
X119651761Y-74352000D01*
X119747000Y-74304380D01*
X119985095Y-74304380D01*
X120127952Y-74352000D01*
X120889857Y-74780571D02*
X120556523Y-74780571D01*
X120556523Y-75304380D02*
X120556523Y-74304380D01*
X121032714Y-74304380D01*
X121985095Y-75209142D02*
X121937476Y-75256761D01*
X121794619Y-75304380D01*
X121699380Y-75304380D01*
X121556523Y-75256761D01*
X121461285Y-75161523D01*
X121413666Y-75066285D01*
X121366047Y-74875809D01*
X121366047Y-74732952D01*
X121413666Y-74542476D01*
X121461285Y-74447238D01*
X121556523Y-74352000D01*
X121699380Y-74304380D01*
X121794619Y-74304380D01*
X121937476Y-74352000D01*
X121985095Y-74399619D01*
X122937476Y-75304380D02*
X122366047Y-75304380D01*
X122651761Y-75304380D02*
X122651761Y-74304380D01*
X122556523Y-74447238D01*
X122461285Y-74542476D01*
X122366047Y-74590095D01*
%TO.C,R3*%
X124547333Y-85458380D02*
X124214000Y-84982190D01*
X123975904Y-85458380D02*
X123975904Y-84458380D01*
X124356857Y-84458380D01*
X124452095Y-84506000D01*
X124499714Y-84553619D01*
X124547333Y-84648857D01*
X124547333Y-84791714D01*
X124499714Y-84886952D01*
X124452095Y-84934571D01*
X124356857Y-84982190D01*
X123975904Y-84982190D01*
X124880666Y-84458380D02*
X125499714Y-84458380D01*
X125166380Y-84839333D01*
X125309238Y-84839333D01*
X125404476Y-84886952D01*
X125452095Y-84934571D01*
X125499714Y-85029809D01*
X125499714Y-85267904D01*
X125452095Y-85363142D01*
X125404476Y-85410761D01*
X125309238Y-85458380D01*
X125023523Y-85458380D01*
X124928285Y-85410761D01*
X124880666Y-85363142D01*
%TO.C,SW1*%
X74866666Y-141374761D02*
X75009523Y-141422380D01*
X75247619Y-141422380D01*
X75342857Y-141374761D01*
X75390476Y-141327142D01*
X75438095Y-141231904D01*
X75438095Y-141136666D01*
X75390476Y-141041428D01*
X75342857Y-140993809D01*
X75247619Y-140946190D01*
X75057142Y-140898571D01*
X74961904Y-140850952D01*
X74914285Y-140803333D01*
X74866666Y-140708095D01*
X74866666Y-140612857D01*
X74914285Y-140517619D01*
X74961904Y-140470000D01*
X75057142Y-140422380D01*
X75295238Y-140422380D01*
X75438095Y-140470000D01*
X75771428Y-140422380D02*
X76009523Y-141422380D01*
X76200000Y-140708095D01*
X76390476Y-141422380D01*
X76628571Y-140422380D01*
X77533333Y-141422380D02*
X76961904Y-141422380D01*
X77247619Y-141422380D02*
X77247619Y-140422380D01*
X77152380Y-140565238D01*
X77057142Y-140660476D01*
X76961904Y-140708095D01*
%TO.C,Pow1*%
X41346380Y-93154285D02*
X40346380Y-93154285D01*
X40346380Y-92773333D01*
X40394000Y-92678095D01*
X40441619Y-92630476D01*
X40536857Y-92582857D01*
X40679714Y-92582857D01*
X40774952Y-92630476D01*
X40822571Y-92678095D01*
X40870190Y-92773333D01*
X40870190Y-93154285D01*
X41346380Y-92011428D02*
X41298761Y-92106666D01*
X41251142Y-92154285D01*
X41155904Y-92201904D01*
X40870190Y-92201904D01*
X40774952Y-92154285D01*
X40727333Y-92106666D01*
X40679714Y-92011428D01*
X40679714Y-91868571D01*
X40727333Y-91773333D01*
X40774952Y-91725714D01*
X40870190Y-91678095D01*
X41155904Y-91678095D01*
X41251142Y-91725714D01*
X41298761Y-91773333D01*
X41346380Y-91868571D01*
X41346380Y-92011428D01*
X40679714Y-91344761D02*
X41346380Y-91154285D01*
X40870190Y-90963809D01*
X41346380Y-90773333D01*
X40679714Y-90582857D01*
X41346380Y-89678095D02*
X41346380Y-90249523D01*
X41346380Y-89963809D02*
X40346380Y-89963809D01*
X40489238Y-90059047D01*
X40584476Y-90154285D01*
X40632095Y-90249523D01*
%TO.C,GYRO1*%
X140769258Y-101877000D02*
X140674020Y-101829380D01*
X140531163Y-101829380D01*
X140388305Y-101877000D01*
X140293067Y-101972238D01*
X140245448Y-102067476D01*
X140197829Y-102257952D01*
X140197829Y-102400809D01*
X140245448Y-102591285D01*
X140293067Y-102686523D01*
X140388305Y-102781761D01*
X140531163Y-102829380D01*
X140626401Y-102829380D01*
X140769258Y-102781761D01*
X140816877Y-102734142D01*
X140816877Y-102400809D01*
X140626401Y-102400809D01*
X141435925Y-102353190D02*
X141435925Y-102829380D01*
X141102591Y-101829380D02*
X141435925Y-102353190D01*
X141769258Y-101829380D01*
X142674020Y-102829380D02*
X142340686Y-102353190D01*
X142102591Y-102829380D02*
X142102591Y-101829380D01*
X142483544Y-101829380D01*
X142578782Y-101877000D01*
X142626401Y-101924619D01*
X142674020Y-102019857D01*
X142674020Y-102162714D01*
X142626401Y-102257952D01*
X142578782Y-102305571D01*
X142483544Y-102353190D01*
X142102591Y-102353190D01*
X143293067Y-101829380D02*
X143483544Y-101829380D01*
X143578782Y-101877000D01*
X143674020Y-101972238D01*
X143721639Y-102162714D01*
X143721639Y-102496047D01*
X143674020Y-102686523D01*
X143578782Y-102781761D01*
X143483544Y-102829380D01*
X143293067Y-102829380D01*
X143197829Y-102781761D01*
X143102591Y-102686523D01*
X143054972Y-102496047D01*
X143054972Y-102162714D01*
X143102591Y-101972238D01*
X143197829Y-101877000D01*
X143293067Y-101829380D01*
X144674020Y-102829380D02*
X144102591Y-102829380D01*
X144388305Y-102829380D02*
X144388305Y-101829380D01*
X144293067Y-101972238D01*
X144197829Y-102067476D01*
X144102591Y-102115095D01*
%TO.C,PS_R1*%
X146620305Y-95612238D02*
X145620305Y-95612238D01*
X145620305Y-95231285D01*
X145667925Y-95136047D01*
X145715544Y-95088428D01*
X145810782Y-95040809D01*
X145953639Y-95040809D01*
X146048877Y-95088428D01*
X146096496Y-95136047D01*
X146144115Y-95231285D01*
X146144115Y-95612238D01*
X146572686Y-94659857D02*
X146620305Y-94517000D01*
X146620305Y-94278904D01*
X146572686Y-94183666D01*
X146525067Y-94136047D01*
X146429829Y-94088428D01*
X146334591Y-94088428D01*
X146239353Y-94136047D01*
X146191734Y-94183666D01*
X146144115Y-94278904D01*
X146096496Y-94469380D01*
X146048877Y-94564619D01*
X146001258Y-94612238D01*
X145906020Y-94659857D01*
X145810782Y-94659857D01*
X145715544Y-94612238D01*
X145667925Y-94564619D01*
X145620305Y-94469380D01*
X145620305Y-94231285D01*
X145667925Y-94088428D01*
X146715544Y-93897952D02*
X146715544Y-93136047D01*
X146620305Y-92326523D02*
X146144115Y-92659857D01*
X146620305Y-92897952D02*
X145620305Y-92897952D01*
X145620305Y-92517000D01*
X145667925Y-92421761D01*
X145715544Y-92374142D01*
X145810782Y-92326523D01*
X145953639Y-92326523D01*
X146048877Y-92374142D01*
X146096496Y-92421761D01*
X146144115Y-92517000D01*
X146144115Y-92897952D01*
X146620305Y-91374142D02*
X146620305Y-91945571D01*
X146620305Y-91659857D02*
X145620305Y-91659857D01*
X145763163Y-91755095D01*
X145858401Y-91850333D01*
X145906020Y-91945571D01*
%TO.C,R1*%
X79784380Y-89320666D02*
X79308190Y-89654000D01*
X79784380Y-89892095D02*
X78784380Y-89892095D01*
X78784380Y-89511142D01*
X78832000Y-89415904D01*
X78879619Y-89368285D01*
X78974857Y-89320666D01*
X79117714Y-89320666D01*
X79212952Y-89368285D01*
X79260571Y-89415904D01*
X79308190Y-89511142D01*
X79308190Y-89892095D01*
X79784380Y-88368285D02*
X79784380Y-88939714D01*
X79784380Y-88654000D02*
X78784380Y-88654000D01*
X78927238Y-88749238D01*
X79022476Y-88844476D01*
X79070095Y-88939714D01*
%TO.C,U1*%
X78446380Y-119125904D02*
X79255904Y-119125904D01*
X79351142Y-119078285D01*
X79398761Y-119030666D01*
X79446380Y-118935428D01*
X79446380Y-118744952D01*
X79398761Y-118649714D01*
X79351142Y-118602095D01*
X79255904Y-118554476D01*
X78446380Y-118554476D01*
X79446380Y-117554476D02*
X79446380Y-118125904D01*
X79446380Y-117840190D02*
X78446380Y-117840190D01*
X78589238Y-117935428D01*
X78684476Y-118030666D01*
X78732095Y-118125904D01*
%TO.C,C2*%
X104481333Y-137477142D02*
X104433714Y-137524761D01*
X104290857Y-137572380D01*
X104195619Y-137572380D01*
X104052761Y-137524761D01*
X103957523Y-137429523D01*
X103909904Y-137334285D01*
X103862285Y-137143809D01*
X103862285Y-137000952D01*
X103909904Y-136810476D01*
X103957523Y-136715238D01*
X104052761Y-136620000D01*
X104195619Y-136572380D01*
X104290857Y-136572380D01*
X104433714Y-136620000D01*
X104481333Y-136667619D01*
X104862285Y-136667619D02*
X104909904Y-136620000D01*
X105005142Y-136572380D01*
X105243238Y-136572380D01*
X105338476Y-136620000D01*
X105386095Y-136667619D01*
X105433714Y-136762857D01*
X105433714Y-136858095D01*
X105386095Y-137000952D01*
X104814666Y-137572380D01*
X105433714Y-137572380D01*
%TO.C,R5*%
X141846380Y-96178666D02*
X141370190Y-96512000D01*
X141846380Y-96750095D02*
X140846380Y-96750095D01*
X140846380Y-96369142D01*
X140894000Y-96273904D01*
X140941619Y-96226285D01*
X141036857Y-96178666D01*
X141179714Y-96178666D01*
X141274952Y-96226285D01*
X141322571Y-96273904D01*
X141370190Y-96369142D01*
X141370190Y-96750095D01*
X140846380Y-95273904D02*
X140846380Y-95750095D01*
X141322571Y-95797714D01*
X141274952Y-95750095D01*
X141227333Y-95654857D01*
X141227333Y-95416761D01*
X141274952Y-95321523D01*
X141322571Y-95273904D01*
X141417809Y-95226285D01*
X141655904Y-95226285D01*
X141751142Y-95273904D01*
X141798761Y-95321523D01*
X141846380Y-95416761D01*
X141846380Y-95654857D01*
X141798761Y-95750095D01*
X141751142Y-95797714D01*
%TO.C,R4*%
X139787333Y-85712380D02*
X139454000Y-85236190D01*
X139215904Y-85712380D02*
X139215904Y-84712380D01*
X139596857Y-84712380D01*
X139692095Y-84760000D01*
X139739714Y-84807619D01*
X139787333Y-84902857D01*
X139787333Y-85045714D01*
X139739714Y-85140952D01*
X139692095Y-85188571D01*
X139596857Y-85236190D01*
X139215904Y-85236190D01*
X140644476Y-85045714D02*
X140644476Y-85712380D01*
X140406380Y-84664761D02*
X140168285Y-85379047D01*
X140787333Y-85379047D01*
%TO.C,MCU1*%
X121610666Y-129230380D02*
X121610666Y-128230380D01*
X121944000Y-128944666D01*
X122277333Y-128230380D01*
X122277333Y-129230380D01*
X123324952Y-129135142D02*
X123277333Y-129182761D01*
X123134476Y-129230380D01*
X123039238Y-129230380D01*
X122896380Y-129182761D01*
X122801142Y-129087523D01*
X122753523Y-128992285D01*
X122705904Y-128801809D01*
X122705904Y-128658952D01*
X122753523Y-128468476D01*
X122801142Y-128373238D01*
X122896380Y-128278000D01*
X123039238Y-128230380D01*
X123134476Y-128230380D01*
X123277333Y-128278000D01*
X123324952Y-128325619D01*
X123753523Y-128230380D02*
X123753523Y-129039904D01*
X123801142Y-129135142D01*
X123848761Y-129182761D01*
X123944000Y-129230380D01*
X124134476Y-129230380D01*
X124229714Y-129182761D01*
X124277333Y-129135142D01*
X124324952Y-129039904D01*
X124324952Y-128230380D01*
X125324952Y-129230380D02*
X124753523Y-129230380D01*
X125039238Y-129230380D02*
X125039238Y-128230380D01*
X124944000Y-128373238D01*
X124848761Y-128468476D01*
X124753523Y-128516095D01*
%TO.C,LS_BR1*%
X141710190Y-142949380D02*
X141234000Y-142949380D01*
X141234000Y-141949380D01*
X141995904Y-142901761D02*
X142138761Y-142949380D01*
X142376857Y-142949380D01*
X142472095Y-142901761D01*
X142519714Y-142854142D01*
X142567333Y-142758904D01*
X142567333Y-142663666D01*
X142519714Y-142568428D01*
X142472095Y-142520809D01*
X142376857Y-142473190D01*
X142186380Y-142425571D01*
X142091142Y-142377952D01*
X142043523Y-142330333D01*
X141995904Y-142235095D01*
X141995904Y-142139857D01*
X142043523Y-142044619D01*
X142091142Y-141997000D01*
X142186380Y-141949380D01*
X142424476Y-141949380D01*
X142567333Y-141997000D01*
X142757809Y-143044619D02*
X143519714Y-143044619D01*
X144091142Y-142425571D02*
X144234000Y-142473190D01*
X144281619Y-142520809D01*
X144329238Y-142616047D01*
X144329238Y-142758904D01*
X144281619Y-142854142D01*
X144234000Y-142901761D01*
X144138761Y-142949380D01*
X143757809Y-142949380D01*
X143757809Y-141949380D01*
X144091142Y-141949380D01*
X144186380Y-141997000D01*
X144234000Y-142044619D01*
X144281619Y-142139857D01*
X144281619Y-142235095D01*
X144234000Y-142330333D01*
X144186380Y-142377952D01*
X144091142Y-142425571D01*
X143757809Y-142425571D01*
X145329238Y-142949380D02*
X144995904Y-142473190D01*
X144757809Y-142949380D02*
X144757809Y-141949380D01*
X145138761Y-141949380D01*
X145234000Y-141997000D01*
X145281619Y-142044619D01*
X145329238Y-142139857D01*
X145329238Y-142282714D01*
X145281619Y-142377952D01*
X145234000Y-142425571D01*
X145138761Y-142473190D01*
X144757809Y-142473190D01*
X146281619Y-142949380D02*
X145710190Y-142949380D01*
X145995904Y-142949380D02*
X145995904Y-141949380D01*
X145900666Y-142092238D01*
X145805428Y-142187476D01*
X145710190Y-142235095D01*
%TO.C,PSFR1*%
X140575142Y-75304380D02*
X140575142Y-74304380D01*
X140956095Y-74304380D01*
X141051333Y-74352000D01*
X141098952Y-74399619D01*
X141146571Y-74494857D01*
X141146571Y-74637714D01*
X141098952Y-74732952D01*
X141051333Y-74780571D01*
X140956095Y-74828190D01*
X140575142Y-74828190D01*
X141527523Y-75256761D02*
X141670380Y-75304380D01*
X141908476Y-75304380D01*
X142003714Y-75256761D01*
X142051333Y-75209142D01*
X142098952Y-75113904D01*
X142098952Y-75018666D01*
X142051333Y-74923428D01*
X142003714Y-74875809D01*
X141908476Y-74828190D01*
X141718000Y-74780571D01*
X141622761Y-74732952D01*
X141575142Y-74685333D01*
X141527523Y-74590095D01*
X141527523Y-74494857D01*
X141575142Y-74399619D01*
X141622761Y-74352000D01*
X141718000Y-74304380D01*
X141956095Y-74304380D01*
X142098952Y-74352000D01*
X142860857Y-74780571D02*
X142527523Y-74780571D01*
X142527523Y-75304380D02*
X142527523Y-74304380D01*
X143003714Y-74304380D01*
X143956095Y-75304380D02*
X143622761Y-74828190D01*
X143384666Y-75304380D02*
X143384666Y-74304380D01*
X143765619Y-74304380D01*
X143860857Y-74352000D01*
X143908476Y-74399619D01*
X143956095Y-74494857D01*
X143956095Y-74637714D01*
X143908476Y-74732952D01*
X143860857Y-74780571D01*
X143765619Y-74828190D01*
X143384666Y-74828190D01*
X144908476Y-75304380D02*
X144337047Y-75304380D01*
X144622761Y-75304380D02*
X144622761Y-74304380D01*
X144527523Y-74447238D01*
X144432285Y-74542476D01*
X144337047Y-74590095D01*
%TO.C,LS_BL1*%
X55699428Y-142949380D02*
X55223238Y-142949380D01*
X55223238Y-141949380D01*
X55985142Y-142901761D02*
X56128000Y-142949380D01*
X56366095Y-142949380D01*
X56461333Y-142901761D01*
X56508952Y-142854142D01*
X56556571Y-142758904D01*
X56556571Y-142663666D01*
X56508952Y-142568428D01*
X56461333Y-142520809D01*
X56366095Y-142473190D01*
X56175619Y-142425571D01*
X56080380Y-142377952D01*
X56032761Y-142330333D01*
X55985142Y-142235095D01*
X55985142Y-142139857D01*
X56032761Y-142044619D01*
X56080380Y-141997000D01*
X56175619Y-141949380D01*
X56413714Y-141949380D01*
X56556571Y-141997000D01*
X56747047Y-143044619D02*
X57508952Y-143044619D01*
X58080380Y-142425571D02*
X58223238Y-142473190D01*
X58270857Y-142520809D01*
X58318476Y-142616047D01*
X58318476Y-142758904D01*
X58270857Y-142854142D01*
X58223238Y-142901761D01*
X58128000Y-142949380D01*
X57747047Y-142949380D01*
X57747047Y-141949380D01*
X58080380Y-141949380D01*
X58175619Y-141997000D01*
X58223238Y-142044619D01*
X58270857Y-142139857D01*
X58270857Y-142235095D01*
X58223238Y-142330333D01*
X58175619Y-142377952D01*
X58080380Y-142425571D01*
X57747047Y-142425571D01*
X59223238Y-142949380D02*
X58747047Y-142949380D01*
X58747047Y-141949380D01*
X60080380Y-142949380D02*
X59508952Y-142949380D01*
X59794666Y-142949380D02*
X59794666Y-141949380D01*
X59699428Y-142092238D01*
X59604190Y-142187476D01*
X59508952Y-142235095D01*
%TO.C,PSFL1*%
X96728380Y-75304380D02*
X96728380Y-74304380D01*
X97109333Y-74304380D01*
X97204571Y-74352000D01*
X97252190Y-74399619D01*
X97299809Y-74494857D01*
X97299809Y-74637714D01*
X97252190Y-74732952D01*
X97204571Y-74780571D01*
X97109333Y-74828190D01*
X96728380Y-74828190D01*
X97680761Y-75256761D02*
X97823619Y-75304380D01*
X98061714Y-75304380D01*
X98156952Y-75256761D01*
X98204571Y-75209142D01*
X98252190Y-75113904D01*
X98252190Y-75018666D01*
X98204571Y-74923428D01*
X98156952Y-74875809D01*
X98061714Y-74828190D01*
X97871238Y-74780571D01*
X97776000Y-74732952D01*
X97728380Y-74685333D01*
X97680761Y-74590095D01*
X97680761Y-74494857D01*
X97728380Y-74399619D01*
X97776000Y-74352000D01*
X97871238Y-74304380D01*
X98109333Y-74304380D01*
X98252190Y-74352000D01*
X99014095Y-74780571D02*
X98680761Y-74780571D01*
X98680761Y-75304380D02*
X98680761Y-74304380D01*
X99156952Y-74304380D01*
X100014095Y-75304380D02*
X99537904Y-75304380D01*
X99537904Y-74304380D01*
X100871238Y-75304380D02*
X100299809Y-75304380D01*
X100585523Y-75304380D02*
X100585523Y-74304380D01*
X100490285Y-74447238D01*
X100395047Y-74542476D01*
X100299809Y-74590095D01*
%TO.C,RC1*%
X41346380Y-123856666D02*
X40870190Y-124190000D01*
X41346380Y-124428095D02*
X40346380Y-124428095D01*
X40346380Y-124047142D01*
X40394000Y-123951904D01*
X40441619Y-123904285D01*
X40536857Y-123856666D01*
X40679714Y-123856666D01*
X40774952Y-123904285D01*
X40822571Y-123951904D01*
X40870190Y-124047142D01*
X40870190Y-124428095D01*
X41251142Y-122856666D02*
X41298761Y-122904285D01*
X41346380Y-123047142D01*
X41346380Y-123142380D01*
X41298761Y-123285238D01*
X41203523Y-123380476D01*
X41108285Y-123428095D01*
X40917809Y-123475714D01*
X40774952Y-123475714D01*
X40584476Y-123428095D01*
X40489238Y-123380476D01*
X40394000Y-123285238D01*
X40346380Y-123142380D01*
X40346380Y-123047142D01*
X40394000Y-122904285D01*
X40441619Y-122856666D01*
X41346380Y-121904285D02*
X41346380Y-122475714D01*
X41346380Y-122190000D02*
X40346380Y-122190000D01*
X40489238Y-122285238D01*
X40584476Y-122380476D01*
X40632095Y-122475714D01*
%TO.C,LS_FL1*%
X52976857Y-75304380D02*
X52500666Y-75304380D01*
X52500666Y-74304380D01*
X53262571Y-75256761D02*
X53405428Y-75304380D01*
X53643523Y-75304380D01*
X53738761Y-75256761D01*
X53786380Y-75209142D01*
X53834000Y-75113904D01*
X53834000Y-75018666D01*
X53786380Y-74923428D01*
X53738761Y-74875809D01*
X53643523Y-74828190D01*
X53453047Y-74780571D01*
X53357809Y-74732952D01*
X53310190Y-74685333D01*
X53262571Y-74590095D01*
X53262571Y-74494857D01*
X53310190Y-74399619D01*
X53357809Y-74352000D01*
X53453047Y-74304380D01*
X53691142Y-74304380D01*
X53834000Y-74352000D01*
X54024476Y-75399619D02*
X54786380Y-75399619D01*
X55357809Y-74780571D02*
X55024476Y-74780571D01*
X55024476Y-75304380D02*
X55024476Y-74304380D01*
X55500666Y-74304380D01*
X56357809Y-75304380D02*
X55881619Y-75304380D01*
X55881619Y-74304380D01*
X57214952Y-75304380D02*
X56643523Y-75304380D01*
X56929238Y-75304380D02*
X56929238Y-74304380D01*
X56834000Y-74447238D01*
X56738761Y-74542476D01*
X56643523Y-74590095D01*
%TO.C,SW2*%
X41838761Y-137425333D02*
X41886380Y-137282476D01*
X41886380Y-137044380D01*
X41838761Y-136949142D01*
X41791142Y-136901523D01*
X41695904Y-136853904D01*
X41600666Y-136853904D01*
X41505428Y-136901523D01*
X41457809Y-136949142D01*
X41410190Y-137044380D01*
X41362571Y-137234857D01*
X41314952Y-137330095D01*
X41267333Y-137377714D01*
X41172095Y-137425333D01*
X41076857Y-137425333D01*
X40981619Y-137377714D01*
X40934000Y-137330095D01*
X40886380Y-137234857D01*
X40886380Y-136996761D01*
X40934000Y-136853904D01*
X40886380Y-136520571D02*
X41886380Y-136282476D01*
X41172095Y-136092000D01*
X41886380Y-135901523D01*
X40886380Y-135663428D01*
X40981619Y-135330095D02*
X40934000Y-135282476D01*
X40886380Y-135187238D01*
X40886380Y-134949142D01*
X40934000Y-134853904D01*
X40981619Y-134806285D01*
X41076857Y-134758666D01*
X41172095Y-134758666D01*
X41314952Y-134806285D01*
X41886380Y-135377714D01*
X41886380Y-134758666D01*
D11*
%TO.C,PS_B1*%
X149098000Y-140970000D02*
X149098000Y-125730000D01*
X156718000Y-140970000D02*
X149098000Y-140970000D01*
X156718000Y-125730000D02*
X149098000Y-125730000D01*
X156718000Y-140970000D02*
X156718000Y-125730000D01*
X155448000Y-140970000D02*
X155448000Y-125730000D01*
%TO.C,C4*%
X86968000Y-103052000D02*
X86968000Y-109292000D01*
X84673000Y-103052000D02*
X84228000Y-103052000D01*
X86968000Y-109292000D02*
X86523000Y-109292000D01*
X84673000Y-109292000D02*
X84228000Y-109292000D01*
X86968000Y-103052000D02*
X86523000Y-103052000D01*
X84228000Y-103052000D02*
X84228000Y-109292000D01*
%TO.C,C1*%
X140562000Y-119776000D02*
X140562000Y-126016000D01*
X140562000Y-119776000D02*
X140117000Y-119776000D01*
X138267000Y-119776000D02*
X137822000Y-119776000D01*
X140562000Y-126016000D02*
X140117000Y-126016000D01*
X138267000Y-126016000D02*
X137822000Y-126016000D01*
X137822000Y-119776000D02*
X137822000Y-126016000D01*
%TO.C,R6*%
X139224000Y-134720000D02*
X139224000Y-134390000D01*
X145764000Y-131980000D02*
X139224000Y-131980000D01*
X139224000Y-131980000D02*
X139224000Y-132310000D01*
X145764000Y-132310000D02*
X145764000Y-131980000D01*
X145764000Y-134720000D02*
X139224000Y-134720000D01*
X145764000Y-134390000D02*
X145764000Y-134720000D01*
%TO.C,MD1*%
X100390000Y-143510000D02*
X100390000Y-133290000D01*
X95190000Y-146110000D02*
X95190000Y-133290000D01*
X97790000Y-146110000D02*
X95190000Y-146110000D01*
X97790000Y-143510000D02*
X97790000Y-146110000D01*
X100390000Y-144780000D02*
X100390000Y-146110000D01*
X100390000Y-133290000D02*
X95190000Y-133290000D01*
X100390000Y-146110000D02*
X99060000Y-146110000D01*
X100390000Y-143510000D02*
X97790000Y-143510000D01*
%TO.C,R2*%
X91726000Y-88492000D02*
X91726000Y-88162000D01*
X98266000Y-85752000D02*
X91726000Y-85752000D01*
X91726000Y-85752000D02*
X91726000Y-86082000D01*
X98266000Y-88162000D02*
X98266000Y-88492000D01*
X98266000Y-88492000D02*
X91726000Y-88492000D01*
X98266000Y-86082000D02*
X98266000Y-85752000D01*
%TO.C,C3*%
X137069888Y-97648000D02*
X137069888Y-99036000D01*
X137669888Y-101116000D02*
X137669888Y-102198000D01*
X133634113Y-98351000D02*
X133634113Y-98851000D01*
X138109888Y-101116000D02*
X138109888Y-101819000D01*
X138069888Y-98291000D02*
X138069888Y-99036000D01*
X137509888Y-101116000D02*
X137509888Y-102300000D01*
X137789888Y-101116000D02*
X137789888Y-102111000D01*
X137669888Y-97954000D02*
X137669888Y-99036000D01*
X138789888Y-99792000D02*
X138789888Y-100360000D01*
X137269888Y-101116000D02*
X137269888Y-102424000D01*
X137469888Y-97829000D02*
X137469888Y-99036000D01*
X136909888Y-101116000D02*
X136909888Y-102556000D01*
X138429888Y-98757000D02*
X138429888Y-99036000D01*
X138229888Y-98471000D02*
X138229888Y-99036000D01*
X138669888Y-99271000D02*
X138669888Y-100881000D01*
X137589888Y-101116000D02*
X137589888Y-102251000D01*
X137109888Y-101116000D02*
X137109888Y-102490000D01*
X136628888Y-97533000D02*
X136628888Y-99036000D01*
X137909888Y-101116000D02*
X137909888Y-102013000D01*
X137309888Y-97747000D02*
X137309888Y-99036000D01*
X137069888Y-101116000D02*
X137069888Y-102504000D01*
X138109888Y-98333000D02*
X138109888Y-99036000D01*
X138749888Y-99558000D02*
X138749888Y-100594000D01*
X137589888Y-97901000D02*
X137589888Y-99036000D01*
X136708888Y-101116000D02*
X136708888Y-102604000D01*
X138149888Y-98377000D02*
X138149888Y-99036000D01*
X137909888Y-98139000D02*
X137909888Y-99036000D01*
X136628888Y-101116000D02*
X136628888Y-102619000D01*
X137229888Y-97711000D02*
X137229888Y-99036000D01*
X136588888Y-97526000D02*
X136588888Y-99036000D01*
X136989888Y-101116000D02*
X136989888Y-102531000D01*
X138629888Y-99161000D02*
X138629888Y-100991000D01*
X137389888Y-97786000D02*
X137389888Y-99036000D01*
X136949888Y-101116000D02*
X136949888Y-102544000D01*
X136668888Y-97540000D02*
X136668888Y-99036000D01*
X137229888Y-101116000D02*
X137229888Y-102441000D01*
X136468888Y-97511000D02*
X136468888Y-99036000D01*
X137709888Y-101116000D02*
X137709888Y-102171000D01*
X138309888Y-101116000D02*
X138309888Y-101576000D01*
X137989888Y-101116000D02*
X137989888Y-101940000D01*
X138549888Y-98978000D02*
X138549888Y-101174000D01*
X138029888Y-98250000D02*
X138029888Y-99036000D01*
X136548888Y-97520000D02*
X136548888Y-99036000D01*
X137629888Y-101116000D02*
X137629888Y-102225000D01*
X138029888Y-101116000D02*
X138029888Y-101902000D01*
X136668888Y-101116000D02*
X136668888Y-102612000D01*
X137549888Y-101116000D02*
X137549888Y-102276000D01*
X137349888Y-97766000D02*
X137349888Y-99036000D01*
X136348888Y-97500000D02*
X136348888Y-102652000D01*
X137149888Y-101116000D02*
X137149888Y-102474000D01*
X137789888Y-98041000D02*
X137789888Y-99036000D01*
X137829888Y-101116000D02*
X137829888Y-102080000D01*
X138309888Y-98576000D02*
X138309888Y-99036000D01*
X136268888Y-97497000D02*
X136268888Y-102655000D01*
X137429888Y-101116000D02*
X137429888Y-102344000D01*
X136788888Y-97565000D02*
X136788888Y-99036000D01*
X137109888Y-97662000D02*
X137109888Y-99036000D01*
X137869888Y-101116000D02*
X137869888Y-102047000D01*
X136828888Y-97575000D02*
X136828888Y-99036000D01*
X136868888Y-97585000D02*
X136868888Y-99036000D01*
X136228888Y-97496000D02*
X136228888Y-102656000D01*
X136909888Y-97596000D02*
X136909888Y-99036000D01*
X136748888Y-101116000D02*
X136748888Y-102596000D01*
X136308888Y-97498000D02*
X136308888Y-102654000D01*
X138389888Y-98693000D02*
X138389888Y-99036000D01*
X137149888Y-97678000D02*
X137149888Y-99036000D01*
X133384113Y-98601000D02*
X133884113Y-98601000D01*
X137189888Y-97694000D02*
X137189888Y-99036000D01*
X136548888Y-101116000D02*
X136548888Y-102632000D01*
X138389888Y-101116000D02*
X138389888Y-101459000D01*
X136708888Y-97548000D02*
X136708888Y-99036000D01*
X137029888Y-101116000D02*
X137029888Y-102518000D01*
X136468888Y-101116000D02*
X136468888Y-102641000D01*
X138429888Y-101116000D02*
X138429888Y-101395000D01*
X137749888Y-98011000D02*
X137749888Y-99036000D01*
X136788888Y-101116000D02*
X136788888Y-102587000D01*
X137709888Y-97981000D02*
X137709888Y-99036000D01*
X136949888Y-97608000D02*
X136949888Y-99036000D01*
X137189888Y-101116000D02*
X137189888Y-102458000D01*
X136748888Y-97556000D02*
X136748888Y-99036000D01*
X136828888Y-101116000D02*
X136828888Y-102577000D01*
X137509888Y-97852000D02*
X137509888Y-99036000D01*
X137949888Y-98175000D02*
X137949888Y-99036000D01*
X136588888Y-101116000D02*
X136588888Y-102626000D01*
X138069888Y-101116000D02*
X138069888Y-101861000D01*
X137429888Y-97808000D02*
X137429888Y-99036000D01*
X137989888Y-98212000D02*
X137989888Y-99036000D01*
X138349888Y-101116000D02*
X138349888Y-101519000D01*
X138349888Y-98633000D02*
X138349888Y-99036000D01*
X136388888Y-97503000D02*
X136388888Y-102649000D01*
X138149888Y-101116000D02*
X138149888Y-101775000D01*
X136508888Y-97515000D02*
X136508888Y-99036000D01*
X138509888Y-98898000D02*
X138509888Y-101254000D01*
X137469888Y-101116000D02*
X137469888Y-102323000D01*
X136428888Y-97507000D02*
X136428888Y-99036000D01*
X136508888Y-101116000D02*
X136508888Y-102637000D01*
X137749888Y-101116000D02*
X137749888Y-102141000D01*
X138709888Y-99399000D02*
X138709888Y-100753000D01*
X137629888Y-97927000D02*
X137629888Y-99036000D01*
X136989888Y-97621000D02*
X136989888Y-99036000D01*
X138229888Y-101116000D02*
X138229888Y-101681000D01*
X137869888Y-98105000D02*
X137869888Y-99036000D01*
X137269888Y-97728000D02*
X137269888Y-99036000D01*
X138189888Y-98423000D02*
X138189888Y-99036000D01*
X137549888Y-97876000D02*
X137549888Y-99036000D01*
X136868888Y-101116000D02*
X136868888Y-102567000D01*
X137349888Y-101116000D02*
X137349888Y-102386000D01*
X138269888Y-98522000D02*
X138269888Y-99036000D01*
X136428888Y-101116000D02*
X136428888Y-102645000D01*
X138269888Y-101116000D02*
X138269888Y-101630000D01*
X137389888Y-101116000D02*
X137389888Y-102366000D01*
X137029888Y-97634000D02*
X137029888Y-99036000D01*
X137829888Y-98072000D02*
X137829888Y-99036000D01*
X138469888Y-101116000D02*
X138469888Y-101327000D01*
X138589888Y-99065000D02*
X138589888Y-101087000D01*
X138189888Y-101116000D02*
X138189888Y-101729000D01*
X136188888Y-97496000D02*
X136188888Y-102656000D01*
X137309888Y-101116000D02*
X137309888Y-102405000D01*
X138469888Y-98825000D02*
X138469888Y-99036000D01*
X137949888Y-101116000D02*
X137949888Y-101977000D01*
X138808888Y-100076000D02*
G75*
G03*
X138808888Y-100076000I-2620000J0D01*
G01*
%TO.C,PSL1*%
X69215000Y-75692000D02*
X84455000Y-75692000D01*
X69215000Y-82042000D02*
X84455000Y-82042000D01*
X69215000Y-83312000D02*
X84455000Y-83312000D01*
X84455000Y-83312000D02*
X84455000Y-75692000D01*
X69215000Y-83312000D02*
X69215000Y-75692000D01*
%TO.C,LS_FR1*%
X48514000Y-113538000D02*
X48514000Y-98298000D01*
X49784000Y-113538000D02*
X42164000Y-113538000D01*
X49784000Y-98298000D02*
X42164000Y-98298000D01*
X42164000Y-113538000D02*
X42164000Y-98298000D01*
X49784000Y-113538000D02*
X49784000Y-98298000D01*
%TO.C,PSFC1*%
X113157000Y-83312000D02*
X113157000Y-75692000D01*
X113157000Y-82042000D02*
X128397000Y-82042000D01*
X113157000Y-83312000D02*
X128397000Y-83312000D01*
X128397000Y-83312000D02*
X128397000Y-75692000D01*
X113157000Y-75692000D02*
X128397000Y-75692000D01*
%TO.C,R3*%
X121444000Y-86006000D02*
X127984000Y-86006000D01*
X127984000Y-88746000D02*
X127984000Y-88416000D01*
X121444000Y-88746000D02*
X127984000Y-88746000D01*
X121444000Y-86336000D02*
X121444000Y-86006000D01*
X121444000Y-88416000D02*
X121444000Y-88746000D01*
X127984000Y-86006000D02*
X127984000Y-86336000D01*
%TO.C,SW1*%
X71374000Y-143510000D02*
X71374000Y-152146000D01*
X81026000Y-142494000D02*
X81026000Y-152146000D01*
X72390000Y-142494000D02*
X81026000Y-142494000D01*
X81026000Y-152146000D02*
X71374000Y-152146000D01*
X71374000Y-143510000D02*
X72390000Y-142494000D01*
%TO.C,Pow1*%
X48514000Y-86360000D02*
X48514000Y-96520000D01*
X49784000Y-96520000D02*
X49784000Y-86360000D01*
X49784000Y-86360000D02*
X42164000Y-86360000D01*
X42164000Y-96520000D02*
X49784000Y-96520000D01*
X42164000Y-86360000D02*
X42164000Y-96520000D01*
%TO.C,GYRO1*%
X145094000Y-121666000D02*
X145094000Y-103826000D01*
X142434000Y-121666000D02*
X142434000Y-103826000D01*
X142434000Y-124266000D02*
X142434000Y-122936000D01*
X145094000Y-121666000D02*
X142434000Y-121666000D01*
X142434000Y-124266000D02*
X127586000Y-124266000D01*
X127586000Y-124266000D02*
X127586000Y-103826000D01*
X142434000Y-103826000D02*
X127586000Y-103826000D01*
X145094000Y-103826000D02*
X142434000Y-103826000D01*
X143764000Y-124266000D02*
X142434000Y-124266000D01*
%TO.C,PS_R1*%
X156718000Y-101092000D02*
X156718000Y-85852000D01*
X149098000Y-101092000D02*
X149098000Y-85852000D01*
X155448000Y-101092000D02*
X155448000Y-85852000D01*
X156718000Y-85852000D02*
X149098000Y-85852000D01*
X156718000Y-101092000D02*
X149098000Y-101092000D01*
%TO.C,R1*%
X75592000Y-92424000D02*
X75922000Y-92424000D01*
X75922000Y-85884000D02*
X75592000Y-85884000D01*
X75592000Y-85884000D02*
X75592000Y-92424000D01*
X78002000Y-85884000D02*
X78332000Y-85884000D01*
X78332000Y-92424000D02*
X78002000Y-92424000D01*
X78332000Y-85884000D02*
X78332000Y-92424000D01*
%TO.C,U1*%
X75176706Y-121122594D02*
X75181938Y-121098147D01*
X75483704Y-133422681D02*
X75483704Y-134222681D01*
X61487330Y-110184233D02*
X66117330Y-110184233D01*
X61487330Y-110184233D02*
X61487330Y-111024233D01*
X76551705Y-120123783D02*
X76551705Y-130023783D01*
X58389304Y-110056636D02*
X58483856Y-110056636D01*
X56875783Y-106255636D02*
X56875783Y-105805636D01*
X61487330Y-108484233D02*
X61487330Y-109324233D01*
X75201705Y-123213014D02*
X75201705Y-121134553D01*
X76764000Y-95224000D02*
X76764000Y-96524000D01*
X66194894Y-105524233D02*
X66117330Y-105601797D01*
X76552705Y-128632978D02*
X76552705Y-128588106D01*
X58984000Y-135834000D02*
X58984000Y-138949000D01*
X61487330Y-108484233D02*
X66117330Y-108484233D01*
X66117330Y-105601797D02*
X66117330Y-115606670D01*
X73604000Y-135834000D02*
X73604000Y-138994000D01*
X61487330Y-114424233D02*
X66117330Y-114424233D01*
X69098204Y-128441397D02*
X69098204Y-118741397D01*
X61487330Y-109324233D02*
X66117330Y-109324233D01*
X56398204Y-118741397D02*
X56398204Y-128441397D01*
X58900783Y-109185358D02*
X56600783Y-109185358D01*
X75837329Y-107174233D02*
X75837329Y-114034233D01*
X61487330Y-113584233D02*
X61487330Y-114424233D01*
X76764000Y-135834000D02*
X76764000Y-138949000D01*
X61487330Y-112724233D02*
X66117330Y-112724233D01*
X66194894Y-115684233D02*
X75546390Y-115684233D01*
X66194894Y-105524233D02*
X75546390Y-105524233D01*
X61487330Y-106784233D02*
X66117330Y-106784233D01*
X67598204Y-117241397D02*
X57898204Y-117241397D01*
X73914000Y-98354000D02*
X73604000Y-98354000D01*
X74701706Y-121134553D02*
X74701706Y-123213014D01*
X56875783Y-110505636D02*
X56875783Y-110055636D01*
X56875783Y-105805636D02*
X58625783Y-105805636D01*
X74203705Y-133422681D02*
X75803704Y-133422681D01*
X55824000Y-135834000D02*
X58984000Y-135834000D01*
X55824000Y-95224000D02*
X55824000Y-98354000D01*
X74179851Y-105523233D02*
X74018313Y-105523233D01*
X71551706Y-130023783D02*
X71551706Y-120123783D01*
X59000783Y-106355636D02*
X59000783Y-109955636D01*
X75803704Y-134222681D02*
X75803704Y-133422681D01*
X61487330Y-111884233D02*
X66117330Y-111884233D01*
X75176706Y-121122594D02*
X75201705Y-121134553D01*
X74757330Y-115684233D02*
X74757330Y-105524233D01*
X75176706Y-121122594D02*
X75207925Y-121129764D01*
X66117330Y-115606670D02*
X66194894Y-115684233D01*
X55824000Y-135834000D02*
X55824000Y-138949000D01*
X58984000Y-95224000D02*
X58984000Y-98354000D01*
X77019000Y-95219000D02*
X55569000Y-95219000D01*
X77019000Y-138969000D02*
X77019000Y-95219000D01*
X75803704Y-134222681D02*
X74203705Y-134222681D01*
X75837329Y-114034233D02*
X75546390Y-115684233D01*
X58900783Y-110055636D02*
X56600783Y-110055636D01*
X56500783Y-109955636D02*
X56500783Y-106355636D01*
X55569000Y-95219000D02*
X55569000Y-138969000D01*
X58625783Y-110505636D02*
X56875783Y-110505636D01*
X73604000Y-135834000D02*
X76764000Y-135834000D01*
X71601706Y-120073783D02*
X76501705Y-120073783D01*
X74523705Y-134222681D02*
X74523705Y-133422681D01*
X75233100Y-121110385D02*
X75201705Y-121134553D01*
X61487330Y-106784233D02*
X61487330Y-107624233D01*
X58984000Y-98354000D02*
X55824000Y-98354000D01*
X76501705Y-130073783D02*
X71601706Y-130073783D01*
X76552705Y-128716312D02*
X76552705Y-128682357D01*
X56600783Y-106255636D02*
X58900783Y-106255636D01*
X61487330Y-107624233D02*
X66117330Y-107624233D01*
X74203705Y-134222681D02*
X74203705Y-133422681D01*
X61487330Y-111884233D02*
X61487330Y-112724233D01*
X61487330Y-113584233D02*
X66117330Y-113584233D01*
X57898204Y-129941397D02*
X67598204Y-129941397D01*
X73609000Y-95224000D02*
X73604000Y-98354000D01*
X58625783Y-110055636D02*
X58625783Y-110505636D01*
X55569000Y-138969000D02*
X77019000Y-138969000D01*
X75546390Y-105524233D02*
X75837329Y-107174233D01*
X61487330Y-111024233D02*
X66117330Y-111024233D01*
X58625783Y-105805636D02*
X58625783Y-106255636D01*
X71551717Y-130023783D02*
G75*
G03*
X71601706Y-130073783I49983J-17D01*
G01*
X57711938Y-126561182D02*
G75*
G03*
X59778418Y-128627662I793622J-1272858D01*
G01*
X67784470Y-120621612D02*
G75*
G03*
X67750383Y-120755783I53030J-84888D01*
G01*
X67750383Y-126427011D02*
G75*
G03*
X67750383Y-120755784I-5002178J2835613D01*
G01*
X59000764Y-106355636D02*
G75*
G03*
X58900783Y-106255636I-99964J36D01*
G01*
X56600783Y-106255683D02*
G75*
G03*
X56500783Y-106355636I-83J-99917D01*
G01*
X76501705Y-130073805D02*
G75*
G03*
X76551705Y-130023783I-5J50005D01*
G01*
X65717982Y-128627667D02*
G75*
G03*
X67784469Y-126561183I1272818J793667D01*
G01*
X74670310Y-121110385D02*
G75*
G03*
X74721473Y-121098148I281390J-1063415D01*
G01*
X71601706Y-120073806D02*
G75*
G03*
X71551706Y-120123783I-6J-49994D01*
G01*
X58900783Y-110055683D02*
G75*
G03*
X59000783Y-109955636I-83J100083D01*
G01*
X65583832Y-118589191D02*
G75*
G03*
X65717990Y-118555131I49368J86791D01*
G01*
X57745965Y-120755750D02*
G75*
G03*
X57711938Y-120621611I-86865J49350D01*
G01*
X57746024Y-120755783D02*
G75*
G03*
X57746024Y-126427011I5002180J-2835614D01*
G01*
X67750359Y-126426998D02*
G75*
G03*
X67784469Y-126561183I87041J-49302D01*
G01*
X65583815Y-118589221D02*
G75*
G03*
X59912590Y-118589218I-2835615J-5002179D01*
G01*
X56500764Y-109955636D02*
G75*
G03*
X56600783Y-110055636I100036J36D01*
G01*
X67598204Y-129941404D02*
G75*
G03*
X69098204Y-128441397I-4J1500004D01*
G01*
X67784469Y-120621610D02*
G75*
G03*
X65717989Y-118555132I-793629J1272850D01*
G01*
X56398203Y-128441397D02*
G75*
G03*
X57898204Y-129941397I1499997J-3D01*
G01*
X57898204Y-117241404D02*
G75*
G03*
X56398204Y-118741397I-4J-1499996D01*
G01*
X76551717Y-120123783D02*
G75*
G03*
X76501705Y-120073783I-50017J-17D01*
G01*
X65717990Y-128627661D02*
G75*
G03*
X65583816Y-128593577I-84890J-53039D01*
G01*
X59912602Y-128593555D02*
G75*
G03*
X59778417Y-128627663I-49302J-87045D01*
G01*
X59778440Y-118555118D02*
G75*
G03*
X59912591Y-118589217I84860J52918D01*
G01*
X57711925Y-126561162D02*
G75*
G03*
X57746024Y-126427011I-52925J84862D01*
G01*
X59912588Y-128593579D02*
G75*
G03*
X65583817Y-128593576I2835612J5002179D01*
G01*
X69098203Y-118741397D02*
G75*
G03*
X67598204Y-117241397I-1500003J-3D01*
G01*
X59778410Y-118555137D02*
G75*
G03*
X57711938Y-120621611I-1272810J-793663D01*
G01*
X67998204Y-123591397D02*
G75*
G03*
X67998204Y-123591397I-5250000J0D01*
G01*
X70226582Y-99420666D02*
G75*
G03*
X70226582Y-99420666I-4000000J0D01*
G01*
X67404406Y-106447179D02*
G75*
G03*
X67404406Y-106447179I-375000J0D01*
G01*
X76147999Y-101854000D02*
G75*
G03*
X76147999Y-101854000I-1598999J0D01*
G01*
X59638000Y-132334000D02*
G75*
G03*
X59638000Y-132334000I-1599000J0D01*
G01*
X69728794Y-134803307D02*
G75*
G03*
X69728794Y-134803307I-4000000J0D01*
G01*
%TO.C,C2*%
X107768000Y-135990000D02*
X107768000Y-135545000D01*
X107768000Y-133250000D02*
X101528000Y-133250000D01*
X107768000Y-133695000D02*
X107768000Y-133250000D01*
X101528000Y-133695000D02*
X101528000Y-133250000D01*
X101528000Y-135990000D02*
X101528000Y-135545000D01*
X107768000Y-135990000D02*
X101528000Y-135990000D01*
%TO.C,R5*%
X144804000Y-99282000D02*
X145134000Y-99282000D01*
X145134000Y-92742000D02*
X144804000Y-92742000D01*
X145134000Y-99282000D02*
X145134000Y-92742000D01*
X142724000Y-99282000D02*
X142394000Y-99282000D01*
X142394000Y-92742000D02*
X142724000Y-92742000D01*
X142394000Y-99282000D02*
X142394000Y-92742000D01*
%TO.C,R4*%
X136684000Y-86590000D02*
X136684000Y-86260000D01*
X136684000Y-89000000D02*
X143224000Y-89000000D01*
X136684000Y-86260000D02*
X143224000Y-86260000D01*
X143224000Y-89000000D02*
X143224000Y-88670000D01*
X143224000Y-86260000D02*
X143224000Y-86590000D01*
X136684000Y-88670000D02*
X136684000Y-89000000D01*
%TO.C,MCU1*%
X124989925Y-126841000D02*
X124989925Y-98741001D01*
X81649925Y-98741000D02*
X81649925Y-126840999D01*
X124989925Y-98741001D02*
X81649925Y-98741000D01*
X81649925Y-126840999D02*
X124989925Y-126841000D01*
%TO.C,LS_BR1*%
X136144000Y-150957000D02*
X151384000Y-150957000D01*
X136144000Y-143337000D02*
X151384000Y-143337000D01*
X136144000Y-150957000D02*
X136144000Y-143337000D01*
X136144000Y-149687000D02*
X151384000Y-149687000D01*
X151384000Y-150957000D02*
X151384000Y-143337000D01*
%TO.C,PSFR1*%
X150368000Y-83312000D02*
X150368000Y-75692000D01*
X135128000Y-75692000D02*
X150368000Y-75692000D01*
X135128000Y-83312000D02*
X135128000Y-75692000D01*
X135128000Y-82042000D02*
X150368000Y-82042000D01*
X135128000Y-83312000D02*
X150368000Y-83312000D01*
%TO.C,LS_BL1*%
X50038000Y-150957000D02*
X50038000Y-143337000D01*
X50038000Y-150957000D02*
X65278000Y-150957000D01*
X65278000Y-150957000D02*
X65278000Y-143337000D01*
X50038000Y-143337000D02*
X65278000Y-143337000D01*
X50038000Y-149687000D02*
X65278000Y-149687000D01*
%TO.C,PSFL1*%
X91186000Y-83312000D02*
X106426000Y-83312000D01*
X106426000Y-83312000D02*
X106426000Y-75692000D01*
X91186000Y-82042000D02*
X106426000Y-82042000D01*
X91186000Y-83312000D02*
X91186000Y-75692000D01*
X91186000Y-75692000D02*
X106426000Y-75692000D01*
%TO.C,RC1*%
X42164000Y-118110000D02*
X42164000Y-128270000D01*
X49784000Y-118110000D02*
X42164000Y-118110000D01*
X49784000Y-128270000D02*
X49784000Y-118110000D01*
X48514000Y-118110000D02*
X48514000Y-128270000D01*
X42164000Y-128270000D02*
X49784000Y-128270000D01*
%TO.C,LS_FL1*%
X47244000Y-83312000D02*
X62484000Y-83312000D01*
X47244000Y-82042000D02*
X62484000Y-82042000D01*
X47244000Y-75692000D02*
X62484000Y-75692000D01*
X62484000Y-83312000D02*
X62484000Y-75692000D01*
X47244000Y-83312000D02*
X47244000Y-75692000D01*
%TO.C,SW2*%
X46434000Y-132592000D02*
X44934000Y-132592000D01*
X44934000Y-139592000D02*
X46434000Y-139592000D01*
X48934000Y-138342000D02*
X48934000Y-133842000D01*
X42434000Y-133842000D02*
X42434000Y-138342000D01*
%TD*%
M02*
