%TF.GenerationSoftware,KiCad,Pcbnew,(6.0.7)*%
%TF.CreationDate,2022-09-07T13:32:05-04:00*%
%TF.ProjectId,luison-electronics,6c756973-6f6e-42d6-956c-656374726f6e,rev?*%
%TF.SameCoordinates,Original*%
%TF.FileFunction,Soldermask,Top*%
%TF.FilePolarity,Negative*%
%FSLAX46Y46*%
G04 Gerber Fmt 4.6, Leading zero omitted, Abs format (unit mm)*
G04 Created by KiCad (PCBNEW (6.0.7)) date 2022-09-07 13:32:05*
%MOMM*%
%LPD*%
G01*
G04 APERTURE LIST*
%ADD10R,3.000000X3.000000*%
%ADD11C,3.000000*%
%ADD12C,1.600000*%
%ADD13O,1.600000X1.600000*%
%ADD14R,1.700000X1.700000*%
%ADD15O,1.700000X1.700000*%
%ADD16R,1.600000X1.600000*%
%ADD17C,1.700000*%
%ADD18R,2.540000X2.540000*%
%ADD19C,2.540000*%
%ADD20C,2.000000*%
G04 APERTURE END LIST*
D10*
%TO.C,PS_B1*%
X152908000Y-138430000D03*
D11*
X152908000Y-133350000D03*
X152908000Y-128270000D03*
%TD*%
D12*
%TO.C,C4*%
X85598000Y-103672000D03*
X85598000Y-108672000D03*
%TD*%
%TO.C,C1*%
X139192000Y-120396000D03*
X139192000Y-125396000D03*
%TD*%
%TO.C,R6*%
X146304000Y-133350000D03*
D13*
X138684000Y-133350000D03*
%TD*%
D14*
%TO.C,MD1*%
X99060000Y-144780000D03*
D15*
X96520000Y-144780000D03*
X99060000Y-142240000D03*
X96520000Y-142240000D03*
X99060000Y-139700000D03*
X96520000Y-139700000D03*
X99060000Y-137160000D03*
X96520000Y-137160000D03*
X99060000Y-134620000D03*
X96520000Y-134620000D03*
%TD*%
D12*
%TO.C,R2*%
X98806000Y-87122000D03*
D13*
X91186000Y-87122000D03*
%TD*%
D16*
%TO.C,C3*%
X134938888Y-100076000D03*
D12*
X137438888Y-100076000D03*
%TD*%
D10*
%TO.C,PSL1*%
X71755000Y-79502000D03*
D11*
X76835000Y-79502000D03*
X81915000Y-79502000D03*
%TD*%
D10*
%TO.C,LS_FR1*%
X45974000Y-110998000D03*
D11*
X45974000Y-105918000D03*
X45974000Y-100838000D03*
%TD*%
D10*
%TO.C,PSFC1*%
X115697000Y-79502000D03*
D11*
X120777000Y-79502000D03*
X125857000Y-79502000D03*
%TD*%
D12*
%TO.C,R3*%
X120904000Y-87376000D03*
D13*
X128524000Y-87376000D03*
%TD*%
D14*
%TO.C,SW1*%
X72390000Y-144780000D03*
D17*
X72390000Y-147320000D03*
X72390000Y-149860000D03*
X80010000Y-149860000D03*
X80010000Y-147320000D03*
X80010000Y-144780000D03*
%TD*%
D10*
%TO.C,Pow1*%
X45974000Y-93980000D03*
D11*
X45974000Y-88900000D03*
%TD*%
D14*
%TO.C,GYRO1*%
X143764000Y-122936000D03*
D15*
X143764000Y-120396000D03*
X143764000Y-117856000D03*
X143764000Y-115316000D03*
X143764000Y-105156000D03*
%TD*%
D10*
%TO.C,PS_R1*%
X152908000Y-98552000D03*
D11*
X152908000Y-93472000D03*
X152908000Y-88392000D03*
%TD*%
D12*
%TO.C,R1*%
X76962000Y-85344000D03*
D13*
X76962000Y-92964000D03*
%TD*%
D18*
%TO.C,U1*%
X75184000Y-96774000D03*
D19*
X57404000Y-96774000D03*
X57404000Y-137414000D03*
X75184000Y-137414000D03*
%TD*%
D12*
%TO.C,C2*%
X107148000Y-134620000D03*
X102148000Y-134620000D03*
%TD*%
%TO.C,R5*%
X143764000Y-99822000D03*
D13*
X143764000Y-92202000D03*
%TD*%
D12*
%TO.C,R4*%
X136144000Y-87630000D03*
D13*
X143764000Y-87630000D03*
%TD*%
D14*
%TO.C,MCU1*%
X121099925Y-100091000D03*
D17*
X118559925Y-100091000D03*
X116019925Y-100091000D03*
X113479925Y-100091000D03*
X110939925Y-100091000D03*
X108399925Y-100091000D03*
X105859925Y-100091000D03*
X103319925Y-100091000D03*
X100779925Y-100091000D03*
X98239925Y-100091000D03*
X95699925Y-100091000D03*
X93159925Y-100091000D03*
X90619925Y-100091000D03*
X88079925Y-100091000D03*
X85539925Y-100091000D03*
X85539925Y-125491000D03*
X88079925Y-125491000D03*
X90619925Y-125491000D03*
X93159925Y-125491000D03*
X95699925Y-125491000D03*
X98239925Y-125491000D03*
X100779925Y-125491000D03*
X103319925Y-125491000D03*
X105859925Y-125491000D03*
X108399925Y-125491000D03*
X110939925Y-125491000D03*
X113479925Y-125491000D03*
X116019925Y-125491000D03*
X118559925Y-125491000D03*
X121099925Y-125491000D03*
%TD*%
D10*
%TO.C,LS_BR1*%
X138684000Y-147147000D03*
D11*
X143764000Y-147147000D03*
X148844000Y-147147000D03*
%TD*%
D10*
%TO.C,PSFR1*%
X137668000Y-79502000D03*
D11*
X142748000Y-79502000D03*
X147828000Y-79502000D03*
%TD*%
D10*
%TO.C,LS_BL1*%
X52578000Y-147147000D03*
D11*
X57658000Y-147147000D03*
X62738000Y-147147000D03*
%TD*%
D10*
%TO.C,PSFL1*%
X93726000Y-79502000D03*
D11*
X98806000Y-79502000D03*
X103886000Y-79502000D03*
%TD*%
D10*
%TO.C,RC1*%
X45974000Y-125730000D03*
D11*
X45974000Y-120650000D03*
%TD*%
D10*
%TO.C,LS_FL1*%
X49784000Y-79502000D03*
D11*
X54864000Y-79502000D03*
X59944000Y-79502000D03*
%TD*%
D20*
%TO.C,SW2*%
X43434000Y-132842000D03*
X43434000Y-139342000D03*
X47934000Y-139342000D03*
X47934000Y-132842000D03*
%TD*%
M02*
