%TF.GenerationSoftware,KiCad,Pcbnew,7.0.1*%
%TF.CreationDate,2023-04-18T16:59:51-04:00*%
%TF.ProjectId,luison-electronics,6c756973-6f6e-42d6-956c-656374726f6e,rev?*%
%TF.SameCoordinates,Original*%
%TF.FileFunction,Other,User*%
%FSLAX46Y46*%
G04 Gerber Fmt 4.6, Leading zero omitted, Abs format (unit mm)*
G04 Created by KiCad (PCBNEW 7.0.1) date 2023-04-18 16:59:51*
%MOMM*%
%LPD*%
G01*
G04 APERTURE LIST*
%ADD10C,0.050000*%
G04 APERTURE END LIST*
D10*
%TO.C,PS3*%
X179295000Y-105735000D02*
X179295000Y-112485000D01*
X179295000Y-112485000D02*
X190195000Y-112485000D01*
X190195000Y-105735000D02*
X179295000Y-105735000D01*
X190195000Y-112485000D02*
X190195000Y-105735000D01*
%TO.C,PS9*%
X112466000Y-96215000D02*
X119216000Y-96215000D01*
X119216000Y-96215000D02*
X119216000Y-85315000D01*
X112466000Y-85315000D02*
X112466000Y-96215000D01*
X119216000Y-85315000D02*
X112466000Y-85315000D01*
%TO.C,GYRO2*%
X119206075Y-84295000D02*
X100757925Y-84295000D01*
X119206075Y-62945000D02*
X119206075Y-84295000D01*
X100757925Y-84295000D02*
X100757925Y-62945000D01*
X100757925Y-62945000D02*
X119206075Y-62945000D01*
%TO.C,SW3*%
X146797000Y-75565000D02*
X146797000Y-65405000D01*
X156710000Y-75557000D02*
X146797000Y-75565000D01*
X157973000Y-74295000D02*
X156710000Y-75557000D01*
X157973000Y-74295000D02*
X157973000Y-65405000D01*
X157973000Y-65405000D02*
X146797000Y-65405000D01*
%TO.C,LS4*%
X146420000Y-73860000D02*
X146420000Y-67110000D01*
X146420000Y-67110000D02*
X135520000Y-67110000D01*
X135520000Y-73860000D02*
X146420000Y-73860000D01*
X135520000Y-67110000D02*
X135520000Y-73860000D01*
%TO.C,PS6*%
X192180000Y-73733000D02*
X192180000Y-66983000D01*
X192180000Y-66983000D02*
X181280000Y-66983000D01*
X181280000Y-73733000D02*
X192180000Y-73733000D01*
X181280000Y-66983000D02*
X181280000Y-73733000D01*
%TO.C,REF\u002A\u002A*%
X118385000Y-116205000D02*
G75*
G03*
X118385000Y-116205000I-3450000J0D01*
G01*
%TO.C,U2*%
X156501000Y-113135000D02*
X156501000Y-126619000D01*
X145811000Y-113135000D02*
X156501000Y-113135000D01*
X156501000Y-126619000D02*
X145811000Y-126619000D01*
X145811000Y-126619000D02*
X145811000Y-113135000D01*
%TO.C,REF\u002A\u002A*%
X193950000Y-62992000D02*
G75*
G03*
X193950000Y-62992000I-3450000J0D01*
G01*
%TO.C,PS8*%
X112593000Y-108153000D02*
X119343000Y-108153000D01*
X119343000Y-108153000D02*
X119343000Y-97253000D01*
X112593000Y-97253000D02*
X112593000Y-108153000D01*
X119343000Y-97253000D02*
X112593000Y-97253000D01*
%TO.C,PS7*%
X145045000Y-105735000D02*
X145045000Y-112485000D01*
X145045000Y-112485000D02*
X155945000Y-112485000D01*
X155945000Y-105735000D02*
X145045000Y-105735000D01*
X155945000Y-112485000D02*
X155945000Y-105735000D01*
%TO.C,PS2*%
X178765000Y-112705000D02*
X178765000Y-105955000D01*
X178765000Y-105955000D02*
X167865000Y-105955000D01*
X167865000Y-112705000D02*
X178765000Y-112705000D01*
X167865000Y-105955000D02*
X167865000Y-112705000D01*
%TO.C,PS5*%
X169795000Y-67000000D02*
X169795000Y-73750000D01*
X169795000Y-73750000D02*
X180695000Y-73750000D01*
X180695000Y-67000000D02*
X169795000Y-67000000D01*
X180695000Y-73750000D02*
X180695000Y-67000000D01*
%TO.C,PS1*%
X167375000Y-112595000D02*
X167375000Y-105845000D01*
X167375000Y-105845000D02*
X156475000Y-105845000D01*
X156475000Y-112595000D02*
X167375000Y-112595000D01*
X156475000Y-105845000D02*
X156475000Y-112595000D01*
%TO.C,REF\u002A\u002A*%
X193950000Y-116205000D02*
G75*
G03*
X193950000Y-116205000I-3450000J0D01*
G01*
X118385000Y-59055000D02*
G75*
G03*
X118385000Y-59055000I-3450000J0D01*
G01*
%TO.C,LS2*%
X133615000Y-105735000D02*
X133615000Y-112485000D01*
X133615000Y-112485000D02*
X144515000Y-112485000D01*
X144515000Y-105735000D02*
X133615000Y-105735000D01*
X144515000Y-112485000D02*
X144515000Y-105735000D01*
%TO.C,COOLER*%
X178845000Y-119690000D02*
X178845000Y-112940000D01*
X178845000Y-112940000D02*
X167945000Y-112940000D01*
X167945000Y-119690000D02*
X178845000Y-119690000D01*
X167945000Y-112940000D02*
X167945000Y-119690000D01*
%TO.C,MCU2*%
X126239500Y-103592000D02*
X190503500Y-103592000D01*
X190503500Y-103592000D02*
X190503500Y-76668000D01*
X190503500Y-76668000D02*
X126239500Y-76668000D01*
X126239500Y-76668000D02*
X126239500Y-103592000D01*
%TO.C,LS3*%
X134975000Y-73860000D02*
X134975000Y-67110000D01*
X134975000Y-67110000D02*
X124075000Y-67110000D01*
X124075000Y-73860000D02*
X134975000Y-73860000D01*
X124075000Y-67110000D02*
X124075000Y-73860000D01*
%TO.C,PS4*%
X169320000Y-73733000D02*
X169320000Y-66983000D01*
X169320000Y-66983000D02*
X158420000Y-66983000D01*
X158420000Y-73733000D02*
X169320000Y-73733000D01*
X158420000Y-66983000D02*
X158420000Y-73733000D01*
%TO.C,LS1*%
X122130000Y-105735000D02*
X122130000Y-112485000D01*
X122130000Y-112485000D02*
X133030000Y-112485000D01*
X133030000Y-105735000D02*
X122130000Y-105735000D01*
X133030000Y-112485000D02*
X133030000Y-105735000D01*
%TD*%
M02*
