M48
; DRILL file {KiCad (6.0.7)} date Mon Oct  3 16:30:42 2022
; FORMAT={-:-/ absolute / metric / decimal}
; #@! TF.CreationDate,2022-10-03T16:30:42-03:00
; #@! TF.GenerationSoftware,Kicad,Pcbnew,(6.0.7)
; #@! TF.FileFunction,Plated,1,2,PTH
FMAT,2
METRIC
; #@! TA.AperFunction,Plated,PTH,ComponentDrill
T1C0.800
; #@! TA.AperFunction,Plated,PTH,ComponentDrill
T2C1.000
; #@! TA.AperFunction,Plated,PTH,ComponentDrill
T3C1.100
; #@! TA.AperFunction,Plated,PTH,ComponentDrill
T4C1.520
%
G90
G05
T1
X76.962Y-85.344
X76.962Y-92.964
X85.598Y-103.672
X85.598Y-108.672
X91.186Y-87.122
X98.806Y-87.122
X102.148Y-134.62
X107.148Y-134.62
X120.904Y-87.376
X128.524Y-87.376
X134.939Y-100.076
X136.144Y-87.63
X137.439Y-100.076
X138.684Y-133.35
X139.192Y-120.396
X139.192Y-125.396
X143.764Y-87.63
X143.764Y-92.202
X143.764Y-99.822
X146.304Y-133.35
T2
X55.404Y-96.774
X55.404Y-137.414
X72.39Y-144.78
X72.39Y-147.32
X72.39Y-149.86
X73.184Y-96.774
X73.184Y-137.414
X80.01Y-144.78
X80.01Y-147.32
X80.01Y-149.86
X85.54Y-100.091
X85.54Y-125.491
X88.08Y-100.091
X88.08Y-125.491
X90.62Y-100.091
X90.62Y-125.491
X93.16Y-100.091
X93.16Y-125.491
X95.7Y-100.091
X95.7Y-125.491
X96.52Y-134.62
X96.52Y-137.16
X96.52Y-139.7
X96.52Y-142.24
X96.52Y-144.78
X98.24Y-100.091
X98.24Y-125.491
X99.06Y-134.62
X99.06Y-137.16
X99.06Y-139.7
X99.06Y-142.24
X99.06Y-144.78
X100.78Y-100.091
X100.78Y-125.491
X103.32Y-100.091
X103.32Y-125.491
X105.86Y-100.091
X105.86Y-125.491
X108.4Y-100.091
X108.4Y-125.491
X110.94Y-100.091
X110.94Y-125.491
X113.48Y-100.091
X113.48Y-125.491
X116.02Y-100.091
X116.02Y-125.491
X118.56Y-100.091
X118.56Y-125.491
X121.1Y-100.091
X121.1Y-125.491
X143.764Y-105.156
X143.764Y-115.316
X143.764Y-117.856
X143.764Y-120.396
X143.764Y-122.936
T3
X43.434Y-132.842
X43.434Y-139.342
X47.934Y-132.842
X47.934Y-139.342
T4
X45.974Y-88.9
X45.974Y-93.98
X45.974Y-100.838
X45.974Y-105.918
X45.974Y-110.998
X45.974Y-120.65
X45.974Y-125.73
X49.784Y-79.502
X52.578Y-147.147
X54.864Y-79.502
X57.658Y-147.147
X59.944Y-79.502
X62.738Y-147.147
X71.755Y-79.502
X76.835Y-79.502
X81.915Y-79.502
X93.726Y-79.502
X98.806Y-79.502
X103.886Y-79.502
X115.697Y-79.502
X120.777Y-79.502
X125.857Y-79.502
X137.668Y-79.502
X138.684Y-147.147
X142.748Y-79.502
X143.764Y-147.147
X147.828Y-79.502
X148.844Y-147.147
X152.908Y-88.392
X152.908Y-93.472
X152.908Y-98.552
X152.908Y-128.27
X152.908Y-133.35
X152.908Y-138.43
T0
M30
