%TF.GenerationSoftware,KiCad,Pcbnew,(6.0.7)*%
%TF.CreationDate,2022-09-07T13:32:16-04:00*%
%TF.ProjectId,luison-electronics,6c756973-6f6e-42d6-956c-656374726f6e,rev?*%
%TF.SameCoordinates,Original*%
%TF.FileFunction,Drillmap*%
%TF.FilePolarity,Positive*%
%FSLAX45Y45*%
G04 Gerber Fmt 4.5, Leading zero omitted, Abs format (unit mm)*
G04 Created by KiCad (PCBNEW (6.0.7)) date 2022-09-07 13:32:16*
%MOMM*%
%LPD*%
G01*
G04 APERTURE LIST*
%ADD10C,0.100000*%
%ADD11C,0.200000*%
%ADD12C,0.080000*%
%ADD13C,0.110000*%
%ADD14C,0.152000*%
G04 APERTURE END LIST*
D10*
X3925800Y-7353800D02*
X15925800Y-7353800D01*
X15925800Y-7353800D02*
X15925800Y-15353800D01*
X15925800Y-15353800D02*
X3925800Y-15353800D01*
X3925800Y-15353800D02*
X3925800Y-7353800D01*
D11*
D12*
X7656200Y-8494400D02*
X7736200Y-8574400D01*
X7736200Y-8494400D02*
X7656200Y-8574400D01*
X7656200Y-9256400D02*
X7736200Y-9336400D01*
X7736200Y-9256400D02*
X7656200Y-9336400D01*
X8519800Y-10327200D02*
X8599800Y-10407200D01*
X8599800Y-10327200D02*
X8519800Y-10407200D01*
X8519800Y-10827200D02*
X8599800Y-10907200D01*
X8599800Y-10827200D02*
X8519800Y-10907200D01*
X9078600Y-8672200D02*
X9158600Y-8752200D01*
X9158600Y-8672200D02*
X9078600Y-8752200D01*
X9840600Y-8672200D02*
X9920600Y-8752200D01*
X9920600Y-8672200D02*
X9840600Y-8752200D01*
X10174800Y-13422000D02*
X10254800Y-13502000D01*
X10254800Y-13422000D02*
X10174800Y-13502000D01*
X10674800Y-13422000D02*
X10754800Y-13502000D01*
X10754800Y-13422000D02*
X10674800Y-13502000D01*
X12050400Y-8697600D02*
X12130400Y-8777600D01*
X12130400Y-8697600D02*
X12050400Y-8777600D01*
X12812400Y-8697600D02*
X12892400Y-8777600D01*
X12892400Y-8697600D02*
X12812400Y-8777600D01*
X13453889Y-9967600D02*
X13533889Y-10047600D01*
X13533889Y-9967600D02*
X13453889Y-10047600D01*
X13574400Y-8723000D02*
X13654400Y-8803000D01*
X13654400Y-8723000D02*
X13574400Y-8803000D01*
X13703889Y-9967600D02*
X13783889Y-10047600D01*
X13783889Y-9967600D02*
X13703889Y-10047600D01*
X13828400Y-13295000D02*
X13908400Y-13375000D01*
X13908400Y-13295000D02*
X13828400Y-13375000D01*
X13879200Y-11999600D02*
X13959200Y-12079600D01*
X13959200Y-11999600D02*
X13879200Y-12079600D01*
X13879200Y-12499600D02*
X13959200Y-12579600D01*
X13959200Y-12499600D02*
X13879200Y-12579600D01*
X14336400Y-8723000D02*
X14416400Y-8803000D01*
X14416400Y-8723000D02*
X14336400Y-8803000D01*
X14336400Y-9180200D02*
X14416400Y-9260200D01*
X14416400Y-9180200D02*
X14336400Y-9260200D01*
X14336400Y-9942200D02*
X14416400Y-10022200D01*
X14416400Y-9942200D02*
X14336400Y-10022200D01*
X14590400Y-13295000D02*
X14670400Y-13375000D01*
X14670400Y-13295000D02*
X14590400Y-13375000D01*
D10*
X5790400Y-9677400D02*
G75*
G03*
X5790400Y-9677400I-50000J0D01*
G01*
X5790400Y-13741400D02*
G75*
G03*
X5790400Y-13741400I-50000J0D01*
G01*
X7289000Y-14478000D02*
G75*
G03*
X7289000Y-14478000I-50000J0D01*
G01*
X7289000Y-14732000D02*
G75*
G03*
X7289000Y-14732000I-50000J0D01*
G01*
X7289000Y-14986000D02*
G75*
G03*
X7289000Y-14986000I-50000J0D01*
G01*
X7568400Y-9677400D02*
G75*
G03*
X7568400Y-9677400I-50000J0D01*
G01*
X7568400Y-13741400D02*
G75*
G03*
X7568400Y-13741400I-50000J0D01*
G01*
X8051000Y-14478000D02*
G75*
G03*
X8051000Y-14478000I-50000J0D01*
G01*
X8051000Y-14732000D02*
G75*
G03*
X8051000Y-14732000I-50000J0D01*
G01*
X8051000Y-14986000D02*
G75*
G03*
X8051000Y-14986000I-50000J0D01*
G01*
X8603993Y-10009100D02*
G75*
G03*
X8603993Y-10009100I-50000J0D01*
G01*
X8603993Y-12549100D02*
G75*
G03*
X8603993Y-12549100I-50000J0D01*
G01*
X8857993Y-10009100D02*
G75*
G03*
X8857993Y-10009100I-50000J0D01*
G01*
X8857993Y-12549100D02*
G75*
G03*
X8857993Y-12549100I-50000J0D01*
G01*
X9111993Y-10009100D02*
G75*
G03*
X9111993Y-10009100I-50000J0D01*
G01*
X9111993Y-12549100D02*
G75*
G03*
X9111993Y-12549100I-50000J0D01*
G01*
X9365993Y-10009100D02*
G75*
G03*
X9365993Y-10009100I-50000J0D01*
G01*
X9365993Y-12549100D02*
G75*
G03*
X9365993Y-12549100I-50000J0D01*
G01*
X9619993Y-10009100D02*
G75*
G03*
X9619993Y-10009100I-50000J0D01*
G01*
X9619993Y-12549100D02*
G75*
G03*
X9619993Y-12549100I-50000J0D01*
G01*
X9702000Y-13462000D02*
G75*
G03*
X9702000Y-13462000I-50000J0D01*
G01*
X9702000Y-13716000D02*
G75*
G03*
X9702000Y-13716000I-50000J0D01*
G01*
X9702000Y-13970000D02*
G75*
G03*
X9702000Y-13970000I-50000J0D01*
G01*
X9702000Y-14224000D02*
G75*
G03*
X9702000Y-14224000I-50000J0D01*
G01*
X9702000Y-14478000D02*
G75*
G03*
X9702000Y-14478000I-50000J0D01*
G01*
X9873993Y-10009100D02*
G75*
G03*
X9873993Y-10009100I-50000J0D01*
G01*
X9873993Y-12549100D02*
G75*
G03*
X9873993Y-12549100I-50000J0D01*
G01*
X9956000Y-13462000D02*
G75*
G03*
X9956000Y-13462000I-50000J0D01*
G01*
X9956000Y-13716000D02*
G75*
G03*
X9956000Y-13716000I-50000J0D01*
G01*
X9956000Y-13970000D02*
G75*
G03*
X9956000Y-13970000I-50000J0D01*
G01*
X9956000Y-14224000D02*
G75*
G03*
X9956000Y-14224000I-50000J0D01*
G01*
X9956000Y-14478000D02*
G75*
G03*
X9956000Y-14478000I-50000J0D01*
G01*
X10127993Y-10009100D02*
G75*
G03*
X10127993Y-10009100I-50000J0D01*
G01*
X10127993Y-12549100D02*
G75*
G03*
X10127993Y-12549100I-50000J0D01*
G01*
X10381993Y-10009100D02*
G75*
G03*
X10381993Y-10009100I-50000J0D01*
G01*
X10381993Y-12549100D02*
G75*
G03*
X10381993Y-12549100I-50000J0D01*
G01*
X10635993Y-10009100D02*
G75*
G03*
X10635993Y-10009100I-50000J0D01*
G01*
X10635993Y-12549100D02*
G75*
G03*
X10635993Y-12549100I-50000J0D01*
G01*
X10889993Y-10009100D02*
G75*
G03*
X10889993Y-10009100I-50000J0D01*
G01*
X10889993Y-12549100D02*
G75*
G03*
X10889993Y-12549100I-50000J0D01*
G01*
X11143993Y-10009100D02*
G75*
G03*
X11143993Y-10009100I-50000J0D01*
G01*
X11143993Y-12549100D02*
G75*
G03*
X11143993Y-12549100I-50000J0D01*
G01*
X11397992Y-10009100D02*
G75*
G03*
X11397992Y-10009100I-50000J0D01*
G01*
X11397992Y-12549100D02*
G75*
G03*
X11397992Y-12549100I-50000J0D01*
G01*
X11651992Y-10009100D02*
G75*
G03*
X11651992Y-10009100I-50000J0D01*
G01*
X11651992Y-12549100D02*
G75*
G03*
X11651992Y-12549100I-50000J0D01*
G01*
X11905992Y-10009100D02*
G75*
G03*
X11905992Y-10009100I-50000J0D01*
G01*
X11905992Y-12549100D02*
G75*
G03*
X11905992Y-12549100I-50000J0D01*
G01*
X12159992Y-10009100D02*
G75*
G03*
X12159992Y-10009100I-50000J0D01*
G01*
X12159992Y-12549100D02*
G75*
G03*
X12159992Y-12549100I-50000J0D01*
G01*
X14426400Y-10515600D02*
G75*
G03*
X14426400Y-10515600I-50000J0D01*
G01*
X14426400Y-11531600D02*
G75*
G03*
X14426400Y-11531600I-50000J0D01*
G01*
X14426400Y-11785600D02*
G75*
G03*
X14426400Y-11785600I-50000J0D01*
G01*
X14426400Y-12039600D02*
G75*
G03*
X14426400Y-12039600I-50000J0D01*
G01*
X14426400Y-12293600D02*
G75*
G03*
X14426400Y-12293600I-50000J0D01*
G01*
D13*
X4343400Y-13229200D02*
X4343400Y-13339200D01*
X4288400Y-13284200D02*
X4398400Y-13284200D01*
X4343400Y-13879200D02*
X4343400Y-13989200D01*
X4288400Y-13934200D02*
X4398400Y-13934200D01*
X4793400Y-13229200D02*
X4793400Y-13339200D01*
X4738400Y-13284200D02*
X4848400Y-13284200D01*
X4793400Y-13879200D02*
X4793400Y-13989200D01*
X4738400Y-13934200D02*
X4848400Y-13934200D01*
D14*
X4651141Y-8943741D02*
X4651141Y-8836259D01*
X4543659Y-8836259D01*
X4543659Y-8943741D01*
X4651141Y-8943741D01*
X4651141Y-9451741D02*
X4651141Y-9344259D01*
X4543659Y-9344259D01*
X4543659Y-9451741D01*
X4651141Y-9451741D01*
X4651141Y-10137541D02*
X4651141Y-10030059D01*
X4543659Y-10030059D01*
X4543659Y-10137541D01*
X4651141Y-10137541D01*
X4651141Y-10645541D02*
X4651141Y-10538059D01*
X4543659Y-10538059D01*
X4543659Y-10645541D01*
X4651141Y-10645541D01*
X4651141Y-11153541D02*
X4651141Y-11046059D01*
X4543659Y-11046059D01*
X4543659Y-11153541D01*
X4651141Y-11153541D01*
X4651141Y-12118741D02*
X4651141Y-12011259D01*
X4543659Y-12011259D01*
X4543659Y-12118741D01*
X4651141Y-12118741D01*
X4651141Y-12626741D02*
X4651141Y-12519259D01*
X4543659Y-12519259D01*
X4543659Y-12626741D01*
X4651141Y-12626741D01*
X5032141Y-8003941D02*
X5032141Y-7896459D01*
X4924659Y-7896459D01*
X4924659Y-8003941D01*
X5032141Y-8003941D01*
X5311541Y-14768441D02*
X5311541Y-14660959D01*
X5204059Y-14660959D01*
X5204059Y-14768441D01*
X5311541Y-14768441D01*
X5540141Y-8003941D02*
X5540141Y-7896459D01*
X5432659Y-7896459D01*
X5432659Y-8003941D01*
X5540141Y-8003941D01*
X5819541Y-14768441D02*
X5819541Y-14660959D01*
X5712059Y-14660959D01*
X5712059Y-14768441D01*
X5819541Y-14768441D01*
X6048141Y-8003941D02*
X6048141Y-7896459D01*
X5940659Y-7896459D01*
X5940659Y-8003941D01*
X6048141Y-8003941D01*
X6327541Y-14768441D02*
X6327541Y-14660959D01*
X6220059Y-14660959D01*
X6220059Y-14768441D01*
X6327541Y-14768441D01*
X7229241Y-8003941D02*
X7229241Y-7896459D01*
X7121759Y-7896459D01*
X7121759Y-8003941D01*
X7229241Y-8003941D01*
X7737241Y-8003941D02*
X7737241Y-7896459D01*
X7629759Y-7896459D01*
X7629759Y-8003941D01*
X7737241Y-8003941D01*
X8245241Y-8003941D02*
X8245241Y-7896459D01*
X8137759Y-7896459D01*
X8137759Y-8003941D01*
X8245241Y-8003941D01*
X9426341Y-8003941D02*
X9426341Y-7896459D01*
X9318859Y-7896459D01*
X9318859Y-8003941D01*
X9426341Y-8003941D01*
X9934341Y-8003941D02*
X9934341Y-7896459D01*
X9826859Y-7896459D01*
X9826859Y-8003941D01*
X9934341Y-8003941D01*
X10442341Y-8003941D02*
X10442341Y-7896459D01*
X10334859Y-7896459D01*
X10334859Y-8003941D01*
X10442341Y-8003941D01*
X11623441Y-8003941D02*
X11623441Y-7896459D01*
X11515959Y-7896459D01*
X11515959Y-8003941D01*
X11623441Y-8003941D01*
X12131441Y-8003941D02*
X12131441Y-7896459D01*
X12023959Y-7896459D01*
X12023959Y-8003941D01*
X12131441Y-8003941D01*
X12639441Y-8003941D02*
X12639441Y-7896459D01*
X12531959Y-7896459D01*
X12531959Y-8003941D01*
X12639441Y-8003941D01*
X13820541Y-8003941D02*
X13820541Y-7896459D01*
X13713059Y-7896459D01*
X13713059Y-8003941D01*
X13820541Y-8003941D01*
X13922141Y-14768441D02*
X13922141Y-14660959D01*
X13814659Y-14660959D01*
X13814659Y-14768441D01*
X13922141Y-14768441D01*
X14328541Y-8003941D02*
X14328541Y-7896459D01*
X14221059Y-7896459D01*
X14221059Y-8003941D01*
X14328541Y-8003941D01*
X14430141Y-14768441D02*
X14430141Y-14660959D01*
X14322659Y-14660959D01*
X14322659Y-14768441D01*
X14430141Y-14768441D01*
X14836541Y-8003941D02*
X14836541Y-7896459D01*
X14729059Y-7896459D01*
X14729059Y-8003941D01*
X14836541Y-8003941D01*
X14938141Y-14768441D02*
X14938141Y-14660959D01*
X14830659Y-14660959D01*
X14830659Y-14768441D01*
X14938141Y-14768441D01*
X15344541Y-8892941D02*
X15344541Y-8785459D01*
X15237059Y-8785459D01*
X15237059Y-8892941D01*
X15344541Y-8892941D01*
X15344541Y-9400941D02*
X15344541Y-9293459D01*
X15237059Y-9293459D01*
X15237059Y-9400941D01*
X15344541Y-9400941D01*
X15344541Y-9908941D02*
X15344541Y-9801459D01*
X15237059Y-9801459D01*
X15237059Y-9908941D01*
X15344541Y-9908941D01*
X15344541Y-12880741D02*
X15344541Y-12773259D01*
X15237059Y-12773259D01*
X15237059Y-12880741D01*
X15344541Y-12880741D01*
X15344541Y-13388741D02*
X15344541Y-13281259D01*
X15237059Y-13281259D01*
X15237059Y-13388741D01*
X15344541Y-13388741D01*
X15344541Y-13896741D02*
X15344541Y-13789259D01*
X15237059Y-13789259D01*
X15237059Y-13896741D01*
X15344541Y-13896741D01*
D11*
X4178419Y-15669276D02*
X4178419Y-15469276D01*
X4226038Y-15469276D01*
X4254610Y-15478800D01*
X4273657Y-15497848D01*
X4283181Y-15516895D01*
X4292705Y-15554990D01*
X4292705Y-15583562D01*
X4283181Y-15621657D01*
X4273657Y-15640705D01*
X4254610Y-15659752D01*
X4226038Y-15669276D01*
X4178419Y-15669276D01*
X4378419Y-15669276D02*
X4378419Y-15535943D01*
X4378419Y-15574038D02*
X4387943Y-15554990D01*
X4397467Y-15545467D01*
X4416514Y-15535943D01*
X4435562Y-15535943D01*
X4502229Y-15669276D02*
X4502229Y-15535943D01*
X4502229Y-15469276D02*
X4492705Y-15478800D01*
X4502229Y-15488324D01*
X4511752Y-15478800D01*
X4502229Y-15469276D01*
X4502229Y-15488324D01*
X4626038Y-15669276D02*
X4606990Y-15659752D01*
X4597467Y-15640705D01*
X4597467Y-15469276D01*
X4730800Y-15669276D02*
X4711752Y-15659752D01*
X4702229Y-15640705D01*
X4702229Y-15469276D01*
X4959371Y-15669276D02*
X4959371Y-15469276D01*
X5026038Y-15612133D01*
X5092705Y-15469276D01*
X5092705Y-15669276D01*
X5273657Y-15669276D02*
X5273657Y-15564514D01*
X5264133Y-15545467D01*
X5245086Y-15535943D01*
X5206990Y-15535943D01*
X5187943Y-15545467D01*
X5273657Y-15659752D02*
X5254610Y-15669276D01*
X5206990Y-15669276D01*
X5187943Y-15659752D01*
X5178419Y-15640705D01*
X5178419Y-15621657D01*
X5187943Y-15602609D01*
X5206990Y-15593086D01*
X5254610Y-15593086D01*
X5273657Y-15583562D01*
X5368895Y-15535943D02*
X5368895Y-15735943D01*
X5368895Y-15545467D02*
X5387943Y-15535943D01*
X5426038Y-15535943D01*
X5445086Y-15545467D01*
X5454610Y-15554990D01*
X5464133Y-15574038D01*
X5464133Y-15631181D01*
X5454610Y-15650228D01*
X5445086Y-15659752D01*
X5426038Y-15669276D01*
X5387943Y-15669276D01*
X5368895Y-15659752D01*
X5549848Y-15650228D02*
X5559371Y-15659752D01*
X5549848Y-15669276D01*
X5540324Y-15659752D01*
X5549848Y-15650228D01*
X5549848Y-15669276D01*
X5549848Y-15545467D02*
X5559371Y-15554990D01*
X5549848Y-15564514D01*
X5540324Y-15554990D01*
X5549848Y-15545467D01*
X5549848Y-15564514D01*
D12*
X3840800Y-15958800D02*
X3920800Y-16038800D01*
X3920800Y-15958800D02*
X3840800Y-16038800D01*
D11*
X4216514Y-15889276D02*
X4235562Y-15889276D01*
X4254610Y-15898800D01*
X4264133Y-15908324D01*
X4273657Y-15927371D01*
X4283181Y-15965467D01*
X4283181Y-16013086D01*
X4273657Y-16051181D01*
X4264133Y-16070228D01*
X4254610Y-16079752D01*
X4235562Y-16089276D01*
X4216514Y-16089276D01*
X4197467Y-16079752D01*
X4187943Y-16070228D01*
X4178419Y-16051181D01*
X4168895Y-16013086D01*
X4168895Y-15965467D01*
X4178419Y-15927371D01*
X4187943Y-15908324D01*
X4197467Y-15898800D01*
X4216514Y-15889276D01*
X4368895Y-16070228D02*
X4378419Y-16079752D01*
X4368895Y-16089276D01*
X4359371Y-16079752D01*
X4368895Y-16070228D01*
X4368895Y-16089276D01*
X4492705Y-15974990D02*
X4473657Y-15965467D01*
X4464133Y-15955943D01*
X4454610Y-15936895D01*
X4454610Y-15927371D01*
X4464133Y-15908324D01*
X4473657Y-15898800D01*
X4492705Y-15889276D01*
X4530800Y-15889276D01*
X4549848Y-15898800D01*
X4559371Y-15908324D01*
X4568895Y-15927371D01*
X4568895Y-15936895D01*
X4559371Y-15955943D01*
X4549848Y-15965467D01*
X4530800Y-15974990D01*
X4492705Y-15974990D01*
X4473657Y-15984514D01*
X4464133Y-15994038D01*
X4454610Y-16013086D01*
X4454610Y-16051181D01*
X4464133Y-16070228D01*
X4473657Y-16079752D01*
X4492705Y-16089276D01*
X4530800Y-16089276D01*
X4549848Y-16079752D01*
X4559371Y-16070228D01*
X4568895Y-16051181D01*
X4568895Y-16013086D01*
X4559371Y-15994038D01*
X4549848Y-15984514D01*
X4530800Y-15974990D01*
X4692705Y-15889276D02*
X4711752Y-15889276D01*
X4730800Y-15898800D01*
X4740324Y-15908324D01*
X4749848Y-15927371D01*
X4759371Y-15965467D01*
X4759371Y-16013086D01*
X4749848Y-16051181D01*
X4740324Y-16070228D01*
X4730800Y-16079752D01*
X4711752Y-16089276D01*
X4692705Y-16089276D01*
X4673657Y-16079752D01*
X4664133Y-16070228D01*
X4654610Y-16051181D01*
X4645086Y-16013086D01*
X4645086Y-15965467D01*
X4654610Y-15927371D01*
X4664133Y-15908324D01*
X4673657Y-15898800D01*
X4692705Y-15889276D01*
X4883181Y-15889276D02*
X4902229Y-15889276D01*
X4921276Y-15898800D01*
X4930800Y-15908324D01*
X4940324Y-15927371D01*
X4949848Y-15965467D01*
X4949848Y-16013086D01*
X4940324Y-16051181D01*
X4930800Y-16070228D01*
X4921276Y-16079752D01*
X4902229Y-16089276D01*
X4883181Y-16089276D01*
X4864133Y-16079752D01*
X4854610Y-16070228D01*
X4845086Y-16051181D01*
X4835562Y-16013086D01*
X4835562Y-15965467D01*
X4845086Y-15927371D01*
X4854610Y-15908324D01*
X4864133Y-15898800D01*
X4883181Y-15889276D01*
X5035562Y-16089276D02*
X5035562Y-15955943D01*
X5035562Y-15974990D02*
X5045086Y-15965467D01*
X5064133Y-15955943D01*
X5092705Y-15955943D01*
X5111752Y-15965467D01*
X5121276Y-15984514D01*
X5121276Y-16089276D01*
X5121276Y-15984514D02*
X5130800Y-15965467D01*
X5149848Y-15955943D01*
X5178419Y-15955943D01*
X5197467Y-15965467D01*
X5206990Y-15984514D01*
X5206990Y-16089276D01*
X5302229Y-16089276D02*
X5302229Y-15955943D01*
X5302229Y-15974990D02*
X5311752Y-15965467D01*
X5330800Y-15955943D01*
X5359371Y-15955943D01*
X5378419Y-15965467D01*
X5387943Y-15984514D01*
X5387943Y-16089276D01*
X5387943Y-15984514D02*
X5397467Y-15965467D01*
X5416514Y-15955943D01*
X5445086Y-15955943D01*
X5464133Y-15965467D01*
X5473657Y-15984514D01*
X5473657Y-16089276D01*
X5864133Y-15879752D02*
X5692705Y-16136895D01*
X6121276Y-15889276D02*
X6140324Y-15889276D01*
X6159371Y-15898800D01*
X6168895Y-15908324D01*
X6178419Y-15927371D01*
X6187943Y-15965467D01*
X6187943Y-16013086D01*
X6178419Y-16051181D01*
X6168895Y-16070228D01*
X6159371Y-16079752D01*
X6140324Y-16089276D01*
X6121276Y-16089276D01*
X6102228Y-16079752D01*
X6092705Y-16070228D01*
X6083181Y-16051181D01*
X6073657Y-16013086D01*
X6073657Y-15965467D01*
X6083181Y-15927371D01*
X6092705Y-15908324D01*
X6102228Y-15898800D01*
X6121276Y-15889276D01*
X6273657Y-16070228D02*
X6283181Y-16079752D01*
X6273657Y-16089276D01*
X6264133Y-16079752D01*
X6273657Y-16070228D01*
X6273657Y-16089276D01*
X6406990Y-15889276D02*
X6426038Y-15889276D01*
X6445086Y-15898800D01*
X6454609Y-15908324D01*
X6464133Y-15927371D01*
X6473657Y-15965467D01*
X6473657Y-16013086D01*
X6464133Y-16051181D01*
X6454609Y-16070228D01*
X6445086Y-16079752D01*
X6426038Y-16089276D01*
X6406990Y-16089276D01*
X6387943Y-16079752D01*
X6378419Y-16070228D01*
X6368895Y-16051181D01*
X6359371Y-16013086D01*
X6359371Y-15965467D01*
X6368895Y-15927371D01*
X6378419Y-15908324D01*
X6387943Y-15898800D01*
X6406990Y-15889276D01*
X6540324Y-15889276D02*
X6664133Y-15889276D01*
X6597467Y-15965467D01*
X6626038Y-15965467D01*
X6645086Y-15974990D01*
X6654609Y-15984514D01*
X6664133Y-16003562D01*
X6664133Y-16051181D01*
X6654609Y-16070228D01*
X6645086Y-16079752D01*
X6626038Y-16089276D01*
X6568895Y-16089276D01*
X6549848Y-16079752D01*
X6540324Y-16070228D01*
X6854609Y-16089276D02*
X6740324Y-16089276D01*
X6797467Y-16089276D02*
X6797467Y-15889276D01*
X6778419Y-15917848D01*
X6759371Y-15936895D01*
X6740324Y-15946419D01*
X7035562Y-15889276D02*
X6940324Y-15889276D01*
X6930800Y-15984514D01*
X6940324Y-15974990D01*
X6959371Y-15965467D01*
X7006990Y-15965467D01*
X7026038Y-15974990D01*
X7035562Y-15984514D01*
X7045086Y-16003562D01*
X7045086Y-16051181D01*
X7035562Y-16070228D01*
X7026038Y-16079752D01*
X7006990Y-16089276D01*
X6959371Y-16089276D01*
X6940324Y-16079752D01*
X6930800Y-16070228D01*
X7121276Y-15889276D02*
X7121276Y-15927371D01*
X7197467Y-15889276D02*
X7197467Y-15927371D01*
X7492705Y-16165467D02*
X7483181Y-16155943D01*
X7464133Y-16127371D01*
X7454609Y-16108324D01*
X7445086Y-16079752D01*
X7435562Y-16032133D01*
X7435562Y-15994038D01*
X7445086Y-15946419D01*
X7454609Y-15917848D01*
X7464133Y-15898800D01*
X7483181Y-15870228D01*
X7492705Y-15860705D01*
X7559371Y-15908324D02*
X7568895Y-15898800D01*
X7587943Y-15889276D01*
X7635562Y-15889276D01*
X7654609Y-15898800D01*
X7664133Y-15908324D01*
X7673657Y-15927371D01*
X7673657Y-15946419D01*
X7664133Y-15974990D01*
X7549848Y-16089276D01*
X7673657Y-16089276D01*
X7797467Y-15889276D02*
X7816514Y-15889276D01*
X7835562Y-15898800D01*
X7845086Y-15908324D01*
X7854609Y-15927371D01*
X7864133Y-15965467D01*
X7864133Y-16013086D01*
X7854609Y-16051181D01*
X7845086Y-16070228D01*
X7835562Y-16079752D01*
X7816514Y-16089276D01*
X7797467Y-16089276D01*
X7778419Y-16079752D01*
X7768895Y-16070228D01*
X7759371Y-16051181D01*
X7749848Y-16013086D01*
X7749848Y-15965467D01*
X7759371Y-15927371D01*
X7768895Y-15908324D01*
X7778419Y-15898800D01*
X7797467Y-15889276D01*
X8102228Y-16089276D02*
X8102228Y-15889276D01*
X8187943Y-16089276D02*
X8187943Y-15984514D01*
X8178419Y-15965467D01*
X8159371Y-15955943D01*
X8130800Y-15955943D01*
X8111752Y-15965467D01*
X8102228Y-15974990D01*
X8311752Y-16089276D02*
X8292705Y-16079752D01*
X8283181Y-16070228D01*
X8273657Y-16051181D01*
X8273657Y-15994038D01*
X8283181Y-15974990D01*
X8292705Y-15965467D01*
X8311752Y-15955943D01*
X8340324Y-15955943D01*
X8359371Y-15965467D01*
X8368895Y-15974990D01*
X8378419Y-15994038D01*
X8378419Y-16051181D01*
X8368895Y-16070228D01*
X8359371Y-16079752D01*
X8340324Y-16089276D01*
X8311752Y-16089276D01*
X8492705Y-16089276D02*
X8473657Y-16079752D01*
X8464133Y-16060705D01*
X8464133Y-15889276D01*
X8645086Y-16079752D02*
X8626038Y-16089276D01*
X8587943Y-16089276D01*
X8568895Y-16079752D01*
X8559371Y-16060705D01*
X8559371Y-15984514D01*
X8568895Y-15965467D01*
X8587943Y-15955943D01*
X8626038Y-15955943D01*
X8645086Y-15965467D01*
X8654610Y-15984514D01*
X8654610Y-16003562D01*
X8559371Y-16022609D01*
X8730800Y-16079752D02*
X8749848Y-16089276D01*
X8787943Y-16089276D01*
X8806990Y-16079752D01*
X8816514Y-16060705D01*
X8816514Y-16051181D01*
X8806990Y-16032133D01*
X8787943Y-16022609D01*
X8759371Y-16022609D01*
X8740324Y-16013086D01*
X8730800Y-15994038D01*
X8730800Y-15984514D01*
X8740324Y-15965467D01*
X8759371Y-15955943D01*
X8787943Y-15955943D01*
X8806990Y-15965467D01*
X8883181Y-16165467D02*
X8892705Y-16155943D01*
X8911752Y-16127371D01*
X8921276Y-16108324D01*
X8930800Y-16079752D01*
X8940324Y-16032133D01*
X8940324Y-15994038D01*
X8930800Y-15946419D01*
X8921276Y-15917848D01*
X8911752Y-15898800D01*
X8892705Y-15870228D01*
X8883181Y-15860705D01*
D10*
X3920800Y-16262800D02*
G75*
G03*
X3920800Y-16262800I-50000J0D01*
G01*
D11*
X4283181Y-16353276D02*
X4168895Y-16353276D01*
X4226038Y-16353276D02*
X4226038Y-16153276D01*
X4206990Y-16181848D01*
X4187943Y-16200895D01*
X4168895Y-16210419D01*
X4368895Y-16334228D02*
X4378419Y-16343752D01*
X4368895Y-16353276D01*
X4359371Y-16343752D01*
X4368895Y-16334228D01*
X4368895Y-16353276D01*
X4502229Y-16153276D02*
X4521276Y-16153276D01*
X4540324Y-16162800D01*
X4549848Y-16172324D01*
X4559371Y-16191371D01*
X4568895Y-16229467D01*
X4568895Y-16277086D01*
X4559371Y-16315181D01*
X4549848Y-16334228D01*
X4540324Y-16343752D01*
X4521276Y-16353276D01*
X4502229Y-16353276D01*
X4483181Y-16343752D01*
X4473657Y-16334228D01*
X4464133Y-16315181D01*
X4454610Y-16277086D01*
X4454610Y-16229467D01*
X4464133Y-16191371D01*
X4473657Y-16172324D01*
X4483181Y-16162800D01*
X4502229Y-16153276D01*
X4692705Y-16153276D02*
X4711752Y-16153276D01*
X4730800Y-16162800D01*
X4740324Y-16172324D01*
X4749848Y-16191371D01*
X4759371Y-16229467D01*
X4759371Y-16277086D01*
X4749848Y-16315181D01*
X4740324Y-16334228D01*
X4730800Y-16343752D01*
X4711752Y-16353276D01*
X4692705Y-16353276D01*
X4673657Y-16343752D01*
X4664133Y-16334228D01*
X4654610Y-16315181D01*
X4645086Y-16277086D01*
X4645086Y-16229467D01*
X4654610Y-16191371D01*
X4664133Y-16172324D01*
X4673657Y-16162800D01*
X4692705Y-16153276D01*
X4883181Y-16153276D02*
X4902229Y-16153276D01*
X4921276Y-16162800D01*
X4930800Y-16172324D01*
X4940324Y-16191371D01*
X4949848Y-16229467D01*
X4949848Y-16277086D01*
X4940324Y-16315181D01*
X4930800Y-16334228D01*
X4921276Y-16343752D01*
X4902229Y-16353276D01*
X4883181Y-16353276D01*
X4864133Y-16343752D01*
X4854610Y-16334228D01*
X4845086Y-16315181D01*
X4835562Y-16277086D01*
X4835562Y-16229467D01*
X4845086Y-16191371D01*
X4854610Y-16172324D01*
X4864133Y-16162800D01*
X4883181Y-16153276D01*
X5035562Y-16353276D02*
X5035562Y-16219943D01*
X5035562Y-16238990D02*
X5045086Y-16229467D01*
X5064133Y-16219943D01*
X5092705Y-16219943D01*
X5111752Y-16229467D01*
X5121276Y-16248514D01*
X5121276Y-16353276D01*
X5121276Y-16248514D02*
X5130800Y-16229467D01*
X5149848Y-16219943D01*
X5178419Y-16219943D01*
X5197467Y-16229467D01*
X5206990Y-16248514D01*
X5206990Y-16353276D01*
X5302229Y-16353276D02*
X5302229Y-16219943D01*
X5302229Y-16238990D02*
X5311752Y-16229467D01*
X5330800Y-16219943D01*
X5359371Y-16219943D01*
X5378419Y-16229467D01*
X5387943Y-16248514D01*
X5387943Y-16353276D01*
X5387943Y-16248514D02*
X5397467Y-16229467D01*
X5416514Y-16219943D01*
X5445086Y-16219943D01*
X5464133Y-16229467D01*
X5473657Y-16248514D01*
X5473657Y-16353276D01*
X5864133Y-16143752D02*
X5692705Y-16400895D01*
X6121276Y-16153276D02*
X6140324Y-16153276D01*
X6159371Y-16162800D01*
X6168895Y-16172324D01*
X6178419Y-16191371D01*
X6187943Y-16229467D01*
X6187943Y-16277086D01*
X6178419Y-16315181D01*
X6168895Y-16334228D01*
X6159371Y-16343752D01*
X6140324Y-16353276D01*
X6121276Y-16353276D01*
X6102228Y-16343752D01*
X6092705Y-16334228D01*
X6083181Y-16315181D01*
X6073657Y-16277086D01*
X6073657Y-16229467D01*
X6083181Y-16191371D01*
X6092705Y-16172324D01*
X6102228Y-16162800D01*
X6121276Y-16153276D01*
X6273657Y-16334228D02*
X6283181Y-16343752D01*
X6273657Y-16353276D01*
X6264133Y-16343752D01*
X6273657Y-16334228D01*
X6273657Y-16353276D01*
X6406990Y-16153276D02*
X6426038Y-16153276D01*
X6445086Y-16162800D01*
X6454609Y-16172324D01*
X6464133Y-16191371D01*
X6473657Y-16229467D01*
X6473657Y-16277086D01*
X6464133Y-16315181D01*
X6454609Y-16334228D01*
X6445086Y-16343752D01*
X6426038Y-16353276D01*
X6406990Y-16353276D01*
X6387943Y-16343752D01*
X6378419Y-16334228D01*
X6368895Y-16315181D01*
X6359371Y-16277086D01*
X6359371Y-16229467D01*
X6368895Y-16191371D01*
X6378419Y-16172324D01*
X6387943Y-16162800D01*
X6406990Y-16153276D01*
X6540324Y-16153276D02*
X6664133Y-16153276D01*
X6597467Y-16229467D01*
X6626038Y-16229467D01*
X6645086Y-16238990D01*
X6654609Y-16248514D01*
X6664133Y-16267562D01*
X6664133Y-16315181D01*
X6654609Y-16334228D01*
X6645086Y-16343752D01*
X6626038Y-16353276D01*
X6568895Y-16353276D01*
X6549848Y-16343752D01*
X6540324Y-16334228D01*
X6759371Y-16353276D02*
X6797467Y-16353276D01*
X6816514Y-16343752D01*
X6826038Y-16334228D01*
X6845086Y-16305657D01*
X6854609Y-16267562D01*
X6854609Y-16191371D01*
X6845086Y-16172324D01*
X6835562Y-16162800D01*
X6816514Y-16153276D01*
X6778419Y-16153276D01*
X6759371Y-16162800D01*
X6749848Y-16172324D01*
X6740324Y-16191371D01*
X6740324Y-16238990D01*
X6749848Y-16258038D01*
X6759371Y-16267562D01*
X6778419Y-16277086D01*
X6816514Y-16277086D01*
X6835562Y-16267562D01*
X6845086Y-16258038D01*
X6854609Y-16238990D01*
X7026038Y-16219943D02*
X7026038Y-16353276D01*
X6978419Y-16143752D02*
X6930800Y-16286609D01*
X7054609Y-16286609D01*
X7121276Y-16153276D02*
X7121276Y-16191371D01*
X7197467Y-16153276D02*
X7197467Y-16191371D01*
X7492705Y-16429467D02*
X7483181Y-16419943D01*
X7464133Y-16391371D01*
X7454609Y-16372324D01*
X7445086Y-16343752D01*
X7435562Y-16296133D01*
X7435562Y-16258038D01*
X7445086Y-16210419D01*
X7454609Y-16181848D01*
X7464133Y-16162800D01*
X7483181Y-16134228D01*
X7492705Y-16124705D01*
X7664133Y-16153276D02*
X7568895Y-16153276D01*
X7559371Y-16248514D01*
X7568895Y-16238990D01*
X7587943Y-16229467D01*
X7635562Y-16229467D01*
X7654609Y-16238990D01*
X7664133Y-16248514D01*
X7673657Y-16267562D01*
X7673657Y-16315181D01*
X7664133Y-16334228D01*
X7654609Y-16343752D01*
X7635562Y-16353276D01*
X7587943Y-16353276D01*
X7568895Y-16343752D01*
X7559371Y-16334228D01*
X7854609Y-16153276D02*
X7759371Y-16153276D01*
X7749848Y-16248514D01*
X7759371Y-16238990D01*
X7778419Y-16229467D01*
X7826038Y-16229467D01*
X7845086Y-16238990D01*
X7854609Y-16248514D01*
X7864133Y-16267562D01*
X7864133Y-16315181D01*
X7854609Y-16334228D01*
X7845086Y-16343752D01*
X7826038Y-16353276D01*
X7778419Y-16353276D01*
X7759371Y-16343752D01*
X7749848Y-16334228D01*
X8102228Y-16353276D02*
X8102228Y-16153276D01*
X8187943Y-16353276D02*
X8187943Y-16248514D01*
X8178419Y-16229467D01*
X8159371Y-16219943D01*
X8130800Y-16219943D01*
X8111752Y-16229467D01*
X8102228Y-16238990D01*
X8311752Y-16353276D02*
X8292705Y-16343752D01*
X8283181Y-16334228D01*
X8273657Y-16315181D01*
X8273657Y-16258038D01*
X8283181Y-16238990D01*
X8292705Y-16229467D01*
X8311752Y-16219943D01*
X8340324Y-16219943D01*
X8359371Y-16229467D01*
X8368895Y-16238990D01*
X8378419Y-16258038D01*
X8378419Y-16315181D01*
X8368895Y-16334228D01*
X8359371Y-16343752D01*
X8340324Y-16353276D01*
X8311752Y-16353276D01*
X8492705Y-16353276D02*
X8473657Y-16343752D01*
X8464133Y-16324705D01*
X8464133Y-16153276D01*
X8645086Y-16343752D02*
X8626038Y-16353276D01*
X8587943Y-16353276D01*
X8568895Y-16343752D01*
X8559371Y-16324705D01*
X8559371Y-16248514D01*
X8568895Y-16229467D01*
X8587943Y-16219943D01*
X8626038Y-16219943D01*
X8645086Y-16229467D01*
X8654610Y-16248514D01*
X8654610Y-16267562D01*
X8559371Y-16286609D01*
X8730800Y-16343752D02*
X8749848Y-16353276D01*
X8787943Y-16353276D01*
X8806990Y-16343752D01*
X8816514Y-16324705D01*
X8816514Y-16315181D01*
X8806990Y-16296133D01*
X8787943Y-16286609D01*
X8759371Y-16286609D01*
X8740324Y-16277086D01*
X8730800Y-16258038D01*
X8730800Y-16248514D01*
X8740324Y-16229467D01*
X8759371Y-16219943D01*
X8787943Y-16219943D01*
X8806990Y-16229467D01*
X8883181Y-16429467D02*
X8892705Y-16419943D01*
X8911752Y-16391371D01*
X8921276Y-16372324D01*
X8930800Y-16343752D01*
X8940324Y-16296133D01*
X8940324Y-16258038D01*
X8930800Y-16210419D01*
X8921276Y-16181848D01*
X8911752Y-16162800D01*
X8892705Y-16134228D01*
X8883181Y-16124705D01*
D13*
X3865800Y-16471800D02*
X3865800Y-16581800D01*
X3810800Y-16526800D02*
X3920800Y-16526800D01*
D11*
X4283181Y-16617276D02*
X4168895Y-16617276D01*
X4226038Y-16617276D02*
X4226038Y-16417276D01*
X4206990Y-16445848D01*
X4187943Y-16464895D01*
X4168895Y-16474419D01*
X4368895Y-16598228D02*
X4378419Y-16607752D01*
X4368895Y-16617276D01*
X4359371Y-16607752D01*
X4368895Y-16598228D01*
X4368895Y-16617276D01*
X4568895Y-16617276D02*
X4454610Y-16617276D01*
X4511752Y-16617276D02*
X4511752Y-16417276D01*
X4492705Y-16445848D01*
X4473657Y-16464895D01*
X4454610Y-16474419D01*
X4692705Y-16417276D02*
X4711752Y-16417276D01*
X4730800Y-16426800D01*
X4740324Y-16436324D01*
X4749848Y-16455371D01*
X4759371Y-16493467D01*
X4759371Y-16541086D01*
X4749848Y-16579181D01*
X4740324Y-16598228D01*
X4730800Y-16607752D01*
X4711752Y-16617276D01*
X4692705Y-16617276D01*
X4673657Y-16607752D01*
X4664133Y-16598228D01*
X4654610Y-16579181D01*
X4645086Y-16541086D01*
X4645086Y-16493467D01*
X4654610Y-16455371D01*
X4664133Y-16436324D01*
X4673657Y-16426800D01*
X4692705Y-16417276D01*
X4883181Y-16417276D02*
X4902229Y-16417276D01*
X4921276Y-16426800D01*
X4930800Y-16436324D01*
X4940324Y-16455371D01*
X4949848Y-16493467D01*
X4949848Y-16541086D01*
X4940324Y-16579181D01*
X4930800Y-16598228D01*
X4921276Y-16607752D01*
X4902229Y-16617276D01*
X4883181Y-16617276D01*
X4864133Y-16607752D01*
X4854610Y-16598228D01*
X4845086Y-16579181D01*
X4835562Y-16541086D01*
X4835562Y-16493467D01*
X4845086Y-16455371D01*
X4854610Y-16436324D01*
X4864133Y-16426800D01*
X4883181Y-16417276D01*
X5035562Y-16617276D02*
X5035562Y-16483943D01*
X5035562Y-16502990D02*
X5045086Y-16493467D01*
X5064133Y-16483943D01*
X5092705Y-16483943D01*
X5111752Y-16493467D01*
X5121276Y-16512514D01*
X5121276Y-16617276D01*
X5121276Y-16512514D02*
X5130800Y-16493467D01*
X5149848Y-16483943D01*
X5178419Y-16483943D01*
X5197467Y-16493467D01*
X5206990Y-16512514D01*
X5206990Y-16617276D01*
X5302229Y-16617276D02*
X5302229Y-16483943D01*
X5302229Y-16502990D02*
X5311752Y-16493467D01*
X5330800Y-16483943D01*
X5359371Y-16483943D01*
X5378419Y-16493467D01*
X5387943Y-16512514D01*
X5387943Y-16617276D01*
X5387943Y-16512514D02*
X5397467Y-16493467D01*
X5416514Y-16483943D01*
X5445086Y-16483943D01*
X5464133Y-16493467D01*
X5473657Y-16512514D01*
X5473657Y-16617276D01*
X5864133Y-16407752D02*
X5692705Y-16664895D01*
X6121276Y-16417276D02*
X6140324Y-16417276D01*
X6159371Y-16426800D01*
X6168895Y-16436324D01*
X6178419Y-16455371D01*
X6187943Y-16493467D01*
X6187943Y-16541086D01*
X6178419Y-16579181D01*
X6168895Y-16598228D01*
X6159371Y-16607752D01*
X6140324Y-16617276D01*
X6121276Y-16617276D01*
X6102228Y-16607752D01*
X6092705Y-16598228D01*
X6083181Y-16579181D01*
X6073657Y-16541086D01*
X6073657Y-16493467D01*
X6083181Y-16455371D01*
X6092705Y-16436324D01*
X6102228Y-16426800D01*
X6121276Y-16417276D01*
X6273657Y-16598228D02*
X6283181Y-16607752D01*
X6273657Y-16617276D01*
X6264133Y-16607752D01*
X6273657Y-16598228D01*
X6273657Y-16617276D01*
X6406990Y-16417276D02*
X6426038Y-16417276D01*
X6445086Y-16426800D01*
X6454609Y-16436324D01*
X6464133Y-16455371D01*
X6473657Y-16493467D01*
X6473657Y-16541086D01*
X6464133Y-16579181D01*
X6454609Y-16598228D01*
X6445086Y-16607752D01*
X6426038Y-16617276D01*
X6406990Y-16617276D01*
X6387943Y-16607752D01*
X6378419Y-16598228D01*
X6368895Y-16579181D01*
X6359371Y-16541086D01*
X6359371Y-16493467D01*
X6368895Y-16455371D01*
X6378419Y-16436324D01*
X6387943Y-16426800D01*
X6406990Y-16417276D01*
X6645086Y-16483943D02*
X6645086Y-16617276D01*
X6597467Y-16407752D02*
X6549848Y-16550609D01*
X6673657Y-16550609D01*
X6730800Y-16417276D02*
X6854609Y-16417276D01*
X6787943Y-16493467D01*
X6816514Y-16493467D01*
X6835562Y-16502990D01*
X6845086Y-16512514D01*
X6854609Y-16531562D01*
X6854609Y-16579181D01*
X6845086Y-16598228D01*
X6835562Y-16607752D01*
X6816514Y-16617276D01*
X6759371Y-16617276D01*
X6740324Y-16607752D01*
X6730800Y-16598228D01*
X6921276Y-16417276D02*
X7045086Y-16417276D01*
X6978419Y-16493467D01*
X7006990Y-16493467D01*
X7026038Y-16502990D01*
X7035562Y-16512514D01*
X7045086Y-16531562D01*
X7045086Y-16579181D01*
X7035562Y-16598228D01*
X7026038Y-16607752D01*
X7006990Y-16617276D01*
X6949848Y-16617276D01*
X6930800Y-16607752D01*
X6921276Y-16598228D01*
X7121276Y-16417276D02*
X7121276Y-16455371D01*
X7197467Y-16417276D02*
X7197467Y-16455371D01*
X7492705Y-16693467D02*
X7483181Y-16683943D01*
X7464133Y-16655371D01*
X7454609Y-16636324D01*
X7445086Y-16607752D01*
X7435562Y-16560133D01*
X7435562Y-16522038D01*
X7445086Y-16474419D01*
X7454609Y-16445848D01*
X7464133Y-16426800D01*
X7483181Y-16398228D01*
X7492705Y-16388705D01*
X7654609Y-16483943D02*
X7654609Y-16617276D01*
X7606990Y-16407752D02*
X7559371Y-16550609D01*
X7683181Y-16550609D01*
X7911752Y-16617276D02*
X7911752Y-16417276D01*
X7997467Y-16617276D02*
X7997467Y-16512514D01*
X7987943Y-16493467D01*
X7968895Y-16483943D01*
X7940324Y-16483943D01*
X7921276Y-16493467D01*
X7911752Y-16502990D01*
X8121276Y-16617276D02*
X8102228Y-16607752D01*
X8092705Y-16598228D01*
X8083181Y-16579181D01*
X8083181Y-16522038D01*
X8092705Y-16502990D01*
X8102228Y-16493467D01*
X8121276Y-16483943D01*
X8149848Y-16483943D01*
X8168895Y-16493467D01*
X8178419Y-16502990D01*
X8187943Y-16522038D01*
X8187943Y-16579181D01*
X8178419Y-16598228D01*
X8168895Y-16607752D01*
X8149848Y-16617276D01*
X8121276Y-16617276D01*
X8302228Y-16617276D02*
X8283181Y-16607752D01*
X8273657Y-16588705D01*
X8273657Y-16417276D01*
X8454610Y-16607752D02*
X8435562Y-16617276D01*
X8397467Y-16617276D01*
X8378419Y-16607752D01*
X8368895Y-16588705D01*
X8368895Y-16512514D01*
X8378419Y-16493467D01*
X8397467Y-16483943D01*
X8435562Y-16483943D01*
X8454610Y-16493467D01*
X8464133Y-16512514D01*
X8464133Y-16531562D01*
X8368895Y-16550609D01*
X8540324Y-16607752D02*
X8559371Y-16617276D01*
X8597467Y-16617276D01*
X8616514Y-16607752D01*
X8626038Y-16588705D01*
X8626038Y-16579181D01*
X8616514Y-16560133D01*
X8597467Y-16550609D01*
X8568895Y-16550609D01*
X8549848Y-16541086D01*
X8540324Y-16522038D01*
X8540324Y-16512514D01*
X8549848Y-16493467D01*
X8568895Y-16483943D01*
X8597467Y-16483943D01*
X8616514Y-16493467D01*
X8692705Y-16693467D02*
X8702229Y-16683943D01*
X8721276Y-16655371D01*
X8730800Y-16636324D01*
X8740324Y-16607752D01*
X8749848Y-16560133D01*
X8749848Y-16522038D01*
X8740324Y-16474419D01*
X8730800Y-16445848D01*
X8721276Y-16426800D01*
X8702229Y-16398228D01*
X8692705Y-16388705D01*
D14*
X3898541Y-16844541D02*
X3898541Y-16737059D01*
X3791059Y-16737059D01*
X3791059Y-16844541D01*
X3898541Y-16844541D01*
D11*
X4283181Y-16881276D02*
X4168895Y-16881276D01*
X4226038Y-16881276D02*
X4226038Y-16681276D01*
X4206990Y-16709848D01*
X4187943Y-16728895D01*
X4168895Y-16738419D01*
X4368895Y-16862229D02*
X4378419Y-16871752D01*
X4368895Y-16881276D01*
X4359371Y-16871752D01*
X4368895Y-16862229D01*
X4368895Y-16881276D01*
X4559371Y-16681276D02*
X4464133Y-16681276D01*
X4454610Y-16776514D01*
X4464133Y-16766990D01*
X4483181Y-16757467D01*
X4530800Y-16757467D01*
X4549848Y-16766990D01*
X4559371Y-16776514D01*
X4568895Y-16795562D01*
X4568895Y-16843181D01*
X4559371Y-16862229D01*
X4549848Y-16871752D01*
X4530800Y-16881276D01*
X4483181Y-16881276D01*
X4464133Y-16871752D01*
X4454610Y-16862229D01*
X4645086Y-16700324D02*
X4654610Y-16690800D01*
X4673657Y-16681276D01*
X4721276Y-16681276D01*
X4740324Y-16690800D01*
X4749848Y-16700324D01*
X4759371Y-16719371D01*
X4759371Y-16738419D01*
X4749848Y-16766990D01*
X4635562Y-16881276D01*
X4759371Y-16881276D01*
X4883181Y-16681276D02*
X4902229Y-16681276D01*
X4921276Y-16690800D01*
X4930800Y-16700324D01*
X4940324Y-16719371D01*
X4949848Y-16757467D01*
X4949848Y-16805086D01*
X4940324Y-16843181D01*
X4930800Y-16862229D01*
X4921276Y-16871752D01*
X4902229Y-16881276D01*
X4883181Y-16881276D01*
X4864133Y-16871752D01*
X4854610Y-16862229D01*
X4845086Y-16843181D01*
X4835562Y-16805086D01*
X4835562Y-16757467D01*
X4845086Y-16719371D01*
X4854610Y-16700324D01*
X4864133Y-16690800D01*
X4883181Y-16681276D01*
X5035562Y-16881276D02*
X5035562Y-16747943D01*
X5035562Y-16766990D02*
X5045086Y-16757467D01*
X5064133Y-16747943D01*
X5092705Y-16747943D01*
X5111752Y-16757467D01*
X5121276Y-16776514D01*
X5121276Y-16881276D01*
X5121276Y-16776514D02*
X5130800Y-16757467D01*
X5149848Y-16747943D01*
X5178419Y-16747943D01*
X5197467Y-16757467D01*
X5206990Y-16776514D01*
X5206990Y-16881276D01*
X5302229Y-16881276D02*
X5302229Y-16747943D01*
X5302229Y-16766990D02*
X5311752Y-16757467D01*
X5330800Y-16747943D01*
X5359371Y-16747943D01*
X5378419Y-16757467D01*
X5387943Y-16776514D01*
X5387943Y-16881276D01*
X5387943Y-16776514D02*
X5397467Y-16757467D01*
X5416514Y-16747943D01*
X5445086Y-16747943D01*
X5464133Y-16757467D01*
X5473657Y-16776514D01*
X5473657Y-16881276D01*
X5864133Y-16671752D02*
X5692705Y-16928895D01*
X6121276Y-16681276D02*
X6140324Y-16681276D01*
X6159371Y-16690800D01*
X6168895Y-16700324D01*
X6178419Y-16719371D01*
X6187943Y-16757467D01*
X6187943Y-16805086D01*
X6178419Y-16843181D01*
X6168895Y-16862229D01*
X6159371Y-16871752D01*
X6140324Y-16881276D01*
X6121276Y-16881276D01*
X6102228Y-16871752D01*
X6092705Y-16862229D01*
X6083181Y-16843181D01*
X6073657Y-16805086D01*
X6073657Y-16757467D01*
X6083181Y-16719371D01*
X6092705Y-16700324D01*
X6102228Y-16690800D01*
X6121276Y-16681276D01*
X6273657Y-16862229D02*
X6283181Y-16871752D01*
X6273657Y-16881276D01*
X6264133Y-16871752D01*
X6273657Y-16862229D01*
X6273657Y-16881276D01*
X6406990Y-16681276D02*
X6426038Y-16681276D01*
X6445086Y-16690800D01*
X6454609Y-16700324D01*
X6464133Y-16719371D01*
X6473657Y-16757467D01*
X6473657Y-16805086D01*
X6464133Y-16843181D01*
X6454609Y-16862229D01*
X6445086Y-16871752D01*
X6426038Y-16881276D01*
X6406990Y-16881276D01*
X6387943Y-16871752D01*
X6378419Y-16862229D01*
X6368895Y-16843181D01*
X6359371Y-16805086D01*
X6359371Y-16757467D01*
X6368895Y-16719371D01*
X6378419Y-16700324D01*
X6387943Y-16690800D01*
X6406990Y-16681276D01*
X6654609Y-16681276D02*
X6559371Y-16681276D01*
X6549848Y-16776514D01*
X6559371Y-16766990D01*
X6578419Y-16757467D01*
X6626038Y-16757467D01*
X6645086Y-16766990D01*
X6654609Y-16776514D01*
X6664133Y-16795562D01*
X6664133Y-16843181D01*
X6654609Y-16862229D01*
X6645086Y-16871752D01*
X6626038Y-16881276D01*
X6578419Y-16881276D01*
X6559371Y-16871752D01*
X6549848Y-16862229D01*
X6759371Y-16881276D02*
X6797467Y-16881276D01*
X6816514Y-16871752D01*
X6826038Y-16862229D01*
X6845086Y-16833657D01*
X6854609Y-16795562D01*
X6854609Y-16719371D01*
X6845086Y-16700324D01*
X6835562Y-16690800D01*
X6816514Y-16681276D01*
X6778419Y-16681276D01*
X6759371Y-16690800D01*
X6749848Y-16700324D01*
X6740324Y-16719371D01*
X6740324Y-16766990D01*
X6749848Y-16786038D01*
X6759371Y-16795562D01*
X6778419Y-16805086D01*
X6816514Y-16805086D01*
X6835562Y-16795562D01*
X6845086Y-16786038D01*
X6854609Y-16766990D01*
X6968895Y-16766990D02*
X6949848Y-16757467D01*
X6940324Y-16747943D01*
X6930800Y-16728895D01*
X6930800Y-16719371D01*
X6940324Y-16700324D01*
X6949848Y-16690800D01*
X6968895Y-16681276D01*
X7006990Y-16681276D01*
X7026038Y-16690800D01*
X7035562Y-16700324D01*
X7045086Y-16719371D01*
X7045086Y-16728895D01*
X7035562Y-16747943D01*
X7026038Y-16757467D01*
X7006990Y-16766990D01*
X6968895Y-16766990D01*
X6949848Y-16776514D01*
X6940324Y-16786038D01*
X6930800Y-16805086D01*
X6930800Y-16843181D01*
X6940324Y-16862229D01*
X6949848Y-16871752D01*
X6968895Y-16881276D01*
X7006990Y-16881276D01*
X7026038Y-16871752D01*
X7035562Y-16862229D01*
X7045086Y-16843181D01*
X7045086Y-16805086D01*
X7035562Y-16786038D01*
X7026038Y-16776514D01*
X7006990Y-16766990D01*
X7121276Y-16681276D02*
X7121276Y-16719371D01*
X7197467Y-16681276D02*
X7197467Y-16719371D01*
X7492705Y-16957467D02*
X7483181Y-16947943D01*
X7464133Y-16919371D01*
X7454609Y-16900324D01*
X7445086Y-16871752D01*
X7435562Y-16824133D01*
X7435562Y-16786038D01*
X7445086Y-16738419D01*
X7454609Y-16709848D01*
X7464133Y-16690800D01*
X7483181Y-16662228D01*
X7492705Y-16652705D01*
X7549848Y-16681276D02*
X7673657Y-16681276D01*
X7606990Y-16757467D01*
X7635562Y-16757467D01*
X7654609Y-16766990D01*
X7664133Y-16776514D01*
X7673657Y-16795562D01*
X7673657Y-16843181D01*
X7664133Y-16862229D01*
X7654609Y-16871752D01*
X7635562Y-16881276D01*
X7578419Y-16881276D01*
X7559371Y-16871752D01*
X7549848Y-16862229D01*
X7845086Y-16747943D02*
X7845086Y-16881276D01*
X7797467Y-16671752D02*
X7749848Y-16814610D01*
X7873657Y-16814610D01*
X8102228Y-16881276D02*
X8102228Y-16681276D01*
X8187943Y-16881276D02*
X8187943Y-16776514D01*
X8178419Y-16757467D01*
X8159371Y-16747943D01*
X8130800Y-16747943D01*
X8111752Y-16757467D01*
X8102228Y-16766990D01*
X8311752Y-16881276D02*
X8292705Y-16871752D01*
X8283181Y-16862229D01*
X8273657Y-16843181D01*
X8273657Y-16786038D01*
X8283181Y-16766990D01*
X8292705Y-16757467D01*
X8311752Y-16747943D01*
X8340324Y-16747943D01*
X8359371Y-16757467D01*
X8368895Y-16766990D01*
X8378419Y-16786038D01*
X8378419Y-16843181D01*
X8368895Y-16862229D01*
X8359371Y-16871752D01*
X8340324Y-16881276D01*
X8311752Y-16881276D01*
X8492705Y-16881276D02*
X8473657Y-16871752D01*
X8464133Y-16852705D01*
X8464133Y-16681276D01*
X8645086Y-16871752D02*
X8626038Y-16881276D01*
X8587943Y-16881276D01*
X8568895Y-16871752D01*
X8559371Y-16852705D01*
X8559371Y-16776514D01*
X8568895Y-16757467D01*
X8587943Y-16747943D01*
X8626038Y-16747943D01*
X8645086Y-16757467D01*
X8654610Y-16776514D01*
X8654610Y-16795562D01*
X8559371Y-16814610D01*
X8730800Y-16871752D02*
X8749848Y-16881276D01*
X8787943Y-16881276D01*
X8806990Y-16871752D01*
X8816514Y-16852705D01*
X8816514Y-16843181D01*
X8806990Y-16824133D01*
X8787943Y-16814610D01*
X8759371Y-16814610D01*
X8740324Y-16805086D01*
X8730800Y-16786038D01*
X8730800Y-16776514D01*
X8740324Y-16757467D01*
X8759371Y-16747943D01*
X8787943Y-16747943D01*
X8806990Y-16757467D01*
X8883181Y-16957467D02*
X8892705Y-16947943D01*
X8911752Y-16919371D01*
X8921276Y-16900324D01*
X8930800Y-16871752D01*
X8940324Y-16824133D01*
X8940324Y-16786038D01*
X8930800Y-16738419D01*
X8921276Y-16709848D01*
X8911752Y-16690800D01*
X8892705Y-16662228D01*
X8883181Y-16652705D01*
M02*
