%TF.GenerationSoftware,KiCad,Pcbnew,7.0.1*%
%TF.CreationDate,2023-04-04T11:49:21-04:00*%
%TF.ProjectId,luison-electronics,6c756973-6f6e-42d6-956c-656374726f6e,rev?*%
%TF.SameCoordinates,Original*%
%TF.FileFunction,Profile,NP*%
%FSLAX46Y46*%
G04 Gerber Fmt 4.6, Leading zero omitted, Abs format (unit mm)*
G04 Created by KiCad (PCBNEW 7.0.1) date 2023-04-04 11:49:21*
%MOMM*%
%LPD*%
G01*
G04 APERTURE LIST*
%ADD10C,0.150000*%
%TA.AperFunction,Profile*%
%ADD11C,0.100000*%
%TD*%
G04 APERTURE END LIST*
D10*
X102833619Y-91772856D02*
X102833619Y-91963332D01*
X102833619Y-91963332D02*
X102881238Y-92058570D01*
X102881238Y-92058570D02*
X102928857Y-92106189D01*
X102928857Y-92106189D02*
X103071714Y-92201427D01*
X103071714Y-92201427D02*
X103262190Y-92249046D01*
X103262190Y-92249046D02*
X103643142Y-92249046D01*
X103643142Y-92249046D02*
X103738380Y-92201427D01*
X103738380Y-92201427D02*
X103786000Y-92153808D01*
X103786000Y-92153808D02*
X103833619Y-92058570D01*
X103833619Y-92058570D02*
X103833619Y-91868094D01*
X103833619Y-91868094D02*
X103786000Y-91772856D01*
X103786000Y-91772856D02*
X103738380Y-91725237D01*
X103738380Y-91725237D02*
X103643142Y-91677618D01*
X103643142Y-91677618D02*
X103405047Y-91677618D01*
X103405047Y-91677618D02*
X103309809Y-91725237D01*
X103309809Y-91725237D02*
X103262190Y-91772856D01*
X103262190Y-91772856D02*
X103214571Y-91868094D01*
X103214571Y-91868094D02*
X103214571Y-92058570D01*
X103214571Y-92058570D02*
X103262190Y-92153808D01*
X103262190Y-92153808D02*
X103309809Y-92201427D01*
X103309809Y-92201427D02*
X103405047Y-92249046D01*
X103166952Y-90820475D02*
X103833619Y-90820475D01*
X102786000Y-91058570D02*
X103500285Y-91296665D01*
X103500285Y-91296665D02*
X103500285Y-90677618D01*
X103786000Y-90249046D02*
X103833619Y-90249046D01*
X103833619Y-90249046D02*
X103928857Y-90296665D01*
X103928857Y-90296665D02*
X103976476Y-90344284D01*
X102833619Y-89915713D02*
X102833619Y-89249047D01*
X102833619Y-89249047D02*
X103833619Y-89677618D01*
X102833619Y-88963332D02*
X102833619Y-88296666D01*
X102833619Y-88296666D02*
X103833619Y-88725237D01*
X102833619Y-87725237D02*
X102833619Y-87629999D01*
X102833619Y-87629999D02*
X102881238Y-87534761D01*
X102881238Y-87534761D02*
X102928857Y-87487142D01*
X102928857Y-87487142D02*
X103024095Y-87439523D01*
X103024095Y-87439523D02*
X103214571Y-87391904D01*
X103214571Y-87391904D02*
X103452666Y-87391904D01*
X103452666Y-87391904D02*
X103643142Y-87439523D01*
X103643142Y-87439523D02*
X103738380Y-87487142D01*
X103738380Y-87487142D02*
X103786000Y-87534761D01*
X103786000Y-87534761D02*
X103833619Y-87629999D01*
X103833619Y-87629999D02*
X103833619Y-87725237D01*
X103833619Y-87725237D02*
X103786000Y-87820475D01*
X103786000Y-87820475D02*
X103738380Y-87868094D01*
X103738380Y-87868094D02*
X103643142Y-87915713D01*
X103643142Y-87915713D02*
X103452666Y-87963332D01*
X103452666Y-87963332D02*
X103214571Y-87963332D01*
X103214571Y-87963332D02*
X103024095Y-87915713D01*
X103024095Y-87915713D02*
X102928857Y-87868094D01*
X102928857Y-87868094D02*
X102881238Y-87820475D01*
X102881238Y-87820475D02*
X102833619Y-87725237D01*
X102833619Y-86772856D02*
X102833619Y-86677618D01*
X102833619Y-86677618D02*
X102881238Y-86582380D01*
X102881238Y-86582380D02*
X102928857Y-86534761D01*
X102928857Y-86534761D02*
X103024095Y-86487142D01*
X103024095Y-86487142D02*
X103214571Y-86439523D01*
X103214571Y-86439523D02*
X103452666Y-86439523D01*
X103452666Y-86439523D02*
X103643142Y-86487142D01*
X103643142Y-86487142D02*
X103738380Y-86534761D01*
X103738380Y-86534761D02*
X103786000Y-86582380D01*
X103786000Y-86582380D02*
X103833619Y-86677618D01*
X103833619Y-86677618D02*
X103833619Y-86772856D01*
X103833619Y-86772856D02*
X103786000Y-86868094D01*
X103786000Y-86868094D02*
X103738380Y-86915713D01*
X103738380Y-86915713D02*
X103643142Y-86963332D01*
X103643142Y-86963332D02*
X103452666Y-87010951D01*
X103452666Y-87010951D02*
X103214571Y-87010951D01*
X103214571Y-87010951D02*
X103024095Y-86963332D01*
X103024095Y-86963332D02*
X102928857Y-86915713D01*
X102928857Y-86915713D02*
X102881238Y-86868094D01*
X102881238Y-86868094D02*
X102833619Y-86772856D01*
X103833619Y-85249046D02*
X103166952Y-85249046D01*
X103262190Y-85249046D02*
X103214571Y-85201427D01*
X103214571Y-85201427D02*
X103166952Y-85106189D01*
X103166952Y-85106189D02*
X103166952Y-84963332D01*
X103166952Y-84963332D02*
X103214571Y-84868094D01*
X103214571Y-84868094D02*
X103309809Y-84820475D01*
X103309809Y-84820475D02*
X103833619Y-84820475D01*
X103309809Y-84820475D02*
X103214571Y-84772856D01*
X103214571Y-84772856D02*
X103166952Y-84677618D01*
X103166952Y-84677618D02*
X103166952Y-84534761D01*
X103166952Y-84534761D02*
X103214571Y-84439522D01*
X103214571Y-84439522D02*
X103309809Y-84391903D01*
X103309809Y-84391903D02*
X103833619Y-84391903D01*
X103833619Y-83915713D02*
X103166952Y-83915713D01*
X103262190Y-83915713D02*
X103214571Y-83868094D01*
X103214571Y-83868094D02*
X103166952Y-83772856D01*
X103166952Y-83772856D02*
X103166952Y-83629999D01*
X103166952Y-83629999D02*
X103214571Y-83534761D01*
X103214571Y-83534761D02*
X103309809Y-83487142D01*
X103309809Y-83487142D02*
X103833619Y-83487142D01*
X103309809Y-83487142D02*
X103214571Y-83439523D01*
X103214571Y-83439523D02*
X103166952Y-83344285D01*
X103166952Y-83344285D02*
X103166952Y-83201428D01*
X103166952Y-83201428D02*
X103214571Y-83106189D01*
X103214571Y-83106189D02*
X103309809Y-83058570D01*
X103309809Y-83058570D02*
X103833619Y-83058570D01*
D11*
X110625000Y-55245000D02*
X103934580Y-55245000D01*
X110625000Y-120015000D02*
X103934580Y-120015000D01*
X104521000Y-55245000D02*
X104521000Y-120015000D01*
X104521000Y-55245000D02*
X104521000Y-120015000D01*
X104521000Y-55245000D02*
X105107421Y-56371504D01*
X104521000Y-55245000D02*
X103934579Y-56371504D01*
X104521000Y-120015000D02*
X103934579Y-118888496D01*
X104521000Y-120015000D02*
X105107421Y-118888496D01*
D10*
X207354619Y-93550856D02*
X207354619Y-93741332D01*
X207354619Y-93741332D02*
X207402238Y-93836570D01*
X207402238Y-93836570D02*
X207449857Y-93884189D01*
X207449857Y-93884189D02*
X207592714Y-93979427D01*
X207592714Y-93979427D02*
X207783190Y-94027046D01*
X207783190Y-94027046D02*
X208164142Y-94027046D01*
X208164142Y-94027046D02*
X208259380Y-93979427D01*
X208259380Y-93979427D02*
X208307000Y-93931808D01*
X208307000Y-93931808D02*
X208354619Y-93836570D01*
X208354619Y-93836570D02*
X208354619Y-93646094D01*
X208354619Y-93646094D02*
X208307000Y-93550856D01*
X208307000Y-93550856D02*
X208259380Y-93503237D01*
X208259380Y-93503237D02*
X208164142Y-93455618D01*
X208164142Y-93455618D02*
X207926047Y-93455618D01*
X207926047Y-93455618D02*
X207830809Y-93503237D01*
X207830809Y-93503237D02*
X207783190Y-93550856D01*
X207783190Y-93550856D02*
X207735571Y-93646094D01*
X207735571Y-93646094D02*
X207735571Y-93836570D01*
X207735571Y-93836570D02*
X207783190Y-93931808D01*
X207783190Y-93931808D02*
X207830809Y-93979427D01*
X207830809Y-93979427D02*
X207926047Y-94027046D01*
X208354619Y-92503237D02*
X208354619Y-93074665D01*
X208354619Y-92788951D02*
X207354619Y-92788951D01*
X207354619Y-92788951D02*
X207497476Y-92884189D01*
X207497476Y-92884189D02*
X207592714Y-92979427D01*
X207592714Y-92979427D02*
X207640333Y-93074665D01*
X208307000Y-92027046D02*
X208354619Y-92027046D01*
X208354619Y-92027046D02*
X208449857Y-92074665D01*
X208449857Y-92074665D02*
X208497476Y-92122284D01*
X207449857Y-91646094D02*
X207402238Y-91598475D01*
X207402238Y-91598475D02*
X207354619Y-91503237D01*
X207354619Y-91503237D02*
X207354619Y-91265142D01*
X207354619Y-91265142D02*
X207402238Y-91169904D01*
X207402238Y-91169904D02*
X207449857Y-91122285D01*
X207449857Y-91122285D02*
X207545095Y-91074666D01*
X207545095Y-91074666D02*
X207640333Y-91074666D01*
X207640333Y-91074666D02*
X207783190Y-91122285D01*
X207783190Y-91122285D02*
X208354619Y-91693713D01*
X208354619Y-91693713D02*
X208354619Y-91074666D01*
X208354619Y-90122285D02*
X208354619Y-90693713D01*
X208354619Y-90407999D02*
X207354619Y-90407999D01*
X207354619Y-90407999D02*
X207497476Y-90503237D01*
X207497476Y-90503237D02*
X207592714Y-90598475D01*
X207592714Y-90598475D02*
X207640333Y-90693713D01*
X207687952Y-89265142D02*
X208354619Y-89265142D01*
X207307000Y-89503237D02*
X208021285Y-89741332D01*
X208021285Y-89741332D02*
X208021285Y-89122285D01*
X207354619Y-88550856D02*
X207354619Y-88455618D01*
X207354619Y-88455618D02*
X207402238Y-88360380D01*
X207402238Y-88360380D02*
X207449857Y-88312761D01*
X207449857Y-88312761D02*
X207545095Y-88265142D01*
X207545095Y-88265142D02*
X207735571Y-88217523D01*
X207735571Y-88217523D02*
X207973666Y-88217523D01*
X207973666Y-88217523D02*
X208164142Y-88265142D01*
X208164142Y-88265142D02*
X208259380Y-88312761D01*
X208259380Y-88312761D02*
X208307000Y-88360380D01*
X208307000Y-88360380D02*
X208354619Y-88455618D01*
X208354619Y-88455618D02*
X208354619Y-88550856D01*
X208354619Y-88550856D02*
X208307000Y-88646094D01*
X208307000Y-88646094D02*
X208259380Y-88693713D01*
X208259380Y-88693713D02*
X208164142Y-88741332D01*
X208164142Y-88741332D02*
X207973666Y-88788951D01*
X207973666Y-88788951D02*
X207735571Y-88788951D01*
X207735571Y-88788951D02*
X207545095Y-88741332D01*
X207545095Y-88741332D02*
X207449857Y-88693713D01*
X207449857Y-88693713D02*
X207402238Y-88646094D01*
X207402238Y-88646094D02*
X207354619Y-88550856D01*
X208354619Y-87027046D02*
X207687952Y-87027046D01*
X207783190Y-87027046D02*
X207735571Y-86979427D01*
X207735571Y-86979427D02*
X207687952Y-86884189D01*
X207687952Y-86884189D02*
X207687952Y-86741332D01*
X207687952Y-86741332D02*
X207735571Y-86646094D01*
X207735571Y-86646094D02*
X207830809Y-86598475D01*
X207830809Y-86598475D02*
X208354619Y-86598475D01*
X207830809Y-86598475D02*
X207735571Y-86550856D01*
X207735571Y-86550856D02*
X207687952Y-86455618D01*
X207687952Y-86455618D02*
X207687952Y-86312761D01*
X207687952Y-86312761D02*
X207735571Y-86217522D01*
X207735571Y-86217522D02*
X207830809Y-86169903D01*
X207830809Y-86169903D02*
X208354619Y-86169903D01*
X208354619Y-85693713D02*
X207687952Y-85693713D01*
X207783190Y-85693713D02*
X207735571Y-85646094D01*
X207735571Y-85646094D02*
X207687952Y-85550856D01*
X207687952Y-85550856D02*
X207687952Y-85407999D01*
X207687952Y-85407999D02*
X207735571Y-85312761D01*
X207735571Y-85312761D02*
X207830809Y-85265142D01*
X207830809Y-85265142D02*
X208354619Y-85265142D01*
X207830809Y-85265142D02*
X207735571Y-85217523D01*
X207735571Y-85217523D02*
X207687952Y-85122285D01*
X207687952Y-85122285D02*
X207687952Y-84979428D01*
X207687952Y-84979428D02*
X207735571Y-84884189D01*
X207735571Y-84884189D02*
X207830809Y-84836570D01*
X207830809Y-84836570D02*
X208354619Y-84836570D01*
D11*
X194810000Y-58801000D02*
X209628420Y-58801000D01*
X194810000Y-120015000D02*
X209628420Y-120015000D01*
X209042000Y-58801000D02*
X209042000Y-120015000D01*
X209042000Y-58801000D02*
X209042000Y-120015000D01*
X209042000Y-58801000D02*
X209628421Y-59927504D01*
X209042000Y-58801000D02*
X208455579Y-59927504D01*
X209042000Y-120015000D02*
X208455579Y-118888496D01*
X209042000Y-120015000D02*
X209628421Y-118888496D01*
X194310000Y-58801000D02*
X194310000Y-120015000D01*
X187071000Y-58674000D02*
X194310000Y-58801000D01*
X187071000Y-60325000D02*
X187071000Y-58674000D01*
X111125000Y-55245000D02*
X116205000Y-55245000D01*
X116205000Y-55245000D02*
X118745000Y-55245000D01*
X118745000Y-55245000D02*
X118745000Y-60325000D01*
X118745000Y-60325000D02*
G75*
G03*
X120650000Y-62230000I1905000J0D01*
G01*
X120650000Y-62230000D02*
X185166000Y-62230000D01*
X185166000Y-62230000D02*
G75*
G03*
X187071000Y-60325000I0J1905000D01*
G01*
X194310000Y-120015000D02*
X111125000Y-120015000D01*
X106680000Y-85090000D02*
X106680000Y-85090000D01*
X111125000Y-120015000D02*
X111125000Y-55245000D01*
M02*
