%TF.GenerationSoftware,KiCad,Pcbnew,7.0.1*%
%TF.CreationDate,2023-04-18T16:59:51-04:00*%
%TF.ProjectId,luison-electronics,6c756973-6f6e-42d6-956c-656374726f6e,rev?*%
%TF.SameCoordinates,Original*%
%TF.FileFunction,Copper,L1,Top*%
%TF.FilePolarity,Positive*%
%FSLAX46Y46*%
G04 Gerber Fmt 4.6, Leading zero omitted, Abs format (unit mm)*
G04 Created by KiCad (PCBNEW 7.0.1) date 2023-04-18 16:59:51*
%MOMM*%
%LPD*%
G01*
G04 APERTURE LIST*
G04 Aperture macros list*
%AMRoundRect*
0 Rectangle with rounded corners*
0 $1 Rounding radius*
0 $2 $3 $4 $5 $6 $7 $8 $9 X,Y pos of 4 corners*
0 Add a 4 corners polygon primitive as box body*
4,1,4,$2,$3,$4,$5,$6,$7,$8,$9,$2,$3,0*
0 Add four circle primitives for the rounded corners*
1,1,$1+$1,$2,$3*
1,1,$1+$1,$4,$5*
1,1,$1+$1,$6,$7*
1,1,$1+$1,$8,$9*
0 Add four rect primitives between the rounded corners*
20,1,$1+$1,$2,$3,$4,$5,0*
20,1,$1+$1,$4,$5,$6,$7,0*
20,1,$1+$1,$6,$7,$8,$9,0*
20,1,$1+$1,$8,$9,$2,$3,0*%
G04 Aperture macros list end*
%TA.AperFunction,ComponentPad*%
%ADD10RoundRect,0.250000X-0.600000X-1.020000X0.600000X-1.020000X0.600000X1.020000X-0.600000X1.020000X0*%
%TD*%
%TA.AperFunction,ComponentPad*%
%ADD11O,1.700000X2.540000*%
%TD*%
%TA.AperFunction,ComponentPad*%
%ADD12RoundRect,0.250000X1.020000X-0.600000X1.020000X0.600000X-1.020000X0.600000X-1.020000X-0.600000X0*%
%TD*%
%TA.AperFunction,ComponentPad*%
%ADD13O,2.540000X1.700000*%
%TD*%
%TA.AperFunction,ComponentPad*%
%ADD14RoundRect,0.425000X0.845000X0.425000X-0.845000X0.425000X-0.845000X-0.425000X0.845000X-0.425000X0*%
%TD*%
%TA.AperFunction,ComponentPad*%
%ADD15R,2.540000X1.700000*%
%TD*%
%TA.AperFunction,ComponentPad*%
%ADD16RoundRect,0.425000X0.845000X-0.425000X0.845000X0.425000X-0.845000X0.425000X-0.845000X-0.425000X0*%
%TD*%
%TA.AperFunction,ComponentPad*%
%ADD17RoundRect,0.250000X0.600000X1.020000X-0.600000X1.020000X-0.600000X-1.020000X0.600000X-1.020000X0*%
%TD*%
%TA.AperFunction,ComponentPad*%
%ADD18R,1.700000X2.540000*%
%TD*%
%TA.AperFunction,ComponentPad*%
%ADD19RoundRect,0.425000X-0.425000X0.845000X-0.425000X-0.845000X0.425000X-0.845000X0.425000X0.845000X0*%
%TD*%
%TA.AperFunction,ComponentPad*%
%ADD20RoundRect,0.381000X0.381000X-0.889000X0.381000X0.889000X-0.381000X0.889000X-0.381000X-0.889000X0*%
%TD*%
%TA.AperFunction,ComponentPad*%
%ADD21O,1.524000X2.540000*%
%TD*%
%TA.AperFunction,ViaPad*%
%ADD22C,1.000000*%
%TD*%
%TA.AperFunction,ViaPad*%
%ADD23C,0.800000*%
%TD*%
%TA.AperFunction,Conductor*%
%ADD24C,1.500000*%
%TD*%
%TA.AperFunction,Conductor*%
%ADD25C,1.250000*%
%TD*%
G04 APERTURE END LIST*
D10*
%TO.P,PS3,1,VCC*%
%TO.N,+24V*%
X182245000Y-108585000D03*
D11*
%TO.P,PS3,2,Signal*%
%TO.N,/PS_FR*%
X184745000Y-108585000D03*
%TO.P,PS3,3,GND*%
%TO.N,GND*%
X187245000Y-108585000D03*
%TD*%
D12*
%TO.P,PS9,1,5V*%
%TO.N,+5V*%
X115316000Y-93265000D03*
D13*
%TO.P,PS9,2,GND*%
%TO.N,GND*%
X115316000Y-90765000D03*
%TO.P,PS9,3,24V*%
%TO.N,+24V*%
X115316000Y-88265000D03*
%TD*%
D14*
%TO.P,GYRO2,1,VCC*%
%TO.N,+3.3V*%
X117406075Y-82495000D03*
D13*
%TO.P,GYRO2,2,GND*%
%TO.N,GND*%
X117406075Y-79955000D03*
%TO.P,GYRO2,3,SCL*%
%TO.N,/SCL*%
X117406075Y-77415000D03*
%TO.P,GYRO2,4,SDA*%
%TO.N,/SDA*%
X117406075Y-74875000D03*
%TO.P,GYRO2,8,INT*%
%TO.N,unconnected-(GYRO2-INT-Pad8)*%
X117406075Y-64715000D03*
%TD*%
D15*
%TO.P,SW3,1,P1*%
%TO.N,/SW_P1*%
X156195000Y-73025000D03*
D16*
%TO.P,SW3,2,C*%
%TO.N,+3.3V*%
X156195000Y-70485000D03*
%TO.P,SW3,3,P4*%
%TO.N,/SW_P4*%
X156195000Y-67945000D03*
%TO.P,SW3,4,P2*%
%TO.N,/SW_P2*%
X148575000Y-67945000D03*
%TO.P,SW3,5,C*%
%TO.N,+3.3V*%
X148575000Y-70485000D03*
%TO.P,SW3,6,P8*%
%TO.N,/SW_P8*%
X148575000Y-73025000D03*
%TD*%
D17*
%TO.P,LS4,1,VCC*%
%TO.N,+3.3V*%
X143470000Y-71010000D03*
D11*
%TO.P,LS4,2,A0*%
%TO.N,/LS_BR*%
X140970000Y-71010000D03*
%TO.P,LS4,3,GND*%
%TO.N,GND*%
X138470000Y-71010000D03*
%TD*%
D17*
%TO.P,PS6,1,VCC*%
%TO.N,+24V*%
X189230000Y-70883000D03*
D11*
%TO.P,PS6,2,Signal*%
%TO.N,/PS_R*%
X186730000Y-70883000D03*
%TO.P,PS6,3,GND*%
%TO.N,GND*%
X184230000Y-70883000D03*
%TD*%
D18*
%TO.P,U2,1,VCC*%
%TO.N,+3.3V*%
X154940000Y-114935000D03*
D19*
%TO.P,U2,2,Start*%
%TO.N,/KS_START*%
X152400000Y-114935000D03*
%TO.P,U2,3,KillSw*%
%TO.N,/KS_EM*%
X149860000Y-114935000D03*
%TO.P,U2,4,GND*%
%TO.N,GND*%
X147320000Y-114935000D03*
%TD*%
D12*
%TO.P,PS8,1,5V*%
%TO.N,/4*%
X115443000Y-105203000D03*
D13*
%TO.P,PS8,2,GND*%
%TO.N,/6*%
X115443000Y-102703000D03*
%TO.P,PS8,3,24V*%
%TO.N,/7*%
X115443000Y-100203000D03*
%TD*%
D10*
%TO.P,PS7,1,TX*%
%TO.N,/TX1_MD*%
X147995000Y-108585000D03*
D11*
%TO.P,PS7,2,KS*%
%TO.N,/KS_EM*%
X150495000Y-108585000D03*
%TO.P,PS7,3,RX*%
%TO.N,/RX1_MD*%
X152995000Y-108585000D03*
%TD*%
D17*
%TO.P,PS2,1,VCC*%
%TO.N,+24V*%
X175815000Y-109855000D03*
D11*
%TO.P,PS2,2,Signal*%
%TO.N,/PS_FC*%
X173315000Y-109855000D03*
%TO.P,PS2,3,GND*%
%TO.N,GND*%
X170815000Y-109855000D03*
%TD*%
D10*
%TO.P,PS5,1,VCC*%
%TO.N,+24V*%
X172745000Y-69850000D03*
D11*
%TO.P,PS5,2,Signal*%
%TO.N,/PS_B*%
X175245000Y-69850000D03*
%TO.P,PS5,3,GND*%
%TO.N,GND*%
X177745000Y-69850000D03*
%TD*%
D17*
%TO.P,PS1,1,VCC*%
%TO.N,+24V*%
X164425000Y-109745000D03*
D11*
%TO.P,PS1,2,Signal*%
%TO.N,/PS_FL*%
X161925000Y-109745000D03*
%TO.P,PS1,3,GND*%
%TO.N,GND*%
X159425000Y-109745000D03*
%TD*%
D10*
%TO.P,LS2,1,VCC*%
%TO.N,+3.3V*%
X136565000Y-108585000D03*
D11*
%TO.P,LS2,2,A0*%
%TO.N,/LS_BL*%
X139065000Y-108585000D03*
%TO.P,LS2,3,GND*%
%TO.N,GND*%
X141565000Y-108585000D03*
%TD*%
D17*
%TO.P,COOLER,1,VCC*%
%TO.N,+24V*%
X175895000Y-116840000D03*
D11*
%TO.P,COOLER,2,Signal*%
%TO.N,unconnected-(PS10-Signal-Pad2)*%
X173395000Y-116840000D03*
%TO.P,COOLER,3,GND*%
%TO.N,GND*%
X170895000Y-116840000D03*
%TD*%
D20*
%TO.P,MCU2,1,3V3*%
%TO.N,+3.3V*%
X128271500Y-101560000D03*
D21*
%TO.P,MCU2,2,3V3*%
X130811500Y-101560000D03*
%TO.P,MCU2,3,RST*%
%TO.N,/LS_FL*%
X133351500Y-101560000D03*
%TO.P,MCU2,4,IO4/ADC*%
%TO.N,/4*%
X135891500Y-101560000D03*
%TO.P,MCU2,5,IO5/ADC*%
%TO.N,/LS_BL*%
X138431500Y-101560000D03*
%TO.P,MCU2,6,IO6/ADC*%
%TO.N,/6*%
X140971500Y-101560000D03*
%TO.P,MCU2,7,IO7/ADC*%
%TO.N,/7*%
X143511500Y-101560000D03*
%TO.P,MCU2,8,IO15/ADC*%
%TO.N,/TX1_MD*%
X146051500Y-101560000D03*
%TO.P,MCU2,9,IO16/ADC*%
%TO.N,/KS_EM*%
X148591500Y-101560000D03*
%TO.P,MCU2,10,IO17:TX1*%
%TO.N,/RX1_MD*%
X151131500Y-101560000D03*
%TO.P,MCU2,11,IO18:RX1*%
%TO.N,/KS_START*%
X153671500Y-101560000D03*
%TO.P,MCU2,12,IO8:SDA*%
%TO.N,unconnected-(MCU2-IO8{slash}ADC-Pad12)*%
X156211500Y-101560000D03*
%TO.P,MCU2,13,IO3/ADC*%
%TO.N,unconnected-(MCU2-IO3{slash}ADC-Pad13)*%
X158751500Y-101560000D03*
%TO.P,MCU2,14,I46*%
%TO.N,unconnected-(MCU2-I46-Pad14)*%
X161291500Y-101560000D03*
%TO.P,MCU2,15,IO9:SCL*%
%TO.N,/PS_FL*%
X163831500Y-101560000D03*
%TO.P,MCU2,16,IO10/ADC*%
%TO.N,unconnected-(MCU2-IO10{slash}ADC-Pad16)*%
X166371500Y-101560000D03*
%TO.P,MCU2,17,IO11/ADC*%
%TO.N,unconnected-(MCU2-IO11{slash}ADC-Pad17)*%
X168911500Y-101560000D03*
%TO.P,MCU2,18,IO12/ADC*%
%TO.N,unconnected-(MCU2-IO12{slash}ADC-Pad18)*%
X171451500Y-101560000D03*
%TO.P,MCU2,19,IO13/ADC*%
%TO.N,/PS_FC*%
X173991500Y-101560000D03*
%TO.P,MCU2,20,IO14/ADC*%
%TO.N,/PS_FR*%
X176531500Y-101560000D03*
%TO.P,MCU2,21,5V*%
%TO.N,+5V*%
X179071500Y-101560000D03*
%TO.P,MCU2,22,GND*%
%TO.N,GND*%
X181611500Y-101560000D03*
%TO.P,MCU2,23,GND*%
X128271500Y-78700000D03*
%TO.P,MCU2,24,IO43:TX0*%
%TO.N,unconnected-(MCU2-IO43-Pad24)*%
X130811500Y-78700000D03*
%TO.P,MCU2,25,IO44:RX0*%
%TO.N,/LS_FR*%
X133351500Y-78700000D03*
%TO.P,MCU2,26,IO1/ADC*%
%TO.N,/LS_BR*%
X135891500Y-78700000D03*
%TO.P,MCU2,27,IO2/ADC*%
%TO.N,/SDA*%
X138431500Y-78700000D03*
%TO.P,MCU2,28,IO42*%
%TO.N,/SCL*%
X140971500Y-78700000D03*
%TO.P,MCU2,29,IO41*%
%TO.N,unconnected-(MCU2-IO41-Pad29)*%
X143511500Y-78700000D03*
%TO.P,MCU2,30,IO40*%
%TO.N,/SW_P2*%
X146051500Y-78700000D03*
%TO.P,MCU2,31,IO39*%
%TO.N,unconnected-(MCU2-IO39-Pad31)*%
X148591500Y-78700000D03*
%TO.P,MCU2,32,IO38*%
%TO.N,/SW_P8*%
X151131500Y-78700000D03*
%TO.P,MCU2,33,IO37*%
%TO.N,/SW_P4*%
X153671500Y-78700000D03*
%TO.P,MCU2,34,IO36*%
%TO.N,/SW_P1*%
X156211500Y-78700000D03*
%TO.P,MCU2,35,IO35*%
%TO.N,unconnected-(MCU2-IO35-Pad35)*%
X158751500Y-78700000D03*
%TO.P,MCU2,36,IO0*%
%TO.N,unconnected-(MCU2-IO0-Pad36)*%
X161291500Y-78700000D03*
%TO.P,MCU2,37,IO45*%
%TO.N,/PS_L*%
X163831500Y-78700000D03*
%TO.P,MCU2,38,IO34*%
%TO.N,unconnected-(MCU2-IO34-Pad38)*%
X166371500Y-78700000D03*
%TO.P,MCU2,39,IO33*%
%TO.N,unconnected-(MCU2-IO33-Pad39)*%
X168911500Y-78700000D03*
%TO.P,MCU2,40,IO21*%
%TO.N,unconnected-(MCU2-IO21-Pad40)*%
X171451500Y-78700000D03*
%TO.P,MCU2,41,IO20/USB_D+*%
%TO.N,/PS_B*%
X173991500Y-78700000D03*
%TO.P,MCU2,42,IO20/USB_D-*%
%TO.N,/PS_R*%
X176531500Y-78700000D03*
%TO.P,MCU2,43,GND*%
%TO.N,GND*%
X179071500Y-78700000D03*
%TO.P,MCU2,44,GND*%
X181611500Y-78700000D03*
%TD*%
D17*
%TO.P,LS3,1,VCC*%
%TO.N,+3.3V*%
X132025000Y-71010000D03*
D11*
%TO.P,LS3,2,A0*%
%TO.N,/LS_FR*%
X129525000Y-71010000D03*
%TO.P,LS3,3,GND*%
%TO.N,GND*%
X127025000Y-71010000D03*
%TD*%
D17*
%TO.P,PS4,1,VCC*%
%TO.N,+24V*%
X166370000Y-70883000D03*
D11*
%TO.P,PS4,2,Signal*%
%TO.N,/PS_L*%
X163870000Y-70883000D03*
%TO.P,PS4,3,GND*%
%TO.N,GND*%
X161370000Y-70883000D03*
%TD*%
D10*
%TO.P,LS1,1,VCC*%
%TO.N,+3.3V*%
X125080000Y-108585000D03*
D11*
%TO.P,LS1,2,A0*%
%TO.N,/LS_FL*%
X127580000Y-108585000D03*
%TO.P,LS1,3,GND*%
%TO.N,GND*%
X130080000Y-108585000D03*
%TD*%
D22*
%TO.N,GND*%
X170180000Y-104140000D03*
X121285000Y-90805000D03*
X168910000Y-75946000D03*
X140335000Y-113665000D03*
D23*
X176530000Y-74930000D03*
D22*
X134620000Y-74930000D03*
%TD*%
D24*
%TO.N,/PS_FL*%
X163815000Y-101576500D02*
X163831500Y-101560000D01*
D25*
%TO.N,/SW_P2*%
X146035000Y-78683500D02*
X146051500Y-78700000D01*
%TD*%
%TA.AperFunction,Conductor*%
%TO.N,GND*%
G36*
X118695000Y-55258763D02*
G01*
X118731237Y-55295000D01*
X118744500Y-55344500D01*
X118744500Y-62210212D01*
X118744459Y-62210418D01*
X118744459Y-62229998D01*
X118744459Y-62230000D01*
X118744500Y-62230099D01*
X118744617Y-62230383D01*
X118745000Y-62230541D01*
X118745002Y-62230539D01*
X118764651Y-62230527D01*
X118764787Y-62230500D01*
X120649901Y-62230500D01*
X120650099Y-62230500D01*
X185165901Y-62230500D01*
X185166099Y-62230500D01*
X186670213Y-62230500D01*
X186670348Y-62230527D01*
X186689997Y-62230539D01*
X186690000Y-62230541D01*
X186690383Y-62230383D01*
X186690500Y-62230099D01*
X186690541Y-62230000D01*
X186690540Y-62229998D01*
X186690541Y-62229998D01*
X186690541Y-62210418D01*
X186690500Y-62210212D01*
X186690500Y-59281500D01*
X186703763Y-59232000D01*
X186740000Y-59195763D01*
X186789500Y-59182500D01*
X194210500Y-59182500D01*
X194260000Y-59195763D01*
X194296237Y-59232000D01*
X194309500Y-59281500D01*
X194309500Y-120296500D01*
X194296237Y-120346000D01*
X194260000Y-120382237D01*
X194210500Y-120395500D01*
X156991787Y-120395500D01*
X156991596Y-120395461D01*
X156991596Y-120395495D01*
X156972000Y-120395459D01*
X156971999Y-120395459D01*
X156971617Y-120395615D01*
X156971459Y-120395850D01*
X156971472Y-120415651D01*
X156971500Y-120415787D01*
X156971500Y-126900500D01*
X156958237Y-126950000D01*
X156922000Y-126986237D01*
X156872500Y-126999500D01*
X145387500Y-126999500D01*
X145338000Y-126986237D01*
X145301763Y-126950000D01*
X145288500Y-126900500D01*
X145288500Y-120399475D01*
X145288510Y-120398036D01*
X145288538Y-120396008D01*
X145288540Y-120396006D01*
X145288538Y-120396003D01*
X145288539Y-120395990D01*
X145288388Y-120395617D01*
X145288006Y-120395458D01*
X145284244Y-120395452D01*
X145283308Y-120395446D01*
X119095272Y-120103387D01*
X111223395Y-120015597D01*
X111174364Y-120001970D01*
X111138580Y-119965785D01*
X111125500Y-119916604D01*
X111125500Y-116348677D01*
X112834500Y-116348677D01*
X112873628Y-116633357D01*
X112951156Y-116910057D01*
X113065640Y-117173628D01*
X113214940Y-117419141D01*
X113396293Y-117642054D01*
X113606304Y-117838191D01*
X113841058Y-118003897D01*
X113841064Y-118003901D01*
X114096203Y-118136104D01*
X114366968Y-118232334D01*
X114366971Y-118232335D01*
X114648312Y-118290798D01*
X114863245Y-118305500D01*
X114863248Y-118305500D01*
X115006752Y-118305500D01*
X115006755Y-118305500D01*
X115221687Y-118290798D01*
X115503028Y-118232335D01*
X115503029Y-118232334D01*
X115503032Y-118232334D01*
X115773797Y-118136104D01*
X116028936Y-118003901D01*
X116263698Y-117838189D01*
X116473708Y-117642053D01*
X116655055Y-117419147D01*
X116715975Y-117318969D01*
X172044500Y-117318969D01*
X172059936Y-117495405D01*
X172121098Y-117723667D01*
X172220963Y-117937826D01*
X172353581Y-118127226D01*
X172356505Y-118131401D01*
X172523599Y-118298495D01*
X172717170Y-118434035D01*
X172717171Y-118434035D01*
X172717172Y-118434036D01*
X172931332Y-118533901D01*
X172931333Y-118533901D01*
X172931337Y-118533903D01*
X173159592Y-118595063D01*
X173395000Y-118615659D01*
X173630408Y-118595063D01*
X173858663Y-118533903D01*
X174072829Y-118434035D01*
X174266401Y-118298495D01*
X174433495Y-118131401D01*
X174433497Y-118131397D01*
X174439619Y-118125276D01*
X174441569Y-118127226D01*
X174471449Y-118102877D01*
X174525013Y-118095818D01*
X174574308Y-118117931D01*
X174604651Y-118162632D01*
X174610186Y-118179334D01*
X174702288Y-118328656D01*
X174826344Y-118452712D01*
X174975666Y-118544814D01*
X175142203Y-118599999D01*
X175244991Y-118610500D01*
X176545008Y-118610499D01*
X176647797Y-118599999D01*
X176814334Y-118544814D01*
X176963656Y-118452712D01*
X177087712Y-118328656D01*
X177179814Y-118179334D01*
X177234999Y-118012797D01*
X177245500Y-117910009D01*
X177245499Y-116348677D01*
X188399500Y-116348677D01*
X188438628Y-116633357D01*
X188516156Y-116910057D01*
X188630640Y-117173628D01*
X188779940Y-117419141D01*
X188961293Y-117642054D01*
X189171304Y-117838191D01*
X189406058Y-118003897D01*
X189406064Y-118003901D01*
X189661203Y-118136104D01*
X189931968Y-118232334D01*
X189931971Y-118232335D01*
X190213312Y-118290798D01*
X190428245Y-118305500D01*
X190428248Y-118305500D01*
X190571752Y-118305500D01*
X190571755Y-118305500D01*
X190786687Y-118290798D01*
X191068028Y-118232335D01*
X191068029Y-118232334D01*
X191068032Y-118232334D01*
X191338797Y-118136104D01*
X191593936Y-118003901D01*
X191828698Y-117838189D01*
X192038708Y-117642053D01*
X192220055Y-117419147D01*
X192369361Y-117173625D01*
X192483844Y-116910058D01*
X192561371Y-116633358D01*
X192600500Y-116348678D01*
X192600500Y-116061322D01*
X192561371Y-115776642D01*
X192483844Y-115499942D01*
X192369361Y-115236375D01*
X192363834Y-115227286D01*
X192220059Y-114990858D01*
X192038706Y-114767945D01*
X191828695Y-114571808D01*
X191593941Y-114406102D01*
X191593938Y-114406100D01*
X191593936Y-114406099D01*
X191338797Y-114273896D01*
X191224637Y-114233323D01*
X191068028Y-114177664D01*
X190786687Y-114119201D01*
X190571755Y-114104500D01*
X190571752Y-114104500D01*
X190428248Y-114104500D01*
X190428245Y-114104500D01*
X190213312Y-114119201D01*
X189931971Y-114177664D01*
X189679131Y-114267524D01*
X189661203Y-114273896D01*
X189447963Y-114384388D01*
X189406058Y-114406102D01*
X189171304Y-114571808D01*
X188961293Y-114767945D01*
X188779940Y-114990858D01*
X188630640Y-115236371D01*
X188516156Y-115499942D01*
X188438628Y-115776642D01*
X188399500Y-116061323D01*
X188399500Y-116348677D01*
X177245499Y-116348677D01*
X177245499Y-115769992D01*
X177234999Y-115667203D01*
X177179814Y-115500666D01*
X177179367Y-115499942D01*
X177087713Y-115351346D01*
X177087712Y-115351344D01*
X176963656Y-115227288D01*
X176814334Y-115135186D01*
X176814333Y-115135185D01*
X176647795Y-115080000D01*
X176545012Y-115069500D01*
X175244996Y-115069500D01*
X175142202Y-115080001D01*
X174975664Y-115135186D01*
X174826346Y-115227286D01*
X174702286Y-115351346D01*
X174610185Y-115500667D01*
X174604651Y-115517368D01*
X174574313Y-115562063D01*
X174525028Y-115584179D01*
X174471470Y-115577131D01*
X174441567Y-115552775D01*
X174439619Y-115554724D01*
X174433497Y-115548602D01*
X174433495Y-115548599D01*
X174266401Y-115381505D01*
X174072830Y-115245965D01*
X174072829Y-115245964D01*
X174072827Y-115245963D01*
X173858667Y-115146098D01*
X173630405Y-115084936D01*
X173395000Y-115064340D01*
X173159594Y-115084936D01*
X172931332Y-115146098D01*
X172717173Y-115245963D01*
X172523602Y-115381502D01*
X172356502Y-115548602D01*
X172220963Y-115742173D01*
X172121098Y-115956332D01*
X172059936Y-116184594D01*
X172044500Y-116361031D01*
X172044500Y-117318969D01*
X116715975Y-117318969D01*
X116804361Y-117173625D01*
X116918844Y-116910058D01*
X116996371Y-116633358D01*
X117035500Y-116348678D01*
X117035500Y-116061322D01*
X117005736Y-115844778D01*
X148509500Y-115844778D01*
X148515859Y-115925578D01*
X148524100Y-115956332D01*
X148566211Y-116113496D01*
X148654535Y-116286841D01*
X148704610Y-116348677D01*
X148776968Y-116438032D01*
X148870319Y-116513627D01*
X148928158Y-116560464D01*
X149101503Y-116648788D01*
X149134287Y-116657572D01*
X149289422Y-116699141D01*
X149370222Y-116705500D01*
X150349776Y-116705500D01*
X150349778Y-116705500D01*
X150430578Y-116699141D01*
X150618496Y-116648788D01*
X150791840Y-116560465D01*
X150943032Y-116438032D01*
X151053063Y-116302154D01*
X151101055Y-116269784D01*
X151158945Y-116269784D01*
X151206936Y-116302154D01*
X151254614Y-116361031D01*
X151316968Y-116438032D01*
X151468158Y-116560464D01*
X151641503Y-116648788D01*
X151674287Y-116657572D01*
X151829422Y-116699141D01*
X151910222Y-116705500D01*
X152889776Y-116705500D01*
X152889778Y-116705500D01*
X152970578Y-116699141D01*
X153158496Y-116648788D01*
X153331840Y-116560465D01*
X153483032Y-116438032D01*
X153484198Y-116436591D01*
X153487632Y-116434306D01*
X153491118Y-116431484D01*
X153491382Y-116431811D01*
X153533392Y-116403860D01*
X153592473Y-116404983D01*
X153640389Y-116439564D01*
X153682109Y-116495294D01*
X153732454Y-116562546D01*
X153847669Y-116648796D01*
X153982517Y-116699091D01*
X154042127Y-116705500D01*
X155837872Y-116705499D01*
X155897483Y-116699091D01*
X156032331Y-116648796D01*
X156147546Y-116562546D01*
X156233796Y-116447331D01*
X156284091Y-116312483D01*
X156290500Y-116252873D01*
X156290499Y-113617128D01*
X156284091Y-113557517D01*
X156233796Y-113422669D01*
X156147546Y-113307454D01*
X156032342Y-113221212D01*
X156032330Y-113221203D01*
X155936366Y-113185411D01*
X155897483Y-113170909D01*
X155837873Y-113164500D01*
X155837869Y-113164500D01*
X154042128Y-113164500D01*
X153982515Y-113170909D01*
X153847669Y-113221203D01*
X153732455Y-113307453D01*
X153640389Y-113430436D01*
X153592474Y-113465015D01*
X153533396Y-113466140D01*
X153491382Y-113438189D01*
X153491118Y-113438516D01*
X153487637Y-113435697D01*
X153484200Y-113433411D01*
X153483032Y-113431968D01*
X153483030Y-113431966D01*
X153331841Y-113309535D01*
X153158496Y-113221211D01*
X153036144Y-113188427D01*
X152970578Y-113170859D01*
X152889778Y-113164500D01*
X151910222Y-113164500D01*
X151829422Y-113170859D01*
X151796638Y-113179643D01*
X151641503Y-113221211D01*
X151468158Y-113309535D01*
X151316967Y-113431968D01*
X151206937Y-113567844D01*
X151158945Y-113600215D01*
X151101055Y-113600215D01*
X151053063Y-113567844D01*
X150943032Y-113431968D01*
X150791841Y-113309535D01*
X150618496Y-113221211D01*
X150496144Y-113188427D01*
X150430578Y-113170859D01*
X150349778Y-113164500D01*
X149370222Y-113164500D01*
X149289422Y-113170859D01*
X149256638Y-113179643D01*
X149101503Y-113221211D01*
X148928158Y-113309535D01*
X148776968Y-113431968D01*
X148654535Y-113583158D01*
X148566211Y-113756503D01*
X148524643Y-113911638D01*
X148515859Y-113944422D01*
X148509500Y-114025222D01*
X148509500Y-115844778D01*
X117005736Y-115844778D01*
X116996371Y-115776642D01*
X116918844Y-115499942D01*
X116804361Y-115236375D01*
X116798834Y-115227286D01*
X116655059Y-114990858D01*
X116473706Y-114767945D01*
X116263695Y-114571808D01*
X116028941Y-114406102D01*
X116028938Y-114406100D01*
X116028936Y-114406099D01*
X115773797Y-114273896D01*
X115659637Y-114233323D01*
X115503028Y-114177664D01*
X115221687Y-114119201D01*
X115006755Y-114104500D01*
X115006752Y-114104500D01*
X114863248Y-114104500D01*
X114863245Y-114104500D01*
X114648312Y-114119201D01*
X114366971Y-114177664D01*
X114114131Y-114267524D01*
X114096203Y-114273896D01*
X113882963Y-114384388D01*
X113841058Y-114406102D01*
X113606304Y-114571808D01*
X113396293Y-114767945D01*
X113214940Y-114990858D01*
X113065640Y-115236371D01*
X112951156Y-115499942D01*
X112873628Y-115776642D01*
X112834500Y-116061323D01*
X112834500Y-116348677D01*
X111125500Y-116348677D01*
X111125500Y-109655003D01*
X123729500Y-109655003D01*
X123740001Y-109757797D01*
X123795186Y-109924335D01*
X123868686Y-110043497D01*
X123887288Y-110073656D01*
X124011344Y-110197712D01*
X124160666Y-110289814D01*
X124327203Y-110344999D01*
X124429991Y-110355500D01*
X125730008Y-110355499D01*
X125832797Y-110344999D01*
X125999334Y-110289814D01*
X126148656Y-110197712D01*
X126272712Y-110073656D01*
X126364814Y-109924334D01*
X126370348Y-109907632D01*
X126400681Y-109862940D01*
X126449962Y-109840821D01*
X126503519Y-109847864D01*
X126533433Y-109872223D01*
X126535381Y-109870276D01*
X126541502Y-109876397D01*
X126541505Y-109876401D01*
X126708599Y-110043495D01*
X126902170Y-110179035D01*
X126902171Y-110179035D01*
X126902172Y-110179036D01*
X127116332Y-110278901D01*
X127116333Y-110278901D01*
X127116337Y-110278903D01*
X127344592Y-110340063D01*
X127580000Y-110360659D01*
X127815408Y-110340063D01*
X128043663Y-110278903D01*
X128257829Y-110179035D01*
X128451401Y-110043495D01*
X128618495Y-109876401D01*
X128754035Y-109682829D01*
X128767011Y-109655003D01*
X135214500Y-109655003D01*
X135225001Y-109757797D01*
X135280186Y-109924335D01*
X135353686Y-110043497D01*
X135372288Y-110073656D01*
X135496344Y-110197712D01*
X135645666Y-110289814D01*
X135812203Y-110344999D01*
X135914991Y-110355500D01*
X137215008Y-110355499D01*
X137317797Y-110344999D01*
X137484334Y-110289814D01*
X137633656Y-110197712D01*
X137757712Y-110073656D01*
X137849814Y-109924334D01*
X137855348Y-109907632D01*
X137885681Y-109862940D01*
X137934962Y-109840821D01*
X137988519Y-109847864D01*
X138018433Y-109872223D01*
X138020381Y-109870276D01*
X138026502Y-109876397D01*
X138026505Y-109876401D01*
X138193599Y-110043495D01*
X138387170Y-110179035D01*
X138387171Y-110179035D01*
X138387172Y-110179036D01*
X138601332Y-110278901D01*
X138601333Y-110278901D01*
X138601337Y-110278903D01*
X138829592Y-110340063D01*
X139065000Y-110360659D01*
X139300408Y-110340063D01*
X139528663Y-110278903D01*
X139742829Y-110179035D01*
X139936401Y-110043495D01*
X140103495Y-109876401D01*
X140239035Y-109682829D01*
X140252011Y-109655003D01*
X146644500Y-109655003D01*
X146655001Y-109757797D01*
X146710186Y-109924335D01*
X146783686Y-110043497D01*
X146802288Y-110073656D01*
X146926344Y-110197712D01*
X147075666Y-110289814D01*
X147242203Y-110344999D01*
X147344991Y-110355500D01*
X148645008Y-110355499D01*
X148747797Y-110344999D01*
X148914334Y-110289814D01*
X149063656Y-110197712D01*
X149187712Y-110073656D01*
X149279814Y-109924334D01*
X149285348Y-109907632D01*
X149315681Y-109862940D01*
X149364962Y-109840821D01*
X149418519Y-109847864D01*
X149448433Y-109872223D01*
X149450381Y-109870276D01*
X149456502Y-109876397D01*
X149456505Y-109876401D01*
X149623599Y-110043495D01*
X149817170Y-110179035D01*
X149817171Y-110179035D01*
X149817172Y-110179036D01*
X150031332Y-110278901D01*
X150031333Y-110278901D01*
X150031337Y-110278903D01*
X150259592Y-110340063D01*
X150495000Y-110360659D01*
X150730408Y-110340063D01*
X150958663Y-110278903D01*
X151172829Y-110179035D01*
X151366401Y-110043495D01*
X151533495Y-109876401D01*
X151663905Y-109690154D01*
X151699287Y-109659126D01*
X151745000Y-109647940D01*
X151790713Y-109659126D01*
X151826094Y-109690154D01*
X151839896Y-109709865D01*
X151953579Y-109872223D01*
X151956505Y-109876401D01*
X152123599Y-110043495D01*
X152317170Y-110179035D01*
X152317171Y-110179035D01*
X152317172Y-110179036D01*
X152531332Y-110278901D01*
X152531333Y-110278901D01*
X152531337Y-110278903D01*
X152759592Y-110340063D01*
X152995000Y-110360659D01*
X153230408Y-110340063D01*
X153458663Y-110278903D01*
X153576468Y-110223969D01*
X160574500Y-110223969D01*
X160589936Y-110400405D01*
X160651098Y-110628667D01*
X160750963Y-110842826D01*
X160883581Y-111032226D01*
X160886505Y-111036401D01*
X161053599Y-111203495D01*
X161247170Y-111339035D01*
X161247171Y-111339035D01*
X161247172Y-111339036D01*
X161461332Y-111438901D01*
X161461333Y-111438901D01*
X161461337Y-111438903D01*
X161689592Y-111500063D01*
X161925000Y-111520659D01*
X162160408Y-111500063D01*
X162388663Y-111438903D01*
X162602829Y-111339035D01*
X162796401Y-111203495D01*
X162963495Y-111036401D01*
X162963497Y-111036397D01*
X162969619Y-111030276D01*
X162971569Y-111032226D01*
X163001449Y-111007877D01*
X163055013Y-111000818D01*
X163104308Y-111022931D01*
X163134651Y-111067632D01*
X163140186Y-111084334D01*
X163232288Y-111233656D01*
X163356344Y-111357712D01*
X163505666Y-111449814D01*
X163672203Y-111504999D01*
X163774991Y-111515500D01*
X165075008Y-111515499D01*
X165177797Y-111504999D01*
X165344334Y-111449814D01*
X165493656Y-111357712D01*
X165617712Y-111233656D01*
X165709814Y-111084334D01*
X165764999Y-110917797D01*
X165775500Y-110815009D01*
X165775500Y-110333969D01*
X171964500Y-110333969D01*
X171979936Y-110510405D01*
X172041098Y-110738667D01*
X172140963Y-110952826D01*
X172273581Y-111142226D01*
X172276505Y-111146401D01*
X172443599Y-111313495D01*
X172637170Y-111449035D01*
X172637171Y-111449035D01*
X172637172Y-111449036D01*
X172851332Y-111548901D01*
X172851333Y-111548901D01*
X172851337Y-111548903D01*
X173079592Y-111610063D01*
X173315000Y-111630659D01*
X173550408Y-111610063D01*
X173778663Y-111548903D01*
X173992829Y-111449035D01*
X174186401Y-111313495D01*
X174353495Y-111146401D01*
X174353497Y-111146397D01*
X174359619Y-111140276D01*
X174361569Y-111142226D01*
X174391449Y-111117877D01*
X174445013Y-111110818D01*
X174494308Y-111132931D01*
X174524651Y-111177632D01*
X174530186Y-111194334D01*
X174622288Y-111343656D01*
X174746344Y-111467712D01*
X174895666Y-111559814D01*
X175062203Y-111614999D01*
X175164991Y-111625500D01*
X176465008Y-111625499D01*
X176567797Y-111614999D01*
X176734334Y-111559814D01*
X176883656Y-111467712D01*
X177007712Y-111343656D01*
X177099814Y-111194334D01*
X177154999Y-111027797D01*
X177165500Y-110925009D01*
X177165499Y-109655003D01*
X180894500Y-109655003D01*
X180905001Y-109757797D01*
X180960186Y-109924335D01*
X181033686Y-110043497D01*
X181052288Y-110073656D01*
X181176344Y-110197712D01*
X181325666Y-110289814D01*
X181492203Y-110344999D01*
X181594991Y-110355500D01*
X182895008Y-110355499D01*
X182997797Y-110344999D01*
X183164334Y-110289814D01*
X183313656Y-110197712D01*
X183437712Y-110073656D01*
X183529814Y-109924334D01*
X183535348Y-109907632D01*
X183565681Y-109862940D01*
X183614962Y-109840821D01*
X183668519Y-109847864D01*
X183698433Y-109872223D01*
X183700381Y-109870276D01*
X183706502Y-109876397D01*
X183706505Y-109876401D01*
X183873599Y-110043495D01*
X184067170Y-110179035D01*
X184067171Y-110179035D01*
X184067172Y-110179036D01*
X184281332Y-110278901D01*
X184281333Y-110278901D01*
X184281337Y-110278903D01*
X184509592Y-110340063D01*
X184745000Y-110360659D01*
X184980408Y-110340063D01*
X185208663Y-110278903D01*
X185422829Y-110179035D01*
X185616401Y-110043495D01*
X185783495Y-109876401D01*
X185919035Y-109682829D01*
X186018903Y-109468663D01*
X186080063Y-109240408D01*
X186095500Y-109063966D01*
X186095500Y-108106034D01*
X186094966Y-108099936D01*
X186083541Y-107969341D01*
X186080063Y-107929592D01*
X186018903Y-107701337D01*
X185919035Y-107487171D01*
X185783495Y-107293599D01*
X185616401Y-107126505D01*
X185422830Y-106990965D01*
X185422829Y-106990964D01*
X185422827Y-106990963D01*
X185208667Y-106891098D01*
X184980405Y-106829936D01*
X184745000Y-106809340D01*
X184509594Y-106829936D01*
X184281332Y-106891098D01*
X184067173Y-106990963D01*
X183873602Y-107126502D01*
X183873599Y-107126504D01*
X183873599Y-107126505D01*
X183706505Y-107293599D01*
X183706502Y-107293602D01*
X183700381Y-107299724D01*
X183698436Y-107297779D01*
X183668498Y-107322144D01*
X183614948Y-107329176D01*
X183565676Y-107307055D01*
X183535347Y-107262364D01*
X183529814Y-107245666D01*
X183437713Y-107096346D01*
X183437712Y-107096344D01*
X183313656Y-106972288D01*
X183164334Y-106880186D01*
X183164333Y-106880185D01*
X182997795Y-106825000D01*
X182895012Y-106814500D01*
X181594996Y-106814500D01*
X181492202Y-106825001D01*
X181325664Y-106880186D01*
X181176346Y-106972286D01*
X181052286Y-107096346D01*
X180960186Y-107245665D01*
X180905000Y-107412204D01*
X180894500Y-107514987D01*
X180894500Y-109655003D01*
X177165499Y-109655003D01*
X177165499Y-108784992D01*
X177154999Y-108682203D01*
X177099814Y-108515666D01*
X177007712Y-108366344D01*
X176883656Y-108242288D01*
X176734334Y-108150186D01*
X176680322Y-108132288D01*
X176567795Y-108095000D01*
X176465012Y-108084500D01*
X175164996Y-108084500D01*
X175062202Y-108095001D01*
X174895664Y-108150186D01*
X174746346Y-108242286D01*
X174622286Y-108366346D01*
X174530185Y-108515667D01*
X174524651Y-108532368D01*
X174494313Y-108577063D01*
X174445028Y-108599179D01*
X174391470Y-108592131D01*
X174361567Y-108567775D01*
X174359619Y-108569724D01*
X174353497Y-108563602D01*
X174353495Y-108563599D01*
X174186401Y-108396505D01*
X173992830Y-108260965D01*
X173992829Y-108260964D01*
X173992827Y-108260963D01*
X173778667Y-108161098D01*
X173550405Y-108099936D01*
X173315000Y-108079340D01*
X173079594Y-108099936D01*
X172851332Y-108161098D01*
X172637173Y-108260963D01*
X172443602Y-108396502D01*
X172276502Y-108563602D01*
X172140963Y-108757173D01*
X172041098Y-108971332D01*
X171979936Y-109199594D01*
X171964500Y-109376031D01*
X171964500Y-110333969D01*
X165775500Y-110333969D01*
X165775499Y-108674992D01*
X165764999Y-108572203D01*
X165709814Y-108405666D01*
X165704163Y-108396505D01*
X165617713Y-108256346D01*
X165617712Y-108256344D01*
X165493656Y-108132288D01*
X165451086Y-108106031D01*
X165344334Y-108040186D01*
X165177795Y-107985000D01*
X165075012Y-107974500D01*
X163774996Y-107974500D01*
X163672202Y-107985001D01*
X163505664Y-108040186D01*
X163356346Y-108132286D01*
X163232286Y-108256346D01*
X163140185Y-108405667D01*
X163134651Y-108422368D01*
X163104313Y-108467063D01*
X163055028Y-108489179D01*
X163001470Y-108482131D01*
X162971567Y-108457775D01*
X162969619Y-108459724D01*
X162963497Y-108453602D01*
X162963495Y-108453599D01*
X162796401Y-108286505D01*
X162602830Y-108150965D01*
X162602829Y-108150964D01*
X162602827Y-108150963D01*
X162388667Y-108051098D01*
X162160405Y-107989936D01*
X161925000Y-107969340D01*
X161689594Y-107989936D01*
X161461332Y-108051098D01*
X161247173Y-108150963D01*
X161053602Y-108286502D01*
X160886502Y-108453602D01*
X160750963Y-108647173D01*
X160651098Y-108861332D01*
X160589936Y-109089594D01*
X160574500Y-109266031D01*
X160574500Y-110223969D01*
X153576468Y-110223969D01*
X153672829Y-110179035D01*
X153866401Y-110043495D01*
X154033495Y-109876401D01*
X154169035Y-109682829D01*
X154268903Y-109468663D01*
X154330063Y-109240408D01*
X154345500Y-109063966D01*
X154345500Y-108106034D01*
X154344966Y-108099936D01*
X154333541Y-107969341D01*
X154330063Y-107929592D01*
X154268903Y-107701337D01*
X154169035Y-107487171D01*
X154033495Y-107293599D01*
X153866401Y-107126505D01*
X153672830Y-106990965D01*
X153672829Y-106990964D01*
X153672827Y-106990963D01*
X153458667Y-106891098D01*
X153230405Y-106829936D01*
X152995000Y-106809340D01*
X152759594Y-106829936D01*
X152531332Y-106891098D01*
X152317173Y-106990963D01*
X152123602Y-107126502D01*
X151956502Y-107293602D01*
X151826096Y-107479843D01*
X151790713Y-107510873D01*
X151745000Y-107522059D01*
X151699287Y-107510873D01*
X151663904Y-107479843D01*
X151533497Y-107293602D01*
X151533495Y-107293599D01*
X151366401Y-107126505D01*
X151172830Y-106990965D01*
X151172829Y-106990964D01*
X151172827Y-106990963D01*
X150958667Y-106891098D01*
X150730405Y-106829936D01*
X150495000Y-106809340D01*
X150259594Y-106829936D01*
X150031332Y-106891098D01*
X149817173Y-106990963D01*
X149623602Y-107126502D01*
X149623599Y-107126504D01*
X149623599Y-107126505D01*
X149456505Y-107293599D01*
X149456502Y-107293602D01*
X149450381Y-107299724D01*
X149448436Y-107297779D01*
X149418498Y-107322144D01*
X149364948Y-107329176D01*
X149315676Y-107307055D01*
X149285347Y-107262364D01*
X149279814Y-107245666D01*
X149187713Y-107096346D01*
X149187712Y-107096344D01*
X149063656Y-106972288D01*
X148914334Y-106880186D01*
X148914333Y-106880185D01*
X148747795Y-106825000D01*
X148645012Y-106814500D01*
X147344996Y-106814500D01*
X147242202Y-106825001D01*
X147075664Y-106880186D01*
X146926346Y-106972286D01*
X146802286Y-107096346D01*
X146710186Y-107245665D01*
X146655000Y-107412204D01*
X146644500Y-107514987D01*
X146644500Y-109655003D01*
X140252011Y-109655003D01*
X140338903Y-109468663D01*
X140400063Y-109240408D01*
X140415500Y-109063966D01*
X140415500Y-108106034D01*
X140414966Y-108099936D01*
X140403541Y-107969341D01*
X140400063Y-107929592D01*
X140338903Y-107701337D01*
X140239035Y-107487171D01*
X140103495Y-107293599D01*
X139936401Y-107126505D01*
X139742830Y-106990965D01*
X139742829Y-106990964D01*
X139742827Y-106990963D01*
X139528667Y-106891098D01*
X139300405Y-106829936D01*
X139065000Y-106809340D01*
X138829594Y-106829936D01*
X138601332Y-106891098D01*
X138387173Y-106990963D01*
X138193602Y-107126502D01*
X138193599Y-107126504D01*
X138193599Y-107126505D01*
X138026505Y-107293599D01*
X138026502Y-107293602D01*
X138020381Y-107299724D01*
X138018436Y-107297779D01*
X137988498Y-107322144D01*
X137934948Y-107329176D01*
X137885676Y-107307055D01*
X137855347Y-107262364D01*
X137849814Y-107245666D01*
X137757713Y-107096346D01*
X137757712Y-107096344D01*
X137633656Y-106972288D01*
X137484334Y-106880186D01*
X137484333Y-106880185D01*
X137317795Y-106825000D01*
X137215012Y-106814500D01*
X135914996Y-106814500D01*
X135812202Y-106825001D01*
X135645664Y-106880186D01*
X135496346Y-106972286D01*
X135372286Y-107096346D01*
X135280186Y-107245665D01*
X135225000Y-107412204D01*
X135214500Y-107514987D01*
X135214500Y-109655003D01*
X128767011Y-109655003D01*
X128853903Y-109468663D01*
X128915063Y-109240408D01*
X128930500Y-109063966D01*
X128930500Y-108106034D01*
X128929966Y-108099936D01*
X128918541Y-107969341D01*
X128915063Y-107929592D01*
X128853903Y-107701337D01*
X128754035Y-107487171D01*
X128618495Y-107293599D01*
X128451401Y-107126505D01*
X128257830Y-106990965D01*
X128257829Y-106990964D01*
X128257827Y-106990963D01*
X128043667Y-106891098D01*
X127815405Y-106829936D01*
X127580000Y-106809340D01*
X127344594Y-106829936D01*
X127116332Y-106891098D01*
X126902173Y-106990963D01*
X126708602Y-107126502D01*
X126708599Y-107126504D01*
X126708599Y-107126505D01*
X126541505Y-107293599D01*
X126541502Y-107293602D01*
X126535381Y-107299724D01*
X126533436Y-107297779D01*
X126503498Y-107322144D01*
X126449948Y-107329176D01*
X126400676Y-107307055D01*
X126370347Y-107262364D01*
X126364814Y-107245666D01*
X126272713Y-107096346D01*
X126272712Y-107096344D01*
X126148656Y-106972288D01*
X125999334Y-106880186D01*
X125999333Y-106880185D01*
X125832795Y-106825000D01*
X125730012Y-106814500D01*
X124429996Y-106814500D01*
X124327202Y-106825001D01*
X124160664Y-106880186D01*
X124011346Y-106972286D01*
X123887286Y-107096346D01*
X123795186Y-107245665D01*
X123740000Y-107412204D01*
X123729500Y-107514987D01*
X123729500Y-109655003D01*
X111125500Y-109655003D01*
X111125500Y-102703000D01*
X113667340Y-102703000D01*
X113687936Y-102938405D01*
X113749098Y-103166667D01*
X113848963Y-103380826D01*
X113848964Y-103380827D01*
X113848965Y-103380829D01*
X113984505Y-103574401D01*
X114151599Y-103741495D01*
X114151602Y-103741497D01*
X114157724Y-103747619D01*
X114155775Y-103749567D01*
X114180131Y-103779470D01*
X114187179Y-103833028D01*
X114165063Y-103882313D01*
X114120368Y-103912651D01*
X114103667Y-103918185D01*
X113954346Y-104010286D01*
X113830286Y-104134346D01*
X113738186Y-104283665D01*
X113683000Y-104450204D01*
X113672500Y-104552987D01*
X113672500Y-105853003D01*
X113683001Y-105955797D01*
X113738186Y-106122335D01*
X113830286Y-106271653D01*
X113830288Y-106271656D01*
X113954344Y-106395712D01*
X114103666Y-106487814D01*
X114270203Y-106542999D01*
X114372991Y-106553500D01*
X116513008Y-106553499D01*
X116615797Y-106542999D01*
X116782334Y-106487814D01*
X116931656Y-106395712D01*
X117055712Y-106271656D01*
X117147814Y-106122334D01*
X117202999Y-105955797D01*
X117213500Y-105853009D01*
X117213499Y-104552992D01*
X117202999Y-104450203D01*
X117147814Y-104283666D01*
X117055712Y-104134344D01*
X116931656Y-104010288D01*
X116782334Y-103918186D01*
X116782333Y-103918185D01*
X116782332Y-103918185D01*
X116765632Y-103912651D01*
X116720931Y-103882308D01*
X116698818Y-103833013D01*
X116705877Y-103779449D01*
X116730226Y-103749569D01*
X116728276Y-103747619D01*
X116734397Y-103741497D01*
X116734401Y-103741495D01*
X116901495Y-103574401D01*
X117037035Y-103380830D01*
X117136903Y-103166663D01*
X117198063Y-102938408D01*
X117218659Y-102703000D01*
X117203143Y-102525660D01*
X127009000Y-102525660D01*
X127011918Y-102568700D01*
X127058193Y-102754776D01*
X127143382Y-102926544D01*
X127143383Y-102926545D01*
X127143384Y-102926547D01*
X127263510Y-103075990D01*
X127412953Y-103196116D01*
X127584725Y-103281307D01*
X127770796Y-103327581D01*
X127813843Y-103330500D01*
X128729156Y-103330499D01*
X128729160Y-103330499D01*
X128750680Y-103329039D01*
X128772204Y-103327581D01*
X128958275Y-103281307D01*
X129130047Y-103196116D01*
X129279490Y-103075990D01*
X129399616Y-102926547D01*
X129484807Y-102754775D01*
X129505822Y-102670271D01*
X129537003Y-102619399D01*
X129591761Y-102595686D01*
X129650200Y-102607751D01*
X129691090Y-102651211D01*
X129723328Y-102718153D01*
X129856904Y-102902005D01*
X130021162Y-103059052D01*
X130210823Y-103184246D01*
X130419789Y-103273562D01*
X130641346Y-103324131D01*
X130754858Y-103329228D01*
X130868369Y-103334327D01*
X130868369Y-103334326D01*
X130868371Y-103334327D01*
X131093568Y-103303822D01*
X131309700Y-103233596D01*
X131509819Y-103125908D01*
X131687493Y-102984217D01*
X131837012Y-102813078D01*
X131953571Y-102617992D01*
X131986729Y-102529641D01*
X132021225Y-102484335D01*
X132074974Y-102465528D01*
X132130193Y-102479442D01*
X132168611Y-102521472D01*
X132263328Y-102718153D01*
X132396904Y-102902005D01*
X132561162Y-103059052D01*
X132750823Y-103184246D01*
X132959789Y-103273562D01*
X133181346Y-103324131D01*
X133294858Y-103329228D01*
X133408369Y-103334327D01*
X133408369Y-103334326D01*
X133408371Y-103334327D01*
X133633568Y-103303822D01*
X133849700Y-103233596D01*
X134049819Y-103125908D01*
X134227493Y-102984217D01*
X134377012Y-102813078D01*
X134493571Y-102617992D01*
X134526729Y-102529641D01*
X134561225Y-102484335D01*
X134614974Y-102465528D01*
X134670193Y-102479442D01*
X134708611Y-102521472D01*
X134803328Y-102718153D01*
X134936904Y-102902005D01*
X135101162Y-103059052D01*
X135290823Y-103184246D01*
X135499789Y-103273562D01*
X135721346Y-103324131D01*
X135834858Y-103329228D01*
X135948369Y-103334327D01*
X135948369Y-103334326D01*
X135948371Y-103334327D01*
X136173568Y-103303822D01*
X136389700Y-103233596D01*
X136589819Y-103125908D01*
X136767493Y-102984217D01*
X136917012Y-102813078D01*
X137033571Y-102617992D01*
X137066729Y-102529641D01*
X137101225Y-102484335D01*
X137154974Y-102465528D01*
X137210193Y-102479442D01*
X137248611Y-102521472D01*
X137343328Y-102718153D01*
X137476904Y-102902005D01*
X137641162Y-103059052D01*
X137830823Y-103184246D01*
X138039789Y-103273562D01*
X138261346Y-103324131D01*
X138374858Y-103329228D01*
X138488369Y-103334327D01*
X138488369Y-103334326D01*
X138488371Y-103334327D01*
X138713568Y-103303822D01*
X138929700Y-103233596D01*
X139129819Y-103125908D01*
X139307493Y-102984217D01*
X139457012Y-102813078D01*
X139573571Y-102617992D01*
X139606729Y-102529641D01*
X139641225Y-102484335D01*
X139694974Y-102465528D01*
X139750193Y-102479442D01*
X139788611Y-102521472D01*
X139883328Y-102718153D01*
X140016904Y-102902005D01*
X140181162Y-103059052D01*
X140370823Y-103184246D01*
X140579789Y-103273562D01*
X140801346Y-103324131D01*
X140914858Y-103329228D01*
X141028369Y-103334327D01*
X141028369Y-103334326D01*
X141028371Y-103334327D01*
X141253568Y-103303822D01*
X141469700Y-103233596D01*
X141669819Y-103125908D01*
X141847493Y-102984217D01*
X141997012Y-102813078D01*
X142113571Y-102617992D01*
X142146729Y-102529641D01*
X142181225Y-102484335D01*
X142234974Y-102465528D01*
X142290193Y-102479442D01*
X142328611Y-102521472D01*
X142423328Y-102718153D01*
X142556904Y-102902005D01*
X142721162Y-103059052D01*
X142910823Y-103184246D01*
X143119789Y-103273562D01*
X143341346Y-103324131D01*
X143454858Y-103329228D01*
X143568369Y-103334327D01*
X143568369Y-103334326D01*
X143568371Y-103334327D01*
X143793568Y-103303822D01*
X144009700Y-103233596D01*
X144209819Y-103125908D01*
X144387493Y-102984217D01*
X144537012Y-102813078D01*
X144653571Y-102617992D01*
X144686729Y-102529641D01*
X144721225Y-102484335D01*
X144774974Y-102465528D01*
X144830193Y-102479442D01*
X144868611Y-102521472D01*
X144963328Y-102718153D01*
X145096904Y-102902005D01*
X145261162Y-103059052D01*
X145450823Y-103184246D01*
X145659789Y-103273562D01*
X145881346Y-103324131D01*
X145994858Y-103329228D01*
X146108369Y-103334327D01*
X146108369Y-103334326D01*
X146108371Y-103334327D01*
X146333568Y-103303822D01*
X146549700Y-103233596D01*
X146749819Y-103125908D01*
X146927493Y-102984217D01*
X147077012Y-102813078D01*
X147193571Y-102617992D01*
X147226729Y-102529641D01*
X147261225Y-102484335D01*
X147314974Y-102465528D01*
X147370193Y-102479442D01*
X147408611Y-102521472D01*
X147503328Y-102718153D01*
X147636904Y-102902005D01*
X147801162Y-103059052D01*
X147990823Y-103184246D01*
X148199789Y-103273562D01*
X148421346Y-103324131D01*
X148534858Y-103329228D01*
X148648369Y-103334327D01*
X148648369Y-103334326D01*
X148648371Y-103334327D01*
X148873568Y-103303822D01*
X149089700Y-103233596D01*
X149289819Y-103125908D01*
X149467493Y-102984217D01*
X149617012Y-102813078D01*
X149733571Y-102617992D01*
X149766729Y-102529641D01*
X149801225Y-102484335D01*
X149854974Y-102465528D01*
X149910193Y-102479442D01*
X149948611Y-102521472D01*
X150043328Y-102718153D01*
X150176904Y-102902005D01*
X150341162Y-103059052D01*
X150530823Y-103184246D01*
X150739789Y-103273562D01*
X150961346Y-103324131D01*
X151074858Y-103329228D01*
X151188369Y-103334327D01*
X151188369Y-103334326D01*
X151188371Y-103334327D01*
X151413568Y-103303822D01*
X151629700Y-103233596D01*
X151829819Y-103125908D01*
X152007493Y-102984217D01*
X152157012Y-102813078D01*
X152273571Y-102617992D01*
X152306729Y-102529641D01*
X152341225Y-102484335D01*
X152394974Y-102465528D01*
X152450193Y-102479442D01*
X152488611Y-102521472D01*
X152583328Y-102718153D01*
X152716904Y-102902005D01*
X152881162Y-103059052D01*
X153070823Y-103184246D01*
X153279789Y-103273562D01*
X153501346Y-103324131D01*
X153614858Y-103329228D01*
X153728369Y-103334327D01*
X153728369Y-103334326D01*
X153728371Y-103334327D01*
X153953568Y-103303822D01*
X154169700Y-103233596D01*
X154369819Y-103125908D01*
X154547493Y-102984217D01*
X154697012Y-102813078D01*
X154813571Y-102617992D01*
X154846729Y-102529641D01*
X154881225Y-102484335D01*
X154934974Y-102465528D01*
X154990193Y-102479442D01*
X155028611Y-102521472D01*
X155123328Y-102718153D01*
X155256904Y-102902005D01*
X155421162Y-103059052D01*
X155610823Y-103184246D01*
X155819789Y-103273562D01*
X156041346Y-103324131D01*
X156154858Y-103329228D01*
X156268369Y-103334327D01*
X156268369Y-103334326D01*
X156268371Y-103334327D01*
X156493568Y-103303822D01*
X156709700Y-103233596D01*
X156909819Y-103125908D01*
X157087493Y-102984217D01*
X157237012Y-102813078D01*
X157353571Y-102617992D01*
X157386729Y-102529641D01*
X157421225Y-102484335D01*
X157474974Y-102465528D01*
X157530193Y-102479442D01*
X157568611Y-102521472D01*
X157663328Y-102718153D01*
X157796904Y-102902005D01*
X157961162Y-103059052D01*
X158150823Y-103184246D01*
X158359789Y-103273562D01*
X158581346Y-103324131D01*
X158694858Y-103329228D01*
X158808369Y-103334327D01*
X158808369Y-103334326D01*
X158808371Y-103334327D01*
X159033568Y-103303822D01*
X159249700Y-103233596D01*
X159449819Y-103125908D01*
X159627493Y-102984217D01*
X159777012Y-102813078D01*
X159893571Y-102617992D01*
X159926729Y-102529641D01*
X159961225Y-102484335D01*
X160014974Y-102465528D01*
X160070193Y-102479442D01*
X160108611Y-102521472D01*
X160203328Y-102718153D01*
X160336904Y-102902005D01*
X160501162Y-103059052D01*
X160690823Y-103184246D01*
X160899789Y-103273562D01*
X161121346Y-103324131D01*
X161234858Y-103329228D01*
X161348369Y-103334327D01*
X161348369Y-103334326D01*
X161348371Y-103334327D01*
X161573568Y-103303822D01*
X161789700Y-103233596D01*
X161989819Y-103125908D01*
X162167493Y-102984217D01*
X162317012Y-102813078D01*
X162433571Y-102617992D01*
X162466729Y-102529641D01*
X162501225Y-102484335D01*
X162554974Y-102465528D01*
X162610193Y-102479442D01*
X162648611Y-102521472D01*
X162743328Y-102718153D01*
X162876904Y-102902005D01*
X163041162Y-103059052D01*
X163230823Y-103184246D01*
X163439789Y-103273562D01*
X163661346Y-103324131D01*
X163774858Y-103329228D01*
X163888369Y-103334327D01*
X163888369Y-103334326D01*
X163888371Y-103334327D01*
X164113568Y-103303822D01*
X164329700Y-103233596D01*
X164529819Y-103125908D01*
X164707493Y-102984217D01*
X164857012Y-102813078D01*
X164973571Y-102617992D01*
X165006729Y-102529641D01*
X165041225Y-102484335D01*
X165094974Y-102465528D01*
X165150193Y-102479442D01*
X165188611Y-102521472D01*
X165283328Y-102718153D01*
X165416904Y-102902005D01*
X165581162Y-103059052D01*
X165770823Y-103184246D01*
X165979789Y-103273562D01*
X166201346Y-103324131D01*
X166314858Y-103329228D01*
X166428369Y-103334327D01*
X166428369Y-103334326D01*
X166428371Y-103334327D01*
X166653568Y-103303822D01*
X166869700Y-103233596D01*
X167069819Y-103125908D01*
X167247493Y-102984217D01*
X167397012Y-102813078D01*
X167513571Y-102617992D01*
X167546729Y-102529641D01*
X167581225Y-102484335D01*
X167634974Y-102465528D01*
X167690193Y-102479442D01*
X167728611Y-102521472D01*
X167823328Y-102718153D01*
X167956904Y-102902005D01*
X168121162Y-103059052D01*
X168310823Y-103184246D01*
X168519789Y-103273562D01*
X168741346Y-103324131D01*
X168854858Y-103329228D01*
X168968369Y-103334327D01*
X168968369Y-103334326D01*
X168968371Y-103334327D01*
X169193568Y-103303822D01*
X169409700Y-103233596D01*
X169609819Y-103125908D01*
X169787493Y-102984217D01*
X169937012Y-102813078D01*
X170053571Y-102617992D01*
X170086729Y-102529641D01*
X170121225Y-102484335D01*
X170174974Y-102465528D01*
X170230193Y-102479442D01*
X170268611Y-102521472D01*
X170363328Y-102718153D01*
X170496904Y-102902005D01*
X170661162Y-103059052D01*
X170850823Y-103184246D01*
X171059789Y-103273562D01*
X171281346Y-103324131D01*
X171394858Y-103329228D01*
X171508369Y-103334327D01*
X171508369Y-103334326D01*
X171508371Y-103334327D01*
X171733568Y-103303822D01*
X171949700Y-103233596D01*
X172149819Y-103125908D01*
X172327493Y-102984217D01*
X172477012Y-102813078D01*
X172593571Y-102617992D01*
X172626729Y-102529641D01*
X172661225Y-102484335D01*
X172714974Y-102465528D01*
X172770193Y-102479442D01*
X172808611Y-102521472D01*
X172903328Y-102718153D01*
X173036904Y-102902005D01*
X173201162Y-103059052D01*
X173390823Y-103184246D01*
X173599789Y-103273562D01*
X173821346Y-103324131D01*
X173934858Y-103329228D01*
X174048369Y-103334327D01*
X174048369Y-103334326D01*
X174048371Y-103334327D01*
X174273568Y-103303822D01*
X174489700Y-103233596D01*
X174689819Y-103125908D01*
X174867493Y-102984217D01*
X175017012Y-102813078D01*
X175133571Y-102617992D01*
X175166729Y-102529641D01*
X175201225Y-102484335D01*
X175254974Y-102465528D01*
X175310193Y-102479442D01*
X175348611Y-102521472D01*
X175443328Y-102718153D01*
X175576904Y-102902005D01*
X175741162Y-103059052D01*
X175930823Y-103184246D01*
X176139789Y-103273562D01*
X176361346Y-103324131D01*
X176474858Y-103329228D01*
X176588369Y-103334327D01*
X176588369Y-103334326D01*
X176588371Y-103334327D01*
X176813568Y-103303822D01*
X177029700Y-103233596D01*
X177229819Y-103125908D01*
X177407493Y-102984217D01*
X177557012Y-102813078D01*
X177673571Y-102617992D01*
X177706729Y-102529641D01*
X177741225Y-102484335D01*
X177794974Y-102465528D01*
X177850193Y-102479442D01*
X177888611Y-102521472D01*
X177983328Y-102718153D01*
X178116904Y-102902005D01*
X178281162Y-103059052D01*
X178470823Y-103184246D01*
X178679789Y-103273562D01*
X178901346Y-103324131D01*
X179014858Y-103329228D01*
X179128369Y-103334327D01*
X179128369Y-103334326D01*
X179128371Y-103334327D01*
X179353568Y-103303822D01*
X179569700Y-103233596D01*
X179769819Y-103125908D01*
X179947493Y-102984217D01*
X180097012Y-102813078D01*
X180213571Y-102617992D01*
X180293422Y-102405229D01*
X180334000Y-102181627D01*
X180334000Y-100995301D01*
X180328876Y-100938373D01*
X180318732Y-100825661D01*
X180258275Y-100606598D01*
X180217085Y-100521067D01*
X180159672Y-100401847D01*
X180026096Y-100217995D01*
X179861838Y-100060948D01*
X179672177Y-99935754D01*
X179672174Y-99935752D01*
X179672173Y-99935752D01*
X179463214Y-99846439D01*
X179463212Y-99846438D01*
X179463211Y-99846438D01*
X179352432Y-99821153D01*
X179241651Y-99795868D01*
X179014630Y-99785672D01*
X178789434Y-99816177D01*
X178573297Y-99886405D01*
X178373181Y-99994091D01*
X178195506Y-100135783D01*
X178045987Y-100306923D01*
X177929430Y-100502006D01*
X177896270Y-100590358D01*
X177861773Y-100635664D01*
X177808024Y-100654471D01*
X177752806Y-100640557D01*
X177714387Y-100598525D01*
X177619673Y-100401849D01*
X177619672Y-100401847D01*
X177486096Y-100217995D01*
X177321838Y-100060948D01*
X177132177Y-99935754D01*
X177132174Y-99935752D01*
X177132173Y-99935752D01*
X176923214Y-99846439D01*
X176923212Y-99846438D01*
X176923211Y-99846438D01*
X176812432Y-99821153D01*
X176701651Y-99795868D01*
X176474630Y-99785672D01*
X176249434Y-99816177D01*
X176033297Y-99886405D01*
X175833181Y-99994091D01*
X175655506Y-100135783D01*
X175505987Y-100306923D01*
X175389430Y-100502006D01*
X175356270Y-100590358D01*
X175321773Y-100635664D01*
X175268024Y-100654471D01*
X175212806Y-100640557D01*
X175174387Y-100598525D01*
X175079673Y-100401849D01*
X175079672Y-100401847D01*
X174946096Y-100217995D01*
X174781838Y-100060948D01*
X174592177Y-99935754D01*
X174592174Y-99935752D01*
X174592173Y-99935752D01*
X174383214Y-99846439D01*
X174383212Y-99846438D01*
X174383211Y-99846438D01*
X174272432Y-99821153D01*
X174161651Y-99795868D01*
X173934630Y-99785672D01*
X173709434Y-99816177D01*
X173493297Y-99886405D01*
X173293181Y-99994091D01*
X173115506Y-100135783D01*
X172965987Y-100306923D01*
X172849430Y-100502006D01*
X172816270Y-100590358D01*
X172781773Y-100635664D01*
X172728024Y-100654471D01*
X172672806Y-100640557D01*
X172634387Y-100598525D01*
X172539673Y-100401849D01*
X172539672Y-100401847D01*
X172406096Y-100217995D01*
X172241838Y-100060948D01*
X172052177Y-99935754D01*
X172052174Y-99935752D01*
X172052173Y-99935752D01*
X171843214Y-99846439D01*
X171843212Y-99846438D01*
X171843211Y-99846438D01*
X171732432Y-99821153D01*
X171621651Y-99795868D01*
X171394630Y-99785672D01*
X171169434Y-99816177D01*
X170953297Y-99886405D01*
X170753181Y-99994091D01*
X170575506Y-100135783D01*
X170425987Y-100306923D01*
X170309430Y-100502006D01*
X170276270Y-100590358D01*
X170241773Y-100635664D01*
X170188024Y-100654471D01*
X170132806Y-100640557D01*
X170094387Y-100598525D01*
X169999673Y-100401849D01*
X169999672Y-100401847D01*
X169866096Y-100217995D01*
X169701838Y-100060948D01*
X169512177Y-99935754D01*
X169512174Y-99935752D01*
X169512173Y-99935752D01*
X169303214Y-99846439D01*
X169303212Y-99846438D01*
X169303211Y-99846438D01*
X169192432Y-99821153D01*
X169081651Y-99795868D01*
X168854630Y-99785672D01*
X168629434Y-99816177D01*
X168413297Y-99886405D01*
X168213181Y-99994091D01*
X168035506Y-100135783D01*
X167885987Y-100306923D01*
X167769430Y-100502006D01*
X167736270Y-100590358D01*
X167701773Y-100635664D01*
X167648024Y-100654471D01*
X167592806Y-100640557D01*
X167554387Y-100598525D01*
X167459673Y-100401849D01*
X167459672Y-100401847D01*
X167326096Y-100217995D01*
X167161838Y-100060948D01*
X166972177Y-99935754D01*
X166972174Y-99935752D01*
X166972173Y-99935752D01*
X166763214Y-99846439D01*
X166763212Y-99846438D01*
X166763211Y-99846438D01*
X166652432Y-99821153D01*
X166541651Y-99795868D01*
X166314630Y-99785672D01*
X166089434Y-99816177D01*
X165873297Y-99886405D01*
X165673181Y-99994091D01*
X165495506Y-100135783D01*
X165345987Y-100306923D01*
X165229430Y-100502006D01*
X165196270Y-100590358D01*
X165161773Y-100635664D01*
X165108024Y-100654471D01*
X165052806Y-100640557D01*
X165014387Y-100598525D01*
X164919673Y-100401849D01*
X164919672Y-100401847D01*
X164786096Y-100217995D01*
X164621838Y-100060948D01*
X164432177Y-99935754D01*
X164432174Y-99935752D01*
X164432173Y-99935752D01*
X164223214Y-99846439D01*
X164223212Y-99846438D01*
X164223211Y-99846438D01*
X164112432Y-99821153D01*
X164001651Y-99795868D01*
X163774630Y-99785672D01*
X163549434Y-99816177D01*
X163333297Y-99886405D01*
X163133181Y-99994091D01*
X162955506Y-100135783D01*
X162805987Y-100306923D01*
X162689430Y-100502006D01*
X162656270Y-100590358D01*
X162621773Y-100635664D01*
X162568024Y-100654471D01*
X162512806Y-100640557D01*
X162474387Y-100598525D01*
X162379673Y-100401849D01*
X162379672Y-100401847D01*
X162246096Y-100217995D01*
X162081838Y-100060948D01*
X161892177Y-99935754D01*
X161892174Y-99935752D01*
X161892173Y-99935752D01*
X161683214Y-99846439D01*
X161683212Y-99846438D01*
X161683211Y-99846438D01*
X161572432Y-99821153D01*
X161461651Y-99795868D01*
X161234630Y-99785672D01*
X161009434Y-99816177D01*
X160793297Y-99886405D01*
X160593181Y-99994091D01*
X160415506Y-100135783D01*
X160265987Y-100306923D01*
X160149430Y-100502006D01*
X160116270Y-100590358D01*
X160081773Y-100635664D01*
X160028024Y-100654471D01*
X159972806Y-100640557D01*
X159934387Y-100598525D01*
X159839673Y-100401849D01*
X159839672Y-100401847D01*
X159706096Y-100217995D01*
X159541838Y-100060948D01*
X159352177Y-99935754D01*
X159352174Y-99935752D01*
X159352173Y-99935752D01*
X159143214Y-99846439D01*
X159143212Y-99846438D01*
X159143211Y-99846438D01*
X159032432Y-99821153D01*
X158921651Y-99795868D01*
X158694630Y-99785672D01*
X158469434Y-99816177D01*
X158253297Y-99886405D01*
X158053181Y-99994091D01*
X157875506Y-100135783D01*
X157725987Y-100306923D01*
X157609430Y-100502006D01*
X157576270Y-100590358D01*
X157541773Y-100635664D01*
X157488024Y-100654471D01*
X157432806Y-100640557D01*
X157394387Y-100598525D01*
X157299673Y-100401849D01*
X157299672Y-100401847D01*
X157166096Y-100217995D01*
X157001838Y-100060948D01*
X156812177Y-99935754D01*
X156812174Y-99935752D01*
X156812173Y-99935752D01*
X156603214Y-99846439D01*
X156603212Y-99846438D01*
X156603211Y-99846438D01*
X156492432Y-99821153D01*
X156381651Y-99795868D01*
X156154630Y-99785672D01*
X155929434Y-99816177D01*
X155713297Y-99886405D01*
X155513181Y-99994091D01*
X155335506Y-100135783D01*
X155185987Y-100306923D01*
X155069430Y-100502006D01*
X155036270Y-100590358D01*
X155001773Y-100635664D01*
X154948024Y-100654471D01*
X154892806Y-100640557D01*
X154854387Y-100598525D01*
X154759673Y-100401849D01*
X154759672Y-100401847D01*
X154626096Y-100217995D01*
X154461838Y-100060948D01*
X154272177Y-99935754D01*
X154272174Y-99935752D01*
X154272173Y-99935752D01*
X154063214Y-99846439D01*
X154063212Y-99846438D01*
X154063211Y-99846438D01*
X153952432Y-99821153D01*
X153841651Y-99795868D01*
X153614630Y-99785672D01*
X153389434Y-99816177D01*
X153173297Y-99886405D01*
X152973181Y-99994091D01*
X152795506Y-100135783D01*
X152645987Y-100306923D01*
X152529430Y-100502006D01*
X152496270Y-100590358D01*
X152461773Y-100635664D01*
X152408024Y-100654471D01*
X152352806Y-100640557D01*
X152314387Y-100598525D01*
X152219673Y-100401849D01*
X152219672Y-100401847D01*
X152086096Y-100217995D01*
X151921838Y-100060948D01*
X151732177Y-99935754D01*
X151732174Y-99935752D01*
X151732173Y-99935752D01*
X151523214Y-99846439D01*
X151523212Y-99846438D01*
X151523211Y-99846438D01*
X151412432Y-99821153D01*
X151301651Y-99795868D01*
X151074630Y-99785672D01*
X150849434Y-99816177D01*
X150633297Y-99886405D01*
X150433181Y-99994091D01*
X150255506Y-100135783D01*
X150105987Y-100306923D01*
X149989430Y-100502006D01*
X149956270Y-100590358D01*
X149921773Y-100635664D01*
X149868024Y-100654471D01*
X149812806Y-100640557D01*
X149774387Y-100598525D01*
X149679673Y-100401849D01*
X149679672Y-100401847D01*
X149546096Y-100217995D01*
X149381838Y-100060948D01*
X149192177Y-99935754D01*
X149192174Y-99935752D01*
X149192173Y-99935752D01*
X148983214Y-99846439D01*
X148983212Y-99846438D01*
X148983211Y-99846438D01*
X148872432Y-99821153D01*
X148761651Y-99795868D01*
X148534630Y-99785672D01*
X148309434Y-99816177D01*
X148093297Y-99886405D01*
X147893181Y-99994091D01*
X147715506Y-100135783D01*
X147565987Y-100306923D01*
X147449430Y-100502006D01*
X147416270Y-100590358D01*
X147381773Y-100635664D01*
X147328024Y-100654471D01*
X147272806Y-100640557D01*
X147234387Y-100598525D01*
X147139673Y-100401849D01*
X147139672Y-100401847D01*
X147006096Y-100217995D01*
X146841838Y-100060948D01*
X146652177Y-99935754D01*
X146652174Y-99935752D01*
X146652173Y-99935752D01*
X146443214Y-99846439D01*
X146443212Y-99846438D01*
X146443211Y-99846438D01*
X146332432Y-99821153D01*
X146221651Y-99795868D01*
X145994630Y-99785672D01*
X145769434Y-99816177D01*
X145553297Y-99886405D01*
X145353181Y-99994091D01*
X145175506Y-100135783D01*
X145025987Y-100306923D01*
X144909430Y-100502006D01*
X144876270Y-100590358D01*
X144841773Y-100635664D01*
X144788024Y-100654471D01*
X144732806Y-100640557D01*
X144694387Y-100598525D01*
X144599673Y-100401849D01*
X144599672Y-100401847D01*
X144466096Y-100217995D01*
X144301838Y-100060948D01*
X144112177Y-99935754D01*
X144112174Y-99935752D01*
X144112173Y-99935752D01*
X143903214Y-99846439D01*
X143903212Y-99846438D01*
X143903211Y-99846438D01*
X143792432Y-99821153D01*
X143681651Y-99795868D01*
X143454630Y-99785672D01*
X143229434Y-99816177D01*
X143013297Y-99886405D01*
X142813181Y-99994091D01*
X142635506Y-100135783D01*
X142485987Y-100306923D01*
X142369430Y-100502006D01*
X142336270Y-100590358D01*
X142301773Y-100635664D01*
X142248024Y-100654471D01*
X142192806Y-100640557D01*
X142154387Y-100598525D01*
X142059673Y-100401849D01*
X142059672Y-100401847D01*
X141926096Y-100217995D01*
X141761838Y-100060948D01*
X141572177Y-99935754D01*
X141572174Y-99935752D01*
X141572173Y-99935752D01*
X141363214Y-99846439D01*
X141363212Y-99846438D01*
X141363211Y-99846438D01*
X141252432Y-99821153D01*
X141141651Y-99795868D01*
X140914630Y-99785672D01*
X140689434Y-99816177D01*
X140473297Y-99886405D01*
X140273181Y-99994091D01*
X140095506Y-100135783D01*
X139945987Y-100306923D01*
X139829430Y-100502006D01*
X139796270Y-100590358D01*
X139761773Y-100635664D01*
X139708024Y-100654471D01*
X139652806Y-100640557D01*
X139614387Y-100598525D01*
X139519673Y-100401849D01*
X139519672Y-100401847D01*
X139386096Y-100217995D01*
X139221838Y-100060948D01*
X139032177Y-99935754D01*
X139032174Y-99935752D01*
X139032173Y-99935752D01*
X138823214Y-99846439D01*
X138823212Y-99846438D01*
X138823211Y-99846438D01*
X138712432Y-99821153D01*
X138601651Y-99795868D01*
X138374630Y-99785672D01*
X138149434Y-99816177D01*
X137933297Y-99886405D01*
X137733181Y-99994091D01*
X137555506Y-100135783D01*
X137405987Y-100306923D01*
X137289430Y-100502006D01*
X137256270Y-100590358D01*
X137221773Y-100635664D01*
X137168024Y-100654471D01*
X137112806Y-100640557D01*
X137074387Y-100598525D01*
X136979673Y-100401849D01*
X136979672Y-100401847D01*
X136846096Y-100217995D01*
X136681838Y-100060948D01*
X136492177Y-99935754D01*
X136492174Y-99935752D01*
X136492173Y-99935752D01*
X136283214Y-99846439D01*
X136283212Y-99846438D01*
X136283211Y-99846438D01*
X136172432Y-99821153D01*
X136061651Y-99795868D01*
X135834630Y-99785672D01*
X135609434Y-99816177D01*
X135393297Y-99886405D01*
X135193181Y-99994091D01*
X135015506Y-100135783D01*
X134865987Y-100306923D01*
X134749430Y-100502006D01*
X134716270Y-100590358D01*
X134681773Y-100635664D01*
X134628024Y-100654471D01*
X134572806Y-100640557D01*
X134534387Y-100598525D01*
X134439673Y-100401849D01*
X134439672Y-100401847D01*
X134306096Y-100217995D01*
X134141838Y-100060948D01*
X133952177Y-99935754D01*
X133952174Y-99935752D01*
X133952173Y-99935752D01*
X133743214Y-99846439D01*
X133743212Y-99846438D01*
X133743211Y-99846438D01*
X133632432Y-99821153D01*
X133521651Y-99795868D01*
X133294630Y-99785672D01*
X133069434Y-99816177D01*
X132853297Y-99886405D01*
X132653181Y-99994091D01*
X132475506Y-100135783D01*
X132325987Y-100306923D01*
X132209430Y-100502006D01*
X132176270Y-100590358D01*
X132141773Y-100635664D01*
X132088024Y-100654471D01*
X132032806Y-100640557D01*
X131994387Y-100598525D01*
X131899673Y-100401849D01*
X131899672Y-100401847D01*
X131766096Y-100217995D01*
X131601838Y-100060948D01*
X131412177Y-99935754D01*
X131412174Y-99935752D01*
X131412173Y-99935752D01*
X131203214Y-99846439D01*
X131203212Y-99846438D01*
X131203211Y-99846438D01*
X131092432Y-99821153D01*
X130981651Y-99795868D01*
X130754630Y-99785672D01*
X130529434Y-99816177D01*
X130313297Y-99886405D01*
X130113181Y-99994091D01*
X129935506Y-100135783D01*
X129785988Y-100306921D01*
X129686211Y-100473919D01*
X129643609Y-100512610D01*
X129586684Y-100521067D01*
X129534673Y-100496434D01*
X129505152Y-100447035D01*
X129484807Y-100365225D01*
X129455891Y-100306922D01*
X129399617Y-100193455D01*
X129399616Y-100193454D01*
X129399616Y-100193453D01*
X129279490Y-100044010D01*
X129130047Y-99923884D01*
X129130045Y-99923883D01*
X129130044Y-99923882D01*
X128958277Y-99838694D01*
X128958275Y-99838693D01*
X128772204Y-99792419D01*
X128772200Y-99792418D01*
X128729159Y-99789500D01*
X127813839Y-99789500D01*
X127770799Y-99792418D01*
X127584723Y-99838693D01*
X127412955Y-99923882D01*
X127263510Y-100044010D01*
X127143382Y-100193455D01*
X127058194Y-100365222D01*
X127058193Y-100365225D01*
X127049085Y-100401848D01*
X127011918Y-100551299D01*
X127009000Y-100594340D01*
X127009000Y-102525660D01*
X117203143Y-102525660D01*
X117198063Y-102467592D01*
X117136903Y-102239337D01*
X117037035Y-102025171D01*
X116901495Y-101831599D01*
X116734401Y-101664505D01*
X116548154Y-101534094D01*
X116517126Y-101498713D01*
X116505940Y-101453000D01*
X116517126Y-101407287D01*
X116548154Y-101371905D01*
X116734401Y-101241495D01*
X116901495Y-101074401D01*
X117037035Y-100880830D01*
X117136903Y-100666663D01*
X117198063Y-100438408D01*
X117218659Y-100203000D01*
X117198063Y-99967592D01*
X117136903Y-99739337D01*
X117037035Y-99525171D01*
X116901495Y-99331599D01*
X116734401Y-99164505D01*
X116540829Y-99028965D01*
X116540828Y-99028964D01*
X116540826Y-99028963D01*
X116326667Y-98929098D01*
X116098405Y-98867936D01*
X115921969Y-98852500D01*
X115921966Y-98852500D01*
X114964034Y-98852500D01*
X114964031Y-98852500D01*
X114787594Y-98867936D01*
X114559332Y-98929098D01*
X114345173Y-99028963D01*
X114151602Y-99164502D01*
X113984502Y-99331602D01*
X113848963Y-99525172D01*
X113749098Y-99739332D01*
X113687936Y-99967594D01*
X113667340Y-100203000D01*
X113687936Y-100438405D01*
X113749098Y-100666667D01*
X113848963Y-100880826D01*
X113848964Y-100880827D01*
X113848965Y-100880829D01*
X113984505Y-101074401D01*
X114151599Y-101241495D01*
X114151602Y-101241497D01*
X114337843Y-101371904D01*
X114368873Y-101407287D01*
X114380059Y-101453000D01*
X114368873Y-101498713D01*
X114337843Y-101534096D01*
X114151602Y-101664502D01*
X113984502Y-101831602D01*
X113848963Y-102025172D01*
X113749098Y-102239332D01*
X113687936Y-102467594D01*
X113667340Y-102703000D01*
X111125500Y-102703000D01*
X111125500Y-93915003D01*
X113545500Y-93915003D01*
X113556001Y-94017797D01*
X113611186Y-94184335D01*
X113703286Y-94333653D01*
X113703288Y-94333656D01*
X113827344Y-94457712D01*
X113976666Y-94549814D01*
X114143203Y-94604999D01*
X114245991Y-94615500D01*
X116386008Y-94615499D01*
X116488797Y-94604999D01*
X116655334Y-94549814D01*
X116804656Y-94457712D01*
X116928712Y-94333656D01*
X117020814Y-94184334D01*
X117075999Y-94017797D01*
X117086500Y-93915009D01*
X117086499Y-92614992D01*
X117075999Y-92512203D01*
X117020814Y-92345666D01*
X116928712Y-92196344D01*
X116804656Y-92072288D01*
X116655334Y-91980186D01*
X116655333Y-91980185D01*
X116488795Y-91925000D01*
X116386012Y-91914500D01*
X114245996Y-91914500D01*
X114143202Y-91925001D01*
X113976664Y-91980186D01*
X113827346Y-92072286D01*
X113703286Y-92196346D01*
X113611186Y-92345665D01*
X113556000Y-92512204D01*
X113545500Y-92614987D01*
X113545500Y-93915003D01*
X111125500Y-93915003D01*
X111125500Y-88265000D01*
X113540340Y-88265000D01*
X113560936Y-88500405D01*
X113622098Y-88728667D01*
X113721963Y-88942826D01*
X113721964Y-88942827D01*
X113721965Y-88942829D01*
X113857505Y-89136401D01*
X114024599Y-89303495D01*
X114218171Y-89439035D01*
X114218172Y-89439035D01*
X114218173Y-89439036D01*
X114432332Y-89538901D01*
X114432333Y-89538901D01*
X114432337Y-89538903D01*
X114660592Y-89600063D01*
X114731168Y-89606237D01*
X114837031Y-89615500D01*
X114837034Y-89615500D01*
X115794966Y-89615500D01*
X115794969Y-89615500D01*
X115883186Y-89607781D01*
X115971408Y-89600063D01*
X116199663Y-89538903D01*
X116413829Y-89439035D01*
X116607401Y-89303495D01*
X116774495Y-89136401D01*
X116910035Y-88942830D01*
X117009903Y-88728663D01*
X117071063Y-88500408D01*
X117091659Y-88265000D01*
X117071063Y-88029592D01*
X117009903Y-87801337D01*
X116910035Y-87587171D01*
X116774495Y-87393599D01*
X116607401Y-87226505D01*
X116413829Y-87090965D01*
X116413828Y-87090964D01*
X116413826Y-87090963D01*
X116199667Y-86991098D01*
X115971405Y-86929936D01*
X115794969Y-86914500D01*
X115794966Y-86914500D01*
X114837034Y-86914500D01*
X114837031Y-86914500D01*
X114660594Y-86929936D01*
X114432332Y-86991098D01*
X114218173Y-87090963D01*
X114024602Y-87226502D01*
X113857502Y-87393602D01*
X113721963Y-87587172D01*
X113622098Y-87801332D01*
X113560936Y-88029594D01*
X113540340Y-88265000D01*
X111125500Y-88265000D01*
X111125500Y-84474787D01*
X111125527Y-84474651D01*
X111125539Y-84455002D01*
X111125541Y-84455000D01*
X111125383Y-84454617D01*
X111125099Y-84454500D01*
X111124999Y-84454459D01*
X111124998Y-84454459D01*
X111105418Y-84454459D01*
X111105212Y-84454500D01*
X100429500Y-84454500D01*
X100380000Y-84441237D01*
X100343763Y-84405000D01*
X100330500Y-84355500D01*
X100330500Y-82984778D01*
X115635575Y-82984778D01*
X115641934Y-83065578D01*
X115659502Y-83131144D01*
X115692286Y-83253496D01*
X115780610Y-83426841D01*
X115841826Y-83502435D01*
X115903043Y-83578032D01*
X115996394Y-83653627D01*
X116054233Y-83700464D01*
X116227578Y-83788788D01*
X116260362Y-83797572D01*
X116415497Y-83839141D01*
X116496297Y-83845500D01*
X118315851Y-83845500D01*
X118315853Y-83845500D01*
X118396653Y-83839141D01*
X118584571Y-83788788D01*
X118757915Y-83700465D01*
X118909107Y-83578032D01*
X119031540Y-83426840D01*
X119119863Y-83253496D01*
X119170216Y-83065578D01*
X119176575Y-82984778D01*
X119176575Y-82005222D01*
X119170216Y-81924422D01*
X119119863Y-81736504D01*
X119119863Y-81736503D01*
X119031539Y-81563158D01*
X118984701Y-81505319D01*
X118909107Y-81411968D01*
X118833510Y-81350751D01*
X118757916Y-81289535D01*
X118584571Y-81201211D01*
X118462219Y-81168427D01*
X118396653Y-81150859D01*
X118315853Y-81144500D01*
X116496297Y-81144500D01*
X116415497Y-81150859D01*
X116382713Y-81159643D01*
X116227578Y-81201211D01*
X116054233Y-81289535D01*
X115903043Y-81411968D01*
X115780610Y-81563158D01*
X115692286Y-81736503D01*
X115650718Y-81891638D01*
X115641934Y-81924422D01*
X115635575Y-82005222D01*
X115635575Y-82984778D01*
X100330500Y-82984778D01*
X100330500Y-79264704D01*
X129549000Y-79264704D01*
X129564267Y-79434338D01*
X129624724Y-79653401D01*
X129675093Y-79757992D01*
X129723328Y-79858153D01*
X129856904Y-80042005D01*
X130021162Y-80199052D01*
X130210823Y-80324246D01*
X130419789Y-80413562D01*
X130641346Y-80464131D01*
X130754858Y-80469229D01*
X130868369Y-80474327D01*
X130868369Y-80474326D01*
X130868371Y-80474327D01*
X131093568Y-80443822D01*
X131309700Y-80373596D01*
X131509819Y-80265908D01*
X131687493Y-80124217D01*
X131837012Y-79953078D01*
X131953571Y-79757992D01*
X131986729Y-79669641D01*
X132021225Y-79624335D01*
X132074974Y-79605528D01*
X132130193Y-79619442D01*
X132168611Y-79661472D01*
X132263328Y-79858153D01*
X132396904Y-80042005D01*
X132561162Y-80199052D01*
X132750823Y-80324246D01*
X132959789Y-80413562D01*
X133181346Y-80464131D01*
X133294858Y-80469229D01*
X133408369Y-80474327D01*
X133408369Y-80474326D01*
X133408371Y-80474327D01*
X133633568Y-80443822D01*
X133849700Y-80373596D01*
X134049819Y-80265908D01*
X134227493Y-80124217D01*
X134377012Y-79953078D01*
X134493571Y-79757992D01*
X134526729Y-79669641D01*
X134561225Y-79624335D01*
X134614974Y-79605528D01*
X134670193Y-79619442D01*
X134708611Y-79661472D01*
X134803328Y-79858153D01*
X134936904Y-80042005D01*
X135101162Y-80199052D01*
X135290823Y-80324246D01*
X135499789Y-80413562D01*
X135721346Y-80464131D01*
X135834858Y-80469229D01*
X135948369Y-80474327D01*
X135948369Y-80474326D01*
X135948371Y-80474327D01*
X136173568Y-80443822D01*
X136389700Y-80373596D01*
X136589819Y-80265908D01*
X136767493Y-80124217D01*
X136917012Y-79953078D01*
X137033571Y-79757992D01*
X137066729Y-79669641D01*
X137101225Y-79624335D01*
X137154974Y-79605528D01*
X137210193Y-79619442D01*
X137248611Y-79661472D01*
X137343328Y-79858153D01*
X137476904Y-80042005D01*
X137641162Y-80199052D01*
X137830823Y-80324246D01*
X138039789Y-80413562D01*
X138261346Y-80464131D01*
X138374858Y-80469229D01*
X138488369Y-80474327D01*
X138488369Y-80474326D01*
X138488371Y-80474327D01*
X138713568Y-80443822D01*
X138929700Y-80373596D01*
X139129819Y-80265908D01*
X139307493Y-80124217D01*
X139457012Y-79953078D01*
X139573571Y-79757992D01*
X139606729Y-79669641D01*
X139641225Y-79624335D01*
X139694974Y-79605528D01*
X139750193Y-79619442D01*
X139788611Y-79661472D01*
X139883328Y-79858153D01*
X140016904Y-80042005D01*
X140181162Y-80199052D01*
X140370823Y-80324246D01*
X140579789Y-80413562D01*
X140801346Y-80464131D01*
X140914858Y-80469229D01*
X141028369Y-80474327D01*
X141028369Y-80474326D01*
X141028371Y-80474327D01*
X141253568Y-80443822D01*
X141469700Y-80373596D01*
X141669819Y-80265908D01*
X141847493Y-80124217D01*
X141997012Y-79953078D01*
X142113571Y-79757992D01*
X142146729Y-79669641D01*
X142181225Y-79624335D01*
X142234974Y-79605528D01*
X142290193Y-79619442D01*
X142328611Y-79661472D01*
X142423328Y-79858153D01*
X142556904Y-80042005D01*
X142721162Y-80199052D01*
X142910823Y-80324246D01*
X143119789Y-80413562D01*
X143341346Y-80464131D01*
X143454858Y-80469229D01*
X143568369Y-80474327D01*
X143568369Y-80474326D01*
X143568371Y-80474327D01*
X143793568Y-80443822D01*
X144009700Y-80373596D01*
X144209819Y-80265908D01*
X144387493Y-80124217D01*
X144537012Y-79953078D01*
X144653571Y-79757992D01*
X144686729Y-79669641D01*
X144721225Y-79624335D01*
X144774974Y-79605528D01*
X144830193Y-79619442D01*
X144868611Y-79661472D01*
X144963328Y-79858153D01*
X145096904Y-80042005D01*
X145261162Y-80199052D01*
X145450823Y-80324246D01*
X145659789Y-80413562D01*
X145881346Y-80464131D01*
X145994858Y-80469229D01*
X146108369Y-80474327D01*
X146108369Y-80474326D01*
X146108371Y-80474327D01*
X146333568Y-80443822D01*
X146549700Y-80373596D01*
X146749819Y-80265908D01*
X146927493Y-80124217D01*
X147077012Y-79953078D01*
X147193571Y-79757992D01*
X147226729Y-79669641D01*
X147261225Y-79624335D01*
X147314974Y-79605528D01*
X147370193Y-79619442D01*
X147408611Y-79661472D01*
X147503328Y-79858153D01*
X147636904Y-80042005D01*
X147801162Y-80199052D01*
X147990823Y-80324246D01*
X148199789Y-80413562D01*
X148421346Y-80464131D01*
X148534858Y-80469229D01*
X148648369Y-80474327D01*
X148648369Y-80474326D01*
X148648371Y-80474327D01*
X148873568Y-80443822D01*
X149089700Y-80373596D01*
X149289819Y-80265908D01*
X149467493Y-80124217D01*
X149617012Y-79953078D01*
X149733571Y-79757992D01*
X149766729Y-79669641D01*
X149801225Y-79624335D01*
X149854974Y-79605528D01*
X149910193Y-79619442D01*
X149948611Y-79661472D01*
X150043328Y-79858153D01*
X150176904Y-80042005D01*
X150341162Y-80199052D01*
X150530823Y-80324246D01*
X150739789Y-80413562D01*
X150961346Y-80464131D01*
X151074858Y-80469229D01*
X151188369Y-80474327D01*
X151188369Y-80474326D01*
X151188371Y-80474327D01*
X151413568Y-80443822D01*
X151629700Y-80373596D01*
X151829819Y-80265908D01*
X152007493Y-80124217D01*
X152157012Y-79953078D01*
X152273571Y-79757992D01*
X152306729Y-79669641D01*
X152341225Y-79624335D01*
X152394974Y-79605528D01*
X152450193Y-79619442D01*
X152488611Y-79661472D01*
X152583328Y-79858153D01*
X152716904Y-80042005D01*
X152881162Y-80199052D01*
X153070823Y-80324246D01*
X153279789Y-80413562D01*
X153501346Y-80464131D01*
X153614858Y-80469229D01*
X153728369Y-80474327D01*
X153728369Y-80474326D01*
X153728371Y-80474327D01*
X153953568Y-80443822D01*
X154169700Y-80373596D01*
X154369819Y-80265908D01*
X154547493Y-80124217D01*
X154697012Y-79953078D01*
X154813571Y-79757992D01*
X154846729Y-79669641D01*
X154881225Y-79624335D01*
X154934974Y-79605528D01*
X154990193Y-79619442D01*
X155028611Y-79661472D01*
X155123328Y-79858153D01*
X155256904Y-80042005D01*
X155421162Y-80199052D01*
X155610823Y-80324246D01*
X155819789Y-80413562D01*
X156041346Y-80464131D01*
X156154858Y-80469229D01*
X156268369Y-80474327D01*
X156268369Y-80474326D01*
X156268371Y-80474327D01*
X156493568Y-80443822D01*
X156709700Y-80373596D01*
X156909819Y-80265908D01*
X157087493Y-80124217D01*
X157237012Y-79953078D01*
X157353571Y-79757992D01*
X157386729Y-79669641D01*
X157421225Y-79624335D01*
X157474974Y-79605528D01*
X157530193Y-79619442D01*
X157568611Y-79661472D01*
X157663328Y-79858153D01*
X157796904Y-80042005D01*
X157961162Y-80199052D01*
X158150823Y-80324246D01*
X158359789Y-80413562D01*
X158581346Y-80464131D01*
X158694858Y-80469229D01*
X158808369Y-80474327D01*
X158808369Y-80474326D01*
X158808371Y-80474327D01*
X159033568Y-80443822D01*
X159249700Y-80373596D01*
X159449819Y-80265908D01*
X159627493Y-80124217D01*
X159777012Y-79953078D01*
X159893571Y-79757992D01*
X159926729Y-79669641D01*
X159961225Y-79624335D01*
X160014974Y-79605528D01*
X160070193Y-79619442D01*
X160108611Y-79661472D01*
X160203328Y-79858153D01*
X160336904Y-80042005D01*
X160501162Y-80199052D01*
X160690823Y-80324246D01*
X160899789Y-80413562D01*
X161121346Y-80464131D01*
X161234858Y-80469229D01*
X161348369Y-80474327D01*
X161348369Y-80474326D01*
X161348371Y-80474327D01*
X161573568Y-80443822D01*
X161789700Y-80373596D01*
X161989819Y-80265908D01*
X162167493Y-80124217D01*
X162317012Y-79953078D01*
X162433571Y-79757992D01*
X162466729Y-79669641D01*
X162501225Y-79624335D01*
X162554974Y-79605528D01*
X162610193Y-79619442D01*
X162648611Y-79661472D01*
X162743328Y-79858153D01*
X162876904Y-80042005D01*
X163041162Y-80199052D01*
X163230823Y-80324246D01*
X163439789Y-80413562D01*
X163661346Y-80464131D01*
X163774858Y-80469229D01*
X163888369Y-80474327D01*
X163888369Y-80474326D01*
X163888371Y-80474327D01*
X164113568Y-80443822D01*
X164329700Y-80373596D01*
X164529819Y-80265908D01*
X164707493Y-80124217D01*
X164857012Y-79953078D01*
X164973571Y-79757992D01*
X165006729Y-79669641D01*
X165041225Y-79624335D01*
X165094974Y-79605528D01*
X165150193Y-79619442D01*
X165188611Y-79661472D01*
X165283328Y-79858153D01*
X165416904Y-80042005D01*
X165581162Y-80199052D01*
X165770823Y-80324246D01*
X165979789Y-80413562D01*
X166201346Y-80464131D01*
X166314858Y-80469229D01*
X166428369Y-80474327D01*
X166428369Y-80474326D01*
X166428371Y-80474327D01*
X166653568Y-80443822D01*
X166869700Y-80373596D01*
X167069819Y-80265908D01*
X167247493Y-80124217D01*
X167397012Y-79953078D01*
X167513571Y-79757992D01*
X167546729Y-79669641D01*
X167581225Y-79624335D01*
X167634974Y-79605528D01*
X167690193Y-79619442D01*
X167728611Y-79661472D01*
X167823328Y-79858153D01*
X167956904Y-80042005D01*
X168121162Y-80199052D01*
X168310823Y-80324246D01*
X168519789Y-80413562D01*
X168741346Y-80464131D01*
X168854858Y-80469229D01*
X168968369Y-80474327D01*
X168968369Y-80474326D01*
X168968371Y-80474327D01*
X169193568Y-80443822D01*
X169409700Y-80373596D01*
X169609819Y-80265908D01*
X169787493Y-80124217D01*
X169937012Y-79953078D01*
X170053571Y-79757992D01*
X170086729Y-79669641D01*
X170121225Y-79624335D01*
X170174974Y-79605528D01*
X170230193Y-79619442D01*
X170268611Y-79661472D01*
X170363328Y-79858153D01*
X170496904Y-80042005D01*
X170661162Y-80199052D01*
X170850823Y-80324246D01*
X171059789Y-80413562D01*
X171281346Y-80464131D01*
X171394858Y-80469229D01*
X171508369Y-80474327D01*
X171508369Y-80474326D01*
X171508371Y-80474327D01*
X171733568Y-80443822D01*
X171949700Y-80373596D01*
X172149819Y-80265908D01*
X172327493Y-80124217D01*
X172477012Y-79953078D01*
X172593571Y-79757992D01*
X172626729Y-79669641D01*
X172661225Y-79624335D01*
X172714974Y-79605528D01*
X172770193Y-79619442D01*
X172808611Y-79661472D01*
X172903328Y-79858153D01*
X173036904Y-80042005D01*
X173201162Y-80199052D01*
X173390823Y-80324246D01*
X173599789Y-80413562D01*
X173821346Y-80464131D01*
X173934858Y-80469229D01*
X174048369Y-80474327D01*
X174048369Y-80474326D01*
X174048371Y-80474327D01*
X174273568Y-80443822D01*
X174489700Y-80373596D01*
X174689819Y-80265908D01*
X174867493Y-80124217D01*
X175017012Y-79953078D01*
X175133571Y-79757992D01*
X175166729Y-79669641D01*
X175201225Y-79624335D01*
X175254974Y-79605528D01*
X175310193Y-79619442D01*
X175348611Y-79661472D01*
X175443328Y-79858153D01*
X175576904Y-80042005D01*
X175741162Y-80199052D01*
X175930823Y-80324246D01*
X176139789Y-80413562D01*
X176361346Y-80464131D01*
X176474858Y-80469229D01*
X176588369Y-80474327D01*
X176588369Y-80474326D01*
X176588371Y-80474327D01*
X176813568Y-80443822D01*
X177029700Y-80373596D01*
X177229819Y-80265908D01*
X177407493Y-80124217D01*
X177557012Y-79953078D01*
X177673571Y-79757992D01*
X177753422Y-79545229D01*
X177794000Y-79321627D01*
X177794000Y-78135301D01*
X177790177Y-78092829D01*
X177778732Y-77965661D01*
X177718275Y-77746598D01*
X177667907Y-77642008D01*
X177619672Y-77541847D01*
X177486096Y-77357995D01*
X177321838Y-77200948D01*
X177132177Y-77075754D01*
X177132174Y-77075752D01*
X177132173Y-77075752D01*
X176923214Y-76986439D01*
X176923212Y-76986438D01*
X176923211Y-76986438D01*
X176812432Y-76961153D01*
X176701651Y-76935868D01*
X176474630Y-76925672D01*
X176249434Y-76956177D01*
X176033297Y-77026405D01*
X175833181Y-77134091D01*
X175655506Y-77275783D01*
X175505987Y-77446923D01*
X175449272Y-77541848D01*
X175389429Y-77642008D01*
X175381628Y-77662792D01*
X175356270Y-77730358D01*
X175321773Y-77775664D01*
X175268024Y-77794471D01*
X175212806Y-77780557D01*
X175174387Y-77738525D01*
X175127906Y-77642007D01*
X175079672Y-77541847D01*
X174946096Y-77357995D01*
X174781838Y-77200948D01*
X174592177Y-77075754D01*
X174592174Y-77075752D01*
X174592173Y-77075752D01*
X174383214Y-76986439D01*
X174383212Y-76986438D01*
X174383211Y-76986438D01*
X174272432Y-76961153D01*
X174161651Y-76935868D01*
X173934630Y-76925672D01*
X173709434Y-76956177D01*
X173493297Y-77026405D01*
X173293181Y-77134091D01*
X173115506Y-77275783D01*
X172965987Y-77446923D01*
X172909272Y-77541848D01*
X172849429Y-77642008D01*
X172841628Y-77662792D01*
X172816270Y-77730358D01*
X172781773Y-77775664D01*
X172728024Y-77794471D01*
X172672806Y-77780557D01*
X172634387Y-77738525D01*
X172587906Y-77642007D01*
X172539672Y-77541847D01*
X172406096Y-77357995D01*
X172241838Y-77200948D01*
X172052177Y-77075754D01*
X172052174Y-77075752D01*
X172052173Y-77075752D01*
X171843214Y-76986439D01*
X171843212Y-76986438D01*
X171843211Y-76986438D01*
X171732432Y-76961153D01*
X171621651Y-76935868D01*
X171394630Y-76925672D01*
X171169434Y-76956177D01*
X170953297Y-77026405D01*
X170753181Y-77134091D01*
X170575506Y-77275783D01*
X170425987Y-77446923D01*
X170369272Y-77541848D01*
X170309429Y-77642008D01*
X170301628Y-77662792D01*
X170276270Y-77730358D01*
X170241773Y-77775664D01*
X170188024Y-77794471D01*
X170132806Y-77780557D01*
X170094387Y-77738525D01*
X170047906Y-77642007D01*
X169999672Y-77541847D01*
X169866096Y-77357995D01*
X169701838Y-77200948D01*
X169512177Y-77075754D01*
X169512174Y-77075752D01*
X169512173Y-77075752D01*
X169303214Y-76986439D01*
X169303212Y-76986438D01*
X169303211Y-76986438D01*
X169192432Y-76961153D01*
X169081651Y-76935868D01*
X168854630Y-76925672D01*
X168629434Y-76956177D01*
X168413297Y-77026405D01*
X168213181Y-77134091D01*
X168035506Y-77275783D01*
X167885987Y-77446923D01*
X167829272Y-77541848D01*
X167769429Y-77642008D01*
X167761628Y-77662792D01*
X167736270Y-77730358D01*
X167701773Y-77775664D01*
X167648024Y-77794471D01*
X167592806Y-77780557D01*
X167554387Y-77738525D01*
X167507906Y-77642007D01*
X167459672Y-77541847D01*
X167326096Y-77357995D01*
X167161838Y-77200948D01*
X166972177Y-77075754D01*
X166972174Y-77075752D01*
X166972173Y-77075752D01*
X166763214Y-76986439D01*
X166763212Y-76986438D01*
X166763211Y-76986438D01*
X166652432Y-76961153D01*
X166541651Y-76935868D01*
X166314630Y-76925672D01*
X166089434Y-76956177D01*
X165873297Y-77026405D01*
X165673181Y-77134091D01*
X165495506Y-77275783D01*
X165345987Y-77446923D01*
X165289272Y-77541848D01*
X165229429Y-77642008D01*
X165221628Y-77662792D01*
X165196270Y-77730358D01*
X165161773Y-77775664D01*
X165108024Y-77794471D01*
X165052806Y-77780557D01*
X165014387Y-77738525D01*
X164967906Y-77642007D01*
X164919672Y-77541847D01*
X164786096Y-77357995D01*
X164621838Y-77200948D01*
X164432177Y-77075754D01*
X164432174Y-77075752D01*
X164432173Y-77075752D01*
X164223214Y-76986439D01*
X164223212Y-76986438D01*
X164223211Y-76986438D01*
X164112432Y-76961153D01*
X164001651Y-76935868D01*
X163774630Y-76925672D01*
X163549434Y-76956177D01*
X163333297Y-77026405D01*
X163133181Y-77134091D01*
X162955506Y-77275783D01*
X162805987Y-77446923D01*
X162749272Y-77541848D01*
X162689429Y-77642008D01*
X162681628Y-77662792D01*
X162656270Y-77730358D01*
X162621773Y-77775664D01*
X162568024Y-77794471D01*
X162512806Y-77780557D01*
X162474387Y-77738525D01*
X162427906Y-77642007D01*
X162379672Y-77541847D01*
X162246096Y-77357995D01*
X162081838Y-77200948D01*
X161892177Y-77075754D01*
X161892174Y-77075752D01*
X161892173Y-77075752D01*
X161683214Y-76986439D01*
X161683212Y-76986438D01*
X161683211Y-76986438D01*
X161572432Y-76961153D01*
X161461651Y-76935868D01*
X161234630Y-76925672D01*
X161009434Y-76956177D01*
X160793297Y-77026405D01*
X160593181Y-77134091D01*
X160415506Y-77275783D01*
X160265987Y-77446923D01*
X160209272Y-77541848D01*
X160149429Y-77642008D01*
X160141628Y-77662792D01*
X160116270Y-77730358D01*
X160081773Y-77775664D01*
X160028024Y-77794471D01*
X159972806Y-77780557D01*
X159934387Y-77738525D01*
X159887906Y-77642007D01*
X159839672Y-77541847D01*
X159706096Y-77357995D01*
X159541838Y-77200948D01*
X159352177Y-77075754D01*
X159352174Y-77075752D01*
X159352173Y-77075752D01*
X159143214Y-76986439D01*
X159143212Y-76986438D01*
X159143211Y-76986438D01*
X159032432Y-76961153D01*
X158921651Y-76935868D01*
X158694630Y-76925672D01*
X158469434Y-76956177D01*
X158253297Y-77026405D01*
X158053181Y-77134091D01*
X157875506Y-77275783D01*
X157725987Y-77446923D01*
X157669272Y-77541848D01*
X157609429Y-77642008D01*
X157601628Y-77662792D01*
X157576270Y-77730358D01*
X157541773Y-77775664D01*
X157488024Y-77794471D01*
X157432806Y-77780557D01*
X157394387Y-77738525D01*
X157347906Y-77642007D01*
X157299672Y-77541847D01*
X157166096Y-77357995D01*
X157001838Y-77200948D01*
X156812177Y-77075754D01*
X156812174Y-77075752D01*
X156812173Y-77075752D01*
X156603214Y-76986439D01*
X156603212Y-76986438D01*
X156603211Y-76986438D01*
X156492432Y-76961153D01*
X156381651Y-76935868D01*
X156154630Y-76925672D01*
X155929434Y-76956177D01*
X155713297Y-77026405D01*
X155513181Y-77134091D01*
X155335506Y-77275783D01*
X155185987Y-77446923D01*
X155129272Y-77541848D01*
X155069429Y-77642008D01*
X155061628Y-77662792D01*
X155036270Y-77730358D01*
X155001773Y-77775664D01*
X154948024Y-77794471D01*
X154892806Y-77780557D01*
X154854387Y-77738525D01*
X154807906Y-77642007D01*
X154759672Y-77541847D01*
X154626096Y-77357995D01*
X154461838Y-77200948D01*
X154272177Y-77075754D01*
X154272174Y-77075752D01*
X154272173Y-77075752D01*
X154063214Y-76986439D01*
X154063212Y-76986438D01*
X154063211Y-76986438D01*
X153952432Y-76961153D01*
X153841651Y-76935868D01*
X153614630Y-76925672D01*
X153389434Y-76956177D01*
X153173297Y-77026405D01*
X152973181Y-77134091D01*
X152795506Y-77275783D01*
X152645987Y-77446923D01*
X152589272Y-77541848D01*
X152529429Y-77642008D01*
X152521628Y-77662792D01*
X152496270Y-77730358D01*
X152461773Y-77775664D01*
X152408024Y-77794471D01*
X152352806Y-77780557D01*
X152314387Y-77738525D01*
X152267906Y-77642007D01*
X152219672Y-77541847D01*
X152086096Y-77357995D01*
X151921838Y-77200948D01*
X151732177Y-77075754D01*
X151732174Y-77075752D01*
X151732173Y-77075752D01*
X151523214Y-76986439D01*
X151523212Y-76986438D01*
X151523211Y-76986438D01*
X151412432Y-76961153D01*
X151301651Y-76935868D01*
X151074630Y-76925672D01*
X150849434Y-76956177D01*
X150633297Y-77026405D01*
X150433181Y-77134091D01*
X150255506Y-77275783D01*
X150105987Y-77446923D01*
X150049272Y-77541848D01*
X149989429Y-77642008D01*
X149981628Y-77662792D01*
X149956270Y-77730358D01*
X149921773Y-77775664D01*
X149868024Y-77794471D01*
X149812806Y-77780557D01*
X149774387Y-77738525D01*
X149727906Y-77642007D01*
X149679672Y-77541847D01*
X149546096Y-77357995D01*
X149381838Y-77200948D01*
X149192177Y-77075754D01*
X149192174Y-77075752D01*
X149192173Y-77075752D01*
X148983214Y-76986439D01*
X148983212Y-76986438D01*
X148983211Y-76986438D01*
X148872432Y-76961153D01*
X148761651Y-76935868D01*
X148534630Y-76925672D01*
X148309434Y-76956177D01*
X148093297Y-77026405D01*
X147893181Y-77134091D01*
X147715506Y-77275783D01*
X147565987Y-77446923D01*
X147509272Y-77541848D01*
X147449429Y-77642008D01*
X147441628Y-77662792D01*
X147416270Y-77730358D01*
X147381773Y-77775664D01*
X147328024Y-77794471D01*
X147272806Y-77780557D01*
X147234387Y-77738525D01*
X147187906Y-77642007D01*
X147139672Y-77541847D01*
X147006096Y-77357995D01*
X146841838Y-77200948D01*
X146652177Y-77075754D01*
X146652174Y-77075752D01*
X146652173Y-77075752D01*
X146443214Y-76986439D01*
X146443212Y-76986438D01*
X146443211Y-76986438D01*
X146332432Y-76961153D01*
X146221651Y-76935868D01*
X145994630Y-76925672D01*
X145769434Y-76956177D01*
X145553297Y-77026405D01*
X145353181Y-77134091D01*
X145175506Y-77275783D01*
X145025987Y-77446923D01*
X144969272Y-77541848D01*
X144909429Y-77642008D01*
X144901628Y-77662792D01*
X144876270Y-77730358D01*
X144841773Y-77775664D01*
X144788024Y-77794471D01*
X144732806Y-77780557D01*
X144694387Y-77738525D01*
X144647906Y-77642007D01*
X144599672Y-77541847D01*
X144466096Y-77357995D01*
X144301838Y-77200948D01*
X144112177Y-77075754D01*
X144112174Y-77075752D01*
X144112173Y-77075752D01*
X143903214Y-76986439D01*
X143903212Y-76986438D01*
X143903211Y-76986438D01*
X143792432Y-76961153D01*
X143681651Y-76935868D01*
X143454630Y-76925672D01*
X143229434Y-76956177D01*
X143013297Y-77026405D01*
X142813181Y-77134091D01*
X142635506Y-77275783D01*
X142485987Y-77446923D01*
X142429272Y-77541848D01*
X142369429Y-77642008D01*
X142361628Y-77662792D01*
X142336270Y-77730358D01*
X142301773Y-77775664D01*
X142248024Y-77794471D01*
X142192806Y-77780557D01*
X142154387Y-77738525D01*
X142107906Y-77642007D01*
X142059672Y-77541847D01*
X141926096Y-77357995D01*
X141761838Y-77200948D01*
X141572177Y-77075754D01*
X141572174Y-77075752D01*
X141572173Y-77075752D01*
X141363214Y-76986439D01*
X141363212Y-76986438D01*
X141363211Y-76986438D01*
X141252432Y-76961153D01*
X141141651Y-76935868D01*
X140914630Y-76925672D01*
X140689434Y-76956177D01*
X140473297Y-77026405D01*
X140273181Y-77134091D01*
X140095506Y-77275783D01*
X139945987Y-77446923D01*
X139889272Y-77541848D01*
X139829429Y-77642008D01*
X139821628Y-77662792D01*
X139796270Y-77730358D01*
X139761773Y-77775664D01*
X139708024Y-77794471D01*
X139652806Y-77780557D01*
X139614387Y-77738525D01*
X139567906Y-77642007D01*
X139519672Y-77541847D01*
X139386096Y-77357995D01*
X139221838Y-77200948D01*
X139032177Y-77075754D01*
X139032174Y-77075752D01*
X139032173Y-77075752D01*
X138823214Y-76986439D01*
X138823212Y-76986438D01*
X138823211Y-76986438D01*
X138712432Y-76961153D01*
X138601651Y-76935868D01*
X138374630Y-76925672D01*
X138149434Y-76956177D01*
X137933297Y-77026405D01*
X137733181Y-77134091D01*
X137555506Y-77275783D01*
X137405987Y-77446923D01*
X137349272Y-77541848D01*
X137289429Y-77642008D01*
X137281628Y-77662792D01*
X137256270Y-77730358D01*
X137221773Y-77775664D01*
X137168024Y-77794471D01*
X137112806Y-77780557D01*
X137074387Y-77738525D01*
X137027906Y-77642007D01*
X136979672Y-77541847D01*
X136846096Y-77357995D01*
X136681838Y-77200948D01*
X136492177Y-77075754D01*
X136492174Y-77075752D01*
X136492173Y-77075752D01*
X136283214Y-76986439D01*
X136283212Y-76986438D01*
X136283211Y-76986438D01*
X136172432Y-76961153D01*
X136061651Y-76935868D01*
X135834630Y-76925672D01*
X135609434Y-76956177D01*
X135393297Y-77026405D01*
X135193181Y-77134091D01*
X135015506Y-77275783D01*
X134865987Y-77446923D01*
X134809272Y-77541848D01*
X134749429Y-77642008D01*
X134741628Y-77662792D01*
X134716270Y-77730358D01*
X134681773Y-77775664D01*
X134628024Y-77794471D01*
X134572806Y-77780557D01*
X134534387Y-77738525D01*
X134487906Y-77642007D01*
X134439672Y-77541847D01*
X134306096Y-77357995D01*
X134141838Y-77200948D01*
X133952177Y-77075754D01*
X133952174Y-77075752D01*
X133952173Y-77075752D01*
X133743214Y-76986439D01*
X133743212Y-76986438D01*
X133743211Y-76986438D01*
X133632432Y-76961153D01*
X133521651Y-76935868D01*
X133294630Y-76925672D01*
X133069434Y-76956177D01*
X132853297Y-77026405D01*
X132653181Y-77134091D01*
X132475506Y-77275783D01*
X132325987Y-77446923D01*
X132269272Y-77541848D01*
X132209429Y-77642008D01*
X132201628Y-77662792D01*
X132176270Y-77730358D01*
X132141773Y-77775664D01*
X132088024Y-77794471D01*
X132032806Y-77780557D01*
X131994387Y-77738525D01*
X131947906Y-77642007D01*
X131899672Y-77541847D01*
X131766096Y-77357995D01*
X131601838Y-77200948D01*
X131412177Y-77075754D01*
X131412174Y-77075752D01*
X131412173Y-77075752D01*
X131203214Y-76986439D01*
X131203212Y-76986438D01*
X131203211Y-76986438D01*
X131092432Y-76961153D01*
X130981651Y-76935868D01*
X130754630Y-76925672D01*
X130529434Y-76956177D01*
X130313297Y-77026405D01*
X130113181Y-77134091D01*
X129935506Y-77275783D01*
X129785987Y-77446923D01*
X129669429Y-77642007D01*
X129589578Y-77854769D01*
X129549000Y-78078373D01*
X129549000Y-79264704D01*
X100330500Y-79264704D01*
X100330500Y-77415000D01*
X115630415Y-77415000D01*
X115651011Y-77650405D01*
X115712173Y-77878667D01*
X115812038Y-78092826D01*
X115812039Y-78092827D01*
X115812040Y-78092829D01*
X115947580Y-78286401D01*
X116114674Y-78453495D01*
X116308246Y-78589035D01*
X116308247Y-78589035D01*
X116308248Y-78589036D01*
X116522407Y-78688901D01*
X116522408Y-78688901D01*
X116522412Y-78688903D01*
X116750667Y-78750063D01*
X116821243Y-78756237D01*
X116927106Y-78765500D01*
X116927109Y-78765500D01*
X117885041Y-78765500D01*
X117885044Y-78765500D01*
X117973261Y-78757781D01*
X118061483Y-78750063D01*
X118289738Y-78688903D01*
X118503904Y-78589035D01*
X118697476Y-78453495D01*
X118864570Y-78286401D01*
X119000110Y-78092830D01*
X119099978Y-77878663D01*
X119161138Y-77650408D01*
X119181734Y-77415000D01*
X119161138Y-77179592D01*
X119099978Y-76951337D01*
X119000110Y-76737171D01*
X118864570Y-76543599D01*
X118697476Y-76376505D01*
X118697472Y-76376502D01*
X118503906Y-76240966D01*
X118503902Y-76240964D01*
X118490519Y-76234723D01*
X118448864Y-76198193D01*
X118433360Y-76145000D01*
X118448864Y-76091807D01*
X118490519Y-76055276D01*
X118503904Y-76049035D01*
X118697476Y-75913495D01*
X118864570Y-75746401D01*
X119000110Y-75552830D01*
X119099978Y-75338663D01*
X119161138Y-75110408D01*
X119181734Y-74875000D01*
X119161138Y-74639592D01*
X119099978Y-74411337D01*
X119083266Y-74375499D01*
X119000111Y-74197173D01*
X118944205Y-74117331D01*
X118864570Y-74003599D01*
X118697476Y-73836505D01*
X118503904Y-73700965D01*
X118503903Y-73700964D01*
X118503901Y-73700963D01*
X118289742Y-73601098D01*
X118061480Y-73539936D01*
X117885044Y-73524500D01*
X117885041Y-73524500D01*
X116927109Y-73524500D01*
X116927106Y-73524500D01*
X116750669Y-73539936D01*
X116522407Y-73601098D01*
X116308248Y-73700963D01*
X116114677Y-73836502D01*
X115947577Y-74003602D01*
X115812038Y-74197172D01*
X115712173Y-74411332D01*
X115651011Y-74639594D01*
X115630415Y-74875000D01*
X115651011Y-75110405D01*
X115712173Y-75338667D01*
X115812038Y-75552826D01*
X115812039Y-75552827D01*
X115812040Y-75552829D01*
X115947580Y-75746401D01*
X116114674Y-75913495D01*
X116114677Y-75913497D01*
X116308246Y-76049035D01*
X116321629Y-76055276D01*
X116363285Y-76091808D01*
X116378789Y-76145000D01*
X116363285Y-76198192D01*
X116321629Y-76234724D01*
X116308246Y-76240964D01*
X116114677Y-76376502D01*
X115947577Y-76543602D01*
X115812038Y-76737172D01*
X115712173Y-76951332D01*
X115651011Y-77179594D01*
X115630415Y-77415000D01*
X100330500Y-77415000D01*
X100330500Y-73514778D01*
X146804500Y-73514778D01*
X146810859Y-73595578D01*
X146828427Y-73661144D01*
X146861211Y-73783496D01*
X146949535Y-73956841D01*
X146987402Y-74003602D01*
X147071968Y-74108032D01*
X147165319Y-74183626D01*
X147223158Y-74230464D01*
X147396503Y-74318788D01*
X147429287Y-74327572D01*
X147584422Y-74369141D01*
X147665222Y-74375500D01*
X149484776Y-74375500D01*
X149484778Y-74375500D01*
X149565578Y-74369141D01*
X149753496Y-74318788D01*
X149926840Y-74230465D01*
X150078032Y-74108032D01*
X150200465Y-73956840D01*
X150217773Y-73922871D01*
X154424500Y-73922871D01*
X154430909Y-73982484D01*
X154481203Y-74117330D01*
X154481204Y-74117331D01*
X154567454Y-74232546D01*
X154682669Y-74318796D01*
X154817517Y-74369091D01*
X154877127Y-74375500D01*
X157512872Y-74375499D01*
X157572483Y-74369091D01*
X157707331Y-74318796D01*
X157822546Y-74232546D01*
X157908796Y-74117331D01*
X157959091Y-73982483D01*
X157965500Y-73922873D01*
X157965499Y-72127128D01*
X157959091Y-72067517D01*
X157908796Y-71932669D01*
X157822546Y-71817454D01*
X157754698Y-71766663D01*
X157699564Y-71725389D01*
X157664983Y-71677473D01*
X157663860Y-71618392D01*
X157691811Y-71576382D01*
X157691484Y-71576118D01*
X157694306Y-71572632D01*
X157696591Y-71569198D01*
X157698032Y-71568032D01*
X157820465Y-71416840D01*
X157848423Y-71361969D01*
X162519500Y-71361969D01*
X162534936Y-71538405D01*
X162596098Y-71766667D01*
X162695963Y-71980826D01*
X162828581Y-72170226D01*
X162831505Y-72174401D01*
X162998599Y-72341495D01*
X163192170Y-72477035D01*
X163192171Y-72477035D01*
X163192172Y-72477036D01*
X163406332Y-72576901D01*
X163406333Y-72576901D01*
X163406337Y-72576903D01*
X163634592Y-72638063D01*
X163870000Y-72658659D01*
X164105408Y-72638063D01*
X164333663Y-72576903D01*
X164547829Y-72477035D01*
X164741401Y-72341495D01*
X164908495Y-72174401D01*
X164908497Y-72174397D01*
X164914619Y-72168276D01*
X164916569Y-72170226D01*
X164946449Y-72145877D01*
X165000013Y-72138818D01*
X165049308Y-72160931D01*
X165079651Y-72205632D01*
X165085186Y-72222334D01*
X165133952Y-72301397D01*
X165163518Y-72349332D01*
X165177288Y-72371656D01*
X165301344Y-72495712D01*
X165450666Y-72587814D01*
X165617203Y-72642999D01*
X165719991Y-72653500D01*
X167020008Y-72653499D01*
X167122797Y-72642999D01*
X167289334Y-72587814D01*
X167438656Y-72495712D01*
X167562712Y-72371656D01*
X167654814Y-72222334D01*
X167709999Y-72055797D01*
X167720500Y-71953009D01*
X167720500Y-70920003D01*
X171394500Y-70920003D01*
X171405001Y-71022797D01*
X171460186Y-71189335D01*
X171533686Y-71308497D01*
X171552288Y-71338656D01*
X171676344Y-71462712D01*
X171825666Y-71554814D01*
X171992203Y-71609999D01*
X172094991Y-71620500D01*
X173395008Y-71620499D01*
X173497797Y-71609999D01*
X173664334Y-71554814D01*
X173813656Y-71462712D01*
X173937712Y-71338656D01*
X174029814Y-71189334D01*
X174035348Y-71172632D01*
X174065681Y-71127940D01*
X174114962Y-71105821D01*
X174168519Y-71112864D01*
X174198433Y-71137223D01*
X174200381Y-71135276D01*
X174206502Y-71141397D01*
X174206505Y-71141401D01*
X174373599Y-71308495D01*
X174567170Y-71444035D01*
X174567171Y-71444035D01*
X174567172Y-71444036D01*
X174781332Y-71543901D01*
X174781333Y-71543901D01*
X174781337Y-71543903D01*
X175009592Y-71605063D01*
X175161940Y-71618392D01*
X175244999Y-71625659D01*
X175244999Y-71625658D01*
X175245000Y-71625659D01*
X175480408Y-71605063D01*
X175708663Y-71543903D01*
X175922829Y-71444035D01*
X176040032Y-71361969D01*
X185379500Y-71361969D01*
X185394936Y-71538405D01*
X185456098Y-71766667D01*
X185555963Y-71980826D01*
X185688581Y-72170226D01*
X185691505Y-72174401D01*
X185858599Y-72341495D01*
X186052170Y-72477035D01*
X186052171Y-72477035D01*
X186052172Y-72477036D01*
X186266332Y-72576901D01*
X186266333Y-72576901D01*
X186266337Y-72576903D01*
X186494592Y-72638063D01*
X186730000Y-72658659D01*
X186965408Y-72638063D01*
X187193663Y-72576903D01*
X187407829Y-72477035D01*
X187601401Y-72341495D01*
X187768495Y-72174401D01*
X187768497Y-72174397D01*
X187774619Y-72168276D01*
X187776569Y-72170226D01*
X187806449Y-72145877D01*
X187860013Y-72138818D01*
X187909308Y-72160931D01*
X187939651Y-72205632D01*
X187945186Y-72222334D01*
X187993952Y-72301397D01*
X188023518Y-72349332D01*
X188037288Y-72371656D01*
X188161344Y-72495712D01*
X188310666Y-72587814D01*
X188477203Y-72642999D01*
X188579991Y-72653500D01*
X189880008Y-72653499D01*
X189982797Y-72642999D01*
X190149334Y-72587814D01*
X190298656Y-72495712D01*
X190422712Y-72371656D01*
X190514814Y-72222334D01*
X190569999Y-72055797D01*
X190580500Y-71953009D01*
X190580499Y-69812992D01*
X190569999Y-69710203D01*
X190514814Y-69543666D01*
X190422712Y-69394344D01*
X190298656Y-69270288D01*
X190273766Y-69254936D01*
X190149334Y-69178186D01*
X189982795Y-69123000D01*
X189880012Y-69112500D01*
X188579996Y-69112500D01*
X188477202Y-69123001D01*
X188310664Y-69178186D01*
X188161346Y-69270286D01*
X188037286Y-69394346D01*
X187945185Y-69543667D01*
X187939651Y-69560368D01*
X187909313Y-69605063D01*
X187860028Y-69627179D01*
X187806470Y-69620131D01*
X187776567Y-69595775D01*
X187774619Y-69597724D01*
X187768497Y-69591602D01*
X187768495Y-69591599D01*
X187601401Y-69424505D01*
X187569213Y-69401967D01*
X187407827Y-69288963D01*
X187193667Y-69189098D01*
X186965405Y-69127936D01*
X186730000Y-69107340D01*
X186494594Y-69127936D01*
X186266332Y-69189098D01*
X186052173Y-69288963D01*
X185858602Y-69424502D01*
X185691502Y-69591602D01*
X185555963Y-69785173D01*
X185456098Y-69999332D01*
X185394936Y-70227594D01*
X185379500Y-70404031D01*
X185379500Y-71361969D01*
X176040032Y-71361969D01*
X176116401Y-71308495D01*
X176283495Y-71141401D01*
X176419035Y-70947829D01*
X176518903Y-70733663D01*
X176580063Y-70505408D01*
X176595500Y-70328966D01*
X176595500Y-69371034D01*
X176580063Y-69194592D01*
X176518903Y-68966337D01*
X176419035Y-68752171D01*
X176283495Y-68558599D01*
X176116401Y-68391505D01*
X175922830Y-68255965D01*
X175922829Y-68255964D01*
X175922827Y-68255963D01*
X175708667Y-68156098D01*
X175480405Y-68094936D01*
X175245000Y-68074340D01*
X175009594Y-68094936D01*
X174781332Y-68156098D01*
X174567173Y-68255963D01*
X174373602Y-68391502D01*
X174373599Y-68391504D01*
X174373599Y-68391505D01*
X174206505Y-68558599D01*
X174206502Y-68558602D01*
X174200381Y-68564724D01*
X174198436Y-68562779D01*
X174168498Y-68587144D01*
X174114948Y-68594176D01*
X174065676Y-68572055D01*
X174035347Y-68527364D01*
X174029814Y-68510666D01*
X173937713Y-68361346D01*
X173937712Y-68361344D01*
X173813656Y-68237288D01*
X173664334Y-68145186D01*
X173664333Y-68145185D01*
X173497795Y-68090000D01*
X173395012Y-68079500D01*
X172094996Y-68079500D01*
X171992202Y-68090001D01*
X171825664Y-68145186D01*
X171676346Y-68237286D01*
X171552286Y-68361346D01*
X171460186Y-68510665D01*
X171405000Y-68677204D01*
X171394500Y-68779987D01*
X171394500Y-70920003D01*
X167720500Y-70920003D01*
X167720499Y-69812992D01*
X167709999Y-69710203D01*
X167654814Y-69543666D01*
X167562712Y-69394344D01*
X167438656Y-69270288D01*
X167413766Y-69254936D01*
X167289334Y-69178186D01*
X167122795Y-69123000D01*
X167020012Y-69112500D01*
X165719996Y-69112500D01*
X165617202Y-69123001D01*
X165450664Y-69178186D01*
X165301346Y-69270286D01*
X165177286Y-69394346D01*
X165085185Y-69543667D01*
X165079651Y-69560368D01*
X165049313Y-69605063D01*
X165000028Y-69627179D01*
X164946470Y-69620131D01*
X164916567Y-69595775D01*
X164914619Y-69597724D01*
X164908497Y-69591602D01*
X164908495Y-69591599D01*
X164741401Y-69424505D01*
X164709213Y-69401967D01*
X164547827Y-69288963D01*
X164333667Y-69189098D01*
X164105405Y-69127936D01*
X163870000Y-69107340D01*
X163634594Y-69127936D01*
X163406332Y-69189098D01*
X163192173Y-69288963D01*
X162998602Y-69424502D01*
X162831502Y-69591602D01*
X162695963Y-69785173D01*
X162596098Y-69999332D01*
X162534936Y-70227594D01*
X162519500Y-70404031D01*
X162519500Y-71361969D01*
X157848423Y-71361969D01*
X157908788Y-71243496D01*
X157959141Y-71055578D01*
X157965500Y-70974778D01*
X157965500Y-69995222D01*
X157959141Y-69914422D01*
X157908788Y-69726504D01*
X157908788Y-69726503D01*
X157820464Y-69553158D01*
X157698032Y-69401968D01*
X157562155Y-69291937D01*
X157529784Y-69243945D01*
X157529784Y-69186055D01*
X157562155Y-69138063D01*
X157698032Y-69028032D01*
X157820465Y-68876840D01*
X157908788Y-68703496D01*
X157959141Y-68515578D01*
X157965500Y-68434778D01*
X157965500Y-67455222D01*
X157959141Y-67374422D01*
X157908788Y-67186504D01*
X157908788Y-67186503D01*
X157820464Y-67013158D01*
X157773627Y-66955319D01*
X157698032Y-66861968D01*
X157622435Y-66800751D01*
X157546841Y-66739535D01*
X157373496Y-66651211D01*
X157251144Y-66618427D01*
X157185578Y-66600859D01*
X157104778Y-66594500D01*
X155285222Y-66594500D01*
X155204422Y-66600859D01*
X155171638Y-66609643D01*
X155016503Y-66651211D01*
X154843158Y-66739535D01*
X154691968Y-66861968D01*
X154569535Y-67013158D01*
X154481211Y-67186503D01*
X154439643Y-67341638D01*
X154430859Y-67374422D01*
X154424500Y-67455222D01*
X154424500Y-68434778D01*
X154430859Y-68515578D01*
X154443507Y-68562779D01*
X154481211Y-68703496D01*
X154569535Y-68876841D01*
X154691968Y-69028032D01*
X154827844Y-69138063D01*
X154860215Y-69186055D01*
X154860215Y-69243945D01*
X154827844Y-69291937D01*
X154691968Y-69401967D01*
X154569535Y-69553158D01*
X154481211Y-69726503D01*
X154458037Y-69812992D01*
X154430859Y-69914422D01*
X154424500Y-69995222D01*
X154424500Y-70974778D01*
X154430859Y-71055578D01*
X154444322Y-71105821D01*
X154481211Y-71243496D01*
X154569535Y-71416841D01*
X154691966Y-71568030D01*
X154691968Y-71568032D01*
X154693411Y-71569200D01*
X154695697Y-71572637D01*
X154698516Y-71576118D01*
X154698189Y-71576382D01*
X154726140Y-71618396D01*
X154725015Y-71677474D01*
X154690436Y-71725389D01*
X154567453Y-71817455D01*
X154481203Y-71932669D01*
X154463241Y-71980829D01*
X154430909Y-72067517D01*
X154426575Y-72107829D01*
X154424500Y-72127130D01*
X154424500Y-73922871D01*
X150217773Y-73922871D01*
X150288788Y-73783496D01*
X150339141Y-73595578D01*
X150345500Y-73514778D01*
X150345500Y-72535222D01*
X150339141Y-72454422D01*
X150288788Y-72266504D01*
X150288788Y-72266503D01*
X150200464Y-72093158D01*
X150078032Y-71941968D01*
X149942155Y-71831937D01*
X149909784Y-71783945D01*
X149909784Y-71726055D01*
X149942155Y-71678063D01*
X150078032Y-71568032D01*
X150200465Y-71416840D01*
X150288788Y-71243496D01*
X150339141Y-71055578D01*
X150345500Y-70974778D01*
X150345500Y-69995222D01*
X150339141Y-69914422D01*
X150288788Y-69726504D01*
X150288788Y-69726503D01*
X150200464Y-69553158D01*
X150078032Y-69401968D01*
X149942155Y-69291937D01*
X149909784Y-69243945D01*
X149909784Y-69186055D01*
X149942155Y-69138063D01*
X150078032Y-69028032D01*
X150200465Y-68876840D01*
X150288788Y-68703496D01*
X150339141Y-68515578D01*
X150345500Y-68434778D01*
X150345500Y-67455222D01*
X150339141Y-67374422D01*
X150288788Y-67186504D01*
X150288788Y-67186503D01*
X150200464Y-67013158D01*
X150153627Y-66955319D01*
X150078032Y-66861968D01*
X150002435Y-66800751D01*
X149926841Y-66739535D01*
X149753496Y-66651211D01*
X149631144Y-66618427D01*
X149565578Y-66600859D01*
X149484778Y-66594500D01*
X147665222Y-66594500D01*
X147584422Y-66600859D01*
X147551638Y-66609643D01*
X147396503Y-66651211D01*
X147223158Y-66739535D01*
X147071968Y-66861968D01*
X146949535Y-67013158D01*
X146861211Y-67186503D01*
X146819643Y-67341638D01*
X146810859Y-67374422D01*
X146804500Y-67455222D01*
X146804500Y-68434778D01*
X146810859Y-68515578D01*
X146823507Y-68562779D01*
X146861211Y-68703496D01*
X146949535Y-68876841D01*
X147071968Y-69028032D01*
X147207844Y-69138063D01*
X147240215Y-69186055D01*
X147240215Y-69243945D01*
X147207844Y-69291937D01*
X147071968Y-69401967D01*
X146949535Y-69553158D01*
X146861211Y-69726503D01*
X146838037Y-69812992D01*
X146810859Y-69914422D01*
X146804500Y-69995222D01*
X146804500Y-70974778D01*
X146810859Y-71055578D01*
X146824322Y-71105821D01*
X146861211Y-71243496D01*
X146949535Y-71416841D01*
X147071968Y-71568032D01*
X147207844Y-71678063D01*
X147240215Y-71726055D01*
X147240215Y-71783945D01*
X147207844Y-71831937D01*
X147071968Y-71941967D01*
X146949535Y-72093158D01*
X146861211Y-72266503D01*
X146833037Y-72371653D01*
X146810859Y-72454422D01*
X146804500Y-72535222D01*
X146804500Y-73514778D01*
X100330500Y-73514778D01*
X100330500Y-71488969D01*
X128174500Y-71488969D01*
X128189936Y-71665405D01*
X128251098Y-71893667D01*
X128350963Y-72107826D01*
X128483581Y-72297226D01*
X128486505Y-72301401D01*
X128653599Y-72468495D01*
X128847170Y-72604035D01*
X128847171Y-72604035D01*
X128847172Y-72604036D01*
X129061332Y-72703901D01*
X129061333Y-72703901D01*
X129061337Y-72703903D01*
X129289592Y-72765063D01*
X129525000Y-72785659D01*
X129760408Y-72765063D01*
X129988663Y-72703903D01*
X130202829Y-72604035D01*
X130396401Y-72468495D01*
X130563495Y-72301401D01*
X130563497Y-72301397D01*
X130569619Y-72295276D01*
X130571569Y-72297226D01*
X130601449Y-72272877D01*
X130655013Y-72265818D01*
X130704308Y-72287931D01*
X130734651Y-72332632D01*
X130740186Y-72349334D01*
X130832288Y-72498656D01*
X130956344Y-72622712D01*
X131105666Y-72714814D01*
X131272203Y-72769999D01*
X131374991Y-72780500D01*
X132675008Y-72780499D01*
X132777797Y-72769999D01*
X132944334Y-72714814D01*
X133093656Y-72622712D01*
X133217712Y-72498656D01*
X133309814Y-72349334D01*
X133364999Y-72182797D01*
X133375500Y-72080009D01*
X133375500Y-71488969D01*
X139619500Y-71488969D01*
X139634936Y-71665405D01*
X139696098Y-71893667D01*
X139795963Y-72107826D01*
X139928581Y-72297226D01*
X139931505Y-72301401D01*
X140098599Y-72468495D01*
X140292170Y-72604035D01*
X140292171Y-72604035D01*
X140292172Y-72604036D01*
X140506332Y-72703901D01*
X140506333Y-72703901D01*
X140506337Y-72703903D01*
X140734592Y-72765063D01*
X140970000Y-72785659D01*
X141205408Y-72765063D01*
X141433663Y-72703903D01*
X141647829Y-72604035D01*
X141841401Y-72468495D01*
X142008495Y-72301401D01*
X142008497Y-72301397D01*
X142014619Y-72295276D01*
X142016569Y-72297226D01*
X142046449Y-72272877D01*
X142100013Y-72265818D01*
X142149308Y-72287931D01*
X142179651Y-72332632D01*
X142185186Y-72349334D01*
X142277288Y-72498656D01*
X142401344Y-72622712D01*
X142550666Y-72714814D01*
X142717203Y-72769999D01*
X142819991Y-72780500D01*
X144120008Y-72780499D01*
X144222797Y-72769999D01*
X144389334Y-72714814D01*
X144538656Y-72622712D01*
X144662712Y-72498656D01*
X144754814Y-72349334D01*
X144809999Y-72182797D01*
X144820500Y-72080009D01*
X144820499Y-69939992D01*
X144809999Y-69837203D01*
X144754814Y-69670666D01*
X144662712Y-69521344D01*
X144538656Y-69397288D01*
X144496086Y-69371031D01*
X144389334Y-69305186D01*
X144222795Y-69250000D01*
X144120012Y-69239500D01*
X142819996Y-69239500D01*
X142717202Y-69250001D01*
X142550664Y-69305186D01*
X142401346Y-69397286D01*
X142277286Y-69521346D01*
X142185185Y-69670667D01*
X142179651Y-69687368D01*
X142149313Y-69732063D01*
X142100028Y-69754179D01*
X142046470Y-69747131D01*
X142016567Y-69722775D01*
X142014619Y-69724724D01*
X142008497Y-69718602D01*
X142008495Y-69718599D01*
X141841401Y-69551505D01*
X141647830Y-69415965D01*
X141647829Y-69415964D01*
X141647827Y-69415963D01*
X141433667Y-69316098D01*
X141205405Y-69254936D01*
X140970000Y-69234340D01*
X140734594Y-69254936D01*
X140506332Y-69316098D01*
X140292173Y-69415963D01*
X140098602Y-69551502D01*
X139931502Y-69718602D01*
X139795963Y-69912173D01*
X139696098Y-70126332D01*
X139634936Y-70354594D01*
X139619500Y-70531031D01*
X139619500Y-71488969D01*
X133375500Y-71488969D01*
X133375499Y-69939992D01*
X133364999Y-69837203D01*
X133309814Y-69670666D01*
X133217712Y-69521344D01*
X133093656Y-69397288D01*
X133051086Y-69371031D01*
X132944334Y-69305186D01*
X132777795Y-69250000D01*
X132675012Y-69239500D01*
X131374996Y-69239500D01*
X131272202Y-69250001D01*
X131105664Y-69305186D01*
X130956346Y-69397286D01*
X130832286Y-69521346D01*
X130740185Y-69670667D01*
X130734651Y-69687368D01*
X130704313Y-69732063D01*
X130655028Y-69754179D01*
X130601470Y-69747131D01*
X130571567Y-69722775D01*
X130569619Y-69724724D01*
X130563497Y-69718602D01*
X130563495Y-69718599D01*
X130396401Y-69551505D01*
X130202830Y-69415965D01*
X130202829Y-69415964D01*
X130202827Y-69415963D01*
X129988667Y-69316098D01*
X129760405Y-69254936D01*
X129525000Y-69234340D01*
X129289594Y-69254936D01*
X129061332Y-69316098D01*
X128847173Y-69415963D01*
X128653602Y-69551502D01*
X128486502Y-69718602D01*
X128350963Y-69912173D01*
X128251098Y-70126332D01*
X128189936Y-70354594D01*
X128174500Y-70531031D01*
X128174500Y-71488969D01*
X100330500Y-71488969D01*
X100330500Y-64714999D01*
X115630415Y-64714999D01*
X115651011Y-64950405D01*
X115712173Y-65178667D01*
X115812038Y-65392826D01*
X115812039Y-65392827D01*
X115812040Y-65392829D01*
X115947580Y-65586401D01*
X116114674Y-65753495D01*
X116308246Y-65889035D01*
X116308247Y-65889035D01*
X116308248Y-65889036D01*
X116522407Y-65988901D01*
X116522408Y-65988901D01*
X116522412Y-65988903D01*
X116750667Y-66050063D01*
X116821243Y-66056237D01*
X116927106Y-66065500D01*
X116927109Y-66065500D01*
X117885041Y-66065500D01*
X117885044Y-66065500D01*
X117973261Y-66057781D01*
X118061483Y-66050063D01*
X118289738Y-65988903D01*
X118503904Y-65889035D01*
X118697476Y-65753495D01*
X118864570Y-65586401D01*
X119000110Y-65392830D01*
X119099978Y-65178663D01*
X119161138Y-64950408D01*
X119181734Y-64715000D01*
X119161138Y-64479592D01*
X119099978Y-64251337D01*
X119078905Y-64206147D01*
X119000111Y-64037173D01*
X118864572Y-63843602D01*
X118864570Y-63843599D01*
X118697476Y-63676505D01*
X118503904Y-63540965D01*
X118503903Y-63540964D01*
X118503901Y-63540963D01*
X118289742Y-63441098D01*
X118061480Y-63379936D01*
X117885044Y-63364500D01*
X117885041Y-63364500D01*
X116927109Y-63364500D01*
X116927106Y-63364500D01*
X116750669Y-63379936D01*
X116522407Y-63441098D01*
X116308248Y-63540963D01*
X116114677Y-63676502D01*
X115947577Y-63843602D01*
X115812038Y-64037172D01*
X115712173Y-64251332D01*
X115651011Y-64479594D01*
X115630415Y-64714999D01*
X100330500Y-64714999D01*
X100330500Y-63135677D01*
X188399500Y-63135677D01*
X188438628Y-63420357D01*
X188472421Y-63540965D01*
X188510397Y-63676505D01*
X188516156Y-63697057D01*
X188630640Y-63960628D01*
X188779940Y-64206141D01*
X188961293Y-64429054D01*
X189171304Y-64625191D01*
X189406058Y-64790897D01*
X189406064Y-64790901D01*
X189661203Y-64923104D01*
X189931968Y-65019334D01*
X189931971Y-65019335D01*
X190213312Y-65077798D01*
X190428245Y-65092500D01*
X190428248Y-65092500D01*
X190571752Y-65092500D01*
X190571755Y-65092500D01*
X190786687Y-65077798D01*
X191068028Y-65019335D01*
X191068029Y-65019334D01*
X191068032Y-65019334D01*
X191338797Y-64923104D01*
X191593936Y-64790901D01*
X191828698Y-64625189D01*
X192038708Y-64429053D01*
X192220055Y-64206147D01*
X192369361Y-63960625D01*
X192483844Y-63697058D01*
X192561371Y-63420358D01*
X192600500Y-63135678D01*
X192600500Y-62848322D01*
X192561371Y-62563642D01*
X192483844Y-62286942D01*
X192369361Y-62023375D01*
X192369359Y-62023371D01*
X192220059Y-61777858D01*
X192038706Y-61554945D01*
X191828695Y-61358808D01*
X191593941Y-61193102D01*
X191593938Y-61193100D01*
X191593936Y-61193099D01*
X191338797Y-61060896D01*
X191224638Y-61020323D01*
X191068028Y-60964664D01*
X190786687Y-60906201D01*
X190571755Y-60891500D01*
X190571752Y-60891500D01*
X190428248Y-60891500D01*
X190428245Y-60891500D01*
X190213312Y-60906201D01*
X189931971Y-60964664D01*
X189679130Y-61054524D01*
X189661203Y-61060896D01*
X189447963Y-61171388D01*
X189406058Y-61193102D01*
X189171304Y-61358808D01*
X188961293Y-61554945D01*
X188779940Y-61777858D01*
X188630640Y-62023371D01*
X188516156Y-62286942D01*
X188438628Y-62563642D01*
X188399500Y-62848323D01*
X188399500Y-63135677D01*
X100330500Y-63135677D01*
X100330500Y-62329500D01*
X100343763Y-62280000D01*
X100380000Y-62243763D01*
X100429500Y-62230500D01*
X111105213Y-62230500D01*
X111105348Y-62230527D01*
X111124997Y-62230539D01*
X111125000Y-62230541D01*
X111125383Y-62230383D01*
X111125500Y-62230099D01*
X111125541Y-62230000D01*
X111125540Y-62229998D01*
X111125541Y-62229998D01*
X111125541Y-62210418D01*
X111125500Y-62210212D01*
X111125500Y-59198677D01*
X112834500Y-59198677D01*
X112873628Y-59483357D01*
X112951156Y-59760057D01*
X113065640Y-60023628D01*
X113214940Y-60269141D01*
X113396293Y-60492054D01*
X113606304Y-60688191D01*
X113841058Y-60853897D01*
X113841064Y-60853901D01*
X114096203Y-60986104D01*
X114366968Y-61082334D01*
X114366971Y-61082335D01*
X114648312Y-61140798D01*
X114863245Y-61155500D01*
X114863248Y-61155500D01*
X115006752Y-61155500D01*
X115006755Y-61155500D01*
X115221687Y-61140798D01*
X115503028Y-61082335D01*
X115503029Y-61082334D01*
X115503032Y-61082334D01*
X115773797Y-60986104D01*
X116028936Y-60853901D01*
X116263698Y-60688189D01*
X116473708Y-60492053D01*
X116655055Y-60269147D01*
X116804361Y-60023625D01*
X116918844Y-59760058D01*
X116996371Y-59483358D01*
X117035500Y-59198678D01*
X117035500Y-58911322D01*
X116996371Y-58626642D01*
X116918844Y-58349942D01*
X116804361Y-58086375D01*
X116804359Y-58086371D01*
X116655059Y-57840858D01*
X116473706Y-57617945D01*
X116263695Y-57421808D01*
X116028941Y-57256102D01*
X116028938Y-57256100D01*
X116028936Y-57256099D01*
X115773797Y-57123896D01*
X115659637Y-57083323D01*
X115503028Y-57027664D01*
X115221687Y-56969201D01*
X115006755Y-56954500D01*
X115006752Y-56954500D01*
X114863248Y-56954500D01*
X114863245Y-56954500D01*
X114648312Y-56969201D01*
X114366971Y-57027664D01*
X114114131Y-57117524D01*
X114096203Y-57123896D01*
X113882963Y-57234388D01*
X113841058Y-57256102D01*
X113606304Y-57421808D01*
X113396293Y-57617945D01*
X113214940Y-57840858D01*
X113065640Y-58086371D01*
X112951156Y-58349942D01*
X112873628Y-58626642D01*
X112834500Y-58911323D01*
X112834500Y-59198677D01*
X111125500Y-59198677D01*
X111125500Y-55344500D01*
X111138763Y-55295000D01*
X111175000Y-55258763D01*
X111224500Y-55245500D01*
X116204901Y-55245500D01*
X116205099Y-55245500D01*
X118645500Y-55245500D01*
X118695000Y-55258763D01*
G37*
%TD.AperFunction*%
%TD*%
M02*
