%TF.GenerationSoftware,KiCad,Pcbnew,(6.0.7)*%
%TF.CreationDate,2022-09-07T13:32:16-04:00*%
%TF.ProjectId,luison-electronics,6c756973-6f6e-42d6-956c-656374726f6e,rev?*%
%TF.SameCoordinates,Original*%
%TF.FileFunction,Drillmap*%
%TF.FilePolarity,Positive*%
%FSLAX45Y45*%
G04 Gerber Fmt 4.5, Leading zero omitted, Abs format (unit mm)*
G04 Created by KiCad (PCBNEW (6.0.7)) date 2022-09-07 13:32:16*
%MOMM*%
%LPD*%
G01*
G04 APERTURE LIST*
%ADD10C,0.100000*%
%ADD11C,0.200000*%
G04 APERTURE END LIST*
D10*
X3925800Y-7353800D02*
X15925800Y-7353800D01*
X15925800Y-7353800D02*
X15925800Y-15353800D01*
X15925800Y-15353800D02*
X3925800Y-15353800D01*
X3925800Y-15353800D02*
X3925800Y-7353800D01*
D11*
X4178419Y-15669276D02*
X4178419Y-15469276D01*
X4226038Y-15469276D01*
X4254610Y-15478800D01*
X4273657Y-15497848D01*
X4283181Y-15516895D01*
X4292705Y-15554990D01*
X4292705Y-15583562D01*
X4283181Y-15621657D01*
X4273657Y-15640705D01*
X4254610Y-15659752D01*
X4226038Y-15669276D01*
X4178419Y-15669276D01*
X4378419Y-15669276D02*
X4378419Y-15535943D01*
X4378419Y-15574038D02*
X4387943Y-15554990D01*
X4397467Y-15545467D01*
X4416514Y-15535943D01*
X4435562Y-15535943D01*
X4502229Y-15669276D02*
X4502229Y-15535943D01*
X4502229Y-15469276D02*
X4492705Y-15478800D01*
X4502229Y-15488324D01*
X4511752Y-15478800D01*
X4502229Y-15469276D01*
X4502229Y-15488324D01*
X4626038Y-15669276D02*
X4606990Y-15659752D01*
X4597467Y-15640705D01*
X4597467Y-15469276D01*
X4730800Y-15669276D02*
X4711752Y-15659752D01*
X4702229Y-15640705D01*
X4702229Y-15469276D01*
X4959371Y-15669276D02*
X4959371Y-15469276D01*
X5026038Y-15612133D01*
X5092705Y-15469276D01*
X5092705Y-15669276D01*
X5273657Y-15669276D02*
X5273657Y-15564514D01*
X5264133Y-15545467D01*
X5245086Y-15535943D01*
X5206990Y-15535943D01*
X5187943Y-15545467D01*
X5273657Y-15659752D02*
X5254610Y-15669276D01*
X5206990Y-15669276D01*
X5187943Y-15659752D01*
X5178419Y-15640705D01*
X5178419Y-15621657D01*
X5187943Y-15602609D01*
X5206990Y-15593086D01*
X5254610Y-15593086D01*
X5273657Y-15583562D01*
X5368895Y-15535943D02*
X5368895Y-15735943D01*
X5368895Y-15545467D02*
X5387943Y-15535943D01*
X5426038Y-15535943D01*
X5445086Y-15545467D01*
X5454610Y-15554990D01*
X5464133Y-15574038D01*
X5464133Y-15631181D01*
X5454610Y-15650228D01*
X5445086Y-15659752D01*
X5426038Y-15669276D01*
X5387943Y-15669276D01*
X5368895Y-15659752D01*
X5549848Y-15650228D02*
X5559371Y-15659752D01*
X5549848Y-15669276D01*
X5540324Y-15659752D01*
X5549848Y-15650228D01*
X5549848Y-15669276D01*
X5549848Y-15545467D02*
X5559371Y-15554990D01*
X5549848Y-15564514D01*
X5540324Y-15554990D01*
X5549848Y-15545467D01*
X5549848Y-15564514D01*
M02*
