%TF.GenerationSoftware,KiCad,Pcbnew,7.0.1*%
%TF.CreationDate,2023-04-18T16:59:51-04:00*%
%TF.ProjectId,luison-electronics,6c756973-6f6e-42d6-956c-656374726f6e,rev?*%
%TF.SameCoordinates,Original*%
%TF.FileFunction,AssemblyDrawing,Top*%
%FSLAX46Y46*%
G04 Gerber Fmt 4.6, Leading zero omitted, Abs format (unit mm)*
G04 Created by KiCad (PCBNEW 7.0.1) date 2023-04-18 16:59:51*
%MOMM*%
%LPD*%
G01*
G04 APERTURE LIST*
%ADD10C,0.150000*%
%ADD11C,0.100000*%
G04 APERTURE END LIST*
D10*
%TO.C,PS3*%
X177483095Y-112647619D02*
X177673571Y-112647619D01*
X177673571Y-112647619D02*
X177768809Y-112695238D01*
X177768809Y-112695238D02*
X177864047Y-112790476D01*
X177864047Y-112790476D02*
X177911666Y-112980952D01*
X177911666Y-112980952D02*
X177911666Y-113314285D01*
X177911666Y-113314285D02*
X177864047Y-113504761D01*
X177864047Y-113504761D02*
X177768809Y-113600000D01*
X177768809Y-113600000D02*
X177673571Y-113647619D01*
X177673571Y-113647619D02*
X177483095Y-113647619D01*
X177483095Y-113647619D02*
X177387857Y-113600000D01*
X177387857Y-113600000D02*
X177292619Y-113504761D01*
X177292619Y-113504761D02*
X177245000Y-113314285D01*
X177245000Y-113314285D02*
X177245000Y-112980952D01*
X177245000Y-112980952D02*
X177292619Y-112790476D01*
X177292619Y-112790476D02*
X177387857Y-112695238D01*
X177387857Y-112695238D02*
X177483095Y-112647619D01*
X178340238Y-113647619D02*
X178340238Y-112980952D01*
X178340238Y-113076190D02*
X178387857Y-113028571D01*
X178387857Y-113028571D02*
X178483095Y-112980952D01*
X178483095Y-112980952D02*
X178625952Y-112980952D01*
X178625952Y-112980952D02*
X178721190Y-113028571D01*
X178721190Y-113028571D02*
X178768809Y-113123809D01*
X178768809Y-113123809D02*
X178768809Y-113647619D01*
X178768809Y-113123809D02*
X178816428Y-113028571D01*
X178816428Y-113028571D02*
X178911666Y-112980952D01*
X178911666Y-112980952D02*
X179054523Y-112980952D01*
X179054523Y-112980952D02*
X179149762Y-113028571D01*
X179149762Y-113028571D02*
X179197381Y-113123809D01*
X179197381Y-113123809D02*
X179197381Y-113647619D01*
X179673571Y-113647619D02*
X179673571Y-112980952D01*
X179673571Y-113171428D02*
X179721190Y-113076190D01*
X179721190Y-113076190D02*
X179768809Y-113028571D01*
X179768809Y-113028571D02*
X179864047Y-112980952D01*
X179864047Y-112980952D02*
X179959285Y-112980952D01*
X180435476Y-113647619D02*
X180340238Y-113600000D01*
X180340238Y-113600000D02*
X180292619Y-113552380D01*
X180292619Y-113552380D02*
X180245000Y-113457142D01*
X180245000Y-113457142D02*
X180245000Y-113171428D01*
X180245000Y-113171428D02*
X180292619Y-113076190D01*
X180292619Y-113076190D02*
X180340238Y-113028571D01*
X180340238Y-113028571D02*
X180435476Y-112980952D01*
X180435476Y-112980952D02*
X180578333Y-112980952D01*
X180578333Y-112980952D02*
X180673571Y-113028571D01*
X180673571Y-113028571D02*
X180721190Y-113076190D01*
X180721190Y-113076190D02*
X180768809Y-113171428D01*
X180768809Y-113171428D02*
X180768809Y-113457142D01*
X180768809Y-113457142D02*
X180721190Y-113552380D01*
X180721190Y-113552380D02*
X180673571Y-113600000D01*
X180673571Y-113600000D02*
X180578333Y-113647619D01*
X180578333Y-113647619D02*
X180435476Y-113647619D01*
X181197381Y-112980952D02*
X181197381Y-113647619D01*
X181197381Y-113076190D02*
X181245000Y-113028571D01*
X181245000Y-113028571D02*
X181340238Y-112980952D01*
X181340238Y-112980952D02*
X181483095Y-112980952D01*
X181483095Y-112980952D02*
X181578333Y-113028571D01*
X181578333Y-113028571D02*
X181625952Y-113123809D01*
X181625952Y-113123809D02*
X181625952Y-113647619D01*
X181864048Y-113742857D02*
X182625952Y-113742857D01*
X182864048Y-113123809D02*
X183197381Y-113123809D01*
X183340238Y-113647619D02*
X182864048Y-113647619D01*
X182864048Y-113647619D02*
X182864048Y-112647619D01*
X182864048Y-112647619D02*
X183340238Y-112647619D01*
X183673572Y-112647619D02*
X184292619Y-112647619D01*
X184292619Y-112647619D02*
X183959286Y-113028571D01*
X183959286Y-113028571D02*
X184102143Y-113028571D01*
X184102143Y-113028571D02*
X184197381Y-113076190D01*
X184197381Y-113076190D02*
X184245000Y-113123809D01*
X184245000Y-113123809D02*
X184292619Y-113219047D01*
X184292619Y-113219047D02*
X184292619Y-113457142D01*
X184292619Y-113457142D02*
X184245000Y-113552380D01*
X184245000Y-113552380D02*
X184197381Y-113600000D01*
X184197381Y-113600000D02*
X184102143Y-113647619D01*
X184102143Y-113647619D02*
X183816429Y-113647619D01*
X183816429Y-113647619D02*
X183721191Y-113600000D01*
X183721191Y-113600000D02*
X183673572Y-113552380D01*
X184625953Y-112647619D02*
X185292619Y-112647619D01*
X185292619Y-112647619D02*
X184625953Y-113647619D01*
X184625953Y-113647619D02*
X185292619Y-113647619D01*
X185673572Y-113266666D02*
X186435477Y-113266666D01*
X186911667Y-113647619D02*
X186911667Y-112647619D01*
X186911667Y-112647619D02*
X187149762Y-112647619D01*
X187149762Y-112647619D02*
X187292619Y-112695238D01*
X187292619Y-112695238D02*
X187387857Y-112790476D01*
X187387857Y-112790476D02*
X187435476Y-112885714D01*
X187435476Y-112885714D02*
X187483095Y-113076190D01*
X187483095Y-113076190D02*
X187483095Y-113219047D01*
X187483095Y-113219047D02*
X187435476Y-113409523D01*
X187435476Y-113409523D02*
X187387857Y-113504761D01*
X187387857Y-113504761D02*
X187292619Y-113600000D01*
X187292619Y-113600000D02*
X187149762Y-113647619D01*
X187149762Y-113647619D02*
X186911667Y-113647619D01*
X188340238Y-112647619D02*
X188149762Y-112647619D01*
X188149762Y-112647619D02*
X188054524Y-112695238D01*
X188054524Y-112695238D02*
X188006905Y-112742857D01*
X188006905Y-112742857D02*
X187911667Y-112885714D01*
X187911667Y-112885714D02*
X187864048Y-113076190D01*
X187864048Y-113076190D02*
X187864048Y-113457142D01*
X187864048Y-113457142D02*
X187911667Y-113552380D01*
X187911667Y-113552380D02*
X187959286Y-113600000D01*
X187959286Y-113600000D02*
X188054524Y-113647619D01*
X188054524Y-113647619D02*
X188245000Y-113647619D01*
X188245000Y-113647619D02*
X188340238Y-113600000D01*
X188340238Y-113600000D02*
X188387857Y-113552380D01*
X188387857Y-113552380D02*
X188435476Y-113457142D01*
X188435476Y-113457142D02*
X188435476Y-113219047D01*
X188435476Y-113219047D02*
X188387857Y-113123809D01*
X188387857Y-113123809D02*
X188340238Y-113076190D01*
X188340238Y-113076190D02*
X188245000Y-113028571D01*
X188245000Y-113028571D02*
X188054524Y-113028571D01*
X188054524Y-113028571D02*
X187959286Y-113076190D01*
X187959286Y-113076190D02*
X187911667Y-113123809D01*
X187911667Y-113123809D02*
X187864048Y-113219047D01*
X188816429Y-112742857D02*
X188864048Y-112695238D01*
X188864048Y-112695238D02*
X188959286Y-112647619D01*
X188959286Y-112647619D02*
X189197381Y-112647619D01*
X189197381Y-112647619D02*
X189292619Y-112695238D01*
X189292619Y-112695238D02*
X189340238Y-112742857D01*
X189340238Y-112742857D02*
X189387857Y-112838095D01*
X189387857Y-112838095D02*
X189387857Y-112933333D01*
X189387857Y-112933333D02*
X189340238Y-113076190D01*
X189340238Y-113076190D02*
X188768810Y-113647619D01*
X188768810Y-113647619D02*
X189387857Y-113647619D01*
X189578334Y-113742857D02*
X190340238Y-113742857D01*
X190530715Y-112742857D02*
X190578334Y-112695238D01*
X190578334Y-112695238D02*
X190673572Y-112647619D01*
X190673572Y-112647619D02*
X190911667Y-112647619D01*
X190911667Y-112647619D02*
X191006905Y-112695238D01*
X191006905Y-112695238D02*
X191054524Y-112742857D01*
X191054524Y-112742857D02*
X191102143Y-112838095D01*
X191102143Y-112838095D02*
X191102143Y-112933333D01*
X191102143Y-112933333D02*
X191054524Y-113076190D01*
X191054524Y-113076190D02*
X190483096Y-113647619D01*
X190483096Y-113647619D02*
X191102143Y-113647619D01*
X191530715Y-113647619D02*
X191530715Y-112647619D01*
X191530715Y-112647619D02*
X191864048Y-113361904D01*
X191864048Y-113361904D02*
X192197381Y-112647619D01*
X192197381Y-112647619D02*
X192197381Y-113647619D01*
X183530714Y-111747619D02*
X183530714Y-110747619D01*
X183530714Y-110747619D02*
X183911666Y-110747619D01*
X183911666Y-110747619D02*
X184006904Y-110795238D01*
X184006904Y-110795238D02*
X184054523Y-110842857D01*
X184054523Y-110842857D02*
X184102142Y-110938095D01*
X184102142Y-110938095D02*
X184102142Y-111080952D01*
X184102142Y-111080952D02*
X184054523Y-111176190D01*
X184054523Y-111176190D02*
X184006904Y-111223809D01*
X184006904Y-111223809D02*
X183911666Y-111271428D01*
X183911666Y-111271428D02*
X183530714Y-111271428D01*
X184483095Y-111700000D02*
X184625952Y-111747619D01*
X184625952Y-111747619D02*
X184864047Y-111747619D01*
X184864047Y-111747619D02*
X184959285Y-111700000D01*
X184959285Y-111700000D02*
X185006904Y-111652380D01*
X185006904Y-111652380D02*
X185054523Y-111557142D01*
X185054523Y-111557142D02*
X185054523Y-111461904D01*
X185054523Y-111461904D02*
X185006904Y-111366666D01*
X185006904Y-111366666D02*
X184959285Y-111319047D01*
X184959285Y-111319047D02*
X184864047Y-111271428D01*
X184864047Y-111271428D02*
X184673571Y-111223809D01*
X184673571Y-111223809D02*
X184578333Y-111176190D01*
X184578333Y-111176190D02*
X184530714Y-111128571D01*
X184530714Y-111128571D02*
X184483095Y-111033333D01*
X184483095Y-111033333D02*
X184483095Y-110938095D01*
X184483095Y-110938095D02*
X184530714Y-110842857D01*
X184530714Y-110842857D02*
X184578333Y-110795238D01*
X184578333Y-110795238D02*
X184673571Y-110747619D01*
X184673571Y-110747619D02*
X184911666Y-110747619D01*
X184911666Y-110747619D02*
X185054523Y-110795238D01*
X185387857Y-110747619D02*
X186006904Y-110747619D01*
X186006904Y-110747619D02*
X185673571Y-111128571D01*
X185673571Y-111128571D02*
X185816428Y-111128571D01*
X185816428Y-111128571D02*
X185911666Y-111176190D01*
X185911666Y-111176190D02*
X185959285Y-111223809D01*
X185959285Y-111223809D02*
X186006904Y-111319047D01*
X186006904Y-111319047D02*
X186006904Y-111557142D01*
X186006904Y-111557142D02*
X185959285Y-111652380D01*
X185959285Y-111652380D02*
X185911666Y-111700000D01*
X185911666Y-111700000D02*
X185816428Y-111747619D01*
X185816428Y-111747619D02*
X185530714Y-111747619D01*
X185530714Y-111747619D02*
X185435476Y-111700000D01*
X185435476Y-111700000D02*
X185387857Y-111652380D01*
%TO.C,PS9*%
X120378619Y-97407857D02*
X119854809Y-97407857D01*
X119854809Y-97407857D02*
X119759571Y-97455476D01*
X119759571Y-97455476D02*
X119711952Y-97550714D01*
X119711952Y-97550714D02*
X119711952Y-97741190D01*
X119711952Y-97741190D02*
X119759571Y-97836428D01*
X120331000Y-97407857D02*
X120378619Y-97503095D01*
X120378619Y-97503095D02*
X120378619Y-97741190D01*
X120378619Y-97741190D02*
X120331000Y-97836428D01*
X120331000Y-97836428D02*
X120235761Y-97884047D01*
X120235761Y-97884047D02*
X120140523Y-97884047D01*
X120140523Y-97884047D02*
X120045285Y-97836428D01*
X120045285Y-97836428D02*
X119997666Y-97741190D01*
X119997666Y-97741190D02*
X119997666Y-97503095D01*
X119997666Y-97503095D02*
X119950047Y-97407857D01*
X120378619Y-96788809D02*
X120331000Y-96884047D01*
X120331000Y-96884047D02*
X120235761Y-96931666D01*
X120235761Y-96931666D02*
X119378619Y-96931666D01*
X120378619Y-96407856D02*
X119711952Y-96407856D01*
X119378619Y-96407856D02*
X119426238Y-96455475D01*
X119426238Y-96455475D02*
X119473857Y-96407856D01*
X119473857Y-96407856D02*
X119426238Y-96360237D01*
X119426238Y-96360237D02*
X119378619Y-96407856D01*
X119378619Y-96407856D02*
X119473857Y-96407856D01*
X120378619Y-95931666D02*
X119711952Y-95931666D01*
X119807190Y-95931666D02*
X119759571Y-95884047D01*
X119759571Y-95884047D02*
X119711952Y-95788809D01*
X119711952Y-95788809D02*
X119711952Y-95645952D01*
X119711952Y-95645952D02*
X119759571Y-95550714D01*
X119759571Y-95550714D02*
X119854809Y-95503095D01*
X119854809Y-95503095D02*
X120378619Y-95503095D01*
X119854809Y-95503095D02*
X119759571Y-95455476D01*
X119759571Y-95455476D02*
X119711952Y-95360238D01*
X119711952Y-95360238D02*
X119711952Y-95217381D01*
X119711952Y-95217381D02*
X119759571Y-95122142D01*
X119759571Y-95122142D02*
X119854809Y-95074523D01*
X119854809Y-95074523D02*
X120378619Y-95074523D01*
X120331000Y-94217381D02*
X120378619Y-94312619D01*
X120378619Y-94312619D02*
X120378619Y-94503095D01*
X120378619Y-94503095D02*
X120331000Y-94598333D01*
X120331000Y-94598333D02*
X120235761Y-94645952D01*
X120235761Y-94645952D02*
X119854809Y-94645952D01*
X119854809Y-94645952D02*
X119759571Y-94598333D01*
X119759571Y-94598333D02*
X119711952Y-94503095D01*
X119711952Y-94503095D02*
X119711952Y-94312619D01*
X119711952Y-94312619D02*
X119759571Y-94217381D01*
X119759571Y-94217381D02*
X119854809Y-94169762D01*
X119854809Y-94169762D02*
X119950047Y-94169762D01*
X119950047Y-94169762D02*
X120045285Y-94645952D01*
X119711952Y-93741190D02*
X120378619Y-93741190D01*
X119807190Y-93741190D02*
X119759571Y-93693571D01*
X119759571Y-93693571D02*
X119711952Y-93598333D01*
X119711952Y-93598333D02*
X119711952Y-93455476D01*
X119711952Y-93455476D02*
X119759571Y-93360238D01*
X119759571Y-93360238D02*
X119854809Y-93312619D01*
X119854809Y-93312619D02*
X120378619Y-93312619D01*
X119711952Y-92979285D02*
X119711952Y-92598333D01*
X119378619Y-92836428D02*
X120235761Y-92836428D01*
X120235761Y-92836428D02*
X120331000Y-92788809D01*
X120331000Y-92788809D02*
X120378619Y-92693571D01*
X120378619Y-92693571D02*
X120378619Y-92598333D01*
X120378619Y-91836428D02*
X119854809Y-91836428D01*
X119854809Y-91836428D02*
X119759571Y-91884047D01*
X119759571Y-91884047D02*
X119711952Y-91979285D01*
X119711952Y-91979285D02*
X119711952Y-92169761D01*
X119711952Y-92169761D02*
X119759571Y-92264999D01*
X120331000Y-91836428D02*
X120378619Y-91931666D01*
X120378619Y-91931666D02*
X120378619Y-92169761D01*
X120378619Y-92169761D02*
X120331000Y-92264999D01*
X120331000Y-92264999D02*
X120235761Y-92312618D01*
X120235761Y-92312618D02*
X120140523Y-92312618D01*
X120140523Y-92312618D02*
X120045285Y-92264999D01*
X120045285Y-92264999D02*
X119997666Y-92169761D01*
X119997666Y-92169761D02*
X119997666Y-91931666D01*
X119997666Y-91931666D02*
X119950047Y-91836428D01*
X120331000Y-90931666D02*
X120378619Y-91026904D01*
X120378619Y-91026904D02*
X120378619Y-91217380D01*
X120378619Y-91217380D02*
X120331000Y-91312618D01*
X120331000Y-91312618D02*
X120283380Y-91360237D01*
X120283380Y-91360237D02*
X120188142Y-91407856D01*
X120188142Y-91407856D02*
X119902428Y-91407856D01*
X119902428Y-91407856D02*
X119807190Y-91360237D01*
X119807190Y-91360237D02*
X119759571Y-91312618D01*
X119759571Y-91312618D02*
X119711952Y-91217380D01*
X119711952Y-91217380D02*
X119711952Y-91026904D01*
X119711952Y-91026904D02*
X119759571Y-90931666D01*
X120378619Y-90503094D02*
X119711952Y-90503094D01*
X119378619Y-90503094D02*
X119426238Y-90550713D01*
X119426238Y-90550713D02*
X119473857Y-90503094D01*
X119473857Y-90503094D02*
X119426238Y-90455475D01*
X119426238Y-90455475D02*
X119378619Y-90503094D01*
X119378619Y-90503094D02*
X119473857Y-90503094D01*
X120378619Y-89884047D02*
X120331000Y-89979285D01*
X120331000Y-89979285D02*
X120283380Y-90026904D01*
X120283380Y-90026904D02*
X120188142Y-90074523D01*
X120188142Y-90074523D02*
X119902428Y-90074523D01*
X119902428Y-90074523D02*
X119807190Y-90026904D01*
X119807190Y-90026904D02*
X119759571Y-89979285D01*
X119759571Y-89979285D02*
X119711952Y-89884047D01*
X119711952Y-89884047D02*
X119711952Y-89741190D01*
X119711952Y-89741190D02*
X119759571Y-89645952D01*
X119759571Y-89645952D02*
X119807190Y-89598333D01*
X119807190Y-89598333D02*
X119902428Y-89550714D01*
X119902428Y-89550714D02*
X120188142Y-89550714D01*
X120188142Y-89550714D02*
X120283380Y-89598333D01*
X120283380Y-89598333D02*
X120331000Y-89645952D01*
X120331000Y-89645952D02*
X120378619Y-89741190D01*
X120378619Y-89741190D02*
X120378619Y-89884047D01*
X119711952Y-89122142D02*
X120378619Y-89122142D01*
X119807190Y-89122142D02*
X119759571Y-89074523D01*
X119759571Y-89074523D02*
X119711952Y-88979285D01*
X119711952Y-88979285D02*
X119711952Y-88836428D01*
X119711952Y-88836428D02*
X119759571Y-88741190D01*
X119759571Y-88741190D02*
X119854809Y-88693571D01*
X119854809Y-88693571D02*
X120378619Y-88693571D01*
X120473857Y-88455476D02*
X120473857Y-87693571D01*
X120378619Y-87026904D02*
X119378619Y-87026904D01*
X120331000Y-87026904D02*
X120378619Y-87122142D01*
X120378619Y-87122142D02*
X120378619Y-87312618D01*
X120378619Y-87312618D02*
X120331000Y-87407856D01*
X120331000Y-87407856D02*
X120283380Y-87455475D01*
X120283380Y-87455475D02*
X120188142Y-87503094D01*
X120188142Y-87503094D02*
X119902428Y-87503094D01*
X119902428Y-87503094D02*
X119807190Y-87455475D01*
X119807190Y-87455475D02*
X119759571Y-87407856D01*
X119759571Y-87407856D02*
X119711952Y-87312618D01*
X119711952Y-87312618D02*
X119711952Y-87122142D01*
X119711952Y-87122142D02*
X119759571Y-87026904D01*
X120378619Y-86550713D02*
X119711952Y-86550713D01*
X119902428Y-86550713D02*
X119807190Y-86503094D01*
X119807190Y-86503094D02*
X119759571Y-86455475D01*
X119759571Y-86455475D02*
X119711952Y-86360237D01*
X119711952Y-86360237D02*
X119711952Y-86264999D01*
X120378619Y-85931665D02*
X119711952Y-85931665D01*
X119378619Y-85931665D02*
X119426238Y-85979284D01*
X119426238Y-85979284D02*
X119473857Y-85931665D01*
X119473857Y-85931665D02*
X119426238Y-85884046D01*
X119426238Y-85884046D02*
X119378619Y-85931665D01*
X119378619Y-85931665D02*
X119473857Y-85931665D01*
X119711952Y-85550713D02*
X120378619Y-85312618D01*
X120378619Y-85312618D02*
X119711952Y-85074523D01*
X120331000Y-84312618D02*
X120378619Y-84407856D01*
X120378619Y-84407856D02*
X120378619Y-84598332D01*
X120378619Y-84598332D02*
X120331000Y-84693570D01*
X120331000Y-84693570D02*
X120235761Y-84741189D01*
X120235761Y-84741189D02*
X119854809Y-84741189D01*
X119854809Y-84741189D02*
X119759571Y-84693570D01*
X119759571Y-84693570D02*
X119711952Y-84598332D01*
X119711952Y-84598332D02*
X119711952Y-84407856D01*
X119711952Y-84407856D02*
X119759571Y-84312618D01*
X119759571Y-84312618D02*
X119854809Y-84264999D01*
X119854809Y-84264999D02*
X119950047Y-84264999D01*
X119950047Y-84264999D02*
X120045285Y-84741189D01*
X120378619Y-83836427D02*
X119711952Y-83836427D01*
X119902428Y-83836427D02*
X119807190Y-83788808D01*
X119807190Y-83788808D02*
X119759571Y-83741189D01*
X119759571Y-83741189D02*
X119711952Y-83645951D01*
X119711952Y-83645951D02*
X119711952Y-83550713D01*
X118478619Y-91979285D02*
X117478619Y-91979285D01*
X117478619Y-91979285D02*
X117478619Y-91598333D01*
X117478619Y-91598333D02*
X117526238Y-91503095D01*
X117526238Y-91503095D02*
X117573857Y-91455476D01*
X117573857Y-91455476D02*
X117669095Y-91407857D01*
X117669095Y-91407857D02*
X117811952Y-91407857D01*
X117811952Y-91407857D02*
X117907190Y-91455476D01*
X117907190Y-91455476D02*
X117954809Y-91503095D01*
X117954809Y-91503095D02*
X118002428Y-91598333D01*
X118002428Y-91598333D02*
X118002428Y-91979285D01*
X118431000Y-91026904D02*
X118478619Y-90884047D01*
X118478619Y-90884047D02*
X118478619Y-90645952D01*
X118478619Y-90645952D02*
X118431000Y-90550714D01*
X118431000Y-90550714D02*
X118383380Y-90503095D01*
X118383380Y-90503095D02*
X118288142Y-90455476D01*
X118288142Y-90455476D02*
X118192904Y-90455476D01*
X118192904Y-90455476D02*
X118097666Y-90503095D01*
X118097666Y-90503095D02*
X118050047Y-90550714D01*
X118050047Y-90550714D02*
X118002428Y-90645952D01*
X118002428Y-90645952D02*
X117954809Y-90836428D01*
X117954809Y-90836428D02*
X117907190Y-90931666D01*
X117907190Y-90931666D02*
X117859571Y-90979285D01*
X117859571Y-90979285D02*
X117764333Y-91026904D01*
X117764333Y-91026904D02*
X117669095Y-91026904D01*
X117669095Y-91026904D02*
X117573857Y-90979285D01*
X117573857Y-90979285D02*
X117526238Y-90931666D01*
X117526238Y-90931666D02*
X117478619Y-90836428D01*
X117478619Y-90836428D02*
X117478619Y-90598333D01*
X117478619Y-90598333D02*
X117526238Y-90455476D01*
X118478619Y-89979285D02*
X118478619Y-89788809D01*
X118478619Y-89788809D02*
X118431000Y-89693571D01*
X118431000Y-89693571D02*
X118383380Y-89645952D01*
X118383380Y-89645952D02*
X118240523Y-89550714D01*
X118240523Y-89550714D02*
X118050047Y-89503095D01*
X118050047Y-89503095D02*
X117669095Y-89503095D01*
X117669095Y-89503095D02*
X117573857Y-89550714D01*
X117573857Y-89550714D02*
X117526238Y-89598333D01*
X117526238Y-89598333D02*
X117478619Y-89693571D01*
X117478619Y-89693571D02*
X117478619Y-89884047D01*
X117478619Y-89884047D02*
X117526238Y-89979285D01*
X117526238Y-89979285D02*
X117573857Y-90026904D01*
X117573857Y-90026904D02*
X117669095Y-90074523D01*
X117669095Y-90074523D02*
X117907190Y-90074523D01*
X117907190Y-90074523D02*
X118002428Y-90026904D01*
X118002428Y-90026904D02*
X118050047Y-89979285D01*
X118050047Y-89979285D02*
X118097666Y-89884047D01*
X118097666Y-89884047D02*
X118097666Y-89693571D01*
X118097666Y-89693571D02*
X118050047Y-89598333D01*
X118050047Y-89598333D02*
X118002428Y-89550714D01*
X118002428Y-89550714D02*
X117907190Y-89503095D01*
%TO.C,GYRO2*%
X107310836Y-65622619D02*
X107310836Y-64622619D01*
X107310836Y-64622619D02*
X107644169Y-65336904D01*
X107644169Y-65336904D02*
X107977502Y-64622619D01*
X107977502Y-64622619D02*
X107977502Y-65622619D01*
X108453693Y-65622619D02*
X108453693Y-64622619D01*
X108453693Y-64622619D02*
X108834645Y-64622619D01*
X108834645Y-64622619D02*
X108929883Y-64670238D01*
X108929883Y-64670238D02*
X108977502Y-64717857D01*
X108977502Y-64717857D02*
X109025121Y-64813095D01*
X109025121Y-64813095D02*
X109025121Y-64955952D01*
X109025121Y-64955952D02*
X108977502Y-65051190D01*
X108977502Y-65051190D02*
X108929883Y-65098809D01*
X108929883Y-65098809D02*
X108834645Y-65146428D01*
X108834645Y-65146428D02*
X108453693Y-65146428D01*
X109453693Y-64622619D02*
X109453693Y-65432142D01*
X109453693Y-65432142D02*
X109501312Y-65527380D01*
X109501312Y-65527380D02*
X109548931Y-65575000D01*
X109548931Y-65575000D02*
X109644169Y-65622619D01*
X109644169Y-65622619D02*
X109834645Y-65622619D01*
X109834645Y-65622619D02*
X109929883Y-65575000D01*
X109929883Y-65575000D02*
X109977502Y-65527380D01*
X109977502Y-65527380D02*
X110025121Y-65432142D01*
X110025121Y-65432142D02*
X110025121Y-64622619D01*
X110501312Y-65241666D02*
X111263217Y-65241666D01*
X112167978Y-64622619D02*
X111977502Y-64622619D01*
X111977502Y-64622619D02*
X111882264Y-64670238D01*
X111882264Y-64670238D02*
X111834645Y-64717857D01*
X111834645Y-64717857D02*
X111739407Y-64860714D01*
X111739407Y-64860714D02*
X111691788Y-65051190D01*
X111691788Y-65051190D02*
X111691788Y-65432142D01*
X111691788Y-65432142D02*
X111739407Y-65527380D01*
X111739407Y-65527380D02*
X111787026Y-65575000D01*
X111787026Y-65575000D02*
X111882264Y-65622619D01*
X111882264Y-65622619D02*
X112072740Y-65622619D01*
X112072740Y-65622619D02*
X112167978Y-65575000D01*
X112167978Y-65575000D02*
X112215597Y-65527380D01*
X112215597Y-65527380D02*
X112263216Y-65432142D01*
X112263216Y-65432142D02*
X112263216Y-65194047D01*
X112263216Y-65194047D02*
X112215597Y-65098809D01*
X112215597Y-65098809D02*
X112167978Y-65051190D01*
X112167978Y-65051190D02*
X112072740Y-65003571D01*
X112072740Y-65003571D02*
X111882264Y-65003571D01*
X111882264Y-65003571D02*
X111787026Y-65051190D01*
X111787026Y-65051190D02*
X111739407Y-65098809D01*
X111739407Y-65098809D02*
X111691788Y-65194047D01*
X112882264Y-64622619D02*
X112977502Y-64622619D01*
X112977502Y-64622619D02*
X113072740Y-64670238D01*
X113072740Y-64670238D02*
X113120359Y-64717857D01*
X113120359Y-64717857D02*
X113167978Y-64813095D01*
X113167978Y-64813095D02*
X113215597Y-65003571D01*
X113215597Y-65003571D02*
X113215597Y-65241666D01*
X113215597Y-65241666D02*
X113167978Y-65432142D01*
X113167978Y-65432142D02*
X113120359Y-65527380D01*
X113120359Y-65527380D02*
X113072740Y-65575000D01*
X113072740Y-65575000D02*
X112977502Y-65622619D01*
X112977502Y-65622619D02*
X112882264Y-65622619D01*
X112882264Y-65622619D02*
X112787026Y-65575000D01*
X112787026Y-65575000D02*
X112739407Y-65527380D01*
X112739407Y-65527380D02*
X112691788Y-65432142D01*
X112691788Y-65432142D02*
X112644169Y-65241666D01*
X112644169Y-65241666D02*
X112644169Y-65003571D01*
X112644169Y-65003571D02*
X112691788Y-64813095D01*
X112691788Y-64813095D02*
X112739407Y-64717857D01*
X112739407Y-64717857D02*
X112787026Y-64670238D01*
X112787026Y-64670238D02*
X112882264Y-64622619D01*
X114120359Y-64622619D02*
X113644169Y-64622619D01*
X113644169Y-64622619D02*
X113596550Y-65098809D01*
X113596550Y-65098809D02*
X113644169Y-65051190D01*
X113644169Y-65051190D02*
X113739407Y-65003571D01*
X113739407Y-65003571D02*
X113977502Y-65003571D01*
X113977502Y-65003571D02*
X114072740Y-65051190D01*
X114072740Y-65051190D02*
X114120359Y-65098809D01*
X114120359Y-65098809D02*
X114167978Y-65194047D01*
X114167978Y-65194047D02*
X114167978Y-65432142D01*
X114167978Y-65432142D02*
X114120359Y-65527380D01*
X114120359Y-65527380D02*
X114072740Y-65575000D01*
X114072740Y-65575000D02*
X113977502Y-65622619D01*
X113977502Y-65622619D02*
X113739407Y-65622619D01*
X113739407Y-65622619D02*
X113644169Y-65575000D01*
X113644169Y-65575000D02*
X113596550Y-65527380D01*
X114787026Y-64622619D02*
X114882264Y-64622619D01*
X114882264Y-64622619D02*
X114977502Y-64670238D01*
X114977502Y-64670238D02*
X115025121Y-64717857D01*
X115025121Y-64717857D02*
X115072740Y-64813095D01*
X115072740Y-64813095D02*
X115120359Y-65003571D01*
X115120359Y-65003571D02*
X115120359Y-65241666D01*
X115120359Y-65241666D02*
X115072740Y-65432142D01*
X115072740Y-65432142D02*
X115025121Y-65527380D01*
X115025121Y-65527380D02*
X114977502Y-65575000D01*
X114977502Y-65575000D02*
X114882264Y-65622619D01*
X114882264Y-65622619D02*
X114787026Y-65622619D01*
X114787026Y-65622619D02*
X114691788Y-65575000D01*
X114691788Y-65575000D02*
X114644169Y-65527380D01*
X114644169Y-65527380D02*
X114596550Y-65432142D01*
X114596550Y-65432142D02*
X114548931Y-65241666D01*
X114548931Y-65241666D02*
X114548931Y-65003571D01*
X114548931Y-65003571D02*
X114596550Y-64813095D01*
X114596550Y-64813095D02*
X114644169Y-64717857D01*
X114644169Y-64717857D02*
X114691788Y-64670238D01*
X114691788Y-64670238D02*
X114787026Y-64622619D01*
X116644169Y-65098809D02*
X116787026Y-65146428D01*
X116787026Y-65146428D02*
X116834645Y-65194047D01*
X116834645Y-65194047D02*
X116882264Y-65289285D01*
X116882264Y-65289285D02*
X116882264Y-65432142D01*
X116882264Y-65432142D02*
X116834645Y-65527380D01*
X116834645Y-65527380D02*
X116787026Y-65575000D01*
X116787026Y-65575000D02*
X116691788Y-65622619D01*
X116691788Y-65622619D02*
X116310836Y-65622619D01*
X116310836Y-65622619D02*
X116310836Y-64622619D01*
X116310836Y-64622619D02*
X116644169Y-64622619D01*
X116644169Y-64622619D02*
X116739407Y-64670238D01*
X116739407Y-64670238D02*
X116787026Y-64717857D01*
X116787026Y-64717857D02*
X116834645Y-64813095D01*
X116834645Y-64813095D02*
X116834645Y-64908333D01*
X116834645Y-64908333D02*
X116787026Y-65003571D01*
X116787026Y-65003571D02*
X116739407Y-65051190D01*
X116739407Y-65051190D02*
X116644169Y-65098809D01*
X116644169Y-65098809D02*
X116310836Y-65098809D01*
X117310836Y-65622619D02*
X117310836Y-64955952D01*
X117310836Y-65146428D02*
X117358455Y-65051190D01*
X117358455Y-65051190D02*
X117406074Y-65003571D01*
X117406074Y-65003571D02*
X117501312Y-64955952D01*
X117501312Y-64955952D02*
X117596550Y-64955952D01*
X118310836Y-65575000D02*
X118215598Y-65622619D01*
X118215598Y-65622619D02*
X118025122Y-65622619D01*
X118025122Y-65622619D02*
X117929884Y-65575000D01*
X117929884Y-65575000D02*
X117882265Y-65479761D01*
X117882265Y-65479761D02*
X117882265Y-65098809D01*
X117882265Y-65098809D02*
X117929884Y-65003571D01*
X117929884Y-65003571D02*
X118025122Y-64955952D01*
X118025122Y-64955952D02*
X118215598Y-64955952D01*
X118215598Y-64955952D02*
X118310836Y-65003571D01*
X118310836Y-65003571D02*
X118358455Y-65098809D01*
X118358455Y-65098809D02*
X118358455Y-65194047D01*
X118358455Y-65194047D02*
X117882265Y-65289285D01*
X119215598Y-65622619D02*
X119215598Y-65098809D01*
X119215598Y-65098809D02*
X119167979Y-65003571D01*
X119167979Y-65003571D02*
X119072741Y-64955952D01*
X119072741Y-64955952D02*
X118882265Y-64955952D01*
X118882265Y-64955952D02*
X118787027Y-65003571D01*
X119215598Y-65575000D02*
X119120360Y-65622619D01*
X119120360Y-65622619D02*
X118882265Y-65622619D01*
X118882265Y-65622619D02*
X118787027Y-65575000D01*
X118787027Y-65575000D02*
X118739408Y-65479761D01*
X118739408Y-65479761D02*
X118739408Y-65384523D01*
X118739408Y-65384523D02*
X118787027Y-65289285D01*
X118787027Y-65289285D02*
X118882265Y-65241666D01*
X118882265Y-65241666D02*
X119120360Y-65241666D01*
X119120360Y-65241666D02*
X119215598Y-65194047D01*
X119691789Y-65622619D02*
X119691789Y-64622619D01*
X119787027Y-65241666D02*
X120072741Y-65622619D01*
X120072741Y-64955952D02*
X119691789Y-65336904D01*
X120644170Y-65622619D02*
X120548932Y-65575000D01*
X120548932Y-65575000D02*
X120501313Y-65527380D01*
X120501313Y-65527380D02*
X120453694Y-65432142D01*
X120453694Y-65432142D02*
X120453694Y-65146428D01*
X120453694Y-65146428D02*
X120501313Y-65051190D01*
X120501313Y-65051190D02*
X120548932Y-65003571D01*
X120548932Y-65003571D02*
X120644170Y-64955952D01*
X120644170Y-64955952D02*
X120787027Y-64955952D01*
X120787027Y-64955952D02*
X120882265Y-65003571D01*
X120882265Y-65003571D02*
X120929884Y-65051190D01*
X120929884Y-65051190D02*
X120977503Y-65146428D01*
X120977503Y-65146428D02*
X120977503Y-65432142D01*
X120977503Y-65432142D02*
X120929884Y-65527380D01*
X120929884Y-65527380D02*
X120882265Y-65575000D01*
X120882265Y-65575000D02*
X120787027Y-65622619D01*
X120787027Y-65622619D02*
X120644170Y-65622619D01*
X121834646Y-64955952D02*
X121834646Y-65622619D01*
X121406075Y-64955952D02*
X121406075Y-65479761D01*
X121406075Y-65479761D02*
X121453694Y-65575000D01*
X121453694Y-65575000D02*
X121548932Y-65622619D01*
X121548932Y-65622619D02*
X121691789Y-65622619D01*
X121691789Y-65622619D02*
X121787027Y-65575000D01*
X121787027Y-65575000D02*
X121834646Y-65527380D01*
X122167980Y-64955952D02*
X122548932Y-64955952D01*
X122310837Y-64622619D02*
X122310837Y-65479761D01*
X122310837Y-65479761D02*
X122358456Y-65575000D01*
X122358456Y-65575000D02*
X122453694Y-65622619D01*
X122453694Y-65622619D02*
X122548932Y-65622619D01*
X123977504Y-65098809D02*
X124120361Y-65146428D01*
X124120361Y-65146428D02*
X124167980Y-65194047D01*
X124167980Y-65194047D02*
X124215599Y-65289285D01*
X124215599Y-65289285D02*
X124215599Y-65432142D01*
X124215599Y-65432142D02*
X124167980Y-65527380D01*
X124167980Y-65527380D02*
X124120361Y-65575000D01*
X124120361Y-65575000D02*
X124025123Y-65622619D01*
X124025123Y-65622619D02*
X123644171Y-65622619D01*
X123644171Y-65622619D02*
X123644171Y-64622619D01*
X123644171Y-64622619D02*
X123977504Y-64622619D01*
X123977504Y-64622619D02*
X124072742Y-64670238D01*
X124072742Y-64670238D02*
X124120361Y-64717857D01*
X124120361Y-64717857D02*
X124167980Y-64813095D01*
X124167980Y-64813095D02*
X124167980Y-64908333D01*
X124167980Y-64908333D02*
X124120361Y-65003571D01*
X124120361Y-65003571D02*
X124072742Y-65051190D01*
X124072742Y-65051190D02*
X123977504Y-65098809D01*
X123977504Y-65098809D02*
X123644171Y-65098809D01*
X124787028Y-65622619D02*
X124691790Y-65575000D01*
X124691790Y-65575000D02*
X124644171Y-65527380D01*
X124644171Y-65527380D02*
X124596552Y-65432142D01*
X124596552Y-65432142D02*
X124596552Y-65146428D01*
X124596552Y-65146428D02*
X124644171Y-65051190D01*
X124644171Y-65051190D02*
X124691790Y-65003571D01*
X124691790Y-65003571D02*
X124787028Y-64955952D01*
X124787028Y-64955952D02*
X124929885Y-64955952D01*
X124929885Y-64955952D02*
X125025123Y-65003571D01*
X125025123Y-65003571D02*
X125072742Y-65051190D01*
X125072742Y-65051190D02*
X125120361Y-65146428D01*
X125120361Y-65146428D02*
X125120361Y-65432142D01*
X125120361Y-65432142D02*
X125072742Y-65527380D01*
X125072742Y-65527380D02*
X125025123Y-65575000D01*
X125025123Y-65575000D02*
X124929885Y-65622619D01*
X124929885Y-65622619D02*
X124787028Y-65622619D01*
X125977504Y-65622619D02*
X125977504Y-65098809D01*
X125977504Y-65098809D02*
X125929885Y-65003571D01*
X125929885Y-65003571D02*
X125834647Y-64955952D01*
X125834647Y-64955952D02*
X125644171Y-64955952D01*
X125644171Y-64955952D02*
X125548933Y-65003571D01*
X125977504Y-65575000D02*
X125882266Y-65622619D01*
X125882266Y-65622619D02*
X125644171Y-65622619D01*
X125644171Y-65622619D02*
X125548933Y-65575000D01*
X125548933Y-65575000D02*
X125501314Y-65479761D01*
X125501314Y-65479761D02*
X125501314Y-65384523D01*
X125501314Y-65384523D02*
X125548933Y-65289285D01*
X125548933Y-65289285D02*
X125644171Y-65241666D01*
X125644171Y-65241666D02*
X125882266Y-65241666D01*
X125882266Y-65241666D02*
X125977504Y-65194047D01*
X126453695Y-65622619D02*
X126453695Y-64955952D01*
X126453695Y-65146428D02*
X126501314Y-65051190D01*
X126501314Y-65051190D02*
X126548933Y-65003571D01*
X126548933Y-65003571D02*
X126644171Y-64955952D01*
X126644171Y-64955952D02*
X126739409Y-64955952D01*
X127501314Y-65622619D02*
X127501314Y-64622619D01*
X127501314Y-65575000D02*
X127406076Y-65622619D01*
X127406076Y-65622619D02*
X127215600Y-65622619D01*
X127215600Y-65622619D02*
X127120362Y-65575000D01*
X127120362Y-65575000D02*
X127072743Y-65527380D01*
X127072743Y-65527380D02*
X127025124Y-65432142D01*
X127025124Y-65432142D02*
X127025124Y-65146428D01*
X127025124Y-65146428D02*
X127072743Y-65051190D01*
X127072743Y-65051190D02*
X127120362Y-65003571D01*
X127120362Y-65003571D02*
X127215600Y-64955952D01*
X127215600Y-64955952D02*
X127406076Y-64955952D01*
X127406076Y-64955952D02*
X127501314Y-65003571D01*
X116916313Y-75271666D02*
X116868694Y-75366904D01*
X116868694Y-75366904D02*
X116868694Y-75509761D01*
X116868694Y-75509761D02*
X116916313Y-75652618D01*
X116916313Y-75652618D02*
X117011551Y-75747856D01*
X117011551Y-75747856D02*
X117106789Y-75795475D01*
X117106789Y-75795475D02*
X117297265Y-75843094D01*
X117297265Y-75843094D02*
X117440122Y-75843094D01*
X117440122Y-75843094D02*
X117630598Y-75795475D01*
X117630598Y-75795475D02*
X117725836Y-75747856D01*
X117725836Y-75747856D02*
X117821075Y-75652618D01*
X117821075Y-75652618D02*
X117868694Y-75509761D01*
X117868694Y-75509761D02*
X117868694Y-75414523D01*
X117868694Y-75414523D02*
X117821075Y-75271666D01*
X117821075Y-75271666D02*
X117773455Y-75224047D01*
X117773455Y-75224047D02*
X117440122Y-75224047D01*
X117440122Y-75224047D02*
X117440122Y-75414523D01*
X117392503Y-74604999D02*
X117868694Y-74604999D01*
X116868694Y-74938332D02*
X117392503Y-74604999D01*
X117392503Y-74604999D02*
X116868694Y-74271666D01*
X117868694Y-73366904D02*
X117392503Y-73700237D01*
X117868694Y-73938332D02*
X116868694Y-73938332D01*
X116868694Y-73938332D02*
X116868694Y-73557380D01*
X116868694Y-73557380D02*
X116916313Y-73462142D01*
X116916313Y-73462142D02*
X116963932Y-73414523D01*
X116963932Y-73414523D02*
X117059170Y-73366904D01*
X117059170Y-73366904D02*
X117202027Y-73366904D01*
X117202027Y-73366904D02*
X117297265Y-73414523D01*
X117297265Y-73414523D02*
X117344884Y-73462142D01*
X117344884Y-73462142D02*
X117392503Y-73557380D01*
X117392503Y-73557380D02*
X117392503Y-73938332D01*
X116868694Y-72747856D02*
X116868694Y-72557380D01*
X116868694Y-72557380D02*
X116916313Y-72462142D01*
X116916313Y-72462142D02*
X117011551Y-72366904D01*
X117011551Y-72366904D02*
X117202027Y-72319285D01*
X117202027Y-72319285D02*
X117535360Y-72319285D01*
X117535360Y-72319285D02*
X117725836Y-72366904D01*
X117725836Y-72366904D02*
X117821075Y-72462142D01*
X117821075Y-72462142D02*
X117868694Y-72557380D01*
X117868694Y-72557380D02*
X117868694Y-72747856D01*
X117868694Y-72747856D02*
X117821075Y-72843094D01*
X117821075Y-72843094D02*
X117725836Y-72938332D01*
X117725836Y-72938332D02*
X117535360Y-72985951D01*
X117535360Y-72985951D02*
X117202027Y-72985951D01*
X117202027Y-72985951D02*
X117011551Y-72938332D01*
X117011551Y-72938332D02*
X116916313Y-72843094D01*
X116916313Y-72843094D02*
X116868694Y-72747856D01*
X116963932Y-71938332D02*
X116916313Y-71890713D01*
X116916313Y-71890713D02*
X116868694Y-71795475D01*
X116868694Y-71795475D02*
X116868694Y-71557380D01*
X116868694Y-71557380D02*
X116916313Y-71462142D01*
X116916313Y-71462142D02*
X116963932Y-71414523D01*
X116963932Y-71414523D02*
X117059170Y-71366904D01*
X117059170Y-71366904D02*
X117154408Y-71366904D01*
X117154408Y-71366904D02*
X117297265Y-71414523D01*
X117297265Y-71414523D02*
X117868694Y-71985951D01*
X117868694Y-71985951D02*
X117868694Y-71366904D01*
%TO.C,LS4*%
X137255713Y-66872619D02*
X136779523Y-66872619D01*
X136779523Y-66872619D02*
X136779523Y-65872619D01*
X137589047Y-66872619D02*
X137589047Y-66205952D01*
X137589047Y-65872619D02*
X137541428Y-65920238D01*
X137541428Y-65920238D02*
X137589047Y-65967857D01*
X137589047Y-65967857D02*
X137636666Y-65920238D01*
X137636666Y-65920238D02*
X137589047Y-65872619D01*
X137589047Y-65872619D02*
X137589047Y-65967857D01*
X138065237Y-66205952D02*
X138065237Y-66872619D01*
X138065237Y-66301190D02*
X138112856Y-66253571D01*
X138112856Y-66253571D02*
X138208094Y-66205952D01*
X138208094Y-66205952D02*
X138350951Y-66205952D01*
X138350951Y-66205952D02*
X138446189Y-66253571D01*
X138446189Y-66253571D02*
X138493808Y-66348809D01*
X138493808Y-66348809D02*
X138493808Y-66872619D01*
X139350951Y-66825000D02*
X139255713Y-66872619D01*
X139255713Y-66872619D02*
X139065237Y-66872619D01*
X139065237Y-66872619D02*
X138969999Y-66825000D01*
X138969999Y-66825000D02*
X138922380Y-66729761D01*
X138922380Y-66729761D02*
X138922380Y-66348809D01*
X138922380Y-66348809D02*
X138969999Y-66253571D01*
X138969999Y-66253571D02*
X139065237Y-66205952D01*
X139065237Y-66205952D02*
X139255713Y-66205952D01*
X139255713Y-66205952D02*
X139350951Y-66253571D01*
X139350951Y-66253571D02*
X139398570Y-66348809D01*
X139398570Y-66348809D02*
X139398570Y-66444047D01*
X139398570Y-66444047D02*
X138922380Y-66539285D01*
X139589047Y-66967857D02*
X140350951Y-66967857D01*
X140541428Y-66825000D02*
X140684285Y-66872619D01*
X140684285Y-66872619D02*
X140922380Y-66872619D01*
X140922380Y-66872619D02*
X141017618Y-66825000D01*
X141017618Y-66825000D02*
X141065237Y-66777380D01*
X141065237Y-66777380D02*
X141112856Y-66682142D01*
X141112856Y-66682142D02*
X141112856Y-66586904D01*
X141112856Y-66586904D02*
X141065237Y-66491666D01*
X141065237Y-66491666D02*
X141017618Y-66444047D01*
X141017618Y-66444047D02*
X140922380Y-66396428D01*
X140922380Y-66396428D02*
X140731904Y-66348809D01*
X140731904Y-66348809D02*
X140636666Y-66301190D01*
X140636666Y-66301190D02*
X140589047Y-66253571D01*
X140589047Y-66253571D02*
X140541428Y-66158333D01*
X140541428Y-66158333D02*
X140541428Y-66063095D01*
X140541428Y-66063095D02*
X140589047Y-65967857D01*
X140589047Y-65967857D02*
X140636666Y-65920238D01*
X140636666Y-65920238D02*
X140731904Y-65872619D01*
X140731904Y-65872619D02*
X140969999Y-65872619D01*
X140969999Y-65872619D02*
X141112856Y-65920238D01*
X141922380Y-66825000D02*
X141827142Y-66872619D01*
X141827142Y-66872619D02*
X141636666Y-66872619D01*
X141636666Y-66872619D02*
X141541428Y-66825000D01*
X141541428Y-66825000D02*
X141493809Y-66729761D01*
X141493809Y-66729761D02*
X141493809Y-66348809D01*
X141493809Y-66348809D02*
X141541428Y-66253571D01*
X141541428Y-66253571D02*
X141636666Y-66205952D01*
X141636666Y-66205952D02*
X141827142Y-66205952D01*
X141827142Y-66205952D02*
X141922380Y-66253571D01*
X141922380Y-66253571D02*
X141969999Y-66348809D01*
X141969999Y-66348809D02*
X141969999Y-66444047D01*
X141969999Y-66444047D02*
X141493809Y-66539285D01*
X142398571Y-66205952D02*
X142398571Y-66872619D01*
X142398571Y-66301190D02*
X142446190Y-66253571D01*
X142446190Y-66253571D02*
X142541428Y-66205952D01*
X142541428Y-66205952D02*
X142684285Y-66205952D01*
X142684285Y-66205952D02*
X142779523Y-66253571D01*
X142779523Y-66253571D02*
X142827142Y-66348809D01*
X142827142Y-66348809D02*
X142827142Y-66872619D01*
X143255714Y-66825000D02*
X143350952Y-66872619D01*
X143350952Y-66872619D02*
X143541428Y-66872619D01*
X143541428Y-66872619D02*
X143636666Y-66825000D01*
X143636666Y-66825000D02*
X143684285Y-66729761D01*
X143684285Y-66729761D02*
X143684285Y-66682142D01*
X143684285Y-66682142D02*
X143636666Y-66586904D01*
X143636666Y-66586904D02*
X143541428Y-66539285D01*
X143541428Y-66539285D02*
X143398571Y-66539285D01*
X143398571Y-66539285D02*
X143303333Y-66491666D01*
X143303333Y-66491666D02*
X143255714Y-66396428D01*
X143255714Y-66396428D02*
X143255714Y-66348809D01*
X143255714Y-66348809D02*
X143303333Y-66253571D01*
X143303333Y-66253571D02*
X143398571Y-66205952D01*
X143398571Y-66205952D02*
X143541428Y-66205952D01*
X143541428Y-66205952D02*
X143636666Y-66253571D01*
X144255714Y-66872619D02*
X144160476Y-66825000D01*
X144160476Y-66825000D02*
X144112857Y-66777380D01*
X144112857Y-66777380D02*
X144065238Y-66682142D01*
X144065238Y-66682142D02*
X144065238Y-66396428D01*
X144065238Y-66396428D02*
X144112857Y-66301190D01*
X144112857Y-66301190D02*
X144160476Y-66253571D01*
X144160476Y-66253571D02*
X144255714Y-66205952D01*
X144255714Y-66205952D02*
X144398571Y-66205952D01*
X144398571Y-66205952D02*
X144493809Y-66253571D01*
X144493809Y-66253571D02*
X144541428Y-66301190D01*
X144541428Y-66301190D02*
X144589047Y-66396428D01*
X144589047Y-66396428D02*
X144589047Y-66682142D01*
X144589047Y-66682142D02*
X144541428Y-66777380D01*
X144541428Y-66777380D02*
X144493809Y-66825000D01*
X144493809Y-66825000D02*
X144398571Y-66872619D01*
X144398571Y-66872619D02*
X144255714Y-66872619D01*
X145017619Y-66872619D02*
X145017619Y-66205952D01*
X145017619Y-66396428D02*
X145065238Y-66301190D01*
X145065238Y-66301190D02*
X145112857Y-66253571D01*
X145112857Y-66253571D02*
X145208095Y-66205952D01*
X145208095Y-66205952D02*
X145303333Y-66205952D01*
X140327142Y-68772619D02*
X139850952Y-68772619D01*
X139850952Y-68772619D02*
X139850952Y-67772619D01*
X140612857Y-68725000D02*
X140755714Y-68772619D01*
X140755714Y-68772619D02*
X140993809Y-68772619D01*
X140993809Y-68772619D02*
X141089047Y-68725000D01*
X141089047Y-68725000D02*
X141136666Y-68677380D01*
X141136666Y-68677380D02*
X141184285Y-68582142D01*
X141184285Y-68582142D02*
X141184285Y-68486904D01*
X141184285Y-68486904D02*
X141136666Y-68391666D01*
X141136666Y-68391666D02*
X141089047Y-68344047D01*
X141089047Y-68344047D02*
X140993809Y-68296428D01*
X140993809Y-68296428D02*
X140803333Y-68248809D01*
X140803333Y-68248809D02*
X140708095Y-68201190D01*
X140708095Y-68201190D02*
X140660476Y-68153571D01*
X140660476Y-68153571D02*
X140612857Y-68058333D01*
X140612857Y-68058333D02*
X140612857Y-67963095D01*
X140612857Y-67963095D02*
X140660476Y-67867857D01*
X140660476Y-67867857D02*
X140708095Y-67820238D01*
X140708095Y-67820238D02*
X140803333Y-67772619D01*
X140803333Y-67772619D02*
X141041428Y-67772619D01*
X141041428Y-67772619D02*
X141184285Y-67820238D01*
X142041428Y-68105952D02*
X142041428Y-68772619D01*
X141803333Y-67725000D02*
X141565238Y-68439285D01*
X141565238Y-68439285D02*
X142184285Y-68439285D01*
%TO.C,PS6*%
X179468095Y-65745619D02*
X179658571Y-65745619D01*
X179658571Y-65745619D02*
X179753809Y-65793238D01*
X179753809Y-65793238D02*
X179849047Y-65888476D01*
X179849047Y-65888476D02*
X179896666Y-66078952D01*
X179896666Y-66078952D02*
X179896666Y-66412285D01*
X179896666Y-66412285D02*
X179849047Y-66602761D01*
X179849047Y-66602761D02*
X179753809Y-66698000D01*
X179753809Y-66698000D02*
X179658571Y-66745619D01*
X179658571Y-66745619D02*
X179468095Y-66745619D01*
X179468095Y-66745619D02*
X179372857Y-66698000D01*
X179372857Y-66698000D02*
X179277619Y-66602761D01*
X179277619Y-66602761D02*
X179230000Y-66412285D01*
X179230000Y-66412285D02*
X179230000Y-66078952D01*
X179230000Y-66078952D02*
X179277619Y-65888476D01*
X179277619Y-65888476D02*
X179372857Y-65793238D01*
X179372857Y-65793238D02*
X179468095Y-65745619D01*
X180325238Y-66745619D02*
X180325238Y-66078952D01*
X180325238Y-66174190D02*
X180372857Y-66126571D01*
X180372857Y-66126571D02*
X180468095Y-66078952D01*
X180468095Y-66078952D02*
X180610952Y-66078952D01*
X180610952Y-66078952D02*
X180706190Y-66126571D01*
X180706190Y-66126571D02*
X180753809Y-66221809D01*
X180753809Y-66221809D02*
X180753809Y-66745619D01*
X180753809Y-66221809D02*
X180801428Y-66126571D01*
X180801428Y-66126571D02*
X180896666Y-66078952D01*
X180896666Y-66078952D02*
X181039523Y-66078952D01*
X181039523Y-66078952D02*
X181134762Y-66126571D01*
X181134762Y-66126571D02*
X181182381Y-66221809D01*
X181182381Y-66221809D02*
X181182381Y-66745619D01*
X181658571Y-66745619D02*
X181658571Y-66078952D01*
X181658571Y-66269428D02*
X181706190Y-66174190D01*
X181706190Y-66174190D02*
X181753809Y-66126571D01*
X181753809Y-66126571D02*
X181849047Y-66078952D01*
X181849047Y-66078952D02*
X181944285Y-66078952D01*
X182420476Y-66745619D02*
X182325238Y-66698000D01*
X182325238Y-66698000D02*
X182277619Y-66650380D01*
X182277619Y-66650380D02*
X182230000Y-66555142D01*
X182230000Y-66555142D02*
X182230000Y-66269428D01*
X182230000Y-66269428D02*
X182277619Y-66174190D01*
X182277619Y-66174190D02*
X182325238Y-66126571D01*
X182325238Y-66126571D02*
X182420476Y-66078952D01*
X182420476Y-66078952D02*
X182563333Y-66078952D01*
X182563333Y-66078952D02*
X182658571Y-66126571D01*
X182658571Y-66126571D02*
X182706190Y-66174190D01*
X182706190Y-66174190D02*
X182753809Y-66269428D01*
X182753809Y-66269428D02*
X182753809Y-66555142D01*
X182753809Y-66555142D02*
X182706190Y-66650380D01*
X182706190Y-66650380D02*
X182658571Y-66698000D01*
X182658571Y-66698000D02*
X182563333Y-66745619D01*
X182563333Y-66745619D02*
X182420476Y-66745619D01*
X183182381Y-66078952D02*
X183182381Y-66745619D01*
X183182381Y-66174190D02*
X183230000Y-66126571D01*
X183230000Y-66126571D02*
X183325238Y-66078952D01*
X183325238Y-66078952D02*
X183468095Y-66078952D01*
X183468095Y-66078952D02*
X183563333Y-66126571D01*
X183563333Y-66126571D02*
X183610952Y-66221809D01*
X183610952Y-66221809D02*
X183610952Y-66745619D01*
X183849048Y-66840857D02*
X184610952Y-66840857D01*
X184849048Y-66221809D02*
X185182381Y-66221809D01*
X185325238Y-66745619D02*
X184849048Y-66745619D01*
X184849048Y-66745619D02*
X184849048Y-65745619D01*
X184849048Y-65745619D02*
X185325238Y-65745619D01*
X185658572Y-65745619D02*
X186277619Y-65745619D01*
X186277619Y-65745619D02*
X185944286Y-66126571D01*
X185944286Y-66126571D02*
X186087143Y-66126571D01*
X186087143Y-66126571D02*
X186182381Y-66174190D01*
X186182381Y-66174190D02*
X186230000Y-66221809D01*
X186230000Y-66221809D02*
X186277619Y-66317047D01*
X186277619Y-66317047D02*
X186277619Y-66555142D01*
X186277619Y-66555142D02*
X186230000Y-66650380D01*
X186230000Y-66650380D02*
X186182381Y-66698000D01*
X186182381Y-66698000D02*
X186087143Y-66745619D01*
X186087143Y-66745619D02*
X185801429Y-66745619D01*
X185801429Y-66745619D02*
X185706191Y-66698000D01*
X185706191Y-66698000D02*
X185658572Y-66650380D01*
X186610953Y-65745619D02*
X187277619Y-65745619D01*
X187277619Y-65745619D02*
X186610953Y-66745619D01*
X186610953Y-66745619D02*
X187277619Y-66745619D01*
X187658572Y-66364666D02*
X188420477Y-66364666D01*
X188896667Y-66745619D02*
X188896667Y-65745619D01*
X188896667Y-65745619D02*
X189134762Y-65745619D01*
X189134762Y-65745619D02*
X189277619Y-65793238D01*
X189277619Y-65793238D02*
X189372857Y-65888476D01*
X189372857Y-65888476D02*
X189420476Y-65983714D01*
X189420476Y-65983714D02*
X189468095Y-66174190D01*
X189468095Y-66174190D02*
X189468095Y-66317047D01*
X189468095Y-66317047D02*
X189420476Y-66507523D01*
X189420476Y-66507523D02*
X189372857Y-66602761D01*
X189372857Y-66602761D02*
X189277619Y-66698000D01*
X189277619Y-66698000D02*
X189134762Y-66745619D01*
X189134762Y-66745619D02*
X188896667Y-66745619D01*
X190325238Y-65745619D02*
X190134762Y-65745619D01*
X190134762Y-65745619D02*
X190039524Y-65793238D01*
X190039524Y-65793238D02*
X189991905Y-65840857D01*
X189991905Y-65840857D02*
X189896667Y-65983714D01*
X189896667Y-65983714D02*
X189849048Y-66174190D01*
X189849048Y-66174190D02*
X189849048Y-66555142D01*
X189849048Y-66555142D02*
X189896667Y-66650380D01*
X189896667Y-66650380D02*
X189944286Y-66698000D01*
X189944286Y-66698000D02*
X190039524Y-66745619D01*
X190039524Y-66745619D02*
X190230000Y-66745619D01*
X190230000Y-66745619D02*
X190325238Y-66698000D01*
X190325238Y-66698000D02*
X190372857Y-66650380D01*
X190372857Y-66650380D02*
X190420476Y-66555142D01*
X190420476Y-66555142D02*
X190420476Y-66317047D01*
X190420476Y-66317047D02*
X190372857Y-66221809D01*
X190372857Y-66221809D02*
X190325238Y-66174190D01*
X190325238Y-66174190D02*
X190230000Y-66126571D01*
X190230000Y-66126571D02*
X190039524Y-66126571D01*
X190039524Y-66126571D02*
X189944286Y-66174190D01*
X189944286Y-66174190D02*
X189896667Y-66221809D01*
X189896667Y-66221809D02*
X189849048Y-66317047D01*
X190801429Y-65840857D02*
X190849048Y-65793238D01*
X190849048Y-65793238D02*
X190944286Y-65745619D01*
X190944286Y-65745619D02*
X191182381Y-65745619D01*
X191182381Y-65745619D02*
X191277619Y-65793238D01*
X191277619Y-65793238D02*
X191325238Y-65840857D01*
X191325238Y-65840857D02*
X191372857Y-65936095D01*
X191372857Y-65936095D02*
X191372857Y-66031333D01*
X191372857Y-66031333D02*
X191325238Y-66174190D01*
X191325238Y-66174190D02*
X190753810Y-66745619D01*
X190753810Y-66745619D02*
X191372857Y-66745619D01*
X191563334Y-66840857D02*
X192325238Y-66840857D01*
X192515715Y-65840857D02*
X192563334Y-65793238D01*
X192563334Y-65793238D02*
X192658572Y-65745619D01*
X192658572Y-65745619D02*
X192896667Y-65745619D01*
X192896667Y-65745619D02*
X192991905Y-65793238D01*
X192991905Y-65793238D02*
X193039524Y-65840857D01*
X193039524Y-65840857D02*
X193087143Y-65936095D01*
X193087143Y-65936095D02*
X193087143Y-66031333D01*
X193087143Y-66031333D02*
X193039524Y-66174190D01*
X193039524Y-66174190D02*
X192468096Y-66745619D01*
X192468096Y-66745619D02*
X193087143Y-66745619D01*
X193515715Y-66745619D02*
X193515715Y-65745619D01*
X193515715Y-65745619D02*
X193849048Y-66459904D01*
X193849048Y-66459904D02*
X194182381Y-65745619D01*
X194182381Y-65745619D02*
X194182381Y-66745619D01*
X185515714Y-68645619D02*
X185515714Y-67645619D01*
X185515714Y-67645619D02*
X185896666Y-67645619D01*
X185896666Y-67645619D02*
X185991904Y-67693238D01*
X185991904Y-67693238D02*
X186039523Y-67740857D01*
X186039523Y-67740857D02*
X186087142Y-67836095D01*
X186087142Y-67836095D02*
X186087142Y-67978952D01*
X186087142Y-67978952D02*
X186039523Y-68074190D01*
X186039523Y-68074190D02*
X185991904Y-68121809D01*
X185991904Y-68121809D02*
X185896666Y-68169428D01*
X185896666Y-68169428D02*
X185515714Y-68169428D01*
X186468095Y-68598000D02*
X186610952Y-68645619D01*
X186610952Y-68645619D02*
X186849047Y-68645619D01*
X186849047Y-68645619D02*
X186944285Y-68598000D01*
X186944285Y-68598000D02*
X186991904Y-68550380D01*
X186991904Y-68550380D02*
X187039523Y-68455142D01*
X187039523Y-68455142D02*
X187039523Y-68359904D01*
X187039523Y-68359904D02*
X186991904Y-68264666D01*
X186991904Y-68264666D02*
X186944285Y-68217047D01*
X186944285Y-68217047D02*
X186849047Y-68169428D01*
X186849047Y-68169428D02*
X186658571Y-68121809D01*
X186658571Y-68121809D02*
X186563333Y-68074190D01*
X186563333Y-68074190D02*
X186515714Y-68026571D01*
X186515714Y-68026571D02*
X186468095Y-67931333D01*
X186468095Y-67931333D02*
X186468095Y-67836095D01*
X186468095Y-67836095D02*
X186515714Y-67740857D01*
X186515714Y-67740857D02*
X186563333Y-67693238D01*
X186563333Y-67693238D02*
X186658571Y-67645619D01*
X186658571Y-67645619D02*
X186896666Y-67645619D01*
X186896666Y-67645619D02*
X187039523Y-67693238D01*
X187896666Y-67645619D02*
X187706190Y-67645619D01*
X187706190Y-67645619D02*
X187610952Y-67693238D01*
X187610952Y-67693238D02*
X187563333Y-67740857D01*
X187563333Y-67740857D02*
X187468095Y-67883714D01*
X187468095Y-67883714D02*
X187420476Y-68074190D01*
X187420476Y-68074190D02*
X187420476Y-68455142D01*
X187420476Y-68455142D02*
X187468095Y-68550380D01*
X187468095Y-68550380D02*
X187515714Y-68598000D01*
X187515714Y-68598000D02*
X187610952Y-68645619D01*
X187610952Y-68645619D02*
X187801428Y-68645619D01*
X187801428Y-68645619D02*
X187896666Y-68598000D01*
X187896666Y-68598000D02*
X187944285Y-68550380D01*
X187944285Y-68550380D02*
X187991904Y-68455142D01*
X187991904Y-68455142D02*
X187991904Y-68217047D01*
X187991904Y-68217047D02*
X187944285Y-68121809D01*
X187944285Y-68121809D02*
X187896666Y-68074190D01*
X187896666Y-68074190D02*
X187801428Y-68026571D01*
X187801428Y-68026571D02*
X187610952Y-68026571D01*
X187610952Y-68026571D02*
X187515714Y-68074190D01*
X187515714Y-68074190D02*
X187468095Y-68121809D01*
X187468095Y-68121809D02*
X187420476Y-68217047D01*
%TO.C,REF\u002A\u002A*%
X113855666Y-116667619D02*
X113522333Y-116191428D01*
X113284238Y-116667619D02*
X113284238Y-115667619D01*
X113284238Y-115667619D02*
X113665190Y-115667619D01*
X113665190Y-115667619D02*
X113760428Y-115715238D01*
X113760428Y-115715238D02*
X113808047Y-115762857D01*
X113808047Y-115762857D02*
X113855666Y-115858095D01*
X113855666Y-115858095D02*
X113855666Y-116000952D01*
X113855666Y-116000952D02*
X113808047Y-116096190D01*
X113808047Y-116096190D02*
X113760428Y-116143809D01*
X113760428Y-116143809D02*
X113665190Y-116191428D01*
X113665190Y-116191428D02*
X113284238Y-116191428D01*
X114284238Y-116143809D02*
X114617571Y-116143809D01*
X114760428Y-116667619D02*
X114284238Y-116667619D01*
X114284238Y-116667619D02*
X114284238Y-115667619D01*
X114284238Y-115667619D02*
X114760428Y-115667619D01*
X115522333Y-116143809D02*
X115189000Y-116143809D01*
X115189000Y-116667619D02*
X115189000Y-115667619D01*
X115189000Y-115667619D02*
X115665190Y-115667619D01*
X116189000Y-115667619D02*
X116189000Y-115905714D01*
X115950905Y-115810476D02*
X116189000Y-115905714D01*
X116189000Y-115905714D02*
X116427095Y-115810476D01*
X116046143Y-116096190D02*
X116189000Y-115905714D01*
X116189000Y-115905714D02*
X116331857Y-116096190D01*
X116950905Y-115667619D02*
X116950905Y-115905714D01*
X116712810Y-115810476D02*
X116950905Y-115905714D01*
X116950905Y-115905714D02*
X117189000Y-115810476D01*
X116808048Y-116096190D02*
X116950905Y-115905714D01*
X116950905Y-115905714D02*
X117093762Y-116096190D01*
X189166666Y-63454619D02*
X188833333Y-62978428D01*
X188595238Y-63454619D02*
X188595238Y-62454619D01*
X188595238Y-62454619D02*
X188976190Y-62454619D01*
X188976190Y-62454619D02*
X189071428Y-62502238D01*
X189071428Y-62502238D02*
X189119047Y-62549857D01*
X189119047Y-62549857D02*
X189166666Y-62645095D01*
X189166666Y-62645095D02*
X189166666Y-62787952D01*
X189166666Y-62787952D02*
X189119047Y-62883190D01*
X189119047Y-62883190D02*
X189071428Y-62930809D01*
X189071428Y-62930809D02*
X188976190Y-62978428D01*
X188976190Y-62978428D02*
X188595238Y-62978428D01*
X189595238Y-62930809D02*
X189928571Y-62930809D01*
X190071428Y-63454619D02*
X189595238Y-63454619D01*
X189595238Y-63454619D02*
X189595238Y-62454619D01*
X189595238Y-62454619D02*
X190071428Y-62454619D01*
X190833333Y-62930809D02*
X190500000Y-62930809D01*
X190500000Y-63454619D02*
X190500000Y-62454619D01*
X190500000Y-62454619D02*
X190976190Y-62454619D01*
X191500000Y-62454619D02*
X191500000Y-62692714D01*
X191261905Y-62597476D02*
X191500000Y-62692714D01*
X191500000Y-62692714D02*
X191738095Y-62597476D01*
X191357143Y-62883190D02*
X191500000Y-62692714D01*
X191500000Y-62692714D02*
X191642857Y-62883190D01*
X192261905Y-62454619D02*
X192261905Y-62692714D01*
X192023810Y-62597476D02*
X192261905Y-62692714D01*
X192261905Y-62692714D02*
X192500000Y-62597476D01*
X192119048Y-62883190D02*
X192261905Y-62692714D01*
X192261905Y-62692714D02*
X192404762Y-62883190D01*
%TO.C,PS8*%
X120505619Y-109345857D02*
X119981809Y-109345857D01*
X119981809Y-109345857D02*
X119886571Y-109393476D01*
X119886571Y-109393476D02*
X119838952Y-109488714D01*
X119838952Y-109488714D02*
X119838952Y-109679190D01*
X119838952Y-109679190D02*
X119886571Y-109774428D01*
X120458000Y-109345857D02*
X120505619Y-109441095D01*
X120505619Y-109441095D02*
X120505619Y-109679190D01*
X120505619Y-109679190D02*
X120458000Y-109774428D01*
X120458000Y-109774428D02*
X120362761Y-109822047D01*
X120362761Y-109822047D02*
X120267523Y-109822047D01*
X120267523Y-109822047D02*
X120172285Y-109774428D01*
X120172285Y-109774428D02*
X120124666Y-109679190D01*
X120124666Y-109679190D02*
X120124666Y-109441095D01*
X120124666Y-109441095D02*
X120077047Y-109345857D01*
X120505619Y-108726809D02*
X120458000Y-108822047D01*
X120458000Y-108822047D02*
X120362761Y-108869666D01*
X120362761Y-108869666D02*
X119505619Y-108869666D01*
X120505619Y-108345856D02*
X119838952Y-108345856D01*
X119505619Y-108345856D02*
X119553238Y-108393475D01*
X119553238Y-108393475D02*
X119600857Y-108345856D01*
X119600857Y-108345856D02*
X119553238Y-108298237D01*
X119553238Y-108298237D02*
X119505619Y-108345856D01*
X119505619Y-108345856D02*
X119600857Y-108345856D01*
X120505619Y-107869666D02*
X119838952Y-107869666D01*
X119934190Y-107869666D02*
X119886571Y-107822047D01*
X119886571Y-107822047D02*
X119838952Y-107726809D01*
X119838952Y-107726809D02*
X119838952Y-107583952D01*
X119838952Y-107583952D02*
X119886571Y-107488714D01*
X119886571Y-107488714D02*
X119981809Y-107441095D01*
X119981809Y-107441095D02*
X120505619Y-107441095D01*
X119981809Y-107441095D02*
X119886571Y-107393476D01*
X119886571Y-107393476D02*
X119838952Y-107298238D01*
X119838952Y-107298238D02*
X119838952Y-107155381D01*
X119838952Y-107155381D02*
X119886571Y-107060142D01*
X119886571Y-107060142D02*
X119981809Y-107012523D01*
X119981809Y-107012523D02*
X120505619Y-107012523D01*
X120458000Y-106155381D02*
X120505619Y-106250619D01*
X120505619Y-106250619D02*
X120505619Y-106441095D01*
X120505619Y-106441095D02*
X120458000Y-106536333D01*
X120458000Y-106536333D02*
X120362761Y-106583952D01*
X120362761Y-106583952D02*
X119981809Y-106583952D01*
X119981809Y-106583952D02*
X119886571Y-106536333D01*
X119886571Y-106536333D02*
X119838952Y-106441095D01*
X119838952Y-106441095D02*
X119838952Y-106250619D01*
X119838952Y-106250619D02*
X119886571Y-106155381D01*
X119886571Y-106155381D02*
X119981809Y-106107762D01*
X119981809Y-106107762D02*
X120077047Y-106107762D01*
X120077047Y-106107762D02*
X120172285Y-106583952D01*
X119838952Y-105679190D02*
X120505619Y-105679190D01*
X119934190Y-105679190D02*
X119886571Y-105631571D01*
X119886571Y-105631571D02*
X119838952Y-105536333D01*
X119838952Y-105536333D02*
X119838952Y-105393476D01*
X119838952Y-105393476D02*
X119886571Y-105298238D01*
X119886571Y-105298238D02*
X119981809Y-105250619D01*
X119981809Y-105250619D02*
X120505619Y-105250619D01*
X119838952Y-104917285D02*
X119838952Y-104536333D01*
X119505619Y-104774428D02*
X120362761Y-104774428D01*
X120362761Y-104774428D02*
X120458000Y-104726809D01*
X120458000Y-104726809D02*
X120505619Y-104631571D01*
X120505619Y-104631571D02*
X120505619Y-104536333D01*
X120505619Y-103774428D02*
X119981809Y-103774428D01*
X119981809Y-103774428D02*
X119886571Y-103822047D01*
X119886571Y-103822047D02*
X119838952Y-103917285D01*
X119838952Y-103917285D02*
X119838952Y-104107761D01*
X119838952Y-104107761D02*
X119886571Y-104202999D01*
X120458000Y-103774428D02*
X120505619Y-103869666D01*
X120505619Y-103869666D02*
X120505619Y-104107761D01*
X120505619Y-104107761D02*
X120458000Y-104202999D01*
X120458000Y-104202999D02*
X120362761Y-104250618D01*
X120362761Y-104250618D02*
X120267523Y-104250618D01*
X120267523Y-104250618D02*
X120172285Y-104202999D01*
X120172285Y-104202999D02*
X120124666Y-104107761D01*
X120124666Y-104107761D02*
X120124666Y-103869666D01*
X120124666Y-103869666D02*
X120077047Y-103774428D01*
X120458000Y-102869666D02*
X120505619Y-102964904D01*
X120505619Y-102964904D02*
X120505619Y-103155380D01*
X120505619Y-103155380D02*
X120458000Y-103250618D01*
X120458000Y-103250618D02*
X120410380Y-103298237D01*
X120410380Y-103298237D02*
X120315142Y-103345856D01*
X120315142Y-103345856D02*
X120029428Y-103345856D01*
X120029428Y-103345856D02*
X119934190Y-103298237D01*
X119934190Y-103298237D02*
X119886571Y-103250618D01*
X119886571Y-103250618D02*
X119838952Y-103155380D01*
X119838952Y-103155380D02*
X119838952Y-102964904D01*
X119838952Y-102964904D02*
X119886571Y-102869666D01*
X120505619Y-102441094D02*
X119838952Y-102441094D01*
X119505619Y-102441094D02*
X119553238Y-102488713D01*
X119553238Y-102488713D02*
X119600857Y-102441094D01*
X119600857Y-102441094D02*
X119553238Y-102393475D01*
X119553238Y-102393475D02*
X119505619Y-102441094D01*
X119505619Y-102441094D02*
X119600857Y-102441094D01*
X120505619Y-101822047D02*
X120458000Y-101917285D01*
X120458000Y-101917285D02*
X120410380Y-101964904D01*
X120410380Y-101964904D02*
X120315142Y-102012523D01*
X120315142Y-102012523D02*
X120029428Y-102012523D01*
X120029428Y-102012523D02*
X119934190Y-101964904D01*
X119934190Y-101964904D02*
X119886571Y-101917285D01*
X119886571Y-101917285D02*
X119838952Y-101822047D01*
X119838952Y-101822047D02*
X119838952Y-101679190D01*
X119838952Y-101679190D02*
X119886571Y-101583952D01*
X119886571Y-101583952D02*
X119934190Y-101536333D01*
X119934190Y-101536333D02*
X120029428Y-101488714D01*
X120029428Y-101488714D02*
X120315142Y-101488714D01*
X120315142Y-101488714D02*
X120410380Y-101536333D01*
X120410380Y-101536333D02*
X120458000Y-101583952D01*
X120458000Y-101583952D02*
X120505619Y-101679190D01*
X120505619Y-101679190D02*
X120505619Y-101822047D01*
X119838952Y-101060142D02*
X120505619Y-101060142D01*
X119934190Y-101060142D02*
X119886571Y-101012523D01*
X119886571Y-101012523D02*
X119838952Y-100917285D01*
X119838952Y-100917285D02*
X119838952Y-100774428D01*
X119838952Y-100774428D02*
X119886571Y-100679190D01*
X119886571Y-100679190D02*
X119981809Y-100631571D01*
X119981809Y-100631571D02*
X120505619Y-100631571D01*
X120600857Y-100393476D02*
X120600857Y-99631571D01*
X120505619Y-98964904D02*
X119505619Y-98964904D01*
X120458000Y-98964904D02*
X120505619Y-99060142D01*
X120505619Y-99060142D02*
X120505619Y-99250618D01*
X120505619Y-99250618D02*
X120458000Y-99345856D01*
X120458000Y-99345856D02*
X120410380Y-99393475D01*
X120410380Y-99393475D02*
X120315142Y-99441094D01*
X120315142Y-99441094D02*
X120029428Y-99441094D01*
X120029428Y-99441094D02*
X119934190Y-99393475D01*
X119934190Y-99393475D02*
X119886571Y-99345856D01*
X119886571Y-99345856D02*
X119838952Y-99250618D01*
X119838952Y-99250618D02*
X119838952Y-99060142D01*
X119838952Y-99060142D02*
X119886571Y-98964904D01*
X120505619Y-98488713D02*
X119838952Y-98488713D01*
X120029428Y-98488713D02*
X119934190Y-98441094D01*
X119934190Y-98441094D02*
X119886571Y-98393475D01*
X119886571Y-98393475D02*
X119838952Y-98298237D01*
X119838952Y-98298237D02*
X119838952Y-98202999D01*
X120505619Y-97869665D02*
X119838952Y-97869665D01*
X119505619Y-97869665D02*
X119553238Y-97917284D01*
X119553238Y-97917284D02*
X119600857Y-97869665D01*
X119600857Y-97869665D02*
X119553238Y-97822046D01*
X119553238Y-97822046D02*
X119505619Y-97869665D01*
X119505619Y-97869665D02*
X119600857Y-97869665D01*
X119838952Y-97488713D02*
X120505619Y-97250618D01*
X120505619Y-97250618D02*
X119838952Y-97012523D01*
X120458000Y-96250618D02*
X120505619Y-96345856D01*
X120505619Y-96345856D02*
X120505619Y-96536332D01*
X120505619Y-96536332D02*
X120458000Y-96631570D01*
X120458000Y-96631570D02*
X120362761Y-96679189D01*
X120362761Y-96679189D02*
X119981809Y-96679189D01*
X119981809Y-96679189D02*
X119886571Y-96631570D01*
X119886571Y-96631570D02*
X119838952Y-96536332D01*
X119838952Y-96536332D02*
X119838952Y-96345856D01*
X119838952Y-96345856D02*
X119886571Y-96250618D01*
X119886571Y-96250618D02*
X119981809Y-96202999D01*
X119981809Y-96202999D02*
X120077047Y-96202999D01*
X120077047Y-96202999D02*
X120172285Y-96679189D01*
X120505619Y-95774427D02*
X119838952Y-95774427D01*
X120029428Y-95774427D02*
X119934190Y-95726808D01*
X119934190Y-95726808D02*
X119886571Y-95679189D01*
X119886571Y-95679189D02*
X119838952Y-95583951D01*
X119838952Y-95583951D02*
X119838952Y-95488713D01*
X118605619Y-103917285D02*
X117605619Y-103917285D01*
X117605619Y-103917285D02*
X117605619Y-103536333D01*
X117605619Y-103536333D02*
X117653238Y-103441095D01*
X117653238Y-103441095D02*
X117700857Y-103393476D01*
X117700857Y-103393476D02*
X117796095Y-103345857D01*
X117796095Y-103345857D02*
X117938952Y-103345857D01*
X117938952Y-103345857D02*
X118034190Y-103393476D01*
X118034190Y-103393476D02*
X118081809Y-103441095D01*
X118081809Y-103441095D02*
X118129428Y-103536333D01*
X118129428Y-103536333D02*
X118129428Y-103917285D01*
X118558000Y-102964904D02*
X118605619Y-102822047D01*
X118605619Y-102822047D02*
X118605619Y-102583952D01*
X118605619Y-102583952D02*
X118558000Y-102488714D01*
X118558000Y-102488714D02*
X118510380Y-102441095D01*
X118510380Y-102441095D02*
X118415142Y-102393476D01*
X118415142Y-102393476D02*
X118319904Y-102393476D01*
X118319904Y-102393476D02*
X118224666Y-102441095D01*
X118224666Y-102441095D02*
X118177047Y-102488714D01*
X118177047Y-102488714D02*
X118129428Y-102583952D01*
X118129428Y-102583952D02*
X118081809Y-102774428D01*
X118081809Y-102774428D02*
X118034190Y-102869666D01*
X118034190Y-102869666D02*
X117986571Y-102917285D01*
X117986571Y-102917285D02*
X117891333Y-102964904D01*
X117891333Y-102964904D02*
X117796095Y-102964904D01*
X117796095Y-102964904D02*
X117700857Y-102917285D01*
X117700857Y-102917285D02*
X117653238Y-102869666D01*
X117653238Y-102869666D02*
X117605619Y-102774428D01*
X117605619Y-102774428D02*
X117605619Y-102536333D01*
X117605619Y-102536333D02*
X117653238Y-102393476D01*
X118034190Y-101822047D02*
X117986571Y-101917285D01*
X117986571Y-101917285D02*
X117938952Y-101964904D01*
X117938952Y-101964904D02*
X117843714Y-102012523D01*
X117843714Y-102012523D02*
X117796095Y-102012523D01*
X117796095Y-102012523D02*
X117700857Y-101964904D01*
X117700857Y-101964904D02*
X117653238Y-101917285D01*
X117653238Y-101917285D02*
X117605619Y-101822047D01*
X117605619Y-101822047D02*
X117605619Y-101631571D01*
X117605619Y-101631571D02*
X117653238Y-101536333D01*
X117653238Y-101536333D02*
X117700857Y-101488714D01*
X117700857Y-101488714D02*
X117796095Y-101441095D01*
X117796095Y-101441095D02*
X117843714Y-101441095D01*
X117843714Y-101441095D02*
X117938952Y-101488714D01*
X117938952Y-101488714D02*
X117986571Y-101536333D01*
X117986571Y-101536333D02*
X118034190Y-101631571D01*
X118034190Y-101631571D02*
X118034190Y-101822047D01*
X118034190Y-101822047D02*
X118081809Y-101917285D01*
X118081809Y-101917285D02*
X118129428Y-101964904D01*
X118129428Y-101964904D02*
X118224666Y-102012523D01*
X118224666Y-102012523D02*
X118415142Y-102012523D01*
X118415142Y-102012523D02*
X118510380Y-101964904D01*
X118510380Y-101964904D02*
X118558000Y-101917285D01*
X118558000Y-101917285D02*
X118605619Y-101822047D01*
X118605619Y-101822047D02*
X118605619Y-101631571D01*
X118605619Y-101631571D02*
X118558000Y-101536333D01*
X118558000Y-101536333D02*
X118510380Y-101488714D01*
X118510380Y-101488714D02*
X118415142Y-101441095D01*
X118415142Y-101441095D02*
X118224666Y-101441095D01*
X118224666Y-101441095D02*
X118129428Y-101488714D01*
X118129428Y-101488714D02*
X118081809Y-101536333D01*
X118081809Y-101536333D02*
X118034190Y-101631571D01*
%TO.C,PS7*%
X149280714Y-111747619D02*
X149280714Y-110747619D01*
X149280714Y-110747619D02*
X149661666Y-110747619D01*
X149661666Y-110747619D02*
X149756904Y-110795238D01*
X149756904Y-110795238D02*
X149804523Y-110842857D01*
X149804523Y-110842857D02*
X149852142Y-110938095D01*
X149852142Y-110938095D02*
X149852142Y-111080952D01*
X149852142Y-111080952D02*
X149804523Y-111176190D01*
X149804523Y-111176190D02*
X149756904Y-111223809D01*
X149756904Y-111223809D02*
X149661666Y-111271428D01*
X149661666Y-111271428D02*
X149280714Y-111271428D01*
X150233095Y-111700000D02*
X150375952Y-111747619D01*
X150375952Y-111747619D02*
X150614047Y-111747619D01*
X150614047Y-111747619D02*
X150709285Y-111700000D01*
X150709285Y-111700000D02*
X150756904Y-111652380D01*
X150756904Y-111652380D02*
X150804523Y-111557142D01*
X150804523Y-111557142D02*
X150804523Y-111461904D01*
X150804523Y-111461904D02*
X150756904Y-111366666D01*
X150756904Y-111366666D02*
X150709285Y-111319047D01*
X150709285Y-111319047D02*
X150614047Y-111271428D01*
X150614047Y-111271428D02*
X150423571Y-111223809D01*
X150423571Y-111223809D02*
X150328333Y-111176190D01*
X150328333Y-111176190D02*
X150280714Y-111128571D01*
X150280714Y-111128571D02*
X150233095Y-111033333D01*
X150233095Y-111033333D02*
X150233095Y-110938095D01*
X150233095Y-110938095D02*
X150280714Y-110842857D01*
X150280714Y-110842857D02*
X150328333Y-110795238D01*
X150328333Y-110795238D02*
X150423571Y-110747619D01*
X150423571Y-110747619D02*
X150661666Y-110747619D01*
X150661666Y-110747619D02*
X150804523Y-110795238D01*
X151137857Y-110747619D02*
X151804523Y-110747619D01*
X151804523Y-110747619D02*
X151375952Y-111747619D01*
%TO.C,PS2*%
X166053095Y-104717619D02*
X166243571Y-104717619D01*
X166243571Y-104717619D02*
X166338809Y-104765238D01*
X166338809Y-104765238D02*
X166434047Y-104860476D01*
X166434047Y-104860476D02*
X166481666Y-105050952D01*
X166481666Y-105050952D02*
X166481666Y-105384285D01*
X166481666Y-105384285D02*
X166434047Y-105574761D01*
X166434047Y-105574761D02*
X166338809Y-105670000D01*
X166338809Y-105670000D02*
X166243571Y-105717619D01*
X166243571Y-105717619D02*
X166053095Y-105717619D01*
X166053095Y-105717619D02*
X165957857Y-105670000D01*
X165957857Y-105670000D02*
X165862619Y-105574761D01*
X165862619Y-105574761D02*
X165815000Y-105384285D01*
X165815000Y-105384285D02*
X165815000Y-105050952D01*
X165815000Y-105050952D02*
X165862619Y-104860476D01*
X165862619Y-104860476D02*
X165957857Y-104765238D01*
X165957857Y-104765238D02*
X166053095Y-104717619D01*
X166910238Y-105717619D02*
X166910238Y-105050952D01*
X166910238Y-105146190D02*
X166957857Y-105098571D01*
X166957857Y-105098571D02*
X167053095Y-105050952D01*
X167053095Y-105050952D02*
X167195952Y-105050952D01*
X167195952Y-105050952D02*
X167291190Y-105098571D01*
X167291190Y-105098571D02*
X167338809Y-105193809D01*
X167338809Y-105193809D02*
X167338809Y-105717619D01*
X167338809Y-105193809D02*
X167386428Y-105098571D01*
X167386428Y-105098571D02*
X167481666Y-105050952D01*
X167481666Y-105050952D02*
X167624523Y-105050952D01*
X167624523Y-105050952D02*
X167719762Y-105098571D01*
X167719762Y-105098571D02*
X167767381Y-105193809D01*
X167767381Y-105193809D02*
X167767381Y-105717619D01*
X168243571Y-105717619D02*
X168243571Y-105050952D01*
X168243571Y-105241428D02*
X168291190Y-105146190D01*
X168291190Y-105146190D02*
X168338809Y-105098571D01*
X168338809Y-105098571D02*
X168434047Y-105050952D01*
X168434047Y-105050952D02*
X168529285Y-105050952D01*
X169005476Y-105717619D02*
X168910238Y-105670000D01*
X168910238Y-105670000D02*
X168862619Y-105622380D01*
X168862619Y-105622380D02*
X168815000Y-105527142D01*
X168815000Y-105527142D02*
X168815000Y-105241428D01*
X168815000Y-105241428D02*
X168862619Y-105146190D01*
X168862619Y-105146190D02*
X168910238Y-105098571D01*
X168910238Y-105098571D02*
X169005476Y-105050952D01*
X169005476Y-105050952D02*
X169148333Y-105050952D01*
X169148333Y-105050952D02*
X169243571Y-105098571D01*
X169243571Y-105098571D02*
X169291190Y-105146190D01*
X169291190Y-105146190D02*
X169338809Y-105241428D01*
X169338809Y-105241428D02*
X169338809Y-105527142D01*
X169338809Y-105527142D02*
X169291190Y-105622380D01*
X169291190Y-105622380D02*
X169243571Y-105670000D01*
X169243571Y-105670000D02*
X169148333Y-105717619D01*
X169148333Y-105717619D02*
X169005476Y-105717619D01*
X169767381Y-105050952D02*
X169767381Y-105717619D01*
X169767381Y-105146190D02*
X169815000Y-105098571D01*
X169815000Y-105098571D02*
X169910238Y-105050952D01*
X169910238Y-105050952D02*
X170053095Y-105050952D01*
X170053095Y-105050952D02*
X170148333Y-105098571D01*
X170148333Y-105098571D02*
X170195952Y-105193809D01*
X170195952Y-105193809D02*
X170195952Y-105717619D01*
X170434048Y-105812857D02*
X171195952Y-105812857D01*
X171434048Y-105193809D02*
X171767381Y-105193809D01*
X171910238Y-105717619D02*
X171434048Y-105717619D01*
X171434048Y-105717619D02*
X171434048Y-104717619D01*
X171434048Y-104717619D02*
X171910238Y-104717619D01*
X172243572Y-104717619D02*
X172862619Y-104717619D01*
X172862619Y-104717619D02*
X172529286Y-105098571D01*
X172529286Y-105098571D02*
X172672143Y-105098571D01*
X172672143Y-105098571D02*
X172767381Y-105146190D01*
X172767381Y-105146190D02*
X172815000Y-105193809D01*
X172815000Y-105193809D02*
X172862619Y-105289047D01*
X172862619Y-105289047D02*
X172862619Y-105527142D01*
X172862619Y-105527142D02*
X172815000Y-105622380D01*
X172815000Y-105622380D02*
X172767381Y-105670000D01*
X172767381Y-105670000D02*
X172672143Y-105717619D01*
X172672143Y-105717619D02*
X172386429Y-105717619D01*
X172386429Y-105717619D02*
X172291191Y-105670000D01*
X172291191Y-105670000D02*
X172243572Y-105622380D01*
X173195953Y-104717619D02*
X173862619Y-104717619D01*
X173862619Y-104717619D02*
X173195953Y-105717619D01*
X173195953Y-105717619D02*
X173862619Y-105717619D01*
X174243572Y-105336666D02*
X175005477Y-105336666D01*
X175481667Y-105717619D02*
X175481667Y-104717619D01*
X175481667Y-104717619D02*
X175719762Y-104717619D01*
X175719762Y-104717619D02*
X175862619Y-104765238D01*
X175862619Y-104765238D02*
X175957857Y-104860476D01*
X175957857Y-104860476D02*
X176005476Y-104955714D01*
X176005476Y-104955714D02*
X176053095Y-105146190D01*
X176053095Y-105146190D02*
X176053095Y-105289047D01*
X176053095Y-105289047D02*
X176005476Y-105479523D01*
X176005476Y-105479523D02*
X175957857Y-105574761D01*
X175957857Y-105574761D02*
X175862619Y-105670000D01*
X175862619Y-105670000D02*
X175719762Y-105717619D01*
X175719762Y-105717619D02*
X175481667Y-105717619D01*
X176910238Y-104717619D02*
X176719762Y-104717619D01*
X176719762Y-104717619D02*
X176624524Y-104765238D01*
X176624524Y-104765238D02*
X176576905Y-104812857D01*
X176576905Y-104812857D02*
X176481667Y-104955714D01*
X176481667Y-104955714D02*
X176434048Y-105146190D01*
X176434048Y-105146190D02*
X176434048Y-105527142D01*
X176434048Y-105527142D02*
X176481667Y-105622380D01*
X176481667Y-105622380D02*
X176529286Y-105670000D01*
X176529286Y-105670000D02*
X176624524Y-105717619D01*
X176624524Y-105717619D02*
X176815000Y-105717619D01*
X176815000Y-105717619D02*
X176910238Y-105670000D01*
X176910238Y-105670000D02*
X176957857Y-105622380D01*
X176957857Y-105622380D02*
X177005476Y-105527142D01*
X177005476Y-105527142D02*
X177005476Y-105289047D01*
X177005476Y-105289047D02*
X176957857Y-105193809D01*
X176957857Y-105193809D02*
X176910238Y-105146190D01*
X176910238Y-105146190D02*
X176815000Y-105098571D01*
X176815000Y-105098571D02*
X176624524Y-105098571D01*
X176624524Y-105098571D02*
X176529286Y-105146190D01*
X176529286Y-105146190D02*
X176481667Y-105193809D01*
X176481667Y-105193809D02*
X176434048Y-105289047D01*
X177386429Y-104812857D02*
X177434048Y-104765238D01*
X177434048Y-104765238D02*
X177529286Y-104717619D01*
X177529286Y-104717619D02*
X177767381Y-104717619D01*
X177767381Y-104717619D02*
X177862619Y-104765238D01*
X177862619Y-104765238D02*
X177910238Y-104812857D01*
X177910238Y-104812857D02*
X177957857Y-104908095D01*
X177957857Y-104908095D02*
X177957857Y-105003333D01*
X177957857Y-105003333D02*
X177910238Y-105146190D01*
X177910238Y-105146190D02*
X177338810Y-105717619D01*
X177338810Y-105717619D02*
X177957857Y-105717619D01*
X178148334Y-105812857D02*
X178910238Y-105812857D01*
X179100715Y-104812857D02*
X179148334Y-104765238D01*
X179148334Y-104765238D02*
X179243572Y-104717619D01*
X179243572Y-104717619D02*
X179481667Y-104717619D01*
X179481667Y-104717619D02*
X179576905Y-104765238D01*
X179576905Y-104765238D02*
X179624524Y-104812857D01*
X179624524Y-104812857D02*
X179672143Y-104908095D01*
X179672143Y-104908095D02*
X179672143Y-105003333D01*
X179672143Y-105003333D02*
X179624524Y-105146190D01*
X179624524Y-105146190D02*
X179053096Y-105717619D01*
X179053096Y-105717619D02*
X179672143Y-105717619D01*
X180100715Y-105717619D02*
X180100715Y-104717619D01*
X180100715Y-104717619D02*
X180434048Y-105431904D01*
X180434048Y-105431904D02*
X180767381Y-104717619D01*
X180767381Y-104717619D02*
X180767381Y-105717619D01*
X172100714Y-107617619D02*
X172100714Y-106617619D01*
X172100714Y-106617619D02*
X172481666Y-106617619D01*
X172481666Y-106617619D02*
X172576904Y-106665238D01*
X172576904Y-106665238D02*
X172624523Y-106712857D01*
X172624523Y-106712857D02*
X172672142Y-106808095D01*
X172672142Y-106808095D02*
X172672142Y-106950952D01*
X172672142Y-106950952D02*
X172624523Y-107046190D01*
X172624523Y-107046190D02*
X172576904Y-107093809D01*
X172576904Y-107093809D02*
X172481666Y-107141428D01*
X172481666Y-107141428D02*
X172100714Y-107141428D01*
X173053095Y-107570000D02*
X173195952Y-107617619D01*
X173195952Y-107617619D02*
X173434047Y-107617619D01*
X173434047Y-107617619D02*
X173529285Y-107570000D01*
X173529285Y-107570000D02*
X173576904Y-107522380D01*
X173576904Y-107522380D02*
X173624523Y-107427142D01*
X173624523Y-107427142D02*
X173624523Y-107331904D01*
X173624523Y-107331904D02*
X173576904Y-107236666D01*
X173576904Y-107236666D02*
X173529285Y-107189047D01*
X173529285Y-107189047D02*
X173434047Y-107141428D01*
X173434047Y-107141428D02*
X173243571Y-107093809D01*
X173243571Y-107093809D02*
X173148333Y-107046190D01*
X173148333Y-107046190D02*
X173100714Y-106998571D01*
X173100714Y-106998571D02*
X173053095Y-106903333D01*
X173053095Y-106903333D02*
X173053095Y-106808095D01*
X173053095Y-106808095D02*
X173100714Y-106712857D01*
X173100714Y-106712857D02*
X173148333Y-106665238D01*
X173148333Y-106665238D02*
X173243571Y-106617619D01*
X173243571Y-106617619D02*
X173481666Y-106617619D01*
X173481666Y-106617619D02*
X173624523Y-106665238D01*
X174005476Y-106712857D02*
X174053095Y-106665238D01*
X174053095Y-106665238D02*
X174148333Y-106617619D01*
X174148333Y-106617619D02*
X174386428Y-106617619D01*
X174386428Y-106617619D02*
X174481666Y-106665238D01*
X174481666Y-106665238D02*
X174529285Y-106712857D01*
X174529285Y-106712857D02*
X174576904Y-106808095D01*
X174576904Y-106808095D02*
X174576904Y-106903333D01*
X174576904Y-106903333D02*
X174529285Y-107046190D01*
X174529285Y-107046190D02*
X173957857Y-107617619D01*
X173957857Y-107617619D02*
X174576904Y-107617619D01*
%TO.C,PS5*%
X167983095Y-73912619D02*
X168173571Y-73912619D01*
X168173571Y-73912619D02*
X168268809Y-73960238D01*
X168268809Y-73960238D02*
X168364047Y-74055476D01*
X168364047Y-74055476D02*
X168411666Y-74245952D01*
X168411666Y-74245952D02*
X168411666Y-74579285D01*
X168411666Y-74579285D02*
X168364047Y-74769761D01*
X168364047Y-74769761D02*
X168268809Y-74865000D01*
X168268809Y-74865000D02*
X168173571Y-74912619D01*
X168173571Y-74912619D02*
X167983095Y-74912619D01*
X167983095Y-74912619D02*
X167887857Y-74865000D01*
X167887857Y-74865000D02*
X167792619Y-74769761D01*
X167792619Y-74769761D02*
X167745000Y-74579285D01*
X167745000Y-74579285D02*
X167745000Y-74245952D01*
X167745000Y-74245952D02*
X167792619Y-74055476D01*
X167792619Y-74055476D02*
X167887857Y-73960238D01*
X167887857Y-73960238D02*
X167983095Y-73912619D01*
X168840238Y-74912619D02*
X168840238Y-74245952D01*
X168840238Y-74341190D02*
X168887857Y-74293571D01*
X168887857Y-74293571D02*
X168983095Y-74245952D01*
X168983095Y-74245952D02*
X169125952Y-74245952D01*
X169125952Y-74245952D02*
X169221190Y-74293571D01*
X169221190Y-74293571D02*
X169268809Y-74388809D01*
X169268809Y-74388809D02*
X169268809Y-74912619D01*
X169268809Y-74388809D02*
X169316428Y-74293571D01*
X169316428Y-74293571D02*
X169411666Y-74245952D01*
X169411666Y-74245952D02*
X169554523Y-74245952D01*
X169554523Y-74245952D02*
X169649762Y-74293571D01*
X169649762Y-74293571D02*
X169697381Y-74388809D01*
X169697381Y-74388809D02*
X169697381Y-74912619D01*
X170173571Y-74912619D02*
X170173571Y-74245952D01*
X170173571Y-74436428D02*
X170221190Y-74341190D01*
X170221190Y-74341190D02*
X170268809Y-74293571D01*
X170268809Y-74293571D02*
X170364047Y-74245952D01*
X170364047Y-74245952D02*
X170459285Y-74245952D01*
X170935476Y-74912619D02*
X170840238Y-74865000D01*
X170840238Y-74865000D02*
X170792619Y-74817380D01*
X170792619Y-74817380D02*
X170745000Y-74722142D01*
X170745000Y-74722142D02*
X170745000Y-74436428D01*
X170745000Y-74436428D02*
X170792619Y-74341190D01*
X170792619Y-74341190D02*
X170840238Y-74293571D01*
X170840238Y-74293571D02*
X170935476Y-74245952D01*
X170935476Y-74245952D02*
X171078333Y-74245952D01*
X171078333Y-74245952D02*
X171173571Y-74293571D01*
X171173571Y-74293571D02*
X171221190Y-74341190D01*
X171221190Y-74341190D02*
X171268809Y-74436428D01*
X171268809Y-74436428D02*
X171268809Y-74722142D01*
X171268809Y-74722142D02*
X171221190Y-74817380D01*
X171221190Y-74817380D02*
X171173571Y-74865000D01*
X171173571Y-74865000D02*
X171078333Y-74912619D01*
X171078333Y-74912619D02*
X170935476Y-74912619D01*
X171697381Y-74245952D02*
X171697381Y-74912619D01*
X171697381Y-74341190D02*
X171745000Y-74293571D01*
X171745000Y-74293571D02*
X171840238Y-74245952D01*
X171840238Y-74245952D02*
X171983095Y-74245952D01*
X171983095Y-74245952D02*
X172078333Y-74293571D01*
X172078333Y-74293571D02*
X172125952Y-74388809D01*
X172125952Y-74388809D02*
X172125952Y-74912619D01*
X172364048Y-75007857D02*
X173125952Y-75007857D01*
X173364048Y-74388809D02*
X173697381Y-74388809D01*
X173840238Y-74912619D02*
X173364048Y-74912619D01*
X173364048Y-74912619D02*
X173364048Y-73912619D01*
X173364048Y-73912619D02*
X173840238Y-73912619D01*
X174173572Y-73912619D02*
X174792619Y-73912619D01*
X174792619Y-73912619D02*
X174459286Y-74293571D01*
X174459286Y-74293571D02*
X174602143Y-74293571D01*
X174602143Y-74293571D02*
X174697381Y-74341190D01*
X174697381Y-74341190D02*
X174745000Y-74388809D01*
X174745000Y-74388809D02*
X174792619Y-74484047D01*
X174792619Y-74484047D02*
X174792619Y-74722142D01*
X174792619Y-74722142D02*
X174745000Y-74817380D01*
X174745000Y-74817380D02*
X174697381Y-74865000D01*
X174697381Y-74865000D02*
X174602143Y-74912619D01*
X174602143Y-74912619D02*
X174316429Y-74912619D01*
X174316429Y-74912619D02*
X174221191Y-74865000D01*
X174221191Y-74865000D02*
X174173572Y-74817380D01*
X175125953Y-73912619D02*
X175792619Y-73912619D01*
X175792619Y-73912619D02*
X175125953Y-74912619D01*
X175125953Y-74912619D02*
X175792619Y-74912619D01*
X176173572Y-74531666D02*
X176935477Y-74531666D01*
X177411667Y-74912619D02*
X177411667Y-73912619D01*
X177411667Y-73912619D02*
X177649762Y-73912619D01*
X177649762Y-73912619D02*
X177792619Y-73960238D01*
X177792619Y-73960238D02*
X177887857Y-74055476D01*
X177887857Y-74055476D02*
X177935476Y-74150714D01*
X177935476Y-74150714D02*
X177983095Y-74341190D01*
X177983095Y-74341190D02*
X177983095Y-74484047D01*
X177983095Y-74484047D02*
X177935476Y-74674523D01*
X177935476Y-74674523D02*
X177887857Y-74769761D01*
X177887857Y-74769761D02*
X177792619Y-74865000D01*
X177792619Y-74865000D02*
X177649762Y-74912619D01*
X177649762Y-74912619D02*
X177411667Y-74912619D01*
X178840238Y-73912619D02*
X178649762Y-73912619D01*
X178649762Y-73912619D02*
X178554524Y-73960238D01*
X178554524Y-73960238D02*
X178506905Y-74007857D01*
X178506905Y-74007857D02*
X178411667Y-74150714D01*
X178411667Y-74150714D02*
X178364048Y-74341190D01*
X178364048Y-74341190D02*
X178364048Y-74722142D01*
X178364048Y-74722142D02*
X178411667Y-74817380D01*
X178411667Y-74817380D02*
X178459286Y-74865000D01*
X178459286Y-74865000D02*
X178554524Y-74912619D01*
X178554524Y-74912619D02*
X178745000Y-74912619D01*
X178745000Y-74912619D02*
X178840238Y-74865000D01*
X178840238Y-74865000D02*
X178887857Y-74817380D01*
X178887857Y-74817380D02*
X178935476Y-74722142D01*
X178935476Y-74722142D02*
X178935476Y-74484047D01*
X178935476Y-74484047D02*
X178887857Y-74388809D01*
X178887857Y-74388809D02*
X178840238Y-74341190D01*
X178840238Y-74341190D02*
X178745000Y-74293571D01*
X178745000Y-74293571D02*
X178554524Y-74293571D01*
X178554524Y-74293571D02*
X178459286Y-74341190D01*
X178459286Y-74341190D02*
X178411667Y-74388809D01*
X178411667Y-74388809D02*
X178364048Y-74484047D01*
X179316429Y-74007857D02*
X179364048Y-73960238D01*
X179364048Y-73960238D02*
X179459286Y-73912619D01*
X179459286Y-73912619D02*
X179697381Y-73912619D01*
X179697381Y-73912619D02*
X179792619Y-73960238D01*
X179792619Y-73960238D02*
X179840238Y-74007857D01*
X179840238Y-74007857D02*
X179887857Y-74103095D01*
X179887857Y-74103095D02*
X179887857Y-74198333D01*
X179887857Y-74198333D02*
X179840238Y-74341190D01*
X179840238Y-74341190D02*
X179268810Y-74912619D01*
X179268810Y-74912619D02*
X179887857Y-74912619D01*
X180078334Y-75007857D02*
X180840238Y-75007857D01*
X181030715Y-74007857D02*
X181078334Y-73960238D01*
X181078334Y-73960238D02*
X181173572Y-73912619D01*
X181173572Y-73912619D02*
X181411667Y-73912619D01*
X181411667Y-73912619D02*
X181506905Y-73960238D01*
X181506905Y-73960238D02*
X181554524Y-74007857D01*
X181554524Y-74007857D02*
X181602143Y-74103095D01*
X181602143Y-74103095D02*
X181602143Y-74198333D01*
X181602143Y-74198333D02*
X181554524Y-74341190D01*
X181554524Y-74341190D02*
X180983096Y-74912619D01*
X180983096Y-74912619D02*
X181602143Y-74912619D01*
X182030715Y-74912619D02*
X182030715Y-73912619D01*
X182030715Y-73912619D02*
X182364048Y-74626904D01*
X182364048Y-74626904D02*
X182697381Y-73912619D01*
X182697381Y-73912619D02*
X182697381Y-74912619D01*
X174030714Y-73012619D02*
X174030714Y-72012619D01*
X174030714Y-72012619D02*
X174411666Y-72012619D01*
X174411666Y-72012619D02*
X174506904Y-72060238D01*
X174506904Y-72060238D02*
X174554523Y-72107857D01*
X174554523Y-72107857D02*
X174602142Y-72203095D01*
X174602142Y-72203095D02*
X174602142Y-72345952D01*
X174602142Y-72345952D02*
X174554523Y-72441190D01*
X174554523Y-72441190D02*
X174506904Y-72488809D01*
X174506904Y-72488809D02*
X174411666Y-72536428D01*
X174411666Y-72536428D02*
X174030714Y-72536428D01*
X174983095Y-72965000D02*
X175125952Y-73012619D01*
X175125952Y-73012619D02*
X175364047Y-73012619D01*
X175364047Y-73012619D02*
X175459285Y-72965000D01*
X175459285Y-72965000D02*
X175506904Y-72917380D01*
X175506904Y-72917380D02*
X175554523Y-72822142D01*
X175554523Y-72822142D02*
X175554523Y-72726904D01*
X175554523Y-72726904D02*
X175506904Y-72631666D01*
X175506904Y-72631666D02*
X175459285Y-72584047D01*
X175459285Y-72584047D02*
X175364047Y-72536428D01*
X175364047Y-72536428D02*
X175173571Y-72488809D01*
X175173571Y-72488809D02*
X175078333Y-72441190D01*
X175078333Y-72441190D02*
X175030714Y-72393571D01*
X175030714Y-72393571D02*
X174983095Y-72298333D01*
X174983095Y-72298333D02*
X174983095Y-72203095D01*
X174983095Y-72203095D02*
X175030714Y-72107857D01*
X175030714Y-72107857D02*
X175078333Y-72060238D01*
X175078333Y-72060238D02*
X175173571Y-72012619D01*
X175173571Y-72012619D02*
X175411666Y-72012619D01*
X175411666Y-72012619D02*
X175554523Y-72060238D01*
X176459285Y-72012619D02*
X175983095Y-72012619D01*
X175983095Y-72012619D02*
X175935476Y-72488809D01*
X175935476Y-72488809D02*
X175983095Y-72441190D01*
X175983095Y-72441190D02*
X176078333Y-72393571D01*
X176078333Y-72393571D02*
X176316428Y-72393571D01*
X176316428Y-72393571D02*
X176411666Y-72441190D01*
X176411666Y-72441190D02*
X176459285Y-72488809D01*
X176459285Y-72488809D02*
X176506904Y-72584047D01*
X176506904Y-72584047D02*
X176506904Y-72822142D01*
X176506904Y-72822142D02*
X176459285Y-72917380D01*
X176459285Y-72917380D02*
X176411666Y-72965000D01*
X176411666Y-72965000D02*
X176316428Y-73012619D01*
X176316428Y-73012619D02*
X176078333Y-73012619D01*
X176078333Y-73012619D02*
X175983095Y-72965000D01*
X175983095Y-72965000D02*
X175935476Y-72917380D01*
%TO.C,PS1*%
X152758095Y-104872619D02*
X152948571Y-104872619D01*
X152948571Y-104872619D02*
X153043809Y-104920238D01*
X153043809Y-104920238D02*
X153139047Y-105015476D01*
X153139047Y-105015476D02*
X153186666Y-105205952D01*
X153186666Y-105205952D02*
X153186666Y-105539285D01*
X153186666Y-105539285D02*
X153139047Y-105729761D01*
X153139047Y-105729761D02*
X153043809Y-105825000D01*
X153043809Y-105825000D02*
X152948571Y-105872619D01*
X152948571Y-105872619D02*
X152758095Y-105872619D01*
X152758095Y-105872619D02*
X152662857Y-105825000D01*
X152662857Y-105825000D02*
X152567619Y-105729761D01*
X152567619Y-105729761D02*
X152520000Y-105539285D01*
X152520000Y-105539285D02*
X152520000Y-105205952D01*
X152520000Y-105205952D02*
X152567619Y-105015476D01*
X152567619Y-105015476D02*
X152662857Y-104920238D01*
X152662857Y-104920238D02*
X152758095Y-104872619D01*
X153615238Y-105872619D02*
X153615238Y-105205952D01*
X153615238Y-105301190D02*
X153662857Y-105253571D01*
X153662857Y-105253571D02*
X153758095Y-105205952D01*
X153758095Y-105205952D02*
X153900952Y-105205952D01*
X153900952Y-105205952D02*
X153996190Y-105253571D01*
X153996190Y-105253571D02*
X154043809Y-105348809D01*
X154043809Y-105348809D02*
X154043809Y-105872619D01*
X154043809Y-105348809D02*
X154091428Y-105253571D01*
X154091428Y-105253571D02*
X154186666Y-105205952D01*
X154186666Y-105205952D02*
X154329523Y-105205952D01*
X154329523Y-105205952D02*
X154424762Y-105253571D01*
X154424762Y-105253571D02*
X154472381Y-105348809D01*
X154472381Y-105348809D02*
X154472381Y-105872619D01*
X154948571Y-105872619D02*
X154948571Y-105205952D01*
X154948571Y-105396428D02*
X154996190Y-105301190D01*
X154996190Y-105301190D02*
X155043809Y-105253571D01*
X155043809Y-105253571D02*
X155139047Y-105205952D01*
X155139047Y-105205952D02*
X155234285Y-105205952D01*
X155710476Y-105872619D02*
X155615238Y-105825000D01*
X155615238Y-105825000D02*
X155567619Y-105777380D01*
X155567619Y-105777380D02*
X155520000Y-105682142D01*
X155520000Y-105682142D02*
X155520000Y-105396428D01*
X155520000Y-105396428D02*
X155567619Y-105301190D01*
X155567619Y-105301190D02*
X155615238Y-105253571D01*
X155615238Y-105253571D02*
X155710476Y-105205952D01*
X155710476Y-105205952D02*
X155853333Y-105205952D01*
X155853333Y-105205952D02*
X155948571Y-105253571D01*
X155948571Y-105253571D02*
X155996190Y-105301190D01*
X155996190Y-105301190D02*
X156043809Y-105396428D01*
X156043809Y-105396428D02*
X156043809Y-105682142D01*
X156043809Y-105682142D02*
X155996190Y-105777380D01*
X155996190Y-105777380D02*
X155948571Y-105825000D01*
X155948571Y-105825000D02*
X155853333Y-105872619D01*
X155853333Y-105872619D02*
X155710476Y-105872619D01*
X156472381Y-105205952D02*
X156472381Y-105872619D01*
X156472381Y-105301190D02*
X156520000Y-105253571D01*
X156520000Y-105253571D02*
X156615238Y-105205952D01*
X156615238Y-105205952D02*
X156758095Y-105205952D01*
X156758095Y-105205952D02*
X156853333Y-105253571D01*
X156853333Y-105253571D02*
X156900952Y-105348809D01*
X156900952Y-105348809D02*
X156900952Y-105872619D01*
X157139048Y-105967857D02*
X157900952Y-105967857D01*
X158139048Y-105348809D02*
X158472381Y-105348809D01*
X158615238Y-105872619D02*
X158139048Y-105872619D01*
X158139048Y-105872619D02*
X158139048Y-104872619D01*
X158139048Y-104872619D02*
X158615238Y-104872619D01*
X158948572Y-104872619D02*
X159567619Y-104872619D01*
X159567619Y-104872619D02*
X159234286Y-105253571D01*
X159234286Y-105253571D02*
X159377143Y-105253571D01*
X159377143Y-105253571D02*
X159472381Y-105301190D01*
X159472381Y-105301190D02*
X159520000Y-105348809D01*
X159520000Y-105348809D02*
X159567619Y-105444047D01*
X159567619Y-105444047D02*
X159567619Y-105682142D01*
X159567619Y-105682142D02*
X159520000Y-105777380D01*
X159520000Y-105777380D02*
X159472381Y-105825000D01*
X159472381Y-105825000D02*
X159377143Y-105872619D01*
X159377143Y-105872619D02*
X159091429Y-105872619D01*
X159091429Y-105872619D02*
X158996191Y-105825000D01*
X158996191Y-105825000D02*
X158948572Y-105777380D01*
X159900953Y-104872619D02*
X160567619Y-104872619D01*
X160567619Y-104872619D02*
X159900953Y-105872619D01*
X159900953Y-105872619D02*
X160567619Y-105872619D01*
X160948572Y-105491666D02*
X161710477Y-105491666D01*
X162186667Y-105872619D02*
X162186667Y-104872619D01*
X162186667Y-104872619D02*
X162424762Y-104872619D01*
X162424762Y-104872619D02*
X162567619Y-104920238D01*
X162567619Y-104920238D02*
X162662857Y-105015476D01*
X162662857Y-105015476D02*
X162710476Y-105110714D01*
X162710476Y-105110714D02*
X162758095Y-105301190D01*
X162758095Y-105301190D02*
X162758095Y-105444047D01*
X162758095Y-105444047D02*
X162710476Y-105634523D01*
X162710476Y-105634523D02*
X162662857Y-105729761D01*
X162662857Y-105729761D02*
X162567619Y-105825000D01*
X162567619Y-105825000D02*
X162424762Y-105872619D01*
X162424762Y-105872619D02*
X162186667Y-105872619D01*
X163615238Y-104872619D02*
X163424762Y-104872619D01*
X163424762Y-104872619D02*
X163329524Y-104920238D01*
X163329524Y-104920238D02*
X163281905Y-104967857D01*
X163281905Y-104967857D02*
X163186667Y-105110714D01*
X163186667Y-105110714D02*
X163139048Y-105301190D01*
X163139048Y-105301190D02*
X163139048Y-105682142D01*
X163139048Y-105682142D02*
X163186667Y-105777380D01*
X163186667Y-105777380D02*
X163234286Y-105825000D01*
X163234286Y-105825000D02*
X163329524Y-105872619D01*
X163329524Y-105872619D02*
X163520000Y-105872619D01*
X163520000Y-105872619D02*
X163615238Y-105825000D01*
X163615238Y-105825000D02*
X163662857Y-105777380D01*
X163662857Y-105777380D02*
X163710476Y-105682142D01*
X163710476Y-105682142D02*
X163710476Y-105444047D01*
X163710476Y-105444047D02*
X163662857Y-105348809D01*
X163662857Y-105348809D02*
X163615238Y-105301190D01*
X163615238Y-105301190D02*
X163520000Y-105253571D01*
X163520000Y-105253571D02*
X163329524Y-105253571D01*
X163329524Y-105253571D02*
X163234286Y-105301190D01*
X163234286Y-105301190D02*
X163186667Y-105348809D01*
X163186667Y-105348809D02*
X163139048Y-105444047D01*
X164091429Y-104967857D02*
X164139048Y-104920238D01*
X164139048Y-104920238D02*
X164234286Y-104872619D01*
X164234286Y-104872619D02*
X164472381Y-104872619D01*
X164472381Y-104872619D02*
X164567619Y-104920238D01*
X164567619Y-104920238D02*
X164615238Y-104967857D01*
X164615238Y-104967857D02*
X164662857Y-105063095D01*
X164662857Y-105063095D02*
X164662857Y-105158333D01*
X164662857Y-105158333D02*
X164615238Y-105301190D01*
X164615238Y-105301190D02*
X164043810Y-105872619D01*
X164043810Y-105872619D02*
X164662857Y-105872619D01*
X164853334Y-105967857D02*
X165615238Y-105967857D01*
X165805715Y-104967857D02*
X165853334Y-104920238D01*
X165853334Y-104920238D02*
X165948572Y-104872619D01*
X165948572Y-104872619D02*
X166186667Y-104872619D01*
X166186667Y-104872619D02*
X166281905Y-104920238D01*
X166281905Y-104920238D02*
X166329524Y-104967857D01*
X166329524Y-104967857D02*
X166377143Y-105063095D01*
X166377143Y-105063095D02*
X166377143Y-105158333D01*
X166377143Y-105158333D02*
X166329524Y-105301190D01*
X166329524Y-105301190D02*
X165758096Y-105872619D01*
X165758096Y-105872619D02*
X166377143Y-105872619D01*
X166805715Y-105872619D02*
X166805715Y-104872619D01*
X166805715Y-104872619D02*
X167139048Y-105586904D01*
X167139048Y-105586904D02*
X167472381Y-104872619D01*
X167472381Y-104872619D02*
X167472381Y-105872619D01*
X160710714Y-107507619D02*
X160710714Y-106507619D01*
X160710714Y-106507619D02*
X161091666Y-106507619D01*
X161091666Y-106507619D02*
X161186904Y-106555238D01*
X161186904Y-106555238D02*
X161234523Y-106602857D01*
X161234523Y-106602857D02*
X161282142Y-106698095D01*
X161282142Y-106698095D02*
X161282142Y-106840952D01*
X161282142Y-106840952D02*
X161234523Y-106936190D01*
X161234523Y-106936190D02*
X161186904Y-106983809D01*
X161186904Y-106983809D02*
X161091666Y-107031428D01*
X161091666Y-107031428D02*
X160710714Y-107031428D01*
X161663095Y-107460000D02*
X161805952Y-107507619D01*
X161805952Y-107507619D02*
X162044047Y-107507619D01*
X162044047Y-107507619D02*
X162139285Y-107460000D01*
X162139285Y-107460000D02*
X162186904Y-107412380D01*
X162186904Y-107412380D02*
X162234523Y-107317142D01*
X162234523Y-107317142D02*
X162234523Y-107221904D01*
X162234523Y-107221904D02*
X162186904Y-107126666D01*
X162186904Y-107126666D02*
X162139285Y-107079047D01*
X162139285Y-107079047D02*
X162044047Y-107031428D01*
X162044047Y-107031428D02*
X161853571Y-106983809D01*
X161853571Y-106983809D02*
X161758333Y-106936190D01*
X161758333Y-106936190D02*
X161710714Y-106888571D01*
X161710714Y-106888571D02*
X161663095Y-106793333D01*
X161663095Y-106793333D02*
X161663095Y-106698095D01*
X161663095Y-106698095D02*
X161710714Y-106602857D01*
X161710714Y-106602857D02*
X161758333Y-106555238D01*
X161758333Y-106555238D02*
X161853571Y-106507619D01*
X161853571Y-106507619D02*
X162091666Y-106507619D01*
X162091666Y-106507619D02*
X162234523Y-106555238D01*
X163186904Y-107507619D02*
X162615476Y-107507619D01*
X162901190Y-107507619D02*
X162901190Y-106507619D01*
X162901190Y-106507619D02*
X162805952Y-106650476D01*
X162805952Y-106650476D02*
X162710714Y-106745714D01*
X162710714Y-106745714D02*
X162615476Y-106793333D01*
%TO.C,REF\u002A\u002A*%
X189166666Y-116667619D02*
X188833333Y-116191428D01*
X188595238Y-116667619D02*
X188595238Y-115667619D01*
X188595238Y-115667619D02*
X188976190Y-115667619D01*
X188976190Y-115667619D02*
X189071428Y-115715238D01*
X189071428Y-115715238D02*
X189119047Y-115762857D01*
X189119047Y-115762857D02*
X189166666Y-115858095D01*
X189166666Y-115858095D02*
X189166666Y-116000952D01*
X189166666Y-116000952D02*
X189119047Y-116096190D01*
X189119047Y-116096190D02*
X189071428Y-116143809D01*
X189071428Y-116143809D02*
X188976190Y-116191428D01*
X188976190Y-116191428D02*
X188595238Y-116191428D01*
X189595238Y-116143809D02*
X189928571Y-116143809D01*
X190071428Y-116667619D02*
X189595238Y-116667619D01*
X189595238Y-116667619D02*
X189595238Y-115667619D01*
X189595238Y-115667619D02*
X190071428Y-115667619D01*
X190833333Y-116143809D02*
X190500000Y-116143809D01*
X190500000Y-116667619D02*
X190500000Y-115667619D01*
X190500000Y-115667619D02*
X190976190Y-115667619D01*
X191500000Y-115667619D02*
X191500000Y-115905714D01*
X191261905Y-115810476D02*
X191500000Y-115905714D01*
X191500000Y-115905714D02*
X191738095Y-115810476D01*
X191357143Y-116096190D02*
X191500000Y-115905714D01*
X191500000Y-115905714D02*
X191642857Y-116096190D01*
X192261905Y-115667619D02*
X192261905Y-115905714D01*
X192023810Y-115810476D02*
X192261905Y-115905714D01*
X192261905Y-115905714D02*
X192500000Y-115810476D01*
X192119048Y-116096190D02*
X192261905Y-115905714D01*
X192261905Y-115905714D02*
X192404762Y-116096190D01*
X105815952Y-63717619D02*
X105815952Y-62717619D01*
X105815952Y-62717619D02*
X106149285Y-63431904D01*
X106149285Y-63431904D02*
X106482618Y-62717619D01*
X106482618Y-62717619D02*
X106482618Y-63717619D01*
X107101666Y-63717619D02*
X107006428Y-63670000D01*
X107006428Y-63670000D02*
X106958809Y-63622380D01*
X106958809Y-63622380D02*
X106911190Y-63527142D01*
X106911190Y-63527142D02*
X106911190Y-63241428D01*
X106911190Y-63241428D02*
X106958809Y-63146190D01*
X106958809Y-63146190D02*
X107006428Y-63098571D01*
X107006428Y-63098571D02*
X107101666Y-63050952D01*
X107101666Y-63050952D02*
X107244523Y-63050952D01*
X107244523Y-63050952D02*
X107339761Y-63098571D01*
X107339761Y-63098571D02*
X107387380Y-63146190D01*
X107387380Y-63146190D02*
X107434999Y-63241428D01*
X107434999Y-63241428D02*
X107434999Y-63527142D01*
X107434999Y-63527142D02*
X107387380Y-63622380D01*
X107387380Y-63622380D02*
X107339761Y-63670000D01*
X107339761Y-63670000D02*
X107244523Y-63717619D01*
X107244523Y-63717619D02*
X107101666Y-63717619D01*
X108292142Y-63050952D02*
X108292142Y-63717619D01*
X107863571Y-63050952D02*
X107863571Y-63574761D01*
X107863571Y-63574761D02*
X107911190Y-63670000D01*
X107911190Y-63670000D02*
X108006428Y-63717619D01*
X108006428Y-63717619D02*
X108149285Y-63717619D01*
X108149285Y-63717619D02*
X108244523Y-63670000D01*
X108244523Y-63670000D02*
X108292142Y-63622380D01*
X108768333Y-63050952D02*
X108768333Y-63717619D01*
X108768333Y-63146190D02*
X108815952Y-63098571D01*
X108815952Y-63098571D02*
X108911190Y-63050952D01*
X108911190Y-63050952D02*
X109054047Y-63050952D01*
X109054047Y-63050952D02*
X109149285Y-63098571D01*
X109149285Y-63098571D02*
X109196904Y-63193809D01*
X109196904Y-63193809D02*
X109196904Y-63717619D01*
X109530238Y-63050952D02*
X109911190Y-63050952D01*
X109673095Y-62717619D02*
X109673095Y-63574761D01*
X109673095Y-63574761D02*
X109720714Y-63670000D01*
X109720714Y-63670000D02*
X109815952Y-63717619D01*
X109815952Y-63717619D02*
X109911190Y-63717619D01*
X110244524Y-63717619D02*
X110244524Y-63050952D01*
X110244524Y-62717619D02*
X110196905Y-62765238D01*
X110196905Y-62765238D02*
X110244524Y-62812857D01*
X110244524Y-62812857D02*
X110292143Y-62765238D01*
X110292143Y-62765238D02*
X110244524Y-62717619D01*
X110244524Y-62717619D02*
X110244524Y-62812857D01*
X110720714Y-63050952D02*
X110720714Y-63717619D01*
X110720714Y-63146190D02*
X110768333Y-63098571D01*
X110768333Y-63098571D02*
X110863571Y-63050952D01*
X110863571Y-63050952D02*
X111006428Y-63050952D01*
X111006428Y-63050952D02*
X111101666Y-63098571D01*
X111101666Y-63098571D02*
X111149285Y-63193809D01*
X111149285Y-63193809D02*
X111149285Y-63717619D01*
X112054047Y-63050952D02*
X112054047Y-63860476D01*
X112054047Y-63860476D02*
X112006428Y-63955714D01*
X112006428Y-63955714D02*
X111958809Y-64003333D01*
X111958809Y-64003333D02*
X111863571Y-64050952D01*
X111863571Y-64050952D02*
X111720714Y-64050952D01*
X111720714Y-64050952D02*
X111625476Y-64003333D01*
X112054047Y-63670000D02*
X111958809Y-63717619D01*
X111958809Y-63717619D02*
X111768333Y-63717619D01*
X111768333Y-63717619D02*
X111673095Y-63670000D01*
X111673095Y-63670000D02*
X111625476Y-63622380D01*
X111625476Y-63622380D02*
X111577857Y-63527142D01*
X111577857Y-63527142D02*
X111577857Y-63241428D01*
X111577857Y-63241428D02*
X111625476Y-63146190D01*
X111625476Y-63146190D02*
X111673095Y-63098571D01*
X111673095Y-63098571D02*
X111768333Y-63050952D01*
X111768333Y-63050952D02*
X111958809Y-63050952D01*
X111958809Y-63050952D02*
X112054047Y-63098571D01*
X112530238Y-63717619D02*
X112530238Y-62717619D01*
X112530238Y-63193809D02*
X113101666Y-63193809D01*
X113101666Y-63717619D02*
X113101666Y-62717619D01*
X113720714Y-63717619D02*
X113625476Y-63670000D01*
X113625476Y-63670000D02*
X113577857Y-63622380D01*
X113577857Y-63622380D02*
X113530238Y-63527142D01*
X113530238Y-63527142D02*
X113530238Y-63241428D01*
X113530238Y-63241428D02*
X113577857Y-63146190D01*
X113577857Y-63146190D02*
X113625476Y-63098571D01*
X113625476Y-63098571D02*
X113720714Y-63050952D01*
X113720714Y-63050952D02*
X113863571Y-63050952D01*
X113863571Y-63050952D02*
X113958809Y-63098571D01*
X113958809Y-63098571D02*
X114006428Y-63146190D01*
X114006428Y-63146190D02*
X114054047Y-63241428D01*
X114054047Y-63241428D02*
X114054047Y-63527142D01*
X114054047Y-63527142D02*
X114006428Y-63622380D01*
X114006428Y-63622380D02*
X113958809Y-63670000D01*
X113958809Y-63670000D02*
X113863571Y-63717619D01*
X113863571Y-63717619D02*
X113720714Y-63717619D01*
X114625476Y-63717619D02*
X114530238Y-63670000D01*
X114530238Y-63670000D02*
X114482619Y-63574761D01*
X114482619Y-63574761D02*
X114482619Y-62717619D01*
X115387381Y-63670000D02*
X115292143Y-63717619D01*
X115292143Y-63717619D02*
X115101667Y-63717619D01*
X115101667Y-63717619D02*
X115006429Y-63670000D01*
X115006429Y-63670000D02*
X114958810Y-63574761D01*
X114958810Y-63574761D02*
X114958810Y-63193809D01*
X114958810Y-63193809D02*
X115006429Y-63098571D01*
X115006429Y-63098571D02*
X115101667Y-63050952D01*
X115101667Y-63050952D02*
X115292143Y-63050952D01*
X115292143Y-63050952D02*
X115387381Y-63098571D01*
X115387381Y-63098571D02*
X115435000Y-63193809D01*
X115435000Y-63193809D02*
X115435000Y-63289047D01*
X115435000Y-63289047D02*
X114958810Y-63384285D01*
X115625477Y-63812857D02*
X116387381Y-63812857D01*
X116530239Y-62717619D02*
X117149286Y-62717619D01*
X117149286Y-62717619D02*
X116815953Y-63098571D01*
X116815953Y-63098571D02*
X116958810Y-63098571D01*
X116958810Y-63098571D02*
X117054048Y-63146190D01*
X117054048Y-63146190D02*
X117101667Y-63193809D01*
X117101667Y-63193809D02*
X117149286Y-63289047D01*
X117149286Y-63289047D02*
X117149286Y-63527142D01*
X117149286Y-63527142D02*
X117101667Y-63622380D01*
X117101667Y-63622380D02*
X117054048Y-63670000D01*
X117054048Y-63670000D02*
X116958810Y-63717619D01*
X116958810Y-63717619D02*
X116673096Y-63717619D01*
X116673096Y-63717619D02*
X116577858Y-63670000D01*
X116577858Y-63670000D02*
X116530239Y-63622380D01*
X117577858Y-63622380D02*
X117625477Y-63670000D01*
X117625477Y-63670000D02*
X117577858Y-63717619D01*
X117577858Y-63717619D02*
X117530239Y-63670000D01*
X117530239Y-63670000D02*
X117577858Y-63622380D01*
X117577858Y-63622380D02*
X117577858Y-63717619D01*
X118006429Y-62812857D02*
X118054048Y-62765238D01*
X118054048Y-62765238D02*
X118149286Y-62717619D01*
X118149286Y-62717619D02*
X118387381Y-62717619D01*
X118387381Y-62717619D02*
X118482619Y-62765238D01*
X118482619Y-62765238D02*
X118530238Y-62812857D01*
X118530238Y-62812857D02*
X118577857Y-62908095D01*
X118577857Y-62908095D02*
X118577857Y-63003333D01*
X118577857Y-63003333D02*
X118530238Y-63146190D01*
X118530238Y-63146190D02*
X117958810Y-63717619D01*
X117958810Y-63717619D02*
X118577857Y-63717619D01*
X119006429Y-63717619D02*
X119006429Y-63050952D01*
X119006429Y-63146190D02*
X119054048Y-63098571D01*
X119054048Y-63098571D02*
X119149286Y-63050952D01*
X119149286Y-63050952D02*
X119292143Y-63050952D01*
X119292143Y-63050952D02*
X119387381Y-63098571D01*
X119387381Y-63098571D02*
X119435000Y-63193809D01*
X119435000Y-63193809D02*
X119435000Y-63717619D01*
X119435000Y-63193809D02*
X119482619Y-63098571D01*
X119482619Y-63098571D02*
X119577857Y-63050952D01*
X119577857Y-63050952D02*
X119720714Y-63050952D01*
X119720714Y-63050952D02*
X119815953Y-63098571D01*
X119815953Y-63098571D02*
X119863572Y-63193809D01*
X119863572Y-63193809D02*
X119863572Y-63717619D01*
X120339762Y-63717619D02*
X120339762Y-63050952D01*
X120339762Y-63146190D02*
X120387381Y-63098571D01*
X120387381Y-63098571D02*
X120482619Y-63050952D01*
X120482619Y-63050952D02*
X120625476Y-63050952D01*
X120625476Y-63050952D02*
X120720714Y-63098571D01*
X120720714Y-63098571D02*
X120768333Y-63193809D01*
X120768333Y-63193809D02*
X120768333Y-63717619D01*
X120768333Y-63193809D02*
X120815952Y-63098571D01*
X120815952Y-63098571D02*
X120911190Y-63050952D01*
X120911190Y-63050952D02*
X121054047Y-63050952D01*
X121054047Y-63050952D02*
X121149286Y-63098571D01*
X121149286Y-63098571D02*
X121196905Y-63193809D01*
X121196905Y-63193809D02*
X121196905Y-63717619D01*
X121435000Y-63812857D02*
X122196904Y-63812857D01*
X122435000Y-63717619D02*
X122435000Y-62717619D01*
X122435000Y-62717619D02*
X122768333Y-63431904D01*
X122768333Y-63431904D02*
X123101666Y-62717619D01*
X123101666Y-62717619D02*
X123101666Y-63717619D01*
X123482619Y-62717619D02*
X124101666Y-62717619D01*
X124101666Y-62717619D02*
X123768333Y-63098571D01*
X123768333Y-63098571D02*
X123911190Y-63098571D01*
X123911190Y-63098571D02*
X124006428Y-63146190D01*
X124006428Y-63146190D02*
X124054047Y-63193809D01*
X124054047Y-63193809D02*
X124101666Y-63289047D01*
X124101666Y-63289047D02*
X124101666Y-63527142D01*
X124101666Y-63527142D02*
X124054047Y-63622380D01*
X124054047Y-63622380D02*
X124006428Y-63670000D01*
X124006428Y-63670000D02*
X123911190Y-63717619D01*
X123911190Y-63717619D02*
X123625476Y-63717619D01*
X123625476Y-63717619D02*
X123530238Y-63670000D01*
X123530238Y-63670000D02*
X123482619Y-63622380D01*
X113601666Y-59517619D02*
X113268333Y-59041428D01*
X113030238Y-59517619D02*
X113030238Y-58517619D01*
X113030238Y-58517619D02*
X113411190Y-58517619D01*
X113411190Y-58517619D02*
X113506428Y-58565238D01*
X113506428Y-58565238D02*
X113554047Y-58612857D01*
X113554047Y-58612857D02*
X113601666Y-58708095D01*
X113601666Y-58708095D02*
X113601666Y-58850952D01*
X113601666Y-58850952D02*
X113554047Y-58946190D01*
X113554047Y-58946190D02*
X113506428Y-58993809D01*
X113506428Y-58993809D02*
X113411190Y-59041428D01*
X113411190Y-59041428D02*
X113030238Y-59041428D01*
X114030238Y-58993809D02*
X114363571Y-58993809D01*
X114506428Y-59517619D02*
X114030238Y-59517619D01*
X114030238Y-59517619D02*
X114030238Y-58517619D01*
X114030238Y-58517619D02*
X114506428Y-58517619D01*
X115268333Y-58993809D02*
X114935000Y-58993809D01*
X114935000Y-59517619D02*
X114935000Y-58517619D01*
X114935000Y-58517619D02*
X115411190Y-58517619D01*
X115935000Y-58517619D02*
X115935000Y-58755714D01*
X115696905Y-58660476D02*
X115935000Y-58755714D01*
X115935000Y-58755714D02*
X116173095Y-58660476D01*
X115792143Y-58946190D02*
X115935000Y-58755714D01*
X115935000Y-58755714D02*
X116077857Y-58946190D01*
X116696905Y-58517619D02*
X116696905Y-58755714D01*
X116458810Y-58660476D02*
X116696905Y-58755714D01*
X116696905Y-58755714D02*
X116935000Y-58660476D01*
X116554048Y-58946190D02*
X116696905Y-58755714D01*
X116696905Y-58755714D02*
X116839762Y-58946190D01*
%TO.C,LS2*%
X138422142Y-111747619D02*
X137945952Y-111747619D01*
X137945952Y-111747619D02*
X137945952Y-110747619D01*
X138707857Y-111700000D02*
X138850714Y-111747619D01*
X138850714Y-111747619D02*
X139088809Y-111747619D01*
X139088809Y-111747619D02*
X139184047Y-111700000D01*
X139184047Y-111700000D02*
X139231666Y-111652380D01*
X139231666Y-111652380D02*
X139279285Y-111557142D01*
X139279285Y-111557142D02*
X139279285Y-111461904D01*
X139279285Y-111461904D02*
X139231666Y-111366666D01*
X139231666Y-111366666D02*
X139184047Y-111319047D01*
X139184047Y-111319047D02*
X139088809Y-111271428D01*
X139088809Y-111271428D02*
X138898333Y-111223809D01*
X138898333Y-111223809D02*
X138803095Y-111176190D01*
X138803095Y-111176190D02*
X138755476Y-111128571D01*
X138755476Y-111128571D02*
X138707857Y-111033333D01*
X138707857Y-111033333D02*
X138707857Y-110938095D01*
X138707857Y-110938095D02*
X138755476Y-110842857D01*
X138755476Y-110842857D02*
X138803095Y-110795238D01*
X138803095Y-110795238D02*
X138898333Y-110747619D01*
X138898333Y-110747619D02*
X139136428Y-110747619D01*
X139136428Y-110747619D02*
X139279285Y-110795238D01*
X139660238Y-110842857D02*
X139707857Y-110795238D01*
X139707857Y-110795238D02*
X139803095Y-110747619D01*
X139803095Y-110747619D02*
X140041190Y-110747619D01*
X140041190Y-110747619D02*
X140136428Y-110795238D01*
X140136428Y-110795238D02*
X140184047Y-110842857D01*
X140184047Y-110842857D02*
X140231666Y-110938095D01*
X140231666Y-110938095D02*
X140231666Y-111033333D01*
X140231666Y-111033333D02*
X140184047Y-111176190D01*
X140184047Y-111176190D02*
X139612619Y-111747619D01*
X139612619Y-111747619D02*
X140231666Y-111747619D01*
%TO.C,COOLER*%
X171299761Y-112607380D02*
X171252142Y-112655000D01*
X171252142Y-112655000D02*
X171109285Y-112702619D01*
X171109285Y-112702619D02*
X171014047Y-112702619D01*
X171014047Y-112702619D02*
X170871190Y-112655000D01*
X170871190Y-112655000D02*
X170775952Y-112559761D01*
X170775952Y-112559761D02*
X170728333Y-112464523D01*
X170728333Y-112464523D02*
X170680714Y-112274047D01*
X170680714Y-112274047D02*
X170680714Y-112131190D01*
X170680714Y-112131190D02*
X170728333Y-111940714D01*
X170728333Y-111940714D02*
X170775952Y-111845476D01*
X170775952Y-111845476D02*
X170871190Y-111750238D01*
X170871190Y-111750238D02*
X171014047Y-111702619D01*
X171014047Y-111702619D02*
X171109285Y-111702619D01*
X171109285Y-111702619D02*
X171252142Y-111750238D01*
X171252142Y-111750238D02*
X171299761Y-111797857D01*
X171918809Y-111702619D02*
X172109285Y-111702619D01*
X172109285Y-111702619D02*
X172204523Y-111750238D01*
X172204523Y-111750238D02*
X172299761Y-111845476D01*
X172299761Y-111845476D02*
X172347380Y-112035952D01*
X172347380Y-112035952D02*
X172347380Y-112369285D01*
X172347380Y-112369285D02*
X172299761Y-112559761D01*
X172299761Y-112559761D02*
X172204523Y-112655000D01*
X172204523Y-112655000D02*
X172109285Y-112702619D01*
X172109285Y-112702619D02*
X171918809Y-112702619D01*
X171918809Y-112702619D02*
X171823571Y-112655000D01*
X171823571Y-112655000D02*
X171728333Y-112559761D01*
X171728333Y-112559761D02*
X171680714Y-112369285D01*
X171680714Y-112369285D02*
X171680714Y-112035952D01*
X171680714Y-112035952D02*
X171728333Y-111845476D01*
X171728333Y-111845476D02*
X171823571Y-111750238D01*
X171823571Y-111750238D02*
X171918809Y-111702619D01*
X172966428Y-111702619D02*
X173156904Y-111702619D01*
X173156904Y-111702619D02*
X173252142Y-111750238D01*
X173252142Y-111750238D02*
X173347380Y-111845476D01*
X173347380Y-111845476D02*
X173394999Y-112035952D01*
X173394999Y-112035952D02*
X173394999Y-112369285D01*
X173394999Y-112369285D02*
X173347380Y-112559761D01*
X173347380Y-112559761D02*
X173252142Y-112655000D01*
X173252142Y-112655000D02*
X173156904Y-112702619D01*
X173156904Y-112702619D02*
X172966428Y-112702619D01*
X172966428Y-112702619D02*
X172871190Y-112655000D01*
X172871190Y-112655000D02*
X172775952Y-112559761D01*
X172775952Y-112559761D02*
X172728333Y-112369285D01*
X172728333Y-112369285D02*
X172728333Y-112035952D01*
X172728333Y-112035952D02*
X172775952Y-111845476D01*
X172775952Y-111845476D02*
X172871190Y-111750238D01*
X172871190Y-111750238D02*
X172966428Y-111702619D01*
X174299761Y-112702619D02*
X173823571Y-112702619D01*
X173823571Y-112702619D02*
X173823571Y-111702619D01*
X174633095Y-112178809D02*
X174966428Y-112178809D01*
X175109285Y-112702619D02*
X174633095Y-112702619D01*
X174633095Y-112702619D02*
X174633095Y-111702619D01*
X174633095Y-111702619D02*
X175109285Y-111702619D01*
X176109285Y-112702619D02*
X175775952Y-112226428D01*
X175537857Y-112702619D02*
X175537857Y-111702619D01*
X175537857Y-111702619D02*
X175918809Y-111702619D01*
X175918809Y-111702619D02*
X176014047Y-111750238D01*
X176014047Y-111750238D02*
X176061666Y-111797857D01*
X176061666Y-111797857D02*
X176109285Y-111893095D01*
X176109285Y-111893095D02*
X176109285Y-112035952D01*
X176109285Y-112035952D02*
X176061666Y-112131190D01*
X176061666Y-112131190D02*
X176014047Y-112178809D01*
X176014047Y-112178809D02*
X175918809Y-112226428D01*
X175918809Y-112226428D02*
X175537857Y-112226428D01*
X171299761Y-114507380D02*
X171252142Y-114555000D01*
X171252142Y-114555000D02*
X171109285Y-114602619D01*
X171109285Y-114602619D02*
X171014047Y-114602619D01*
X171014047Y-114602619D02*
X170871190Y-114555000D01*
X170871190Y-114555000D02*
X170775952Y-114459761D01*
X170775952Y-114459761D02*
X170728333Y-114364523D01*
X170728333Y-114364523D02*
X170680714Y-114174047D01*
X170680714Y-114174047D02*
X170680714Y-114031190D01*
X170680714Y-114031190D02*
X170728333Y-113840714D01*
X170728333Y-113840714D02*
X170775952Y-113745476D01*
X170775952Y-113745476D02*
X170871190Y-113650238D01*
X170871190Y-113650238D02*
X171014047Y-113602619D01*
X171014047Y-113602619D02*
X171109285Y-113602619D01*
X171109285Y-113602619D02*
X171252142Y-113650238D01*
X171252142Y-113650238D02*
X171299761Y-113697857D01*
X171918809Y-113602619D02*
X172109285Y-113602619D01*
X172109285Y-113602619D02*
X172204523Y-113650238D01*
X172204523Y-113650238D02*
X172299761Y-113745476D01*
X172299761Y-113745476D02*
X172347380Y-113935952D01*
X172347380Y-113935952D02*
X172347380Y-114269285D01*
X172347380Y-114269285D02*
X172299761Y-114459761D01*
X172299761Y-114459761D02*
X172204523Y-114555000D01*
X172204523Y-114555000D02*
X172109285Y-114602619D01*
X172109285Y-114602619D02*
X171918809Y-114602619D01*
X171918809Y-114602619D02*
X171823571Y-114555000D01*
X171823571Y-114555000D02*
X171728333Y-114459761D01*
X171728333Y-114459761D02*
X171680714Y-114269285D01*
X171680714Y-114269285D02*
X171680714Y-113935952D01*
X171680714Y-113935952D02*
X171728333Y-113745476D01*
X171728333Y-113745476D02*
X171823571Y-113650238D01*
X171823571Y-113650238D02*
X171918809Y-113602619D01*
X172966428Y-113602619D02*
X173156904Y-113602619D01*
X173156904Y-113602619D02*
X173252142Y-113650238D01*
X173252142Y-113650238D02*
X173347380Y-113745476D01*
X173347380Y-113745476D02*
X173394999Y-113935952D01*
X173394999Y-113935952D02*
X173394999Y-114269285D01*
X173394999Y-114269285D02*
X173347380Y-114459761D01*
X173347380Y-114459761D02*
X173252142Y-114555000D01*
X173252142Y-114555000D02*
X173156904Y-114602619D01*
X173156904Y-114602619D02*
X172966428Y-114602619D01*
X172966428Y-114602619D02*
X172871190Y-114555000D01*
X172871190Y-114555000D02*
X172775952Y-114459761D01*
X172775952Y-114459761D02*
X172728333Y-114269285D01*
X172728333Y-114269285D02*
X172728333Y-113935952D01*
X172728333Y-113935952D02*
X172775952Y-113745476D01*
X172775952Y-113745476D02*
X172871190Y-113650238D01*
X172871190Y-113650238D02*
X172966428Y-113602619D01*
X174299761Y-114602619D02*
X173823571Y-114602619D01*
X173823571Y-114602619D02*
X173823571Y-113602619D01*
X174633095Y-114078809D02*
X174966428Y-114078809D01*
X175109285Y-114602619D02*
X174633095Y-114602619D01*
X174633095Y-114602619D02*
X174633095Y-113602619D01*
X174633095Y-113602619D02*
X175109285Y-113602619D01*
X176109285Y-114602619D02*
X175775952Y-114126428D01*
X175537857Y-114602619D02*
X175537857Y-113602619D01*
X175537857Y-113602619D02*
X175918809Y-113602619D01*
X175918809Y-113602619D02*
X176014047Y-113650238D01*
X176014047Y-113650238D02*
X176061666Y-113697857D01*
X176061666Y-113697857D02*
X176109285Y-113793095D01*
X176109285Y-113793095D02*
X176109285Y-113935952D01*
X176109285Y-113935952D02*
X176061666Y-114031190D01*
X176061666Y-114031190D02*
X176014047Y-114078809D01*
X176014047Y-114078809D02*
X175918809Y-114126428D01*
X175918809Y-114126428D02*
X175537857Y-114126428D01*
%TO.C,MCU2*%
X125670309Y-94581904D02*
X125670309Y-94248571D01*
X126194119Y-94105714D02*
X126194119Y-94581904D01*
X126194119Y-94581904D02*
X125194119Y-94581904D01*
X125194119Y-94581904D02*
X125194119Y-94105714D01*
X126146500Y-93724761D02*
X126194119Y-93581904D01*
X126194119Y-93581904D02*
X126194119Y-93343809D01*
X126194119Y-93343809D02*
X126146500Y-93248571D01*
X126146500Y-93248571D02*
X126098880Y-93200952D01*
X126098880Y-93200952D02*
X126003642Y-93153333D01*
X126003642Y-93153333D02*
X125908404Y-93153333D01*
X125908404Y-93153333D02*
X125813166Y-93200952D01*
X125813166Y-93200952D02*
X125765547Y-93248571D01*
X125765547Y-93248571D02*
X125717928Y-93343809D01*
X125717928Y-93343809D02*
X125670309Y-93534285D01*
X125670309Y-93534285D02*
X125622690Y-93629523D01*
X125622690Y-93629523D02*
X125575071Y-93677142D01*
X125575071Y-93677142D02*
X125479833Y-93724761D01*
X125479833Y-93724761D02*
X125384595Y-93724761D01*
X125384595Y-93724761D02*
X125289357Y-93677142D01*
X125289357Y-93677142D02*
X125241738Y-93629523D01*
X125241738Y-93629523D02*
X125194119Y-93534285D01*
X125194119Y-93534285D02*
X125194119Y-93296190D01*
X125194119Y-93296190D02*
X125241738Y-93153333D01*
X126194119Y-92724761D02*
X125194119Y-92724761D01*
X125194119Y-92724761D02*
X125194119Y-92343809D01*
X125194119Y-92343809D02*
X125241738Y-92248571D01*
X125241738Y-92248571D02*
X125289357Y-92200952D01*
X125289357Y-92200952D02*
X125384595Y-92153333D01*
X125384595Y-92153333D02*
X125527452Y-92153333D01*
X125527452Y-92153333D02*
X125622690Y-92200952D01*
X125622690Y-92200952D02*
X125670309Y-92248571D01*
X125670309Y-92248571D02*
X125717928Y-92343809D01*
X125717928Y-92343809D02*
X125717928Y-92724761D01*
X125194119Y-91819999D02*
X125194119Y-91200952D01*
X125194119Y-91200952D02*
X125575071Y-91534285D01*
X125575071Y-91534285D02*
X125575071Y-91391428D01*
X125575071Y-91391428D02*
X125622690Y-91296190D01*
X125622690Y-91296190D02*
X125670309Y-91248571D01*
X125670309Y-91248571D02*
X125765547Y-91200952D01*
X125765547Y-91200952D02*
X126003642Y-91200952D01*
X126003642Y-91200952D02*
X126098880Y-91248571D01*
X126098880Y-91248571D02*
X126146500Y-91296190D01*
X126146500Y-91296190D02*
X126194119Y-91391428D01*
X126194119Y-91391428D02*
X126194119Y-91677142D01*
X126194119Y-91677142D02*
X126146500Y-91772380D01*
X126146500Y-91772380D02*
X126098880Y-91819999D01*
X125289357Y-90819999D02*
X125241738Y-90772380D01*
X125241738Y-90772380D02*
X125194119Y-90677142D01*
X125194119Y-90677142D02*
X125194119Y-90439047D01*
X125194119Y-90439047D02*
X125241738Y-90343809D01*
X125241738Y-90343809D02*
X125289357Y-90296190D01*
X125289357Y-90296190D02*
X125384595Y-90248571D01*
X125384595Y-90248571D02*
X125479833Y-90248571D01*
X125479833Y-90248571D02*
X125622690Y-90296190D01*
X125622690Y-90296190D02*
X126194119Y-90867618D01*
X126194119Y-90867618D02*
X126194119Y-90248571D01*
X125813166Y-89819999D02*
X125813166Y-89058095D01*
X126146500Y-88629523D02*
X126194119Y-88486666D01*
X126194119Y-88486666D02*
X126194119Y-88248571D01*
X126194119Y-88248571D02*
X126146500Y-88153333D01*
X126146500Y-88153333D02*
X126098880Y-88105714D01*
X126098880Y-88105714D02*
X126003642Y-88058095D01*
X126003642Y-88058095D02*
X125908404Y-88058095D01*
X125908404Y-88058095D02*
X125813166Y-88105714D01*
X125813166Y-88105714D02*
X125765547Y-88153333D01*
X125765547Y-88153333D02*
X125717928Y-88248571D01*
X125717928Y-88248571D02*
X125670309Y-88439047D01*
X125670309Y-88439047D02*
X125622690Y-88534285D01*
X125622690Y-88534285D02*
X125575071Y-88581904D01*
X125575071Y-88581904D02*
X125479833Y-88629523D01*
X125479833Y-88629523D02*
X125384595Y-88629523D01*
X125384595Y-88629523D02*
X125289357Y-88581904D01*
X125289357Y-88581904D02*
X125241738Y-88534285D01*
X125241738Y-88534285D02*
X125194119Y-88439047D01*
X125194119Y-88439047D02*
X125194119Y-88200952D01*
X125194119Y-88200952D02*
X125241738Y-88058095D01*
X125289357Y-87677142D02*
X125241738Y-87629523D01*
X125241738Y-87629523D02*
X125194119Y-87534285D01*
X125194119Y-87534285D02*
X125194119Y-87296190D01*
X125194119Y-87296190D02*
X125241738Y-87200952D01*
X125241738Y-87200952D02*
X125289357Y-87153333D01*
X125289357Y-87153333D02*
X125384595Y-87105714D01*
X125384595Y-87105714D02*
X125479833Y-87105714D01*
X125479833Y-87105714D02*
X125622690Y-87153333D01*
X125622690Y-87153333D02*
X126194119Y-87724761D01*
X126194119Y-87724761D02*
X126194119Y-87105714D01*
X125813166Y-86677142D02*
X125813166Y-85915238D01*
X126194119Y-85439047D02*
X125194119Y-85439047D01*
X125194119Y-85439047D02*
X125194119Y-85200952D01*
X125194119Y-85200952D02*
X125241738Y-85058095D01*
X125241738Y-85058095D02*
X125336976Y-84962857D01*
X125336976Y-84962857D02*
X125432214Y-84915238D01*
X125432214Y-84915238D02*
X125622690Y-84867619D01*
X125622690Y-84867619D02*
X125765547Y-84867619D01*
X125765547Y-84867619D02*
X125956023Y-84915238D01*
X125956023Y-84915238D02*
X126051261Y-84962857D01*
X126051261Y-84962857D02*
X126146500Y-85058095D01*
X126146500Y-85058095D02*
X126194119Y-85200952D01*
X126194119Y-85200952D02*
X126194119Y-85439047D01*
X126146500Y-84058095D02*
X126194119Y-84153333D01*
X126194119Y-84153333D02*
X126194119Y-84343809D01*
X126194119Y-84343809D02*
X126146500Y-84439047D01*
X126146500Y-84439047D02*
X126051261Y-84486666D01*
X126051261Y-84486666D02*
X125670309Y-84486666D01*
X125670309Y-84486666D02*
X125575071Y-84439047D01*
X125575071Y-84439047D02*
X125527452Y-84343809D01*
X125527452Y-84343809D02*
X125527452Y-84153333D01*
X125527452Y-84153333D02*
X125575071Y-84058095D01*
X125575071Y-84058095D02*
X125670309Y-84010476D01*
X125670309Y-84010476D02*
X125765547Y-84010476D01*
X125765547Y-84010476D02*
X125860785Y-84486666D01*
X125527452Y-83677142D02*
X126194119Y-83439047D01*
X126194119Y-83439047D02*
X125527452Y-83200952D01*
X126194119Y-82819999D02*
X125194119Y-82819999D01*
X126194119Y-82248571D02*
X125622690Y-82677142D01*
X125194119Y-82248571D02*
X125765547Y-82819999D01*
X126194119Y-81819999D02*
X125527452Y-81819999D01*
X125194119Y-81819999D02*
X125241738Y-81867618D01*
X125241738Y-81867618D02*
X125289357Y-81819999D01*
X125289357Y-81819999D02*
X125241738Y-81772380D01*
X125241738Y-81772380D02*
X125194119Y-81819999D01*
X125194119Y-81819999D02*
X125289357Y-81819999D01*
X125527452Y-81486666D02*
X125527452Y-81105714D01*
X125194119Y-81343809D02*
X126051261Y-81343809D01*
X126051261Y-81343809D02*
X126146500Y-81296190D01*
X126146500Y-81296190D02*
X126194119Y-81200952D01*
X126194119Y-81200952D02*
X126194119Y-81105714D01*
X126098880Y-80200952D02*
X126146500Y-80248571D01*
X126146500Y-80248571D02*
X126194119Y-80391428D01*
X126194119Y-80391428D02*
X126194119Y-80486666D01*
X126194119Y-80486666D02*
X126146500Y-80629523D01*
X126146500Y-80629523D02*
X126051261Y-80724761D01*
X126051261Y-80724761D02*
X125956023Y-80772380D01*
X125956023Y-80772380D02*
X125765547Y-80819999D01*
X125765547Y-80819999D02*
X125622690Y-80819999D01*
X125622690Y-80819999D02*
X125432214Y-80772380D01*
X125432214Y-80772380D02*
X125336976Y-80724761D01*
X125336976Y-80724761D02*
X125241738Y-80629523D01*
X125241738Y-80629523D02*
X125194119Y-80486666D01*
X125194119Y-80486666D02*
X125194119Y-80391428D01*
X125194119Y-80391428D02*
X125241738Y-80248571D01*
X125241738Y-80248571D02*
X125289357Y-80200952D01*
X125813166Y-79772380D02*
X125813166Y-79010476D01*
X126194119Y-78010476D02*
X126194119Y-78581904D01*
X126194119Y-78296190D02*
X125194119Y-78296190D01*
X125194119Y-78296190D02*
X125336976Y-78391428D01*
X125336976Y-78391428D02*
X125432214Y-78486666D01*
X125432214Y-78486666D02*
X125479833Y-78581904D01*
%TO.C,LS3*%
X125810713Y-66872619D02*
X125334523Y-66872619D01*
X125334523Y-66872619D02*
X125334523Y-65872619D01*
X126144047Y-66872619D02*
X126144047Y-66205952D01*
X126144047Y-65872619D02*
X126096428Y-65920238D01*
X126096428Y-65920238D02*
X126144047Y-65967857D01*
X126144047Y-65967857D02*
X126191666Y-65920238D01*
X126191666Y-65920238D02*
X126144047Y-65872619D01*
X126144047Y-65872619D02*
X126144047Y-65967857D01*
X126620237Y-66205952D02*
X126620237Y-66872619D01*
X126620237Y-66301190D02*
X126667856Y-66253571D01*
X126667856Y-66253571D02*
X126763094Y-66205952D01*
X126763094Y-66205952D02*
X126905951Y-66205952D01*
X126905951Y-66205952D02*
X127001189Y-66253571D01*
X127001189Y-66253571D02*
X127048808Y-66348809D01*
X127048808Y-66348809D02*
X127048808Y-66872619D01*
X127905951Y-66825000D02*
X127810713Y-66872619D01*
X127810713Y-66872619D02*
X127620237Y-66872619D01*
X127620237Y-66872619D02*
X127524999Y-66825000D01*
X127524999Y-66825000D02*
X127477380Y-66729761D01*
X127477380Y-66729761D02*
X127477380Y-66348809D01*
X127477380Y-66348809D02*
X127524999Y-66253571D01*
X127524999Y-66253571D02*
X127620237Y-66205952D01*
X127620237Y-66205952D02*
X127810713Y-66205952D01*
X127810713Y-66205952D02*
X127905951Y-66253571D01*
X127905951Y-66253571D02*
X127953570Y-66348809D01*
X127953570Y-66348809D02*
X127953570Y-66444047D01*
X127953570Y-66444047D02*
X127477380Y-66539285D01*
X128144047Y-66967857D02*
X128905951Y-66967857D01*
X129096428Y-66825000D02*
X129239285Y-66872619D01*
X129239285Y-66872619D02*
X129477380Y-66872619D01*
X129477380Y-66872619D02*
X129572618Y-66825000D01*
X129572618Y-66825000D02*
X129620237Y-66777380D01*
X129620237Y-66777380D02*
X129667856Y-66682142D01*
X129667856Y-66682142D02*
X129667856Y-66586904D01*
X129667856Y-66586904D02*
X129620237Y-66491666D01*
X129620237Y-66491666D02*
X129572618Y-66444047D01*
X129572618Y-66444047D02*
X129477380Y-66396428D01*
X129477380Y-66396428D02*
X129286904Y-66348809D01*
X129286904Y-66348809D02*
X129191666Y-66301190D01*
X129191666Y-66301190D02*
X129144047Y-66253571D01*
X129144047Y-66253571D02*
X129096428Y-66158333D01*
X129096428Y-66158333D02*
X129096428Y-66063095D01*
X129096428Y-66063095D02*
X129144047Y-65967857D01*
X129144047Y-65967857D02*
X129191666Y-65920238D01*
X129191666Y-65920238D02*
X129286904Y-65872619D01*
X129286904Y-65872619D02*
X129524999Y-65872619D01*
X129524999Y-65872619D02*
X129667856Y-65920238D01*
X130477380Y-66825000D02*
X130382142Y-66872619D01*
X130382142Y-66872619D02*
X130191666Y-66872619D01*
X130191666Y-66872619D02*
X130096428Y-66825000D01*
X130096428Y-66825000D02*
X130048809Y-66729761D01*
X130048809Y-66729761D02*
X130048809Y-66348809D01*
X130048809Y-66348809D02*
X130096428Y-66253571D01*
X130096428Y-66253571D02*
X130191666Y-66205952D01*
X130191666Y-66205952D02*
X130382142Y-66205952D01*
X130382142Y-66205952D02*
X130477380Y-66253571D01*
X130477380Y-66253571D02*
X130524999Y-66348809D01*
X130524999Y-66348809D02*
X130524999Y-66444047D01*
X130524999Y-66444047D02*
X130048809Y-66539285D01*
X130953571Y-66205952D02*
X130953571Y-66872619D01*
X130953571Y-66301190D02*
X131001190Y-66253571D01*
X131001190Y-66253571D02*
X131096428Y-66205952D01*
X131096428Y-66205952D02*
X131239285Y-66205952D01*
X131239285Y-66205952D02*
X131334523Y-66253571D01*
X131334523Y-66253571D02*
X131382142Y-66348809D01*
X131382142Y-66348809D02*
X131382142Y-66872619D01*
X131810714Y-66825000D02*
X131905952Y-66872619D01*
X131905952Y-66872619D02*
X132096428Y-66872619D01*
X132096428Y-66872619D02*
X132191666Y-66825000D01*
X132191666Y-66825000D02*
X132239285Y-66729761D01*
X132239285Y-66729761D02*
X132239285Y-66682142D01*
X132239285Y-66682142D02*
X132191666Y-66586904D01*
X132191666Y-66586904D02*
X132096428Y-66539285D01*
X132096428Y-66539285D02*
X131953571Y-66539285D01*
X131953571Y-66539285D02*
X131858333Y-66491666D01*
X131858333Y-66491666D02*
X131810714Y-66396428D01*
X131810714Y-66396428D02*
X131810714Y-66348809D01*
X131810714Y-66348809D02*
X131858333Y-66253571D01*
X131858333Y-66253571D02*
X131953571Y-66205952D01*
X131953571Y-66205952D02*
X132096428Y-66205952D01*
X132096428Y-66205952D02*
X132191666Y-66253571D01*
X132810714Y-66872619D02*
X132715476Y-66825000D01*
X132715476Y-66825000D02*
X132667857Y-66777380D01*
X132667857Y-66777380D02*
X132620238Y-66682142D01*
X132620238Y-66682142D02*
X132620238Y-66396428D01*
X132620238Y-66396428D02*
X132667857Y-66301190D01*
X132667857Y-66301190D02*
X132715476Y-66253571D01*
X132715476Y-66253571D02*
X132810714Y-66205952D01*
X132810714Y-66205952D02*
X132953571Y-66205952D01*
X132953571Y-66205952D02*
X133048809Y-66253571D01*
X133048809Y-66253571D02*
X133096428Y-66301190D01*
X133096428Y-66301190D02*
X133144047Y-66396428D01*
X133144047Y-66396428D02*
X133144047Y-66682142D01*
X133144047Y-66682142D02*
X133096428Y-66777380D01*
X133096428Y-66777380D02*
X133048809Y-66825000D01*
X133048809Y-66825000D02*
X132953571Y-66872619D01*
X132953571Y-66872619D02*
X132810714Y-66872619D01*
X133572619Y-66872619D02*
X133572619Y-66205952D01*
X133572619Y-66396428D02*
X133620238Y-66301190D01*
X133620238Y-66301190D02*
X133667857Y-66253571D01*
X133667857Y-66253571D02*
X133763095Y-66205952D01*
X133763095Y-66205952D02*
X133858333Y-66205952D01*
X128882142Y-68772619D02*
X128405952Y-68772619D01*
X128405952Y-68772619D02*
X128405952Y-67772619D01*
X129167857Y-68725000D02*
X129310714Y-68772619D01*
X129310714Y-68772619D02*
X129548809Y-68772619D01*
X129548809Y-68772619D02*
X129644047Y-68725000D01*
X129644047Y-68725000D02*
X129691666Y-68677380D01*
X129691666Y-68677380D02*
X129739285Y-68582142D01*
X129739285Y-68582142D02*
X129739285Y-68486904D01*
X129739285Y-68486904D02*
X129691666Y-68391666D01*
X129691666Y-68391666D02*
X129644047Y-68344047D01*
X129644047Y-68344047D02*
X129548809Y-68296428D01*
X129548809Y-68296428D02*
X129358333Y-68248809D01*
X129358333Y-68248809D02*
X129263095Y-68201190D01*
X129263095Y-68201190D02*
X129215476Y-68153571D01*
X129215476Y-68153571D02*
X129167857Y-68058333D01*
X129167857Y-68058333D02*
X129167857Y-67963095D01*
X129167857Y-67963095D02*
X129215476Y-67867857D01*
X129215476Y-67867857D02*
X129263095Y-67820238D01*
X129263095Y-67820238D02*
X129358333Y-67772619D01*
X129358333Y-67772619D02*
X129596428Y-67772619D01*
X129596428Y-67772619D02*
X129739285Y-67820238D01*
X130072619Y-67772619D02*
X130691666Y-67772619D01*
X130691666Y-67772619D02*
X130358333Y-68153571D01*
X130358333Y-68153571D02*
X130501190Y-68153571D01*
X130501190Y-68153571D02*
X130596428Y-68201190D01*
X130596428Y-68201190D02*
X130644047Y-68248809D01*
X130644047Y-68248809D02*
X130691666Y-68344047D01*
X130691666Y-68344047D02*
X130691666Y-68582142D01*
X130691666Y-68582142D02*
X130644047Y-68677380D01*
X130644047Y-68677380D02*
X130596428Y-68725000D01*
X130596428Y-68725000D02*
X130501190Y-68772619D01*
X130501190Y-68772619D02*
X130215476Y-68772619D01*
X130215476Y-68772619D02*
X130120238Y-68725000D01*
X130120238Y-68725000D02*
X130072619Y-68677380D01*
%TO.C,PS4*%
X156608095Y-65745619D02*
X156798571Y-65745619D01*
X156798571Y-65745619D02*
X156893809Y-65793238D01*
X156893809Y-65793238D02*
X156989047Y-65888476D01*
X156989047Y-65888476D02*
X157036666Y-66078952D01*
X157036666Y-66078952D02*
X157036666Y-66412285D01*
X157036666Y-66412285D02*
X156989047Y-66602761D01*
X156989047Y-66602761D02*
X156893809Y-66698000D01*
X156893809Y-66698000D02*
X156798571Y-66745619D01*
X156798571Y-66745619D02*
X156608095Y-66745619D01*
X156608095Y-66745619D02*
X156512857Y-66698000D01*
X156512857Y-66698000D02*
X156417619Y-66602761D01*
X156417619Y-66602761D02*
X156370000Y-66412285D01*
X156370000Y-66412285D02*
X156370000Y-66078952D01*
X156370000Y-66078952D02*
X156417619Y-65888476D01*
X156417619Y-65888476D02*
X156512857Y-65793238D01*
X156512857Y-65793238D02*
X156608095Y-65745619D01*
X157465238Y-66745619D02*
X157465238Y-66078952D01*
X157465238Y-66174190D02*
X157512857Y-66126571D01*
X157512857Y-66126571D02*
X157608095Y-66078952D01*
X157608095Y-66078952D02*
X157750952Y-66078952D01*
X157750952Y-66078952D02*
X157846190Y-66126571D01*
X157846190Y-66126571D02*
X157893809Y-66221809D01*
X157893809Y-66221809D02*
X157893809Y-66745619D01*
X157893809Y-66221809D02*
X157941428Y-66126571D01*
X157941428Y-66126571D02*
X158036666Y-66078952D01*
X158036666Y-66078952D02*
X158179523Y-66078952D01*
X158179523Y-66078952D02*
X158274762Y-66126571D01*
X158274762Y-66126571D02*
X158322381Y-66221809D01*
X158322381Y-66221809D02*
X158322381Y-66745619D01*
X158798571Y-66745619D02*
X158798571Y-66078952D01*
X158798571Y-66269428D02*
X158846190Y-66174190D01*
X158846190Y-66174190D02*
X158893809Y-66126571D01*
X158893809Y-66126571D02*
X158989047Y-66078952D01*
X158989047Y-66078952D02*
X159084285Y-66078952D01*
X159560476Y-66745619D02*
X159465238Y-66698000D01*
X159465238Y-66698000D02*
X159417619Y-66650380D01*
X159417619Y-66650380D02*
X159370000Y-66555142D01*
X159370000Y-66555142D02*
X159370000Y-66269428D01*
X159370000Y-66269428D02*
X159417619Y-66174190D01*
X159417619Y-66174190D02*
X159465238Y-66126571D01*
X159465238Y-66126571D02*
X159560476Y-66078952D01*
X159560476Y-66078952D02*
X159703333Y-66078952D01*
X159703333Y-66078952D02*
X159798571Y-66126571D01*
X159798571Y-66126571D02*
X159846190Y-66174190D01*
X159846190Y-66174190D02*
X159893809Y-66269428D01*
X159893809Y-66269428D02*
X159893809Y-66555142D01*
X159893809Y-66555142D02*
X159846190Y-66650380D01*
X159846190Y-66650380D02*
X159798571Y-66698000D01*
X159798571Y-66698000D02*
X159703333Y-66745619D01*
X159703333Y-66745619D02*
X159560476Y-66745619D01*
X160322381Y-66078952D02*
X160322381Y-66745619D01*
X160322381Y-66174190D02*
X160370000Y-66126571D01*
X160370000Y-66126571D02*
X160465238Y-66078952D01*
X160465238Y-66078952D02*
X160608095Y-66078952D01*
X160608095Y-66078952D02*
X160703333Y-66126571D01*
X160703333Y-66126571D02*
X160750952Y-66221809D01*
X160750952Y-66221809D02*
X160750952Y-66745619D01*
X160989048Y-66840857D02*
X161750952Y-66840857D01*
X161989048Y-66221809D02*
X162322381Y-66221809D01*
X162465238Y-66745619D02*
X161989048Y-66745619D01*
X161989048Y-66745619D02*
X161989048Y-65745619D01*
X161989048Y-65745619D02*
X162465238Y-65745619D01*
X162798572Y-65745619D02*
X163417619Y-65745619D01*
X163417619Y-65745619D02*
X163084286Y-66126571D01*
X163084286Y-66126571D02*
X163227143Y-66126571D01*
X163227143Y-66126571D02*
X163322381Y-66174190D01*
X163322381Y-66174190D02*
X163370000Y-66221809D01*
X163370000Y-66221809D02*
X163417619Y-66317047D01*
X163417619Y-66317047D02*
X163417619Y-66555142D01*
X163417619Y-66555142D02*
X163370000Y-66650380D01*
X163370000Y-66650380D02*
X163322381Y-66698000D01*
X163322381Y-66698000D02*
X163227143Y-66745619D01*
X163227143Y-66745619D02*
X162941429Y-66745619D01*
X162941429Y-66745619D02*
X162846191Y-66698000D01*
X162846191Y-66698000D02*
X162798572Y-66650380D01*
X163750953Y-65745619D02*
X164417619Y-65745619D01*
X164417619Y-65745619D02*
X163750953Y-66745619D01*
X163750953Y-66745619D02*
X164417619Y-66745619D01*
X164798572Y-66364666D02*
X165560477Y-66364666D01*
X166036667Y-66745619D02*
X166036667Y-65745619D01*
X166036667Y-65745619D02*
X166274762Y-65745619D01*
X166274762Y-65745619D02*
X166417619Y-65793238D01*
X166417619Y-65793238D02*
X166512857Y-65888476D01*
X166512857Y-65888476D02*
X166560476Y-65983714D01*
X166560476Y-65983714D02*
X166608095Y-66174190D01*
X166608095Y-66174190D02*
X166608095Y-66317047D01*
X166608095Y-66317047D02*
X166560476Y-66507523D01*
X166560476Y-66507523D02*
X166512857Y-66602761D01*
X166512857Y-66602761D02*
X166417619Y-66698000D01*
X166417619Y-66698000D02*
X166274762Y-66745619D01*
X166274762Y-66745619D02*
X166036667Y-66745619D01*
X167465238Y-65745619D02*
X167274762Y-65745619D01*
X167274762Y-65745619D02*
X167179524Y-65793238D01*
X167179524Y-65793238D02*
X167131905Y-65840857D01*
X167131905Y-65840857D02*
X167036667Y-65983714D01*
X167036667Y-65983714D02*
X166989048Y-66174190D01*
X166989048Y-66174190D02*
X166989048Y-66555142D01*
X166989048Y-66555142D02*
X167036667Y-66650380D01*
X167036667Y-66650380D02*
X167084286Y-66698000D01*
X167084286Y-66698000D02*
X167179524Y-66745619D01*
X167179524Y-66745619D02*
X167370000Y-66745619D01*
X167370000Y-66745619D02*
X167465238Y-66698000D01*
X167465238Y-66698000D02*
X167512857Y-66650380D01*
X167512857Y-66650380D02*
X167560476Y-66555142D01*
X167560476Y-66555142D02*
X167560476Y-66317047D01*
X167560476Y-66317047D02*
X167512857Y-66221809D01*
X167512857Y-66221809D02*
X167465238Y-66174190D01*
X167465238Y-66174190D02*
X167370000Y-66126571D01*
X167370000Y-66126571D02*
X167179524Y-66126571D01*
X167179524Y-66126571D02*
X167084286Y-66174190D01*
X167084286Y-66174190D02*
X167036667Y-66221809D01*
X167036667Y-66221809D02*
X166989048Y-66317047D01*
X167941429Y-65840857D02*
X167989048Y-65793238D01*
X167989048Y-65793238D02*
X168084286Y-65745619D01*
X168084286Y-65745619D02*
X168322381Y-65745619D01*
X168322381Y-65745619D02*
X168417619Y-65793238D01*
X168417619Y-65793238D02*
X168465238Y-65840857D01*
X168465238Y-65840857D02*
X168512857Y-65936095D01*
X168512857Y-65936095D02*
X168512857Y-66031333D01*
X168512857Y-66031333D02*
X168465238Y-66174190D01*
X168465238Y-66174190D02*
X167893810Y-66745619D01*
X167893810Y-66745619D02*
X168512857Y-66745619D01*
X168703334Y-66840857D02*
X169465238Y-66840857D01*
X169655715Y-65840857D02*
X169703334Y-65793238D01*
X169703334Y-65793238D02*
X169798572Y-65745619D01*
X169798572Y-65745619D02*
X170036667Y-65745619D01*
X170036667Y-65745619D02*
X170131905Y-65793238D01*
X170131905Y-65793238D02*
X170179524Y-65840857D01*
X170179524Y-65840857D02*
X170227143Y-65936095D01*
X170227143Y-65936095D02*
X170227143Y-66031333D01*
X170227143Y-66031333D02*
X170179524Y-66174190D01*
X170179524Y-66174190D02*
X169608096Y-66745619D01*
X169608096Y-66745619D02*
X170227143Y-66745619D01*
X170655715Y-66745619D02*
X170655715Y-65745619D01*
X170655715Y-65745619D02*
X170989048Y-66459904D01*
X170989048Y-66459904D02*
X171322381Y-65745619D01*
X171322381Y-65745619D02*
X171322381Y-66745619D01*
X162655714Y-68645619D02*
X162655714Y-67645619D01*
X162655714Y-67645619D02*
X163036666Y-67645619D01*
X163036666Y-67645619D02*
X163131904Y-67693238D01*
X163131904Y-67693238D02*
X163179523Y-67740857D01*
X163179523Y-67740857D02*
X163227142Y-67836095D01*
X163227142Y-67836095D02*
X163227142Y-67978952D01*
X163227142Y-67978952D02*
X163179523Y-68074190D01*
X163179523Y-68074190D02*
X163131904Y-68121809D01*
X163131904Y-68121809D02*
X163036666Y-68169428D01*
X163036666Y-68169428D02*
X162655714Y-68169428D01*
X163608095Y-68598000D02*
X163750952Y-68645619D01*
X163750952Y-68645619D02*
X163989047Y-68645619D01*
X163989047Y-68645619D02*
X164084285Y-68598000D01*
X164084285Y-68598000D02*
X164131904Y-68550380D01*
X164131904Y-68550380D02*
X164179523Y-68455142D01*
X164179523Y-68455142D02*
X164179523Y-68359904D01*
X164179523Y-68359904D02*
X164131904Y-68264666D01*
X164131904Y-68264666D02*
X164084285Y-68217047D01*
X164084285Y-68217047D02*
X163989047Y-68169428D01*
X163989047Y-68169428D02*
X163798571Y-68121809D01*
X163798571Y-68121809D02*
X163703333Y-68074190D01*
X163703333Y-68074190D02*
X163655714Y-68026571D01*
X163655714Y-68026571D02*
X163608095Y-67931333D01*
X163608095Y-67931333D02*
X163608095Y-67836095D01*
X163608095Y-67836095D02*
X163655714Y-67740857D01*
X163655714Y-67740857D02*
X163703333Y-67693238D01*
X163703333Y-67693238D02*
X163798571Y-67645619D01*
X163798571Y-67645619D02*
X164036666Y-67645619D01*
X164036666Y-67645619D02*
X164179523Y-67693238D01*
X165036666Y-67978952D02*
X165036666Y-68645619D01*
X164798571Y-67598000D02*
X164560476Y-68312285D01*
X164560476Y-68312285D02*
X165179523Y-68312285D01*
%TO.C,LS1*%
X126937142Y-111747619D02*
X126460952Y-111747619D01*
X126460952Y-111747619D02*
X126460952Y-110747619D01*
X127222857Y-111700000D02*
X127365714Y-111747619D01*
X127365714Y-111747619D02*
X127603809Y-111747619D01*
X127603809Y-111747619D02*
X127699047Y-111700000D01*
X127699047Y-111700000D02*
X127746666Y-111652380D01*
X127746666Y-111652380D02*
X127794285Y-111557142D01*
X127794285Y-111557142D02*
X127794285Y-111461904D01*
X127794285Y-111461904D02*
X127746666Y-111366666D01*
X127746666Y-111366666D02*
X127699047Y-111319047D01*
X127699047Y-111319047D02*
X127603809Y-111271428D01*
X127603809Y-111271428D02*
X127413333Y-111223809D01*
X127413333Y-111223809D02*
X127318095Y-111176190D01*
X127318095Y-111176190D02*
X127270476Y-111128571D01*
X127270476Y-111128571D02*
X127222857Y-111033333D01*
X127222857Y-111033333D02*
X127222857Y-110938095D01*
X127222857Y-110938095D02*
X127270476Y-110842857D01*
X127270476Y-110842857D02*
X127318095Y-110795238D01*
X127318095Y-110795238D02*
X127413333Y-110747619D01*
X127413333Y-110747619D02*
X127651428Y-110747619D01*
X127651428Y-110747619D02*
X127794285Y-110795238D01*
X128746666Y-111747619D02*
X128175238Y-111747619D01*
X128460952Y-111747619D02*
X128460952Y-110747619D01*
X128460952Y-110747619D02*
X128365714Y-110890476D01*
X128365714Y-110890476D02*
X128270476Y-110985714D01*
X128270476Y-110985714D02*
X128175238Y-111033333D01*
D11*
%TO.C,PS3*%
X179795000Y-106235000D02*
X179795000Y-111985000D01*
X179795000Y-111985000D02*
X189695000Y-111985000D01*
X181620000Y-106235000D02*
X182245000Y-107235000D01*
X182245000Y-107235000D02*
X182870000Y-106235000D01*
X189695000Y-106235000D02*
X179795000Y-106235000D01*
X189695000Y-111985000D02*
X189695000Y-106235000D01*
%TO.C,PS9*%
X112966000Y-95715000D02*
X118716000Y-95715000D01*
X118716000Y-95715000D02*
X118716000Y-85815000D01*
X112966000Y-93890000D02*
X113966000Y-93265000D01*
X113966000Y-93265000D02*
X112966000Y-92640000D01*
X112966000Y-85815000D02*
X112966000Y-95715000D01*
X118716000Y-85815000D02*
X112966000Y-85815000D01*
%TO.C,GYRO2*%
X118676075Y-83765000D02*
X116771075Y-83765000D01*
X118676075Y-63445000D02*
X118676075Y-83765000D01*
X116771075Y-83765000D02*
X116136075Y-83130000D01*
X116136075Y-83130000D02*
X116136075Y-63445000D01*
X116136075Y-63445000D02*
X118676075Y-63445000D01*
%TO.C,LS4*%
X145920000Y-73360000D02*
X145920000Y-67610000D01*
X145920000Y-67610000D02*
X136020000Y-67610000D01*
X144095000Y-73360000D02*
X143470000Y-72360000D01*
X143470000Y-72360000D02*
X142845000Y-73360000D01*
X136020000Y-73360000D02*
X145920000Y-73360000D01*
X136020000Y-67610000D02*
X136020000Y-73360000D01*
%TO.C,PS6*%
X191680000Y-73233000D02*
X191680000Y-67483000D01*
X191680000Y-67483000D02*
X181780000Y-67483000D01*
X189855000Y-73233000D02*
X189230000Y-72233000D01*
X189230000Y-72233000D02*
X188605000Y-73233000D01*
X181780000Y-73233000D02*
X191680000Y-73233000D01*
X181780000Y-67483000D02*
X181780000Y-73233000D01*
%TO.C,PS8*%
X113093000Y-107653000D02*
X118843000Y-107653000D01*
X118843000Y-107653000D02*
X118843000Y-97753000D01*
X113093000Y-105828000D02*
X114093000Y-105203000D01*
X114093000Y-105203000D02*
X113093000Y-104578000D01*
X113093000Y-97753000D02*
X113093000Y-107653000D01*
X118843000Y-97753000D02*
X113093000Y-97753000D01*
%TO.C,PS7*%
X145545000Y-106235000D02*
X145545000Y-111985000D01*
X145545000Y-111985000D02*
X155445000Y-111985000D01*
X147370000Y-106235000D02*
X147995000Y-107235000D01*
X147995000Y-107235000D02*
X148620000Y-106235000D01*
X155445000Y-106235000D02*
X145545000Y-106235000D01*
X155445000Y-111985000D02*
X155445000Y-106235000D01*
%TO.C,PS2*%
X178265000Y-112205000D02*
X178265000Y-106455000D01*
X178265000Y-106455000D02*
X168365000Y-106455000D01*
X176440000Y-112205000D02*
X175815000Y-111205000D01*
X175815000Y-111205000D02*
X175190000Y-112205000D01*
X168365000Y-112205000D02*
X178265000Y-112205000D01*
X168365000Y-106455000D02*
X168365000Y-112205000D01*
%TO.C,PS5*%
X170295000Y-67500000D02*
X170295000Y-73250000D01*
X170295000Y-73250000D02*
X180195000Y-73250000D01*
X172120000Y-67500000D02*
X172745000Y-68500000D01*
X172745000Y-68500000D02*
X173370000Y-67500000D01*
X180195000Y-67500000D02*
X170295000Y-67500000D01*
X180195000Y-73250000D02*
X180195000Y-67500000D01*
%TO.C,PS1*%
X166875000Y-112095000D02*
X166875000Y-106345000D01*
X166875000Y-106345000D02*
X156975000Y-106345000D01*
X165050000Y-112095000D02*
X164425000Y-111095000D01*
X164425000Y-111095000D02*
X163800000Y-112095000D01*
X156975000Y-112095000D02*
X166875000Y-112095000D01*
X156975000Y-106345000D02*
X156975000Y-112095000D01*
%TO.C,LS2*%
X134115000Y-106235000D02*
X134115000Y-111985000D01*
X134115000Y-111985000D02*
X144015000Y-111985000D01*
X135940000Y-106235000D02*
X136565000Y-107235000D01*
X136565000Y-107235000D02*
X137190000Y-106235000D01*
X144015000Y-106235000D02*
X134115000Y-106235000D01*
X144015000Y-111985000D02*
X144015000Y-106235000D01*
%TO.C,COOLER*%
X178345000Y-119190000D02*
X178345000Y-113440000D01*
X178345000Y-113440000D02*
X168445000Y-113440000D01*
X176520000Y-119190000D02*
X175895000Y-118190000D01*
X175895000Y-118190000D02*
X175270000Y-119190000D01*
X168445000Y-119190000D02*
X178345000Y-119190000D01*
X168445000Y-113440000D02*
X168445000Y-119190000D01*
%TO.C,LS3*%
X134475000Y-73360000D02*
X134475000Y-67610000D01*
X134475000Y-67610000D02*
X124575000Y-67610000D01*
X132650000Y-73360000D02*
X132025000Y-72360000D01*
X132025000Y-72360000D02*
X131400000Y-73360000D01*
X124575000Y-73360000D02*
X134475000Y-73360000D01*
X124575000Y-67610000D02*
X124575000Y-73360000D01*
%TO.C,PS4*%
X168820000Y-73233000D02*
X168820000Y-67483000D01*
X168820000Y-67483000D02*
X158920000Y-67483000D01*
X166995000Y-73233000D02*
X166370000Y-72233000D01*
X166370000Y-72233000D02*
X165745000Y-73233000D01*
X158920000Y-73233000D02*
X168820000Y-73233000D01*
X158920000Y-67483000D02*
X158920000Y-73233000D01*
%TO.C,LS1*%
X122630000Y-106235000D02*
X122630000Y-111985000D01*
X122630000Y-111985000D02*
X132530000Y-111985000D01*
X124455000Y-106235000D02*
X125080000Y-107235000D01*
X125080000Y-107235000D02*
X125705000Y-106235000D01*
X132530000Y-106235000D02*
X122630000Y-106235000D01*
X132530000Y-111985000D02*
X132530000Y-106235000D01*
%TD*%
M02*
