%TF.GenerationSoftware,KiCad,Pcbnew,7.0.1*%
%TF.CreationDate,2023-04-18T16:59:51-04:00*%
%TF.ProjectId,luison-electronics,6c756973-6f6e-42d6-956c-656374726f6e,rev?*%
%TF.SameCoordinates,Original*%
%TF.FileFunction,Legend,Top*%
%TF.FilePolarity,Positive*%
%FSLAX46Y46*%
G04 Gerber Fmt 4.6, Leading zero omitted, Abs format (unit mm)*
G04 Created by KiCad (PCBNEW 7.0.1) date 2023-04-18 16:59:51*
%MOMM*%
%LPD*%
G01*
G04 APERTURE LIST*
%ADD10C,0.375000*%
%ADD11C,0.150000*%
%ADD12C,0.120000*%
%ADD13C,0.050000*%
G04 APERTURE END LIST*
D10*
X120451428Y-117804047D02*
X119737142Y-117804047D01*
X119737142Y-117804047D02*
X119737142Y-115304047D01*
X120951428Y-115304047D02*
X120951428Y-117327857D01*
X120951428Y-117327857D02*
X121022857Y-117565952D01*
X121022857Y-117565952D02*
X121094286Y-117685000D01*
X121094286Y-117685000D02*
X121237143Y-117804047D01*
X121237143Y-117804047D02*
X121522857Y-117804047D01*
X121522857Y-117804047D02*
X121665714Y-117685000D01*
X121665714Y-117685000D02*
X121737143Y-117565952D01*
X121737143Y-117565952D02*
X121808571Y-117327857D01*
X121808571Y-117327857D02*
X121808571Y-115304047D01*
X122522857Y-117804047D02*
X122522857Y-115304047D01*
X123165715Y-117685000D02*
X123380001Y-117804047D01*
X123380001Y-117804047D02*
X123737143Y-117804047D01*
X123737143Y-117804047D02*
X123880001Y-117685000D01*
X123880001Y-117685000D02*
X123951429Y-117565952D01*
X123951429Y-117565952D02*
X124022858Y-117327857D01*
X124022858Y-117327857D02*
X124022858Y-117089761D01*
X124022858Y-117089761D02*
X123951429Y-116851666D01*
X123951429Y-116851666D02*
X123880001Y-116732619D01*
X123880001Y-116732619D02*
X123737143Y-116613571D01*
X123737143Y-116613571D02*
X123451429Y-116494523D01*
X123451429Y-116494523D02*
X123308572Y-116375476D01*
X123308572Y-116375476D02*
X123237143Y-116256428D01*
X123237143Y-116256428D02*
X123165715Y-116018333D01*
X123165715Y-116018333D02*
X123165715Y-115780238D01*
X123165715Y-115780238D02*
X123237143Y-115542142D01*
X123237143Y-115542142D02*
X123308572Y-115423095D01*
X123308572Y-115423095D02*
X123451429Y-115304047D01*
X123451429Y-115304047D02*
X123808572Y-115304047D01*
X123808572Y-115304047D02*
X124022858Y-115423095D01*
X124951429Y-115304047D02*
X125237143Y-115304047D01*
X125237143Y-115304047D02*
X125380000Y-115423095D01*
X125380000Y-115423095D02*
X125522857Y-115661190D01*
X125522857Y-115661190D02*
X125594286Y-116137380D01*
X125594286Y-116137380D02*
X125594286Y-116970714D01*
X125594286Y-116970714D02*
X125522857Y-117446904D01*
X125522857Y-117446904D02*
X125380000Y-117685000D01*
X125380000Y-117685000D02*
X125237143Y-117804047D01*
X125237143Y-117804047D02*
X124951429Y-117804047D01*
X124951429Y-117804047D02*
X124808572Y-117685000D01*
X124808572Y-117685000D02*
X124665714Y-117446904D01*
X124665714Y-117446904D02*
X124594286Y-116970714D01*
X124594286Y-116970714D02*
X124594286Y-116137380D01*
X124594286Y-116137380D02*
X124665714Y-115661190D01*
X124665714Y-115661190D02*
X124808572Y-115423095D01*
X124808572Y-115423095D02*
X124951429Y-115304047D01*
X126237143Y-117804047D02*
X126237143Y-115304047D01*
X126237143Y-115304047D02*
X127094286Y-117804047D01*
X127094286Y-117804047D02*
X127094286Y-115304047D01*
X127451430Y-118042142D02*
X128594287Y-118042142D01*
X128951429Y-116494523D02*
X129451429Y-116494523D01*
X129665715Y-117804047D02*
X128951429Y-117804047D01*
X128951429Y-117804047D02*
X128951429Y-115304047D01*
X128951429Y-115304047D02*
X129665715Y-115304047D01*
X131022858Y-117804047D02*
X130308572Y-117804047D01*
X130308572Y-117804047D02*
X130308572Y-115304047D01*
X131522858Y-116494523D02*
X132022858Y-116494523D01*
X132237144Y-117804047D02*
X131522858Y-117804047D01*
X131522858Y-117804047D02*
X131522858Y-115304047D01*
X131522858Y-115304047D02*
X132237144Y-115304047D01*
X133737144Y-117565952D02*
X133665716Y-117685000D01*
X133665716Y-117685000D02*
X133451430Y-117804047D01*
X133451430Y-117804047D02*
X133308573Y-117804047D01*
X133308573Y-117804047D02*
X133094287Y-117685000D01*
X133094287Y-117685000D02*
X132951430Y-117446904D01*
X132951430Y-117446904D02*
X132880001Y-117208809D01*
X132880001Y-117208809D02*
X132808573Y-116732619D01*
X132808573Y-116732619D02*
X132808573Y-116375476D01*
X132808573Y-116375476D02*
X132880001Y-115899285D01*
X132880001Y-115899285D02*
X132951430Y-115661190D01*
X132951430Y-115661190D02*
X133094287Y-115423095D01*
X133094287Y-115423095D02*
X133308573Y-115304047D01*
X133308573Y-115304047D02*
X133451430Y-115304047D01*
X133451430Y-115304047D02*
X133665716Y-115423095D01*
X133665716Y-115423095D02*
X133737144Y-115542142D01*
X134165716Y-115304047D02*
X135022859Y-115304047D01*
X134594287Y-117804047D02*
X134594287Y-115304047D01*
X136380001Y-117804047D02*
X135880001Y-116613571D01*
X135522858Y-117804047D02*
X135522858Y-115304047D01*
X135522858Y-115304047D02*
X136094287Y-115304047D01*
X136094287Y-115304047D02*
X136237144Y-115423095D01*
X136237144Y-115423095D02*
X136308573Y-115542142D01*
X136308573Y-115542142D02*
X136380001Y-115780238D01*
X136380001Y-115780238D02*
X136380001Y-116137380D01*
X136380001Y-116137380D02*
X136308573Y-116375476D01*
X136308573Y-116375476D02*
X136237144Y-116494523D01*
X136237144Y-116494523D02*
X136094287Y-116613571D01*
X136094287Y-116613571D02*
X135522858Y-116613571D01*
X137308573Y-115304047D02*
X137594287Y-115304047D01*
X137594287Y-115304047D02*
X137737144Y-115423095D01*
X137737144Y-115423095D02*
X137880001Y-115661190D01*
X137880001Y-115661190D02*
X137951430Y-116137380D01*
X137951430Y-116137380D02*
X137951430Y-116970714D01*
X137951430Y-116970714D02*
X137880001Y-117446904D01*
X137880001Y-117446904D02*
X137737144Y-117685000D01*
X137737144Y-117685000D02*
X137594287Y-117804047D01*
X137594287Y-117804047D02*
X137308573Y-117804047D01*
X137308573Y-117804047D02*
X137165716Y-117685000D01*
X137165716Y-117685000D02*
X137022858Y-117446904D01*
X137022858Y-117446904D02*
X136951430Y-116970714D01*
X136951430Y-116970714D02*
X136951430Y-116137380D01*
X136951430Y-116137380D02*
X137022858Y-115661190D01*
X137022858Y-115661190D02*
X137165716Y-115423095D01*
X137165716Y-115423095D02*
X137308573Y-115304047D01*
X138594287Y-117804047D02*
X138594287Y-115304047D01*
X138594287Y-115304047D02*
X139451430Y-117804047D01*
X139451430Y-117804047D02*
X139451430Y-115304047D01*
X140165716Y-117804047D02*
X140165716Y-115304047D01*
X140808574Y-117685000D02*
X141022860Y-117804047D01*
X141022860Y-117804047D02*
X141380002Y-117804047D01*
X141380002Y-117804047D02*
X141522860Y-117685000D01*
X141522860Y-117685000D02*
X141594288Y-117565952D01*
X141594288Y-117565952D02*
X141665717Y-117327857D01*
X141665717Y-117327857D02*
X141665717Y-117089761D01*
X141665717Y-117089761D02*
X141594288Y-116851666D01*
X141594288Y-116851666D02*
X141522860Y-116732619D01*
X141522860Y-116732619D02*
X141380002Y-116613571D01*
X141380002Y-116613571D02*
X141094288Y-116494523D01*
X141094288Y-116494523D02*
X140951431Y-116375476D01*
X140951431Y-116375476D02*
X140880002Y-116256428D01*
X140880002Y-116256428D02*
X140808574Y-116018333D01*
X140808574Y-116018333D02*
X140808574Y-115780238D01*
X140808574Y-115780238D02*
X140880002Y-115542142D01*
X140880002Y-115542142D02*
X140951431Y-115423095D01*
X140951431Y-115423095D02*
X141094288Y-115304047D01*
X141094288Y-115304047D02*
X141451431Y-115304047D01*
X141451431Y-115304047D02*
X141665717Y-115423095D01*
D11*
%TO.C,PS9*%
X112228619Y-91979285D02*
X111228619Y-91979285D01*
X111228619Y-91979285D02*
X111228619Y-91598333D01*
X111228619Y-91598333D02*
X111276238Y-91503095D01*
X111276238Y-91503095D02*
X111323857Y-91455476D01*
X111323857Y-91455476D02*
X111419095Y-91407857D01*
X111419095Y-91407857D02*
X111561952Y-91407857D01*
X111561952Y-91407857D02*
X111657190Y-91455476D01*
X111657190Y-91455476D02*
X111704809Y-91503095D01*
X111704809Y-91503095D02*
X111752428Y-91598333D01*
X111752428Y-91598333D02*
X111752428Y-91979285D01*
X112181000Y-91026904D02*
X112228619Y-90884047D01*
X112228619Y-90884047D02*
X112228619Y-90645952D01*
X112228619Y-90645952D02*
X112181000Y-90550714D01*
X112181000Y-90550714D02*
X112133380Y-90503095D01*
X112133380Y-90503095D02*
X112038142Y-90455476D01*
X112038142Y-90455476D02*
X111942904Y-90455476D01*
X111942904Y-90455476D02*
X111847666Y-90503095D01*
X111847666Y-90503095D02*
X111800047Y-90550714D01*
X111800047Y-90550714D02*
X111752428Y-90645952D01*
X111752428Y-90645952D02*
X111704809Y-90836428D01*
X111704809Y-90836428D02*
X111657190Y-90931666D01*
X111657190Y-90931666D02*
X111609571Y-90979285D01*
X111609571Y-90979285D02*
X111514333Y-91026904D01*
X111514333Y-91026904D02*
X111419095Y-91026904D01*
X111419095Y-91026904D02*
X111323857Y-90979285D01*
X111323857Y-90979285D02*
X111276238Y-90931666D01*
X111276238Y-90931666D02*
X111228619Y-90836428D01*
X111228619Y-90836428D02*
X111228619Y-90598333D01*
X111228619Y-90598333D02*
X111276238Y-90455476D01*
X112228619Y-89979285D02*
X112228619Y-89788809D01*
X112228619Y-89788809D02*
X112181000Y-89693571D01*
X112181000Y-89693571D02*
X112133380Y-89645952D01*
X112133380Y-89645952D02*
X111990523Y-89550714D01*
X111990523Y-89550714D02*
X111800047Y-89503095D01*
X111800047Y-89503095D02*
X111419095Y-89503095D01*
X111419095Y-89503095D02*
X111323857Y-89550714D01*
X111323857Y-89550714D02*
X111276238Y-89598333D01*
X111276238Y-89598333D02*
X111228619Y-89693571D01*
X111228619Y-89693571D02*
X111228619Y-89884047D01*
X111228619Y-89884047D02*
X111276238Y-89979285D01*
X111276238Y-89979285D02*
X111323857Y-90026904D01*
X111323857Y-90026904D02*
X111419095Y-90074523D01*
X111419095Y-90074523D02*
X111657190Y-90074523D01*
X111657190Y-90074523D02*
X111752428Y-90026904D01*
X111752428Y-90026904D02*
X111800047Y-89979285D01*
X111800047Y-89979285D02*
X111847666Y-89884047D01*
X111847666Y-89884047D02*
X111847666Y-89693571D01*
X111847666Y-89693571D02*
X111800047Y-89598333D01*
X111800047Y-89598333D02*
X111752428Y-89550714D01*
X111752428Y-89550714D02*
X111657190Y-89503095D01*
%TO.C,GYRO2*%
X115739408Y-84775238D02*
X115644170Y-84727619D01*
X115644170Y-84727619D02*
X115501313Y-84727619D01*
X115501313Y-84727619D02*
X115358456Y-84775238D01*
X115358456Y-84775238D02*
X115263218Y-84870476D01*
X115263218Y-84870476D02*
X115215599Y-84965714D01*
X115215599Y-84965714D02*
X115167980Y-85156190D01*
X115167980Y-85156190D02*
X115167980Y-85299047D01*
X115167980Y-85299047D02*
X115215599Y-85489523D01*
X115215599Y-85489523D02*
X115263218Y-85584761D01*
X115263218Y-85584761D02*
X115358456Y-85680000D01*
X115358456Y-85680000D02*
X115501313Y-85727619D01*
X115501313Y-85727619D02*
X115596551Y-85727619D01*
X115596551Y-85727619D02*
X115739408Y-85680000D01*
X115739408Y-85680000D02*
X115787027Y-85632380D01*
X115787027Y-85632380D02*
X115787027Y-85299047D01*
X115787027Y-85299047D02*
X115596551Y-85299047D01*
X116406075Y-85251428D02*
X116406075Y-85727619D01*
X116072742Y-84727619D02*
X116406075Y-85251428D01*
X116406075Y-85251428D02*
X116739408Y-84727619D01*
X117644170Y-85727619D02*
X117310837Y-85251428D01*
X117072742Y-85727619D02*
X117072742Y-84727619D01*
X117072742Y-84727619D02*
X117453694Y-84727619D01*
X117453694Y-84727619D02*
X117548932Y-84775238D01*
X117548932Y-84775238D02*
X117596551Y-84822857D01*
X117596551Y-84822857D02*
X117644170Y-84918095D01*
X117644170Y-84918095D02*
X117644170Y-85060952D01*
X117644170Y-85060952D02*
X117596551Y-85156190D01*
X117596551Y-85156190D02*
X117548932Y-85203809D01*
X117548932Y-85203809D02*
X117453694Y-85251428D01*
X117453694Y-85251428D02*
X117072742Y-85251428D01*
X118263218Y-84727619D02*
X118453694Y-84727619D01*
X118453694Y-84727619D02*
X118548932Y-84775238D01*
X118548932Y-84775238D02*
X118644170Y-84870476D01*
X118644170Y-84870476D02*
X118691789Y-85060952D01*
X118691789Y-85060952D02*
X118691789Y-85394285D01*
X118691789Y-85394285D02*
X118644170Y-85584761D01*
X118644170Y-85584761D02*
X118548932Y-85680000D01*
X118548932Y-85680000D02*
X118453694Y-85727619D01*
X118453694Y-85727619D02*
X118263218Y-85727619D01*
X118263218Y-85727619D02*
X118167980Y-85680000D01*
X118167980Y-85680000D02*
X118072742Y-85584761D01*
X118072742Y-85584761D02*
X118025123Y-85394285D01*
X118025123Y-85394285D02*
X118025123Y-85060952D01*
X118025123Y-85060952D02*
X118072742Y-84870476D01*
X118072742Y-84870476D02*
X118167980Y-84775238D01*
X118167980Y-84775238D02*
X118263218Y-84727619D01*
X119072742Y-84822857D02*
X119120361Y-84775238D01*
X119120361Y-84775238D02*
X119215599Y-84727619D01*
X119215599Y-84727619D02*
X119453694Y-84727619D01*
X119453694Y-84727619D02*
X119548932Y-84775238D01*
X119548932Y-84775238D02*
X119596551Y-84822857D01*
X119596551Y-84822857D02*
X119644170Y-84918095D01*
X119644170Y-84918095D02*
X119644170Y-85013333D01*
X119644170Y-85013333D02*
X119596551Y-85156190D01*
X119596551Y-85156190D02*
X119025123Y-85727619D01*
X119025123Y-85727619D02*
X119644170Y-85727619D01*
%TO.C,LS4*%
X139692142Y-66502619D02*
X139215952Y-66502619D01*
X139215952Y-66502619D02*
X139215952Y-65502619D01*
X139977857Y-66455000D02*
X140120714Y-66502619D01*
X140120714Y-66502619D02*
X140358809Y-66502619D01*
X140358809Y-66502619D02*
X140454047Y-66455000D01*
X140454047Y-66455000D02*
X140501666Y-66407380D01*
X140501666Y-66407380D02*
X140549285Y-66312142D01*
X140549285Y-66312142D02*
X140549285Y-66216904D01*
X140549285Y-66216904D02*
X140501666Y-66121666D01*
X140501666Y-66121666D02*
X140454047Y-66074047D01*
X140454047Y-66074047D02*
X140358809Y-66026428D01*
X140358809Y-66026428D02*
X140168333Y-65978809D01*
X140168333Y-65978809D02*
X140073095Y-65931190D01*
X140073095Y-65931190D02*
X140025476Y-65883571D01*
X140025476Y-65883571D02*
X139977857Y-65788333D01*
X139977857Y-65788333D02*
X139977857Y-65693095D01*
X139977857Y-65693095D02*
X140025476Y-65597857D01*
X140025476Y-65597857D02*
X140073095Y-65550238D01*
X140073095Y-65550238D02*
X140168333Y-65502619D01*
X140168333Y-65502619D02*
X140406428Y-65502619D01*
X140406428Y-65502619D02*
X140549285Y-65550238D01*
X141406428Y-65835952D02*
X141406428Y-66502619D01*
X141168333Y-65455000D02*
X140930238Y-66169285D01*
X140930238Y-66169285D02*
X141549285Y-66169285D01*
%TO.C,PS6*%
X186110714Y-66502619D02*
X186110714Y-65502619D01*
X186110714Y-65502619D02*
X186491666Y-65502619D01*
X186491666Y-65502619D02*
X186586904Y-65550238D01*
X186586904Y-65550238D02*
X186634523Y-65597857D01*
X186634523Y-65597857D02*
X186682142Y-65693095D01*
X186682142Y-65693095D02*
X186682142Y-65835952D01*
X186682142Y-65835952D02*
X186634523Y-65931190D01*
X186634523Y-65931190D02*
X186586904Y-65978809D01*
X186586904Y-65978809D02*
X186491666Y-66026428D01*
X186491666Y-66026428D02*
X186110714Y-66026428D01*
X187063095Y-66455000D02*
X187205952Y-66502619D01*
X187205952Y-66502619D02*
X187444047Y-66502619D01*
X187444047Y-66502619D02*
X187539285Y-66455000D01*
X187539285Y-66455000D02*
X187586904Y-66407380D01*
X187586904Y-66407380D02*
X187634523Y-66312142D01*
X187634523Y-66312142D02*
X187634523Y-66216904D01*
X187634523Y-66216904D02*
X187586904Y-66121666D01*
X187586904Y-66121666D02*
X187539285Y-66074047D01*
X187539285Y-66074047D02*
X187444047Y-66026428D01*
X187444047Y-66026428D02*
X187253571Y-65978809D01*
X187253571Y-65978809D02*
X187158333Y-65931190D01*
X187158333Y-65931190D02*
X187110714Y-65883571D01*
X187110714Y-65883571D02*
X187063095Y-65788333D01*
X187063095Y-65788333D02*
X187063095Y-65693095D01*
X187063095Y-65693095D02*
X187110714Y-65597857D01*
X187110714Y-65597857D02*
X187158333Y-65550238D01*
X187158333Y-65550238D02*
X187253571Y-65502619D01*
X187253571Y-65502619D02*
X187491666Y-65502619D01*
X187491666Y-65502619D02*
X187634523Y-65550238D01*
X188491666Y-65502619D02*
X188301190Y-65502619D01*
X188301190Y-65502619D02*
X188205952Y-65550238D01*
X188205952Y-65550238D02*
X188158333Y-65597857D01*
X188158333Y-65597857D02*
X188063095Y-65740714D01*
X188063095Y-65740714D02*
X188015476Y-65931190D01*
X188015476Y-65931190D02*
X188015476Y-66312142D01*
X188015476Y-66312142D02*
X188063095Y-66407380D01*
X188063095Y-66407380D02*
X188110714Y-66455000D01*
X188110714Y-66455000D02*
X188205952Y-66502619D01*
X188205952Y-66502619D02*
X188396428Y-66502619D01*
X188396428Y-66502619D02*
X188491666Y-66455000D01*
X188491666Y-66455000D02*
X188539285Y-66407380D01*
X188539285Y-66407380D02*
X188586904Y-66312142D01*
X188586904Y-66312142D02*
X188586904Y-66074047D01*
X188586904Y-66074047D02*
X188539285Y-65978809D01*
X188539285Y-65978809D02*
X188491666Y-65931190D01*
X188491666Y-65931190D02*
X188396428Y-65883571D01*
X188396428Y-65883571D02*
X188205952Y-65883571D01*
X188205952Y-65883571D02*
X188110714Y-65931190D01*
X188110714Y-65931190D02*
X188063095Y-65978809D01*
X188063095Y-65978809D02*
X188015476Y-66074047D01*
%TO.C,U2*%
X157172619Y-115696904D02*
X157982142Y-115696904D01*
X157982142Y-115696904D02*
X158077380Y-115649285D01*
X158077380Y-115649285D02*
X158125000Y-115601666D01*
X158125000Y-115601666D02*
X158172619Y-115506428D01*
X158172619Y-115506428D02*
X158172619Y-115315952D01*
X158172619Y-115315952D02*
X158125000Y-115220714D01*
X158125000Y-115220714D02*
X158077380Y-115173095D01*
X158077380Y-115173095D02*
X157982142Y-115125476D01*
X157982142Y-115125476D02*
X157172619Y-115125476D01*
X157267857Y-114696904D02*
X157220238Y-114649285D01*
X157220238Y-114649285D02*
X157172619Y-114554047D01*
X157172619Y-114554047D02*
X157172619Y-114315952D01*
X157172619Y-114315952D02*
X157220238Y-114220714D01*
X157220238Y-114220714D02*
X157267857Y-114173095D01*
X157267857Y-114173095D02*
X157363095Y-114125476D01*
X157363095Y-114125476D02*
X157458333Y-114125476D01*
X157458333Y-114125476D02*
X157601190Y-114173095D01*
X157601190Y-114173095D02*
X158172619Y-114744523D01*
X158172619Y-114744523D02*
X158172619Y-114125476D01*
%TO.C,PS8*%
X112355619Y-103917285D02*
X111355619Y-103917285D01*
X111355619Y-103917285D02*
X111355619Y-103536333D01*
X111355619Y-103536333D02*
X111403238Y-103441095D01*
X111403238Y-103441095D02*
X111450857Y-103393476D01*
X111450857Y-103393476D02*
X111546095Y-103345857D01*
X111546095Y-103345857D02*
X111688952Y-103345857D01*
X111688952Y-103345857D02*
X111784190Y-103393476D01*
X111784190Y-103393476D02*
X111831809Y-103441095D01*
X111831809Y-103441095D02*
X111879428Y-103536333D01*
X111879428Y-103536333D02*
X111879428Y-103917285D01*
X112308000Y-102964904D02*
X112355619Y-102822047D01*
X112355619Y-102822047D02*
X112355619Y-102583952D01*
X112355619Y-102583952D02*
X112308000Y-102488714D01*
X112308000Y-102488714D02*
X112260380Y-102441095D01*
X112260380Y-102441095D02*
X112165142Y-102393476D01*
X112165142Y-102393476D02*
X112069904Y-102393476D01*
X112069904Y-102393476D02*
X111974666Y-102441095D01*
X111974666Y-102441095D02*
X111927047Y-102488714D01*
X111927047Y-102488714D02*
X111879428Y-102583952D01*
X111879428Y-102583952D02*
X111831809Y-102774428D01*
X111831809Y-102774428D02*
X111784190Y-102869666D01*
X111784190Y-102869666D02*
X111736571Y-102917285D01*
X111736571Y-102917285D02*
X111641333Y-102964904D01*
X111641333Y-102964904D02*
X111546095Y-102964904D01*
X111546095Y-102964904D02*
X111450857Y-102917285D01*
X111450857Y-102917285D02*
X111403238Y-102869666D01*
X111403238Y-102869666D02*
X111355619Y-102774428D01*
X111355619Y-102774428D02*
X111355619Y-102536333D01*
X111355619Y-102536333D02*
X111403238Y-102393476D01*
X111784190Y-101822047D02*
X111736571Y-101917285D01*
X111736571Y-101917285D02*
X111688952Y-101964904D01*
X111688952Y-101964904D02*
X111593714Y-102012523D01*
X111593714Y-102012523D02*
X111546095Y-102012523D01*
X111546095Y-102012523D02*
X111450857Y-101964904D01*
X111450857Y-101964904D02*
X111403238Y-101917285D01*
X111403238Y-101917285D02*
X111355619Y-101822047D01*
X111355619Y-101822047D02*
X111355619Y-101631571D01*
X111355619Y-101631571D02*
X111403238Y-101536333D01*
X111403238Y-101536333D02*
X111450857Y-101488714D01*
X111450857Y-101488714D02*
X111546095Y-101441095D01*
X111546095Y-101441095D02*
X111593714Y-101441095D01*
X111593714Y-101441095D02*
X111688952Y-101488714D01*
X111688952Y-101488714D02*
X111736571Y-101536333D01*
X111736571Y-101536333D02*
X111784190Y-101631571D01*
X111784190Y-101631571D02*
X111784190Y-101822047D01*
X111784190Y-101822047D02*
X111831809Y-101917285D01*
X111831809Y-101917285D02*
X111879428Y-101964904D01*
X111879428Y-101964904D02*
X111974666Y-102012523D01*
X111974666Y-102012523D02*
X112165142Y-102012523D01*
X112165142Y-102012523D02*
X112260380Y-101964904D01*
X112260380Y-101964904D02*
X112308000Y-101917285D01*
X112308000Y-101917285D02*
X112355619Y-101822047D01*
X112355619Y-101822047D02*
X112355619Y-101631571D01*
X112355619Y-101631571D02*
X112308000Y-101536333D01*
X112308000Y-101536333D02*
X112260380Y-101488714D01*
X112260380Y-101488714D02*
X112165142Y-101441095D01*
X112165142Y-101441095D02*
X111974666Y-101441095D01*
X111974666Y-101441095D02*
X111879428Y-101488714D01*
X111879428Y-101488714D02*
X111831809Y-101536333D01*
X111831809Y-101536333D02*
X111784190Y-101631571D01*
%TO.C,PS7*%
X142930714Y-114127619D02*
X142930714Y-113127619D01*
X142930714Y-113127619D02*
X143311666Y-113127619D01*
X143311666Y-113127619D02*
X143406904Y-113175238D01*
X143406904Y-113175238D02*
X143454523Y-113222857D01*
X143454523Y-113222857D02*
X143502142Y-113318095D01*
X143502142Y-113318095D02*
X143502142Y-113460952D01*
X143502142Y-113460952D02*
X143454523Y-113556190D01*
X143454523Y-113556190D02*
X143406904Y-113603809D01*
X143406904Y-113603809D02*
X143311666Y-113651428D01*
X143311666Y-113651428D02*
X142930714Y-113651428D01*
X143883095Y-114080000D02*
X144025952Y-114127619D01*
X144025952Y-114127619D02*
X144264047Y-114127619D01*
X144264047Y-114127619D02*
X144359285Y-114080000D01*
X144359285Y-114080000D02*
X144406904Y-114032380D01*
X144406904Y-114032380D02*
X144454523Y-113937142D01*
X144454523Y-113937142D02*
X144454523Y-113841904D01*
X144454523Y-113841904D02*
X144406904Y-113746666D01*
X144406904Y-113746666D02*
X144359285Y-113699047D01*
X144359285Y-113699047D02*
X144264047Y-113651428D01*
X144264047Y-113651428D02*
X144073571Y-113603809D01*
X144073571Y-113603809D02*
X143978333Y-113556190D01*
X143978333Y-113556190D02*
X143930714Y-113508571D01*
X143930714Y-113508571D02*
X143883095Y-113413333D01*
X143883095Y-113413333D02*
X143883095Y-113318095D01*
X143883095Y-113318095D02*
X143930714Y-113222857D01*
X143930714Y-113222857D02*
X143978333Y-113175238D01*
X143978333Y-113175238D02*
X144073571Y-113127619D01*
X144073571Y-113127619D02*
X144311666Y-113127619D01*
X144311666Y-113127619D02*
X144454523Y-113175238D01*
X144787857Y-113127619D02*
X145454523Y-113127619D01*
X145454523Y-113127619D02*
X145025952Y-114127619D01*
%TO.C,PS5*%
X174030714Y-66762619D02*
X174030714Y-65762619D01*
X174030714Y-65762619D02*
X174411666Y-65762619D01*
X174411666Y-65762619D02*
X174506904Y-65810238D01*
X174506904Y-65810238D02*
X174554523Y-65857857D01*
X174554523Y-65857857D02*
X174602142Y-65953095D01*
X174602142Y-65953095D02*
X174602142Y-66095952D01*
X174602142Y-66095952D02*
X174554523Y-66191190D01*
X174554523Y-66191190D02*
X174506904Y-66238809D01*
X174506904Y-66238809D02*
X174411666Y-66286428D01*
X174411666Y-66286428D02*
X174030714Y-66286428D01*
X174983095Y-66715000D02*
X175125952Y-66762619D01*
X175125952Y-66762619D02*
X175364047Y-66762619D01*
X175364047Y-66762619D02*
X175459285Y-66715000D01*
X175459285Y-66715000D02*
X175506904Y-66667380D01*
X175506904Y-66667380D02*
X175554523Y-66572142D01*
X175554523Y-66572142D02*
X175554523Y-66476904D01*
X175554523Y-66476904D02*
X175506904Y-66381666D01*
X175506904Y-66381666D02*
X175459285Y-66334047D01*
X175459285Y-66334047D02*
X175364047Y-66286428D01*
X175364047Y-66286428D02*
X175173571Y-66238809D01*
X175173571Y-66238809D02*
X175078333Y-66191190D01*
X175078333Y-66191190D02*
X175030714Y-66143571D01*
X175030714Y-66143571D02*
X174983095Y-66048333D01*
X174983095Y-66048333D02*
X174983095Y-65953095D01*
X174983095Y-65953095D02*
X175030714Y-65857857D01*
X175030714Y-65857857D02*
X175078333Y-65810238D01*
X175078333Y-65810238D02*
X175173571Y-65762619D01*
X175173571Y-65762619D02*
X175411666Y-65762619D01*
X175411666Y-65762619D02*
X175554523Y-65810238D01*
X176459285Y-65762619D02*
X175983095Y-65762619D01*
X175983095Y-65762619D02*
X175935476Y-66238809D01*
X175935476Y-66238809D02*
X175983095Y-66191190D01*
X175983095Y-66191190D02*
X176078333Y-66143571D01*
X176078333Y-66143571D02*
X176316428Y-66143571D01*
X176316428Y-66143571D02*
X176411666Y-66191190D01*
X176411666Y-66191190D02*
X176459285Y-66238809D01*
X176459285Y-66238809D02*
X176506904Y-66334047D01*
X176506904Y-66334047D02*
X176506904Y-66572142D01*
X176506904Y-66572142D02*
X176459285Y-66667380D01*
X176459285Y-66667380D02*
X176411666Y-66715000D01*
X176411666Y-66715000D02*
X176316428Y-66762619D01*
X176316428Y-66762619D02*
X176078333Y-66762619D01*
X176078333Y-66762619D02*
X175983095Y-66715000D01*
X175983095Y-66715000D02*
X175935476Y-66667380D01*
%TO.C,LS2*%
X137787142Y-114127619D02*
X137310952Y-114127619D01*
X137310952Y-114127619D02*
X137310952Y-113127619D01*
X138072857Y-114080000D02*
X138215714Y-114127619D01*
X138215714Y-114127619D02*
X138453809Y-114127619D01*
X138453809Y-114127619D02*
X138549047Y-114080000D01*
X138549047Y-114080000D02*
X138596666Y-114032380D01*
X138596666Y-114032380D02*
X138644285Y-113937142D01*
X138644285Y-113937142D02*
X138644285Y-113841904D01*
X138644285Y-113841904D02*
X138596666Y-113746666D01*
X138596666Y-113746666D02*
X138549047Y-113699047D01*
X138549047Y-113699047D02*
X138453809Y-113651428D01*
X138453809Y-113651428D02*
X138263333Y-113603809D01*
X138263333Y-113603809D02*
X138168095Y-113556190D01*
X138168095Y-113556190D02*
X138120476Y-113508571D01*
X138120476Y-113508571D02*
X138072857Y-113413333D01*
X138072857Y-113413333D02*
X138072857Y-113318095D01*
X138072857Y-113318095D02*
X138120476Y-113222857D01*
X138120476Y-113222857D02*
X138168095Y-113175238D01*
X138168095Y-113175238D02*
X138263333Y-113127619D01*
X138263333Y-113127619D02*
X138501428Y-113127619D01*
X138501428Y-113127619D02*
X138644285Y-113175238D01*
X139025238Y-113222857D02*
X139072857Y-113175238D01*
X139072857Y-113175238D02*
X139168095Y-113127619D01*
X139168095Y-113127619D02*
X139406190Y-113127619D01*
X139406190Y-113127619D02*
X139501428Y-113175238D01*
X139501428Y-113175238D02*
X139549047Y-113222857D01*
X139549047Y-113222857D02*
X139596666Y-113318095D01*
X139596666Y-113318095D02*
X139596666Y-113413333D01*
X139596666Y-113413333D02*
X139549047Y-113556190D01*
X139549047Y-113556190D02*
X138977619Y-114127619D01*
X138977619Y-114127619D02*
X139596666Y-114127619D01*
%TO.C,COOLER*%
X179514761Y-119112380D02*
X179467142Y-119160000D01*
X179467142Y-119160000D02*
X179324285Y-119207619D01*
X179324285Y-119207619D02*
X179229047Y-119207619D01*
X179229047Y-119207619D02*
X179086190Y-119160000D01*
X179086190Y-119160000D02*
X178990952Y-119064761D01*
X178990952Y-119064761D02*
X178943333Y-118969523D01*
X178943333Y-118969523D02*
X178895714Y-118779047D01*
X178895714Y-118779047D02*
X178895714Y-118636190D01*
X178895714Y-118636190D02*
X178943333Y-118445714D01*
X178943333Y-118445714D02*
X178990952Y-118350476D01*
X178990952Y-118350476D02*
X179086190Y-118255238D01*
X179086190Y-118255238D02*
X179229047Y-118207619D01*
X179229047Y-118207619D02*
X179324285Y-118207619D01*
X179324285Y-118207619D02*
X179467142Y-118255238D01*
X179467142Y-118255238D02*
X179514761Y-118302857D01*
X180133809Y-118207619D02*
X180324285Y-118207619D01*
X180324285Y-118207619D02*
X180419523Y-118255238D01*
X180419523Y-118255238D02*
X180514761Y-118350476D01*
X180514761Y-118350476D02*
X180562380Y-118540952D01*
X180562380Y-118540952D02*
X180562380Y-118874285D01*
X180562380Y-118874285D02*
X180514761Y-119064761D01*
X180514761Y-119064761D02*
X180419523Y-119160000D01*
X180419523Y-119160000D02*
X180324285Y-119207619D01*
X180324285Y-119207619D02*
X180133809Y-119207619D01*
X180133809Y-119207619D02*
X180038571Y-119160000D01*
X180038571Y-119160000D02*
X179943333Y-119064761D01*
X179943333Y-119064761D02*
X179895714Y-118874285D01*
X179895714Y-118874285D02*
X179895714Y-118540952D01*
X179895714Y-118540952D02*
X179943333Y-118350476D01*
X179943333Y-118350476D02*
X180038571Y-118255238D01*
X180038571Y-118255238D02*
X180133809Y-118207619D01*
X181181428Y-118207619D02*
X181371904Y-118207619D01*
X181371904Y-118207619D02*
X181467142Y-118255238D01*
X181467142Y-118255238D02*
X181562380Y-118350476D01*
X181562380Y-118350476D02*
X181609999Y-118540952D01*
X181609999Y-118540952D02*
X181609999Y-118874285D01*
X181609999Y-118874285D02*
X181562380Y-119064761D01*
X181562380Y-119064761D02*
X181467142Y-119160000D01*
X181467142Y-119160000D02*
X181371904Y-119207619D01*
X181371904Y-119207619D02*
X181181428Y-119207619D01*
X181181428Y-119207619D02*
X181086190Y-119160000D01*
X181086190Y-119160000D02*
X180990952Y-119064761D01*
X180990952Y-119064761D02*
X180943333Y-118874285D01*
X180943333Y-118874285D02*
X180943333Y-118540952D01*
X180943333Y-118540952D02*
X180990952Y-118350476D01*
X180990952Y-118350476D02*
X181086190Y-118255238D01*
X181086190Y-118255238D02*
X181181428Y-118207619D01*
X182514761Y-119207619D02*
X182038571Y-119207619D01*
X182038571Y-119207619D02*
X182038571Y-118207619D01*
X182848095Y-118683809D02*
X183181428Y-118683809D01*
X183324285Y-119207619D02*
X182848095Y-119207619D01*
X182848095Y-119207619D02*
X182848095Y-118207619D01*
X182848095Y-118207619D02*
X183324285Y-118207619D01*
X184324285Y-119207619D02*
X183990952Y-118731428D01*
X183752857Y-119207619D02*
X183752857Y-118207619D01*
X183752857Y-118207619D02*
X184133809Y-118207619D01*
X184133809Y-118207619D02*
X184229047Y-118255238D01*
X184229047Y-118255238D02*
X184276666Y-118302857D01*
X184276666Y-118302857D02*
X184324285Y-118398095D01*
X184324285Y-118398095D02*
X184324285Y-118540952D01*
X184324285Y-118540952D02*
X184276666Y-118636190D01*
X184276666Y-118636190D02*
X184229047Y-118683809D01*
X184229047Y-118683809D02*
X184133809Y-118731428D01*
X184133809Y-118731428D02*
X183752857Y-118731428D01*
%TO.C,MCU2*%
X126194119Y-102123332D02*
X125194119Y-102123332D01*
X125194119Y-102123332D02*
X125908404Y-101789999D01*
X125908404Y-101789999D02*
X125194119Y-101456666D01*
X125194119Y-101456666D02*
X126194119Y-101456666D01*
X126098880Y-100409047D02*
X126146500Y-100456666D01*
X126146500Y-100456666D02*
X126194119Y-100599523D01*
X126194119Y-100599523D02*
X126194119Y-100694761D01*
X126194119Y-100694761D02*
X126146500Y-100837618D01*
X126146500Y-100837618D02*
X126051261Y-100932856D01*
X126051261Y-100932856D02*
X125956023Y-100980475D01*
X125956023Y-100980475D02*
X125765547Y-101028094D01*
X125765547Y-101028094D02*
X125622690Y-101028094D01*
X125622690Y-101028094D02*
X125432214Y-100980475D01*
X125432214Y-100980475D02*
X125336976Y-100932856D01*
X125336976Y-100932856D02*
X125241738Y-100837618D01*
X125241738Y-100837618D02*
X125194119Y-100694761D01*
X125194119Y-100694761D02*
X125194119Y-100599523D01*
X125194119Y-100599523D02*
X125241738Y-100456666D01*
X125241738Y-100456666D02*
X125289357Y-100409047D01*
X125194119Y-99980475D02*
X126003642Y-99980475D01*
X126003642Y-99980475D02*
X126098880Y-99932856D01*
X126098880Y-99932856D02*
X126146500Y-99885237D01*
X126146500Y-99885237D02*
X126194119Y-99789999D01*
X126194119Y-99789999D02*
X126194119Y-99599523D01*
X126194119Y-99599523D02*
X126146500Y-99504285D01*
X126146500Y-99504285D02*
X126098880Y-99456666D01*
X126098880Y-99456666D02*
X126003642Y-99409047D01*
X126003642Y-99409047D02*
X125194119Y-99409047D01*
X125289357Y-98980475D02*
X125241738Y-98932856D01*
X125241738Y-98932856D02*
X125194119Y-98837618D01*
X125194119Y-98837618D02*
X125194119Y-98599523D01*
X125194119Y-98599523D02*
X125241738Y-98504285D01*
X125241738Y-98504285D02*
X125289357Y-98456666D01*
X125289357Y-98456666D02*
X125384595Y-98409047D01*
X125384595Y-98409047D02*
X125479833Y-98409047D01*
X125479833Y-98409047D02*
X125622690Y-98456666D01*
X125622690Y-98456666D02*
X126194119Y-99028094D01*
X126194119Y-99028094D02*
X126194119Y-98409047D01*
%TO.C,LS3*%
X128882142Y-66502619D02*
X128405952Y-66502619D01*
X128405952Y-66502619D02*
X128405952Y-65502619D01*
X129167857Y-66455000D02*
X129310714Y-66502619D01*
X129310714Y-66502619D02*
X129548809Y-66502619D01*
X129548809Y-66502619D02*
X129644047Y-66455000D01*
X129644047Y-66455000D02*
X129691666Y-66407380D01*
X129691666Y-66407380D02*
X129739285Y-66312142D01*
X129739285Y-66312142D02*
X129739285Y-66216904D01*
X129739285Y-66216904D02*
X129691666Y-66121666D01*
X129691666Y-66121666D02*
X129644047Y-66074047D01*
X129644047Y-66074047D02*
X129548809Y-66026428D01*
X129548809Y-66026428D02*
X129358333Y-65978809D01*
X129358333Y-65978809D02*
X129263095Y-65931190D01*
X129263095Y-65931190D02*
X129215476Y-65883571D01*
X129215476Y-65883571D02*
X129167857Y-65788333D01*
X129167857Y-65788333D02*
X129167857Y-65693095D01*
X129167857Y-65693095D02*
X129215476Y-65597857D01*
X129215476Y-65597857D02*
X129263095Y-65550238D01*
X129263095Y-65550238D02*
X129358333Y-65502619D01*
X129358333Y-65502619D02*
X129596428Y-65502619D01*
X129596428Y-65502619D02*
X129739285Y-65550238D01*
X130072619Y-65502619D02*
X130691666Y-65502619D01*
X130691666Y-65502619D02*
X130358333Y-65883571D01*
X130358333Y-65883571D02*
X130501190Y-65883571D01*
X130501190Y-65883571D02*
X130596428Y-65931190D01*
X130596428Y-65931190D02*
X130644047Y-65978809D01*
X130644047Y-65978809D02*
X130691666Y-66074047D01*
X130691666Y-66074047D02*
X130691666Y-66312142D01*
X130691666Y-66312142D02*
X130644047Y-66407380D01*
X130644047Y-66407380D02*
X130596428Y-66455000D01*
X130596428Y-66455000D02*
X130501190Y-66502619D01*
X130501190Y-66502619D02*
X130215476Y-66502619D01*
X130215476Y-66502619D02*
X130120238Y-66455000D01*
X130120238Y-66455000D02*
X130072619Y-66407380D01*
%TO.C,PS4*%
X162655714Y-66502619D02*
X162655714Y-65502619D01*
X162655714Y-65502619D02*
X163036666Y-65502619D01*
X163036666Y-65502619D02*
X163131904Y-65550238D01*
X163131904Y-65550238D02*
X163179523Y-65597857D01*
X163179523Y-65597857D02*
X163227142Y-65693095D01*
X163227142Y-65693095D02*
X163227142Y-65835952D01*
X163227142Y-65835952D02*
X163179523Y-65931190D01*
X163179523Y-65931190D02*
X163131904Y-65978809D01*
X163131904Y-65978809D02*
X163036666Y-66026428D01*
X163036666Y-66026428D02*
X162655714Y-66026428D01*
X163608095Y-66455000D02*
X163750952Y-66502619D01*
X163750952Y-66502619D02*
X163989047Y-66502619D01*
X163989047Y-66502619D02*
X164084285Y-66455000D01*
X164084285Y-66455000D02*
X164131904Y-66407380D01*
X164131904Y-66407380D02*
X164179523Y-66312142D01*
X164179523Y-66312142D02*
X164179523Y-66216904D01*
X164179523Y-66216904D02*
X164131904Y-66121666D01*
X164131904Y-66121666D02*
X164084285Y-66074047D01*
X164084285Y-66074047D02*
X163989047Y-66026428D01*
X163989047Y-66026428D02*
X163798571Y-65978809D01*
X163798571Y-65978809D02*
X163703333Y-65931190D01*
X163703333Y-65931190D02*
X163655714Y-65883571D01*
X163655714Y-65883571D02*
X163608095Y-65788333D01*
X163608095Y-65788333D02*
X163608095Y-65693095D01*
X163608095Y-65693095D02*
X163655714Y-65597857D01*
X163655714Y-65597857D02*
X163703333Y-65550238D01*
X163703333Y-65550238D02*
X163798571Y-65502619D01*
X163798571Y-65502619D02*
X164036666Y-65502619D01*
X164036666Y-65502619D02*
X164179523Y-65550238D01*
X165036666Y-65835952D02*
X165036666Y-66502619D01*
X164798571Y-65455000D02*
X164560476Y-66169285D01*
X164560476Y-66169285D02*
X165179523Y-66169285D01*
%TO.C,LS1*%
X126357142Y-114127619D02*
X125880952Y-114127619D01*
X125880952Y-114127619D02*
X125880952Y-113127619D01*
X126642857Y-114080000D02*
X126785714Y-114127619D01*
X126785714Y-114127619D02*
X127023809Y-114127619D01*
X127023809Y-114127619D02*
X127119047Y-114080000D01*
X127119047Y-114080000D02*
X127166666Y-114032380D01*
X127166666Y-114032380D02*
X127214285Y-113937142D01*
X127214285Y-113937142D02*
X127214285Y-113841904D01*
X127214285Y-113841904D02*
X127166666Y-113746666D01*
X127166666Y-113746666D02*
X127119047Y-113699047D01*
X127119047Y-113699047D02*
X127023809Y-113651428D01*
X127023809Y-113651428D02*
X126833333Y-113603809D01*
X126833333Y-113603809D02*
X126738095Y-113556190D01*
X126738095Y-113556190D02*
X126690476Y-113508571D01*
X126690476Y-113508571D02*
X126642857Y-113413333D01*
X126642857Y-113413333D02*
X126642857Y-113318095D01*
X126642857Y-113318095D02*
X126690476Y-113222857D01*
X126690476Y-113222857D02*
X126738095Y-113175238D01*
X126738095Y-113175238D02*
X126833333Y-113127619D01*
X126833333Y-113127619D02*
X127071428Y-113127619D01*
X127071428Y-113127619D02*
X127214285Y-113175238D01*
X128166666Y-114127619D02*
X127595238Y-114127619D01*
X127880952Y-114127619D02*
X127880952Y-113127619D01*
X127880952Y-113127619D02*
X127785714Y-113270476D01*
X127785714Y-113270476D02*
X127690476Y-113365714D01*
X127690476Y-113365714D02*
X127595238Y-113413333D01*
D12*
%TO.C,PS3*%
X179395000Y-105835000D02*
X179395000Y-107085000D01*
X179685000Y-106125000D02*
X179685000Y-112095000D01*
X179685000Y-112095000D02*
X189805000Y-112095000D01*
X179695000Y-106135000D02*
X179695000Y-106885000D01*
X179695000Y-106885000D02*
X181495000Y-106885000D01*
X179695000Y-108385000D02*
X180445000Y-108385000D01*
X180445000Y-108385000D02*
X180445000Y-111335000D01*
X180445000Y-111335000D02*
X184745000Y-111335000D01*
X180645000Y-105835000D02*
X179395000Y-105835000D01*
X181495000Y-106135000D02*
X179695000Y-106135000D01*
X181495000Y-106885000D02*
X181495000Y-106135000D01*
X182995000Y-106135000D02*
X182995000Y-106885000D01*
X182995000Y-106885000D02*
X186495000Y-106885000D01*
X186495000Y-106135000D02*
X182995000Y-106135000D01*
X186495000Y-106885000D02*
X186495000Y-106135000D01*
X187995000Y-106135000D02*
X187995000Y-106885000D01*
X187995000Y-106885000D02*
X189795000Y-106885000D01*
X189045000Y-108385000D02*
X189045000Y-111335000D01*
X189045000Y-111335000D02*
X184745000Y-111335000D01*
X189795000Y-106135000D02*
X187995000Y-106135000D01*
X189795000Y-106885000D02*
X189795000Y-106135000D01*
X189795000Y-108385000D02*
X189045000Y-108385000D01*
X189805000Y-106125000D02*
X179685000Y-106125000D01*
X189805000Y-112095000D02*
X189805000Y-106125000D01*
%TO.C,PS9*%
X112566000Y-96115000D02*
X113816000Y-96115000D01*
X112856000Y-95825000D02*
X118826000Y-95825000D01*
X118826000Y-95825000D02*
X118826000Y-85705000D01*
X112866000Y-95815000D02*
X113616000Y-95815000D01*
X113616000Y-95815000D02*
X113616000Y-94015000D01*
X115116000Y-95815000D02*
X115116000Y-95065000D01*
X115116000Y-95065000D02*
X118066000Y-95065000D01*
X118066000Y-95065000D02*
X118066000Y-90765000D01*
X112566000Y-94865000D02*
X112566000Y-96115000D01*
X112866000Y-94015000D02*
X112866000Y-95815000D01*
X113616000Y-94015000D02*
X112866000Y-94015000D01*
X112866000Y-92515000D02*
X113616000Y-92515000D01*
X113616000Y-92515000D02*
X113616000Y-89015000D01*
X112866000Y-89015000D02*
X112866000Y-92515000D01*
X113616000Y-89015000D02*
X112866000Y-89015000D01*
X112866000Y-87515000D02*
X113616000Y-87515000D01*
X113616000Y-87515000D02*
X113616000Y-85715000D01*
X115116000Y-86465000D02*
X118066000Y-86465000D01*
X118066000Y-86465000D02*
X118066000Y-90765000D01*
X112866000Y-85715000D02*
X112866000Y-87515000D01*
X113616000Y-85715000D02*
X112866000Y-85715000D01*
X115116000Y-85715000D02*
X115116000Y-86465000D01*
X112856000Y-85705000D02*
X112856000Y-95825000D01*
X118826000Y-85705000D02*
X112856000Y-85705000D01*
%TO.C,GYRO2*%
X118736075Y-81225000D02*
X118736075Y-63385000D01*
X118736075Y-81225000D02*
X116076075Y-81225000D01*
X118736075Y-63385000D02*
X116076075Y-63385000D01*
X117406075Y-83825000D02*
X116076075Y-83825000D01*
X116076075Y-83825000D02*
X116076075Y-82495000D01*
X116076075Y-83825000D02*
X101228075Y-83825000D01*
X116076075Y-81225000D02*
X116076075Y-63385000D01*
X116076075Y-63385000D02*
X101228075Y-63385000D01*
X101228075Y-83825000D02*
X101228075Y-63385000D01*
%TO.C,SW3*%
X147051000Y-75311000D02*
X147051000Y-65659000D01*
X156703000Y-75311000D02*
X147051000Y-75311000D01*
X157719000Y-74295000D02*
X156703000Y-75311000D01*
X157719000Y-74295000D02*
X157719000Y-65659000D01*
X147051000Y-65659000D02*
X157719000Y-65659000D01*
%TO.C,LS4*%
X146320000Y-73760000D02*
X146320000Y-72510000D01*
X146030000Y-73470000D02*
X146030000Y-67500000D01*
X146030000Y-67500000D02*
X135910000Y-67500000D01*
X146020000Y-73460000D02*
X146020000Y-72710000D01*
X146020000Y-72710000D02*
X144220000Y-72710000D01*
X146020000Y-71210000D02*
X145270000Y-71210000D01*
X145270000Y-71210000D02*
X145270000Y-68260000D01*
X145270000Y-68260000D02*
X140970000Y-68260000D01*
X145070000Y-73760000D02*
X146320000Y-73760000D01*
X144220000Y-73460000D02*
X146020000Y-73460000D01*
X144220000Y-72710000D02*
X144220000Y-73460000D01*
X142720000Y-73460000D02*
X142720000Y-72710000D01*
X142720000Y-72710000D02*
X139220000Y-72710000D01*
X139220000Y-73460000D02*
X142720000Y-73460000D01*
X139220000Y-72710000D02*
X139220000Y-73460000D01*
X137720000Y-73460000D02*
X137720000Y-72710000D01*
X137720000Y-72710000D02*
X135920000Y-72710000D01*
X136670000Y-71210000D02*
X136670000Y-68260000D01*
X136670000Y-68260000D02*
X140970000Y-68260000D01*
X135920000Y-73460000D02*
X137720000Y-73460000D01*
X135920000Y-72710000D02*
X135920000Y-73460000D01*
X135920000Y-71210000D02*
X136670000Y-71210000D01*
X135910000Y-73470000D02*
X146030000Y-73470000D01*
X135910000Y-67500000D02*
X135910000Y-73470000D01*
%TO.C,PS6*%
X192080000Y-73633000D02*
X192080000Y-72383000D01*
X191790000Y-73343000D02*
X191790000Y-67373000D01*
X191790000Y-67373000D02*
X181670000Y-67373000D01*
X191780000Y-73333000D02*
X191780000Y-72583000D01*
X191780000Y-72583000D02*
X189980000Y-72583000D01*
X191780000Y-71083000D02*
X191030000Y-71083000D01*
X191030000Y-71083000D02*
X191030000Y-68133000D01*
X191030000Y-68133000D02*
X186730000Y-68133000D01*
X190830000Y-73633000D02*
X192080000Y-73633000D01*
X189980000Y-73333000D02*
X191780000Y-73333000D01*
X189980000Y-72583000D02*
X189980000Y-73333000D01*
X188480000Y-73333000D02*
X188480000Y-72583000D01*
X188480000Y-72583000D02*
X184980000Y-72583000D01*
X184980000Y-73333000D02*
X188480000Y-73333000D01*
X184980000Y-72583000D02*
X184980000Y-73333000D01*
X183480000Y-73333000D02*
X183480000Y-72583000D01*
X183480000Y-72583000D02*
X181680000Y-72583000D01*
X182430000Y-71083000D02*
X182430000Y-68133000D01*
X182430000Y-68133000D02*
X186730000Y-68133000D01*
X181680000Y-73333000D02*
X183480000Y-73333000D01*
X181680000Y-72583000D02*
X181680000Y-73333000D01*
X181680000Y-71083000D02*
X182430000Y-71083000D01*
X181670000Y-73343000D02*
X191790000Y-73343000D01*
X181670000Y-67373000D02*
X181670000Y-73343000D01*
%TO.C,U2*%
X156270000Y-113411000D02*
X156270000Y-126365000D01*
X156210000Y-113411000D02*
X146050000Y-113411000D01*
X146050000Y-113411000D02*
X146050000Y-116459000D01*
X146050000Y-116265000D02*
X146050000Y-126365000D01*
X156210000Y-116459000D02*
X146050000Y-116459000D01*
X156270000Y-126365000D02*
X146050000Y-126365000D01*
%TO.C,PS8*%
X112693000Y-108053000D02*
X113943000Y-108053000D01*
X112983000Y-107763000D02*
X118953000Y-107763000D01*
X118953000Y-107763000D02*
X118953000Y-97643000D01*
X112993000Y-107753000D02*
X113743000Y-107753000D01*
X113743000Y-107753000D02*
X113743000Y-105953000D01*
X115243000Y-107753000D02*
X115243000Y-107003000D01*
X115243000Y-107003000D02*
X118193000Y-107003000D01*
X118193000Y-107003000D02*
X118193000Y-102703000D01*
X112693000Y-106803000D02*
X112693000Y-108053000D01*
X112993000Y-105953000D02*
X112993000Y-107753000D01*
X113743000Y-105953000D02*
X112993000Y-105953000D01*
X112993000Y-104453000D02*
X113743000Y-104453000D01*
X113743000Y-104453000D02*
X113743000Y-100953000D01*
X112993000Y-100953000D02*
X112993000Y-104453000D01*
X113743000Y-100953000D02*
X112993000Y-100953000D01*
X112993000Y-99453000D02*
X113743000Y-99453000D01*
X113743000Y-99453000D02*
X113743000Y-97653000D01*
X115243000Y-98403000D02*
X118193000Y-98403000D01*
X118193000Y-98403000D02*
X118193000Y-102703000D01*
X112993000Y-97653000D02*
X112993000Y-99453000D01*
X113743000Y-97653000D02*
X112993000Y-97653000D01*
X115243000Y-97653000D02*
X115243000Y-98403000D01*
X112983000Y-97643000D02*
X112983000Y-107763000D01*
X118953000Y-97643000D02*
X112983000Y-97643000D01*
%TO.C,PS7*%
X145145000Y-105835000D02*
X145145000Y-107085000D01*
X145435000Y-106125000D02*
X145435000Y-112095000D01*
X145435000Y-112095000D02*
X155555000Y-112095000D01*
X145445000Y-106135000D02*
X145445000Y-106885000D01*
X145445000Y-106885000D02*
X147245000Y-106885000D01*
X145445000Y-108385000D02*
X146195000Y-108385000D01*
X146195000Y-108385000D02*
X146195000Y-111335000D01*
X146195000Y-111335000D02*
X150495000Y-111335000D01*
X146395000Y-105835000D02*
X145145000Y-105835000D01*
X147245000Y-106135000D02*
X145445000Y-106135000D01*
X147245000Y-106885000D02*
X147245000Y-106135000D01*
X148745000Y-106135000D02*
X148745000Y-106885000D01*
X148745000Y-106885000D02*
X152245000Y-106885000D01*
X152245000Y-106135000D02*
X148745000Y-106135000D01*
X152245000Y-106885000D02*
X152245000Y-106135000D01*
X153745000Y-106135000D02*
X153745000Y-106885000D01*
X153745000Y-106885000D02*
X155545000Y-106885000D01*
X154795000Y-108385000D02*
X154795000Y-111335000D01*
X154795000Y-111335000D02*
X150495000Y-111335000D01*
X155545000Y-106135000D02*
X153745000Y-106135000D01*
X155545000Y-106885000D02*
X155545000Y-106135000D01*
X155545000Y-108385000D02*
X154795000Y-108385000D01*
X155555000Y-106125000D02*
X145435000Y-106125000D01*
X155555000Y-112095000D02*
X155555000Y-106125000D01*
%TO.C,PS2*%
X178665000Y-112605000D02*
X178665000Y-111355000D01*
X178375000Y-112315000D02*
X178375000Y-106345000D01*
X178375000Y-106345000D02*
X168255000Y-106345000D01*
X178365000Y-112305000D02*
X178365000Y-111555000D01*
X178365000Y-111555000D02*
X176565000Y-111555000D01*
X178365000Y-110055000D02*
X177615000Y-110055000D01*
X177615000Y-110055000D02*
X177615000Y-107105000D01*
X177615000Y-107105000D02*
X173315000Y-107105000D01*
X177415000Y-112605000D02*
X178665000Y-112605000D01*
X176565000Y-112305000D02*
X178365000Y-112305000D01*
X176565000Y-111555000D02*
X176565000Y-112305000D01*
X175065000Y-112305000D02*
X175065000Y-111555000D01*
X175065000Y-111555000D02*
X171565000Y-111555000D01*
X171565000Y-112305000D02*
X175065000Y-112305000D01*
X171565000Y-111555000D02*
X171565000Y-112305000D01*
X170065000Y-112305000D02*
X170065000Y-111555000D01*
X170065000Y-111555000D02*
X168265000Y-111555000D01*
X169015000Y-110055000D02*
X169015000Y-107105000D01*
X169015000Y-107105000D02*
X173315000Y-107105000D01*
X168265000Y-112305000D02*
X170065000Y-112305000D01*
X168265000Y-111555000D02*
X168265000Y-112305000D01*
X168265000Y-110055000D02*
X169015000Y-110055000D01*
X168255000Y-112315000D02*
X178375000Y-112315000D01*
X168255000Y-106345000D02*
X168255000Y-112315000D01*
%TO.C,PS5*%
X169895000Y-67100000D02*
X169895000Y-68350000D01*
X170185000Y-67390000D02*
X170185000Y-73360000D01*
X170185000Y-73360000D02*
X180305000Y-73360000D01*
X170195000Y-67400000D02*
X170195000Y-68150000D01*
X170195000Y-68150000D02*
X171995000Y-68150000D01*
X170195000Y-69650000D02*
X170945000Y-69650000D01*
X170945000Y-69650000D02*
X170945000Y-72600000D01*
X170945000Y-72600000D02*
X175245000Y-72600000D01*
X171145000Y-67100000D02*
X169895000Y-67100000D01*
X171995000Y-67400000D02*
X170195000Y-67400000D01*
X171995000Y-68150000D02*
X171995000Y-67400000D01*
X173495000Y-67400000D02*
X173495000Y-68150000D01*
X173495000Y-68150000D02*
X176995000Y-68150000D01*
X176995000Y-67400000D02*
X173495000Y-67400000D01*
X176995000Y-68150000D02*
X176995000Y-67400000D01*
X178495000Y-67400000D02*
X178495000Y-68150000D01*
X178495000Y-68150000D02*
X180295000Y-68150000D01*
X179545000Y-69650000D02*
X179545000Y-72600000D01*
X179545000Y-72600000D02*
X175245000Y-72600000D01*
X180295000Y-67400000D02*
X178495000Y-67400000D01*
X180295000Y-68150000D02*
X180295000Y-67400000D01*
X180295000Y-69650000D02*
X179545000Y-69650000D01*
X180305000Y-67390000D02*
X170185000Y-67390000D01*
X180305000Y-73360000D02*
X180305000Y-67390000D01*
%TO.C,PS1*%
X167275000Y-112495000D02*
X167275000Y-111245000D01*
X166985000Y-112205000D02*
X166985000Y-106235000D01*
X166985000Y-106235000D02*
X156865000Y-106235000D01*
X166975000Y-112195000D02*
X166975000Y-111445000D01*
X166975000Y-111445000D02*
X165175000Y-111445000D01*
X166975000Y-109945000D02*
X166225000Y-109945000D01*
X166225000Y-109945000D02*
X166225000Y-106995000D01*
X166225000Y-106995000D02*
X161925000Y-106995000D01*
X166025000Y-112495000D02*
X167275000Y-112495000D01*
X165175000Y-112195000D02*
X166975000Y-112195000D01*
X165175000Y-111445000D02*
X165175000Y-112195000D01*
X163675000Y-112195000D02*
X163675000Y-111445000D01*
X163675000Y-111445000D02*
X160175000Y-111445000D01*
X160175000Y-112195000D02*
X163675000Y-112195000D01*
X160175000Y-111445000D02*
X160175000Y-112195000D01*
X158675000Y-112195000D02*
X158675000Y-111445000D01*
X158675000Y-111445000D02*
X156875000Y-111445000D01*
X157625000Y-109945000D02*
X157625000Y-106995000D01*
X157625000Y-106995000D02*
X161925000Y-106995000D01*
X156875000Y-112195000D02*
X158675000Y-112195000D01*
X156875000Y-111445000D02*
X156875000Y-112195000D01*
X156875000Y-109945000D02*
X157625000Y-109945000D01*
X156865000Y-112205000D02*
X166985000Y-112205000D01*
X156865000Y-106235000D02*
X156865000Y-112205000D01*
%TO.C,LS2*%
X133715000Y-105835000D02*
X133715000Y-107085000D01*
X134005000Y-106125000D02*
X134005000Y-112095000D01*
X134005000Y-112095000D02*
X144125000Y-112095000D01*
X134015000Y-106135000D02*
X134015000Y-106885000D01*
X134015000Y-106885000D02*
X135815000Y-106885000D01*
X134015000Y-108385000D02*
X134765000Y-108385000D01*
X134765000Y-108385000D02*
X134765000Y-111335000D01*
X134765000Y-111335000D02*
X139065000Y-111335000D01*
X134965000Y-105835000D02*
X133715000Y-105835000D01*
X135815000Y-106135000D02*
X134015000Y-106135000D01*
X135815000Y-106885000D02*
X135815000Y-106135000D01*
X137315000Y-106135000D02*
X137315000Y-106885000D01*
X137315000Y-106885000D02*
X140815000Y-106885000D01*
X140815000Y-106135000D02*
X137315000Y-106135000D01*
X140815000Y-106885000D02*
X140815000Y-106135000D01*
X142315000Y-106135000D02*
X142315000Y-106885000D01*
X142315000Y-106885000D02*
X144115000Y-106885000D01*
X143365000Y-108385000D02*
X143365000Y-111335000D01*
X143365000Y-111335000D02*
X139065000Y-111335000D01*
X144115000Y-106135000D02*
X142315000Y-106135000D01*
X144115000Y-106885000D02*
X144115000Y-106135000D01*
X144115000Y-108385000D02*
X143365000Y-108385000D01*
X144125000Y-106125000D02*
X134005000Y-106125000D01*
X144125000Y-112095000D02*
X144125000Y-106125000D01*
%TO.C,COOLER*%
X178745000Y-119590000D02*
X178745000Y-118340000D01*
X178455000Y-119300000D02*
X178455000Y-113330000D01*
X178455000Y-113330000D02*
X168335000Y-113330000D01*
X178445000Y-119290000D02*
X178445000Y-118540000D01*
X178445000Y-118540000D02*
X176645000Y-118540000D01*
X178445000Y-117040000D02*
X177695000Y-117040000D01*
X177695000Y-117040000D02*
X177695000Y-114090000D01*
X177695000Y-114090000D02*
X173395000Y-114090000D01*
X177495000Y-119590000D02*
X178745000Y-119590000D01*
X176645000Y-119290000D02*
X178445000Y-119290000D01*
X176645000Y-118540000D02*
X176645000Y-119290000D01*
X175145000Y-119290000D02*
X175145000Y-118540000D01*
X175145000Y-118540000D02*
X171645000Y-118540000D01*
X171645000Y-119290000D02*
X175145000Y-119290000D01*
X171645000Y-118540000D02*
X171645000Y-119290000D01*
X170145000Y-119290000D02*
X170145000Y-118540000D01*
X170145000Y-118540000D02*
X168345000Y-118540000D01*
X169095000Y-117040000D02*
X169095000Y-114090000D01*
X169095000Y-114090000D02*
X173395000Y-114090000D01*
X168345000Y-119290000D02*
X170145000Y-119290000D01*
X168345000Y-118540000D02*
X168345000Y-119290000D01*
X168345000Y-117040000D02*
X169095000Y-117040000D01*
X168335000Y-119300000D02*
X178455000Y-119300000D01*
X168335000Y-113330000D02*
X168335000Y-119300000D01*
D13*
%TO.C,MCU2*%
X126747500Y-103084000D02*
X189995500Y-103084000D01*
X189995500Y-103084000D02*
X189995500Y-77176000D01*
X189995500Y-77176000D02*
X126747500Y-77176000D01*
X126747500Y-77176000D02*
X126747500Y-103084000D01*
D12*
%TO.C,LS3*%
X134875000Y-73760000D02*
X134875000Y-72510000D01*
X134585000Y-73470000D02*
X134585000Y-67500000D01*
X134585000Y-67500000D02*
X124465000Y-67500000D01*
X134575000Y-73460000D02*
X134575000Y-72710000D01*
X134575000Y-72710000D02*
X132775000Y-72710000D01*
X134575000Y-71210000D02*
X133825000Y-71210000D01*
X133825000Y-71210000D02*
X133825000Y-68260000D01*
X133825000Y-68260000D02*
X129525000Y-68260000D01*
X133625000Y-73760000D02*
X134875000Y-73760000D01*
X132775000Y-73460000D02*
X134575000Y-73460000D01*
X132775000Y-72710000D02*
X132775000Y-73460000D01*
X131275000Y-73460000D02*
X131275000Y-72710000D01*
X131275000Y-72710000D02*
X127775000Y-72710000D01*
X127775000Y-73460000D02*
X131275000Y-73460000D01*
X127775000Y-72710000D02*
X127775000Y-73460000D01*
X126275000Y-73460000D02*
X126275000Y-72710000D01*
X126275000Y-72710000D02*
X124475000Y-72710000D01*
X125225000Y-71210000D02*
X125225000Y-68260000D01*
X125225000Y-68260000D02*
X129525000Y-68260000D01*
X124475000Y-73460000D02*
X126275000Y-73460000D01*
X124475000Y-72710000D02*
X124475000Y-73460000D01*
X124475000Y-71210000D02*
X125225000Y-71210000D01*
X124465000Y-73470000D02*
X134585000Y-73470000D01*
X124465000Y-67500000D02*
X124465000Y-73470000D01*
%TO.C,PS4*%
X169220000Y-73633000D02*
X169220000Y-72383000D01*
X168930000Y-73343000D02*
X168930000Y-67373000D01*
X168930000Y-67373000D02*
X158810000Y-67373000D01*
X168920000Y-73333000D02*
X168920000Y-72583000D01*
X168920000Y-72583000D02*
X167120000Y-72583000D01*
X168920000Y-71083000D02*
X168170000Y-71083000D01*
X168170000Y-71083000D02*
X168170000Y-68133000D01*
X168170000Y-68133000D02*
X163870000Y-68133000D01*
X167970000Y-73633000D02*
X169220000Y-73633000D01*
X167120000Y-73333000D02*
X168920000Y-73333000D01*
X167120000Y-72583000D02*
X167120000Y-73333000D01*
X165620000Y-73333000D02*
X165620000Y-72583000D01*
X165620000Y-72583000D02*
X162120000Y-72583000D01*
X162120000Y-73333000D02*
X165620000Y-73333000D01*
X162120000Y-72583000D02*
X162120000Y-73333000D01*
X160620000Y-73333000D02*
X160620000Y-72583000D01*
X160620000Y-72583000D02*
X158820000Y-72583000D01*
X159570000Y-71083000D02*
X159570000Y-68133000D01*
X159570000Y-68133000D02*
X163870000Y-68133000D01*
X158820000Y-73333000D02*
X160620000Y-73333000D01*
X158820000Y-72583000D02*
X158820000Y-73333000D01*
X158820000Y-71083000D02*
X159570000Y-71083000D01*
X158810000Y-73343000D02*
X168930000Y-73343000D01*
X158810000Y-67373000D02*
X158810000Y-73343000D01*
%TO.C,LS1*%
X122230000Y-105835000D02*
X122230000Y-107085000D01*
X122520000Y-106125000D02*
X122520000Y-112095000D01*
X122520000Y-112095000D02*
X132640000Y-112095000D01*
X122530000Y-106135000D02*
X122530000Y-106885000D01*
X122530000Y-106885000D02*
X124330000Y-106885000D01*
X122530000Y-108385000D02*
X123280000Y-108385000D01*
X123280000Y-108385000D02*
X123280000Y-111335000D01*
X123280000Y-111335000D02*
X127580000Y-111335000D01*
X123480000Y-105835000D02*
X122230000Y-105835000D01*
X124330000Y-106135000D02*
X122530000Y-106135000D01*
X124330000Y-106885000D02*
X124330000Y-106135000D01*
X125830000Y-106135000D02*
X125830000Y-106885000D01*
X125830000Y-106885000D02*
X129330000Y-106885000D01*
X129330000Y-106135000D02*
X125830000Y-106135000D01*
X129330000Y-106885000D02*
X129330000Y-106135000D01*
X130830000Y-106135000D02*
X130830000Y-106885000D01*
X130830000Y-106885000D02*
X132630000Y-106885000D01*
X131880000Y-108385000D02*
X131880000Y-111335000D01*
X131880000Y-111335000D02*
X127580000Y-111335000D01*
X132630000Y-106135000D02*
X130830000Y-106135000D01*
X132630000Y-106885000D02*
X132630000Y-106135000D01*
X132630000Y-108385000D02*
X131880000Y-108385000D01*
X132640000Y-106125000D02*
X122520000Y-106125000D01*
X132640000Y-112095000D02*
X132640000Y-106125000D01*
%TD*%
M02*
