%TF.GenerationSoftware,KiCad,Pcbnew,7.0.1*%
%TF.CreationDate,2023-04-18T11:23:09-04:00*%
%TF.ProjectId,luison-electronics,6c756973-6f6e-42d6-956c-656374726f6e,rev?*%
%TF.SameCoordinates,Original*%
%TF.FileFunction,Drillmap*%
%TF.FilePolarity,Positive*%
%FSLAX45Y45*%
G04 Gerber Fmt 4.5, Leading zero omitted, Abs format (unit mm)*
G04 Created by KiCad (PCBNEW 7.0.1) date 2023-04-18 11:23:09*
%MOMM*%
%LPD*%
G01*
G04 APERTURE LIST*
%ADD10C,0.100000*%
%ADD11C,0.200000*%
%ADD12C,0.040000*%
%ADD13C,0.050000*%
G04 APERTURE END LIST*
D10*
X15697200Y-12039600D02*
X19431000Y-12039600D01*
X15697200Y-12700000D02*
X15697200Y-12039600D01*
X14528800Y-12700000D02*
X15697200Y-12700000D01*
X14528800Y-12039600D02*
X14528800Y-12700000D01*
X11112500Y-12001500D02*
X14528800Y-12039600D01*
X18669000Y-5918200D02*
X19431000Y-5918200D01*
X18669000Y-6223000D02*
X18669000Y-5918200D01*
X18516600Y-6223000D02*
X18669000Y-6223000D01*
X11874500Y-6223000D02*
X12065000Y-6223000D01*
X11874500Y-5524500D02*
X11874500Y-6223000D01*
X11112500Y-8445500D02*
X11112500Y-12001500D01*
X11112500Y-5524500D02*
X11112500Y-6223000D01*
X10033000Y-8445500D02*
X11112500Y-8445500D01*
X10033000Y-6223000D02*
X10033000Y-8445500D01*
X11112500Y-6223000D02*
X10033000Y-6223000D01*
X12065000Y-6223000D02*
X18516600Y-6223000D01*
X11620500Y-5524500D02*
X11874500Y-5524500D01*
X10668000Y-8509000D02*
X10668000Y-8509000D01*
X11112500Y-5524500D02*
X11620500Y-5524500D01*
X19431000Y-5918200D02*
X19431000Y-12039600D01*
D11*
D12*
X17633000Y-7473000D02*
X17673000Y-7513000D01*
X17673000Y-7473000D02*
X17633000Y-7513000D01*
D13*
X12153500Y-9080500D02*
G75*
G03*
X12153500Y-9080500I-25000J0D01*
G01*
X13487000Y-7493000D02*
G75*
G03*
X13487000Y-7493000I-25000J0D01*
G01*
X14058500Y-11366500D02*
G75*
G03*
X14058500Y-11366500I-25000J0D01*
G01*
X16916000Y-7594600D02*
G75*
G03*
X16916000Y-7594600I-25000J0D01*
G01*
X17043000Y-10414000D02*
G75*
G03*
X17043000Y-10414000I-25000J0D01*
G01*
D10*
X11531600Y-8776500D02*
X11531600Y-8876500D01*
X11481600Y-8826500D02*
X11581600Y-8826500D01*
X11531600Y-9026500D02*
X11531600Y-9126500D01*
X11481600Y-9076500D02*
X11581600Y-9076500D01*
X11531600Y-9276500D02*
X11531600Y-9376500D01*
X11481600Y-9326500D02*
X11581600Y-9326500D01*
X11544300Y-9970300D02*
X11544300Y-10070300D01*
X11494300Y-10020300D02*
X11594300Y-10020300D01*
X11544300Y-10220300D02*
X11544300Y-10320300D01*
X11494300Y-10270300D02*
X11594300Y-10270300D01*
X11544300Y-10470300D02*
X11544300Y-10570300D01*
X11494300Y-10520300D02*
X11594300Y-10520300D01*
X11740607Y-6421500D02*
X11740607Y-6521500D01*
X11690607Y-6471500D02*
X11790607Y-6471500D01*
X11740607Y-7437500D02*
X11740607Y-7537500D01*
X11690607Y-7487500D02*
X11790607Y-7487500D01*
X11740607Y-7691500D02*
X11740607Y-7791500D01*
X11690607Y-7741500D02*
X11790607Y-7741500D01*
X11740607Y-7945500D02*
X11740607Y-8045500D01*
X11690607Y-7995500D02*
X11790607Y-7995500D01*
X11740607Y-8199500D02*
X11740607Y-8299500D01*
X11690607Y-8249500D02*
X11790607Y-8249500D01*
X12508000Y-10808500D02*
X12508000Y-10908500D01*
X12458000Y-10858500D02*
X12558000Y-10858500D01*
X12702500Y-7051000D02*
X12702500Y-7151000D01*
X12652500Y-7101000D02*
X12752500Y-7101000D01*
X12758000Y-10808500D02*
X12758000Y-10908500D01*
X12708000Y-10858500D02*
X12808000Y-10858500D01*
X12827150Y-7820000D02*
X12827150Y-7920000D01*
X12777150Y-7870000D02*
X12877150Y-7870000D01*
X12827150Y-10106000D02*
X12827150Y-10206000D01*
X12777150Y-10156000D02*
X12877150Y-10156000D01*
X12952500Y-7051000D02*
X12952500Y-7151000D01*
X12902500Y-7101000D02*
X13002500Y-7101000D01*
X13008000Y-10808500D02*
X13008000Y-10908500D01*
X12958000Y-10858500D02*
X13058000Y-10858500D01*
X13081150Y-7820000D02*
X13081150Y-7920000D01*
X13031150Y-7870000D02*
X13131150Y-7870000D01*
X13081150Y-10106000D02*
X13081150Y-10206000D01*
X13031150Y-10156000D02*
X13131150Y-10156000D01*
X13202500Y-7051000D02*
X13202500Y-7151000D01*
X13152500Y-7101000D02*
X13252500Y-7101000D01*
X13335150Y-7820000D02*
X13335150Y-7920000D01*
X13285150Y-7870000D02*
X13385150Y-7870000D01*
X13335150Y-10106000D02*
X13335150Y-10206000D01*
X13285150Y-10156000D02*
X13385150Y-10156000D01*
X13589150Y-7820000D02*
X13589150Y-7920000D01*
X13539150Y-7870000D02*
X13639150Y-7870000D01*
X13589150Y-10106000D02*
X13589150Y-10206000D01*
X13539150Y-10156000D02*
X13639150Y-10156000D01*
X13656500Y-10808500D02*
X13656500Y-10908500D01*
X13606500Y-10858500D02*
X13706500Y-10858500D01*
X13843150Y-7820000D02*
X13843150Y-7920000D01*
X13793150Y-7870000D02*
X13893150Y-7870000D01*
X13843150Y-10106000D02*
X13843150Y-10206000D01*
X13793150Y-10156000D02*
X13893150Y-10156000D01*
X13847000Y-7051000D02*
X13847000Y-7151000D01*
X13797000Y-7101000D02*
X13897000Y-7101000D01*
X13906500Y-10808500D02*
X13906500Y-10908500D01*
X13856500Y-10858500D02*
X13956500Y-10858500D01*
X14097000Y-7051000D02*
X14097000Y-7151000D01*
X14047000Y-7101000D02*
X14147000Y-7101000D01*
X14097150Y-7820000D02*
X14097150Y-7920000D01*
X14047150Y-7870000D02*
X14147150Y-7870000D01*
X14097150Y-10106000D02*
X14097150Y-10206000D01*
X14047150Y-10156000D02*
X14147150Y-10156000D01*
X14156500Y-10808500D02*
X14156500Y-10908500D01*
X14106500Y-10858500D02*
X14206500Y-10858500D01*
X14347000Y-7051000D02*
X14347000Y-7151000D01*
X14297000Y-7101000D02*
X14397000Y-7101000D01*
X14351150Y-7820000D02*
X14351150Y-7920000D01*
X14301150Y-7870000D02*
X14401150Y-7870000D01*
X14351150Y-10106000D02*
X14351150Y-10206000D01*
X14301150Y-10156000D02*
X14401150Y-10156000D01*
X14605150Y-7820000D02*
X14605150Y-7920000D01*
X14555150Y-7870000D02*
X14655150Y-7870000D01*
X14605150Y-10106000D02*
X14605150Y-10206000D01*
X14555150Y-10156000D02*
X14655150Y-10156000D01*
X14732000Y-11443500D02*
X14732000Y-11543500D01*
X14682000Y-11493500D02*
X14782000Y-11493500D01*
X14799500Y-10808500D02*
X14799500Y-10908500D01*
X14749500Y-10858500D02*
X14849500Y-10858500D01*
X14857500Y-6744500D02*
X14857500Y-6844500D01*
X14807500Y-6794500D02*
X14907500Y-6794500D01*
X14857500Y-6998500D02*
X14857500Y-7098500D01*
X14807500Y-7048500D02*
X14907500Y-7048500D01*
X14857500Y-7252500D02*
X14857500Y-7352500D01*
X14807500Y-7302500D02*
X14907500Y-7302500D01*
X14859150Y-7820000D02*
X14859150Y-7920000D01*
X14809150Y-7870000D02*
X14909150Y-7870000D01*
X14859150Y-10106000D02*
X14859150Y-10206000D01*
X14809150Y-10156000D02*
X14909150Y-10156000D01*
X14986000Y-11443500D02*
X14986000Y-11543500D01*
X14936000Y-11493500D02*
X15036000Y-11493500D01*
X15049500Y-10808500D02*
X15049500Y-10908500D01*
X14999500Y-10858500D02*
X15099500Y-10858500D01*
X15113150Y-7820000D02*
X15113150Y-7920000D01*
X15063150Y-7870000D02*
X15163150Y-7870000D01*
X15113150Y-10106000D02*
X15113150Y-10206000D01*
X15063150Y-10156000D02*
X15163150Y-10156000D01*
X15240000Y-11443500D02*
X15240000Y-11543500D01*
X15190000Y-11493500D02*
X15290000Y-11493500D01*
X15299500Y-10808500D02*
X15299500Y-10908500D01*
X15249500Y-10858500D02*
X15349500Y-10858500D01*
X15367150Y-7820000D02*
X15367150Y-7920000D01*
X15317150Y-7870000D02*
X15417150Y-7870000D01*
X15367150Y-10106000D02*
X15367150Y-10206000D01*
X15317150Y-10156000D02*
X15417150Y-10156000D01*
X15494000Y-11443500D02*
X15494000Y-11543500D01*
X15444000Y-11493500D02*
X15544000Y-11493500D01*
X15619500Y-6744500D02*
X15619500Y-6844500D01*
X15569500Y-6794500D02*
X15669500Y-6794500D01*
X15619500Y-6998500D02*
X15619500Y-7098500D01*
X15569500Y-7048500D02*
X15669500Y-7048500D01*
X15619500Y-7252500D02*
X15619500Y-7352500D01*
X15569500Y-7302500D02*
X15669500Y-7302500D01*
X15621150Y-7820000D02*
X15621150Y-7920000D01*
X15571150Y-7870000D02*
X15671150Y-7870000D01*
X15621150Y-10106000D02*
X15621150Y-10206000D01*
X15571150Y-10156000D02*
X15671150Y-10156000D01*
X15875150Y-7820000D02*
X15875150Y-7920000D01*
X15825150Y-7870000D02*
X15925150Y-7870000D01*
X15875150Y-10106000D02*
X15875150Y-10206000D01*
X15825150Y-10156000D02*
X15925150Y-10156000D01*
X15942500Y-10924500D02*
X15942500Y-11024500D01*
X15892500Y-10974500D02*
X15992500Y-10974500D01*
X16129150Y-7820000D02*
X16129150Y-7920000D01*
X16079150Y-7870000D02*
X16179150Y-7870000D01*
X16129150Y-10106000D02*
X16129150Y-10206000D01*
X16079150Y-10156000D02*
X16179150Y-10156000D01*
X16137000Y-7038300D02*
X16137000Y-7138300D01*
X16087000Y-7088300D02*
X16187000Y-7088300D01*
X16192500Y-10924500D02*
X16192500Y-11024500D01*
X16142500Y-10974500D02*
X16242500Y-10974500D01*
X16383150Y-7820000D02*
X16383150Y-7920000D01*
X16333150Y-7870000D02*
X16433150Y-7870000D01*
X16383150Y-10106000D02*
X16383150Y-10206000D01*
X16333150Y-10156000D02*
X16433150Y-10156000D01*
X16387000Y-7038300D02*
X16387000Y-7138300D01*
X16337000Y-7088300D02*
X16437000Y-7088300D01*
X16442500Y-10924500D02*
X16442500Y-11024500D01*
X16392500Y-10974500D02*
X16492500Y-10974500D01*
X16637000Y-7038300D02*
X16637000Y-7138300D01*
X16587000Y-7088300D02*
X16687000Y-7088300D01*
X16637150Y-7820000D02*
X16637150Y-7920000D01*
X16587150Y-7870000D02*
X16687150Y-7870000D01*
X16637150Y-10106000D02*
X16637150Y-10206000D01*
X16587150Y-10156000D02*
X16687150Y-10156000D01*
X16891150Y-7820000D02*
X16891150Y-7920000D01*
X16841150Y-7870000D02*
X16941150Y-7870000D01*
X16891150Y-10106000D02*
X16891150Y-10206000D01*
X16841150Y-10156000D02*
X16941150Y-10156000D01*
X17081500Y-10935500D02*
X17081500Y-11035500D01*
X17031500Y-10985500D02*
X17131500Y-10985500D01*
X17089500Y-11634000D02*
X17089500Y-11734000D01*
X17039500Y-11684000D02*
X17139500Y-11684000D01*
X17145150Y-7820000D02*
X17145150Y-7920000D01*
X17095150Y-7870000D02*
X17195150Y-7870000D01*
X17145150Y-10106000D02*
X17145150Y-10206000D01*
X17095150Y-10156000D02*
X17195150Y-10156000D01*
X17274500Y-6935000D02*
X17274500Y-7035000D01*
X17224500Y-6985000D02*
X17324500Y-6985000D01*
X17331500Y-10935500D02*
X17331500Y-11035500D01*
X17281500Y-10985500D02*
X17381500Y-10985500D01*
X17339500Y-11634000D02*
X17339500Y-11734000D01*
X17289500Y-11684000D02*
X17389500Y-11684000D01*
X17399150Y-7820000D02*
X17399150Y-7920000D01*
X17349150Y-7870000D02*
X17449150Y-7870000D01*
X17399150Y-10106000D02*
X17399150Y-10206000D01*
X17349150Y-10156000D02*
X17449150Y-10156000D01*
X17524500Y-6935000D02*
X17524500Y-7035000D01*
X17474500Y-6985000D02*
X17574500Y-6985000D01*
X17581500Y-10935500D02*
X17581500Y-11035500D01*
X17531500Y-10985500D02*
X17631500Y-10985500D01*
X17589500Y-11634000D02*
X17589500Y-11734000D01*
X17539500Y-11684000D02*
X17639500Y-11684000D01*
X17653150Y-7820000D02*
X17653150Y-7920000D01*
X17603150Y-7870000D02*
X17703150Y-7870000D01*
X17653150Y-10106000D02*
X17653150Y-10206000D01*
X17603150Y-10156000D02*
X17703150Y-10156000D01*
X17774500Y-6935000D02*
X17774500Y-7035000D01*
X17724500Y-6985000D02*
X17824500Y-6985000D01*
X17907150Y-7820000D02*
X17907150Y-7920000D01*
X17857150Y-7870000D02*
X17957150Y-7870000D01*
X17907150Y-10106000D02*
X17907150Y-10206000D01*
X17857150Y-10156000D02*
X17957150Y-10156000D01*
X18161150Y-7820000D02*
X18161150Y-7920000D01*
X18111150Y-7870000D02*
X18211150Y-7870000D01*
X18161150Y-10106000D02*
X18161150Y-10206000D01*
X18111150Y-10156000D02*
X18211150Y-10156000D01*
X18224500Y-10808500D02*
X18224500Y-10908500D01*
X18174500Y-10858500D02*
X18274500Y-10858500D01*
X18423000Y-7038300D02*
X18423000Y-7138300D01*
X18373000Y-7088300D02*
X18473000Y-7088300D01*
X18474500Y-10808500D02*
X18474500Y-10908500D01*
X18424500Y-10858500D02*
X18524500Y-10858500D01*
X18673000Y-7038300D02*
X18673000Y-7138300D01*
X18623000Y-7088300D02*
X18723000Y-7088300D01*
X18724500Y-10808500D02*
X18724500Y-10908500D01*
X18674500Y-10858500D02*
X18774500Y-10858500D01*
X18923000Y-7038300D02*
X18923000Y-7138300D01*
X18873000Y-7088300D02*
X18973000Y-7088300D01*
D11*
X10275619Y-13017524D02*
X10275619Y-12817524D01*
X10275619Y-12817524D02*
X10323238Y-12817524D01*
X10323238Y-12817524D02*
X10351810Y-12827048D01*
X10351810Y-12827048D02*
X10370857Y-12846095D01*
X10370857Y-12846095D02*
X10380381Y-12865143D01*
X10380381Y-12865143D02*
X10389905Y-12903238D01*
X10389905Y-12903238D02*
X10389905Y-12931809D01*
X10389905Y-12931809D02*
X10380381Y-12969905D01*
X10380381Y-12969905D02*
X10370857Y-12988952D01*
X10370857Y-12988952D02*
X10351810Y-13008000D01*
X10351810Y-13008000D02*
X10323238Y-13017524D01*
X10323238Y-13017524D02*
X10275619Y-13017524D01*
X10475619Y-13017524D02*
X10475619Y-12884190D01*
X10475619Y-12922286D02*
X10485143Y-12903238D01*
X10485143Y-12903238D02*
X10494667Y-12893714D01*
X10494667Y-12893714D02*
X10513714Y-12884190D01*
X10513714Y-12884190D02*
X10532762Y-12884190D01*
X10599429Y-13017524D02*
X10599429Y-12884190D01*
X10599429Y-12817524D02*
X10589905Y-12827048D01*
X10589905Y-12827048D02*
X10599429Y-12836571D01*
X10599429Y-12836571D02*
X10608952Y-12827048D01*
X10608952Y-12827048D02*
X10599429Y-12817524D01*
X10599429Y-12817524D02*
X10599429Y-12836571D01*
X10723238Y-13017524D02*
X10704190Y-13008000D01*
X10704190Y-13008000D02*
X10694667Y-12988952D01*
X10694667Y-12988952D02*
X10694667Y-12817524D01*
X10828000Y-13017524D02*
X10808952Y-13008000D01*
X10808952Y-13008000D02*
X10799429Y-12988952D01*
X10799429Y-12988952D02*
X10799429Y-12817524D01*
X11056571Y-13017524D02*
X11056571Y-12817524D01*
X11056571Y-12817524D02*
X11123238Y-12960381D01*
X11123238Y-12960381D02*
X11189905Y-12817524D01*
X11189905Y-12817524D02*
X11189905Y-13017524D01*
X11370857Y-13017524D02*
X11370857Y-12912762D01*
X11370857Y-12912762D02*
X11361333Y-12893714D01*
X11361333Y-12893714D02*
X11342286Y-12884190D01*
X11342286Y-12884190D02*
X11304190Y-12884190D01*
X11304190Y-12884190D02*
X11285143Y-12893714D01*
X11370857Y-13008000D02*
X11351809Y-13017524D01*
X11351809Y-13017524D02*
X11304190Y-13017524D01*
X11304190Y-13017524D02*
X11285143Y-13008000D01*
X11285143Y-13008000D02*
X11275619Y-12988952D01*
X11275619Y-12988952D02*
X11275619Y-12969905D01*
X11275619Y-12969905D02*
X11285143Y-12950857D01*
X11285143Y-12950857D02*
X11304190Y-12941333D01*
X11304190Y-12941333D02*
X11351809Y-12941333D01*
X11351809Y-12941333D02*
X11370857Y-12931809D01*
X11466095Y-12884190D02*
X11466095Y-13084190D01*
X11466095Y-12893714D02*
X11485143Y-12884190D01*
X11485143Y-12884190D02*
X11523238Y-12884190D01*
X11523238Y-12884190D02*
X11542286Y-12893714D01*
X11542286Y-12893714D02*
X11551809Y-12903238D01*
X11551809Y-12903238D02*
X11561333Y-12922286D01*
X11561333Y-12922286D02*
X11561333Y-12979428D01*
X11561333Y-12979428D02*
X11551809Y-12998476D01*
X11551809Y-12998476D02*
X11542286Y-13008000D01*
X11542286Y-13008000D02*
X11523238Y-13017524D01*
X11523238Y-13017524D02*
X11485143Y-13017524D01*
X11485143Y-13017524D02*
X11466095Y-13008000D01*
X11647048Y-12998476D02*
X11656571Y-13008000D01*
X11656571Y-13008000D02*
X11647048Y-13017524D01*
X11647048Y-13017524D02*
X11637524Y-13008000D01*
X11637524Y-13008000D02*
X11647048Y-12998476D01*
X11647048Y-12998476D02*
X11647048Y-13017524D01*
X11647048Y-12893714D02*
X11656571Y-12903238D01*
X11656571Y-12903238D02*
X11647048Y-12912762D01*
X11647048Y-12912762D02*
X11637524Y-12903238D01*
X11637524Y-12903238D02*
X11647048Y-12893714D01*
X11647048Y-12893714D02*
X11647048Y-12912762D01*
D12*
X9988000Y-13325000D02*
X10028000Y-13365000D01*
X10028000Y-13325000D02*
X9988000Y-13365000D01*
D11*
X10313714Y-13237524D02*
X10332762Y-13237524D01*
X10332762Y-13237524D02*
X10351810Y-13247048D01*
X10351810Y-13247048D02*
X10361333Y-13256571D01*
X10361333Y-13256571D02*
X10370857Y-13275619D01*
X10370857Y-13275619D02*
X10380381Y-13313714D01*
X10380381Y-13313714D02*
X10380381Y-13361333D01*
X10380381Y-13361333D02*
X10370857Y-13399428D01*
X10370857Y-13399428D02*
X10361333Y-13418476D01*
X10361333Y-13418476D02*
X10351810Y-13428000D01*
X10351810Y-13428000D02*
X10332762Y-13437524D01*
X10332762Y-13437524D02*
X10313714Y-13437524D01*
X10313714Y-13437524D02*
X10294667Y-13428000D01*
X10294667Y-13428000D02*
X10285143Y-13418476D01*
X10285143Y-13418476D02*
X10275619Y-13399428D01*
X10275619Y-13399428D02*
X10266095Y-13361333D01*
X10266095Y-13361333D02*
X10266095Y-13313714D01*
X10266095Y-13313714D02*
X10275619Y-13275619D01*
X10275619Y-13275619D02*
X10285143Y-13256571D01*
X10285143Y-13256571D02*
X10294667Y-13247048D01*
X10294667Y-13247048D02*
X10313714Y-13237524D01*
X10466095Y-13418476D02*
X10475619Y-13428000D01*
X10475619Y-13428000D02*
X10466095Y-13437524D01*
X10466095Y-13437524D02*
X10456571Y-13428000D01*
X10456571Y-13428000D02*
X10466095Y-13418476D01*
X10466095Y-13418476D02*
X10466095Y-13437524D01*
X10647048Y-13304190D02*
X10647048Y-13437524D01*
X10599429Y-13228000D02*
X10551810Y-13370857D01*
X10551810Y-13370857D02*
X10675619Y-13370857D01*
X10789905Y-13237524D02*
X10808952Y-13237524D01*
X10808952Y-13237524D02*
X10828000Y-13247048D01*
X10828000Y-13247048D02*
X10837524Y-13256571D01*
X10837524Y-13256571D02*
X10847048Y-13275619D01*
X10847048Y-13275619D02*
X10856571Y-13313714D01*
X10856571Y-13313714D02*
X10856571Y-13361333D01*
X10856571Y-13361333D02*
X10847048Y-13399428D01*
X10847048Y-13399428D02*
X10837524Y-13418476D01*
X10837524Y-13418476D02*
X10828000Y-13428000D01*
X10828000Y-13428000D02*
X10808952Y-13437524D01*
X10808952Y-13437524D02*
X10789905Y-13437524D01*
X10789905Y-13437524D02*
X10770857Y-13428000D01*
X10770857Y-13428000D02*
X10761333Y-13418476D01*
X10761333Y-13418476D02*
X10751810Y-13399428D01*
X10751810Y-13399428D02*
X10742286Y-13361333D01*
X10742286Y-13361333D02*
X10742286Y-13313714D01*
X10742286Y-13313714D02*
X10751810Y-13275619D01*
X10751810Y-13275619D02*
X10761333Y-13256571D01*
X10761333Y-13256571D02*
X10770857Y-13247048D01*
X10770857Y-13247048D02*
X10789905Y-13237524D01*
X10980381Y-13237524D02*
X10999429Y-13237524D01*
X10999429Y-13237524D02*
X11018476Y-13247048D01*
X11018476Y-13247048D02*
X11028000Y-13256571D01*
X11028000Y-13256571D02*
X11037524Y-13275619D01*
X11037524Y-13275619D02*
X11047048Y-13313714D01*
X11047048Y-13313714D02*
X11047048Y-13361333D01*
X11047048Y-13361333D02*
X11037524Y-13399428D01*
X11037524Y-13399428D02*
X11028000Y-13418476D01*
X11028000Y-13418476D02*
X11018476Y-13428000D01*
X11018476Y-13428000D02*
X10999429Y-13437524D01*
X10999429Y-13437524D02*
X10980381Y-13437524D01*
X10980381Y-13437524D02*
X10961333Y-13428000D01*
X10961333Y-13428000D02*
X10951810Y-13418476D01*
X10951810Y-13418476D02*
X10942286Y-13399428D01*
X10942286Y-13399428D02*
X10932762Y-13361333D01*
X10932762Y-13361333D02*
X10932762Y-13313714D01*
X10932762Y-13313714D02*
X10942286Y-13275619D01*
X10942286Y-13275619D02*
X10951810Y-13256571D01*
X10951810Y-13256571D02*
X10961333Y-13247048D01*
X10961333Y-13247048D02*
X10980381Y-13237524D01*
X11132762Y-13437524D02*
X11132762Y-13304190D01*
X11132762Y-13323238D02*
X11142286Y-13313714D01*
X11142286Y-13313714D02*
X11161333Y-13304190D01*
X11161333Y-13304190D02*
X11189905Y-13304190D01*
X11189905Y-13304190D02*
X11208952Y-13313714D01*
X11208952Y-13313714D02*
X11218476Y-13332762D01*
X11218476Y-13332762D02*
X11218476Y-13437524D01*
X11218476Y-13332762D02*
X11228000Y-13313714D01*
X11228000Y-13313714D02*
X11247048Y-13304190D01*
X11247048Y-13304190D02*
X11275619Y-13304190D01*
X11275619Y-13304190D02*
X11294667Y-13313714D01*
X11294667Y-13313714D02*
X11304190Y-13332762D01*
X11304190Y-13332762D02*
X11304190Y-13437524D01*
X11399429Y-13437524D02*
X11399429Y-13304190D01*
X11399429Y-13323238D02*
X11408952Y-13313714D01*
X11408952Y-13313714D02*
X11428000Y-13304190D01*
X11428000Y-13304190D02*
X11456571Y-13304190D01*
X11456571Y-13304190D02*
X11475619Y-13313714D01*
X11475619Y-13313714D02*
X11485143Y-13332762D01*
X11485143Y-13332762D02*
X11485143Y-13437524D01*
X11485143Y-13332762D02*
X11494667Y-13313714D01*
X11494667Y-13313714D02*
X11513714Y-13304190D01*
X11513714Y-13304190D02*
X11542286Y-13304190D01*
X11542286Y-13304190D02*
X11561333Y-13313714D01*
X11561333Y-13313714D02*
X11570857Y-13332762D01*
X11570857Y-13332762D02*
X11570857Y-13437524D01*
X11961333Y-13228000D02*
X11789905Y-13485143D01*
X12218476Y-13237524D02*
X12237524Y-13237524D01*
X12237524Y-13237524D02*
X12256572Y-13247048D01*
X12256572Y-13247048D02*
X12266095Y-13256571D01*
X12266095Y-13256571D02*
X12275619Y-13275619D01*
X12275619Y-13275619D02*
X12285143Y-13313714D01*
X12285143Y-13313714D02*
X12285143Y-13361333D01*
X12285143Y-13361333D02*
X12275619Y-13399428D01*
X12275619Y-13399428D02*
X12266095Y-13418476D01*
X12266095Y-13418476D02*
X12256572Y-13428000D01*
X12256572Y-13428000D02*
X12237524Y-13437524D01*
X12237524Y-13437524D02*
X12218476Y-13437524D01*
X12218476Y-13437524D02*
X12199429Y-13428000D01*
X12199429Y-13428000D02*
X12189905Y-13418476D01*
X12189905Y-13418476D02*
X12180381Y-13399428D01*
X12180381Y-13399428D02*
X12170857Y-13361333D01*
X12170857Y-13361333D02*
X12170857Y-13313714D01*
X12170857Y-13313714D02*
X12180381Y-13275619D01*
X12180381Y-13275619D02*
X12189905Y-13256571D01*
X12189905Y-13256571D02*
X12199429Y-13247048D01*
X12199429Y-13247048D02*
X12218476Y-13237524D01*
X12370857Y-13418476D02*
X12380381Y-13428000D01*
X12380381Y-13428000D02*
X12370857Y-13437524D01*
X12370857Y-13437524D02*
X12361333Y-13428000D01*
X12361333Y-13428000D02*
X12370857Y-13418476D01*
X12370857Y-13418476D02*
X12370857Y-13437524D01*
X12504191Y-13237524D02*
X12523238Y-13237524D01*
X12523238Y-13237524D02*
X12542286Y-13247048D01*
X12542286Y-13247048D02*
X12551810Y-13256571D01*
X12551810Y-13256571D02*
X12561333Y-13275619D01*
X12561333Y-13275619D02*
X12570857Y-13313714D01*
X12570857Y-13313714D02*
X12570857Y-13361333D01*
X12570857Y-13361333D02*
X12561333Y-13399428D01*
X12561333Y-13399428D02*
X12551810Y-13418476D01*
X12551810Y-13418476D02*
X12542286Y-13428000D01*
X12542286Y-13428000D02*
X12523238Y-13437524D01*
X12523238Y-13437524D02*
X12504191Y-13437524D01*
X12504191Y-13437524D02*
X12485143Y-13428000D01*
X12485143Y-13428000D02*
X12475619Y-13418476D01*
X12475619Y-13418476D02*
X12466095Y-13399428D01*
X12466095Y-13399428D02*
X12456572Y-13361333D01*
X12456572Y-13361333D02*
X12456572Y-13313714D01*
X12456572Y-13313714D02*
X12466095Y-13275619D01*
X12466095Y-13275619D02*
X12475619Y-13256571D01*
X12475619Y-13256571D02*
X12485143Y-13247048D01*
X12485143Y-13247048D02*
X12504191Y-13237524D01*
X12761333Y-13437524D02*
X12647048Y-13437524D01*
X12704191Y-13437524D02*
X12704191Y-13237524D01*
X12704191Y-13237524D02*
X12685143Y-13266095D01*
X12685143Y-13266095D02*
X12666095Y-13285143D01*
X12666095Y-13285143D02*
X12647048Y-13294667D01*
X12942286Y-13237524D02*
X12847048Y-13237524D01*
X12847048Y-13237524D02*
X12837524Y-13332762D01*
X12837524Y-13332762D02*
X12847048Y-13323238D01*
X12847048Y-13323238D02*
X12866095Y-13313714D01*
X12866095Y-13313714D02*
X12913714Y-13313714D01*
X12913714Y-13313714D02*
X12932762Y-13323238D01*
X12932762Y-13323238D02*
X12942286Y-13332762D01*
X12942286Y-13332762D02*
X12951810Y-13351809D01*
X12951810Y-13351809D02*
X12951810Y-13399428D01*
X12951810Y-13399428D02*
X12942286Y-13418476D01*
X12942286Y-13418476D02*
X12932762Y-13428000D01*
X12932762Y-13428000D02*
X12913714Y-13437524D01*
X12913714Y-13437524D02*
X12866095Y-13437524D01*
X12866095Y-13437524D02*
X12847048Y-13428000D01*
X12847048Y-13428000D02*
X12837524Y-13418476D01*
X13018476Y-13237524D02*
X13151810Y-13237524D01*
X13151810Y-13237524D02*
X13066095Y-13437524D01*
X13218476Y-13237524D02*
X13218476Y-13275619D01*
X13294667Y-13237524D02*
X13294667Y-13275619D01*
X13589905Y-13513714D02*
X13580381Y-13504190D01*
X13580381Y-13504190D02*
X13561334Y-13475619D01*
X13561334Y-13475619D02*
X13551810Y-13456571D01*
X13551810Y-13456571D02*
X13542286Y-13428000D01*
X13542286Y-13428000D02*
X13532762Y-13380381D01*
X13532762Y-13380381D02*
X13532762Y-13342286D01*
X13532762Y-13342286D02*
X13542286Y-13294667D01*
X13542286Y-13294667D02*
X13551810Y-13266095D01*
X13551810Y-13266095D02*
X13561334Y-13247048D01*
X13561334Y-13247048D02*
X13580381Y-13218476D01*
X13580381Y-13218476D02*
X13589905Y-13208952D01*
X13770857Y-13437524D02*
X13656572Y-13437524D01*
X13713714Y-13437524D02*
X13713714Y-13237524D01*
X13713714Y-13237524D02*
X13694667Y-13266095D01*
X13694667Y-13266095D02*
X13675619Y-13285143D01*
X13675619Y-13285143D02*
X13656572Y-13294667D01*
X14008953Y-13437524D02*
X14008953Y-13237524D01*
X14094667Y-13437524D02*
X14094667Y-13332762D01*
X14094667Y-13332762D02*
X14085143Y-13313714D01*
X14085143Y-13313714D02*
X14066096Y-13304190D01*
X14066096Y-13304190D02*
X14037524Y-13304190D01*
X14037524Y-13304190D02*
X14018476Y-13313714D01*
X14018476Y-13313714D02*
X14008953Y-13323238D01*
X14218476Y-13437524D02*
X14199429Y-13428000D01*
X14199429Y-13428000D02*
X14189905Y-13418476D01*
X14189905Y-13418476D02*
X14180381Y-13399428D01*
X14180381Y-13399428D02*
X14180381Y-13342286D01*
X14180381Y-13342286D02*
X14189905Y-13323238D01*
X14189905Y-13323238D02*
X14199429Y-13313714D01*
X14199429Y-13313714D02*
X14218476Y-13304190D01*
X14218476Y-13304190D02*
X14247048Y-13304190D01*
X14247048Y-13304190D02*
X14266096Y-13313714D01*
X14266096Y-13313714D02*
X14275619Y-13323238D01*
X14275619Y-13323238D02*
X14285143Y-13342286D01*
X14285143Y-13342286D02*
X14285143Y-13399428D01*
X14285143Y-13399428D02*
X14275619Y-13418476D01*
X14275619Y-13418476D02*
X14266096Y-13428000D01*
X14266096Y-13428000D02*
X14247048Y-13437524D01*
X14247048Y-13437524D02*
X14218476Y-13437524D01*
X14399429Y-13437524D02*
X14380381Y-13428000D01*
X14380381Y-13428000D02*
X14370857Y-13408952D01*
X14370857Y-13408952D02*
X14370857Y-13237524D01*
X14551810Y-13428000D02*
X14532762Y-13437524D01*
X14532762Y-13437524D02*
X14494667Y-13437524D01*
X14494667Y-13437524D02*
X14475619Y-13428000D01*
X14475619Y-13428000D02*
X14466096Y-13408952D01*
X14466096Y-13408952D02*
X14466096Y-13332762D01*
X14466096Y-13332762D02*
X14475619Y-13313714D01*
X14475619Y-13313714D02*
X14494667Y-13304190D01*
X14494667Y-13304190D02*
X14532762Y-13304190D01*
X14532762Y-13304190D02*
X14551810Y-13313714D01*
X14551810Y-13313714D02*
X14561334Y-13332762D01*
X14561334Y-13332762D02*
X14561334Y-13351809D01*
X14561334Y-13351809D02*
X14466096Y-13370857D01*
X14628000Y-13513714D02*
X14637524Y-13504190D01*
X14637524Y-13504190D02*
X14656572Y-13475619D01*
X14656572Y-13475619D02*
X14666096Y-13456571D01*
X14666096Y-13456571D02*
X14675619Y-13428000D01*
X14675619Y-13428000D02*
X14685143Y-13380381D01*
X14685143Y-13380381D02*
X14685143Y-13342286D01*
X14685143Y-13342286D02*
X14675619Y-13294667D01*
X14675619Y-13294667D02*
X14666096Y-13266095D01*
X14666096Y-13266095D02*
X14656572Y-13247048D01*
X14656572Y-13247048D02*
X14637524Y-13218476D01*
X14637524Y-13218476D02*
X14628000Y-13208952D01*
D13*
X10028000Y-13609000D02*
G75*
G03*
X10028000Y-13609000I-25000J0D01*
G01*
D11*
X10313714Y-13501524D02*
X10332762Y-13501524D01*
X10332762Y-13501524D02*
X10351810Y-13511048D01*
X10351810Y-13511048D02*
X10361333Y-13520571D01*
X10361333Y-13520571D02*
X10370857Y-13539619D01*
X10370857Y-13539619D02*
X10380381Y-13577714D01*
X10380381Y-13577714D02*
X10380381Y-13625333D01*
X10380381Y-13625333D02*
X10370857Y-13663428D01*
X10370857Y-13663428D02*
X10361333Y-13682476D01*
X10361333Y-13682476D02*
X10351810Y-13692000D01*
X10351810Y-13692000D02*
X10332762Y-13701524D01*
X10332762Y-13701524D02*
X10313714Y-13701524D01*
X10313714Y-13701524D02*
X10294667Y-13692000D01*
X10294667Y-13692000D02*
X10285143Y-13682476D01*
X10285143Y-13682476D02*
X10275619Y-13663428D01*
X10275619Y-13663428D02*
X10266095Y-13625333D01*
X10266095Y-13625333D02*
X10266095Y-13577714D01*
X10266095Y-13577714D02*
X10275619Y-13539619D01*
X10275619Y-13539619D02*
X10285143Y-13520571D01*
X10285143Y-13520571D02*
X10294667Y-13511048D01*
X10294667Y-13511048D02*
X10313714Y-13501524D01*
X10466095Y-13682476D02*
X10475619Y-13692000D01*
X10475619Y-13692000D02*
X10466095Y-13701524D01*
X10466095Y-13701524D02*
X10456571Y-13692000D01*
X10456571Y-13692000D02*
X10466095Y-13682476D01*
X10466095Y-13682476D02*
X10466095Y-13701524D01*
X10656571Y-13501524D02*
X10561333Y-13501524D01*
X10561333Y-13501524D02*
X10551810Y-13596762D01*
X10551810Y-13596762D02*
X10561333Y-13587238D01*
X10561333Y-13587238D02*
X10580381Y-13577714D01*
X10580381Y-13577714D02*
X10628000Y-13577714D01*
X10628000Y-13577714D02*
X10647048Y-13587238D01*
X10647048Y-13587238D02*
X10656571Y-13596762D01*
X10656571Y-13596762D02*
X10666095Y-13615809D01*
X10666095Y-13615809D02*
X10666095Y-13663428D01*
X10666095Y-13663428D02*
X10656571Y-13682476D01*
X10656571Y-13682476D02*
X10647048Y-13692000D01*
X10647048Y-13692000D02*
X10628000Y-13701524D01*
X10628000Y-13701524D02*
X10580381Y-13701524D01*
X10580381Y-13701524D02*
X10561333Y-13692000D01*
X10561333Y-13692000D02*
X10551810Y-13682476D01*
X10789905Y-13501524D02*
X10808952Y-13501524D01*
X10808952Y-13501524D02*
X10828000Y-13511048D01*
X10828000Y-13511048D02*
X10837524Y-13520571D01*
X10837524Y-13520571D02*
X10847048Y-13539619D01*
X10847048Y-13539619D02*
X10856571Y-13577714D01*
X10856571Y-13577714D02*
X10856571Y-13625333D01*
X10856571Y-13625333D02*
X10847048Y-13663428D01*
X10847048Y-13663428D02*
X10837524Y-13682476D01*
X10837524Y-13682476D02*
X10828000Y-13692000D01*
X10828000Y-13692000D02*
X10808952Y-13701524D01*
X10808952Y-13701524D02*
X10789905Y-13701524D01*
X10789905Y-13701524D02*
X10770857Y-13692000D01*
X10770857Y-13692000D02*
X10761333Y-13682476D01*
X10761333Y-13682476D02*
X10751810Y-13663428D01*
X10751810Y-13663428D02*
X10742286Y-13625333D01*
X10742286Y-13625333D02*
X10742286Y-13577714D01*
X10742286Y-13577714D02*
X10751810Y-13539619D01*
X10751810Y-13539619D02*
X10761333Y-13520571D01*
X10761333Y-13520571D02*
X10770857Y-13511048D01*
X10770857Y-13511048D02*
X10789905Y-13501524D01*
X10980381Y-13501524D02*
X10999429Y-13501524D01*
X10999429Y-13501524D02*
X11018476Y-13511048D01*
X11018476Y-13511048D02*
X11028000Y-13520571D01*
X11028000Y-13520571D02*
X11037524Y-13539619D01*
X11037524Y-13539619D02*
X11047048Y-13577714D01*
X11047048Y-13577714D02*
X11047048Y-13625333D01*
X11047048Y-13625333D02*
X11037524Y-13663428D01*
X11037524Y-13663428D02*
X11028000Y-13682476D01*
X11028000Y-13682476D02*
X11018476Y-13692000D01*
X11018476Y-13692000D02*
X10999429Y-13701524D01*
X10999429Y-13701524D02*
X10980381Y-13701524D01*
X10980381Y-13701524D02*
X10961333Y-13692000D01*
X10961333Y-13692000D02*
X10951810Y-13682476D01*
X10951810Y-13682476D02*
X10942286Y-13663428D01*
X10942286Y-13663428D02*
X10932762Y-13625333D01*
X10932762Y-13625333D02*
X10932762Y-13577714D01*
X10932762Y-13577714D02*
X10942286Y-13539619D01*
X10942286Y-13539619D02*
X10951810Y-13520571D01*
X10951810Y-13520571D02*
X10961333Y-13511048D01*
X10961333Y-13511048D02*
X10980381Y-13501524D01*
X11132762Y-13701524D02*
X11132762Y-13568190D01*
X11132762Y-13587238D02*
X11142286Y-13577714D01*
X11142286Y-13577714D02*
X11161333Y-13568190D01*
X11161333Y-13568190D02*
X11189905Y-13568190D01*
X11189905Y-13568190D02*
X11208952Y-13577714D01*
X11208952Y-13577714D02*
X11218476Y-13596762D01*
X11218476Y-13596762D02*
X11218476Y-13701524D01*
X11218476Y-13596762D02*
X11228000Y-13577714D01*
X11228000Y-13577714D02*
X11247048Y-13568190D01*
X11247048Y-13568190D02*
X11275619Y-13568190D01*
X11275619Y-13568190D02*
X11294667Y-13577714D01*
X11294667Y-13577714D02*
X11304190Y-13596762D01*
X11304190Y-13596762D02*
X11304190Y-13701524D01*
X11399429Y-13701524D02*
X11399429Y-13568190D01*
X11399429Y-13587238D02*
X11408952Y-13577714D01*
X11408952Y-13577714D02*
X11428000Y-13568190D01*
X11428000Y-13568190D02*
X11456571Y-13568190D01*
X11456571Y-13568190D02*
X11475619Y-13577714D01*
X11475619Y-13577714D02*
X11485143Y-13596762D01*
X11485143Y-13596762D02*
X11485143Y-13701524D01*
X11485143Y-13596762D02*
X11494667Y-13577714D01*
X11494667Y-13577714D02*
X11513714Y-13568190D01*
X11513714Y-13568190D02*
X11542286Y-13568190D01*
X11542286Y-13568190D02*
X11561333Y-13577714D01*
X11561333Y-13577714D02*
X11570857Y-13596762D01*
X11570857Y-13596762D02*
X11570857Y-13701524D01*
X11961333Y-13492000D02*
X11789905Y-13749143D01*
X12218476Y-13501524D02*
X12237524Y-13501524D01*
X12237524Y-13501524D02*
X12256572Y-13511048D01*
X12256572Y-13511048D02*
X12266095Y-13520571D01*
X12266095Y-13520571D02*
X12275619Y-13539619D01*
X12275619Y-13539619D02*
X12285143Y-13577714D01*
X12285143Y-13577714D02*
X12285143Y-13625333D01*
X12285143Y-13625333D02*
X12275619Y-13663428D01*
X12275619Y-13663428D02*
X12266095Y-13682476D01*
X12266095Y-13682476D02*
X12256572Y-13692000D01*
X12256572Y-13692000D02*
X12237524Y-13701524D01*
X12237524Y-13701524D02*
X12218476Y-13701524D01*
X12218476Y-13701524D02*
X12199429Y-13692000D01*
X12199429Y-13692000D02*
X12189905Y-13682476D01*
X12189905Y-13682476D02*
X12180381Y-13663428D01*
X12180381Y-13663428D02*
X12170857Y-13625333D01*
X12170857Y-13625333D02*
X12170857Y-13577714D01*
X12170857Y-13577714D02*
X12180381Y-13539619D01*
X12180381Y-13539619D02*
X12189905Y-13520571D01*
X12189905Y-13520571D02*
X12199429Y-13511048D01*
X12199429Y-13511048D02*
X12218476Y-13501524D01*
X12370857Y-13682476D02*
X12380381Y-13692000D01*
X12380381Y-13692000D02*
X12370857Y-13701524D01*
X12370857Y-13701524D02*
X12361333Y-13692000D01*
X12361333Y-13692000D02*
X12370857Y-13682476D01*
X12370857Y-13682476D02*
X12370857Y-13701524D01*
X12504191Y-13501524D02*
X12523238Y-13501524D01*
X12523238Y-13501524D02*
X12542286Y-13511048D01*
X12542286Y-13511048D02*
X12551810Y-13520571D01*
X12551810Y-13520571D02*
X12561333Y-13539619D01*
X12561333Y-13539619D02*
X12570857Y-13577714D01*
X12570857Y-13577714D02*
X12570857Y-13625333D01*
X12570857Y-13625333D02*
X12561333Y-13663428D01*
X12561333Y-13663428D02*
X12551810Y-13682476D01*
X12551810Y-13682476D02*
X12542286Y-13692000D01*
X12542286Y-13692000D02*
X12523238Y-13701524D01*
X12523238Y-13701524D02*
X12504191Y-13701524D01*
X12504191Y-13701524D02*
X12485143Y-13692000D01*
X12485143Y-13692000D02*
X12475619Y-13682476D01*
X12475619Y-13682476D02*
X12466095Y-13663428D01*
X12466095Y-13663428D02*
X12456572Y-13625333D01*
X12456572Y-13625333D02*
X12456572Y-13577714D01*
X12456572Y-13577714D02*
X12466095Y-13539619D01*
X12466095Y-13539619D02*
X12475619Y-13520571D01*
X12475619Y-13520571D02*
X12485143Y-13511048D01*
X12485143Y-13511048D02*
X12504191Y-13501524D01*
X12761333Y-13701524D02*
X12647048Y-13701524D01*
X12704191Y-13701524D02*
X12704191Y-13501524D01*
X12704191Y-13501524D02*
X12685143Y-13530095D01*
X12685143Y-13530095D02*
X12666095Y-13549143D01*
X12666095Y-13549143D02*
X12647048Y-13558667D01*
X12856572Y-13701524D02*
X12894667Y-13701524D01*
X12894667Y-13701524D02*
X12913714Y-13692000D01*
X12913714Y-13692000D02*
X12923238Y-13682476D01*
X12923238Y-13682476D02*
X12942286Y-13653905D01*
X12942286Y-13653905D02*
X12951810Y-13615809D01*
X12951810Y-13615809D02*
X12951810Y-13539619D01*
X12951810Y-13539619D02*
X12942286Y-13520571D01*
X12942286Y-13520571D02*
X12932762Y-13511048D01*
X12932762Y-13511048D02*
X12913714Y-13501524D01*
X12913714Y-13501524D02*
X12875619Y-13501524D01*
X12875619Y-13501524D02*
X12856572Y-13511048D01*
X12856572Y-13511048D02*
X12847048Y-13520571D01*
X12847048Y-13520571D02*
X12837524Y-13539619D01*
X12837524Y-13539619D02*
X12837524Y-13587238D01*
X12837524Y-13587238D02*
X12847048Y-13606286D01*
X12847048Y-13606286D02*
X12856572Y-13615809D01*
X12856572Y-13615809D02*
X12875619Y-13625333D01*
X12875619Y-13625333D02*
X12913714Y-13625333D01*
X12913714Y-13625333D02*
X12932762Y-13615809D01*
X12932762Y-13615809D02*
X12942286Y-13606286D01*
X12942286Y-13606286D02*
X12951810Y-13587238D01*
X13018476Y-13501524D02*
X13151810Y-13501524D01*
X13151810Y-13501524D02*
X13066095Y-13701524D01*
X13218476Y-13501524D02*
X13218476Y-13539619D01*
X13294667Y-13501524D02*
X13294667Y-13539619D01*
X13589905Y-13777714D02*
X13580381Y-13768190D01*
X13580381Y-13768190D02*
X13561334Y-13739619D01*
X13561334Y-13739619D02*
X13551810Y-13720571D01*
X13551810Y-13720571D02*
X13542286Y-13692000D01*
X13542286Y-13692000D02*
X13532762Y-13644381D01*
X13532762Y-13644381D02*
X13532762Y-13606286D01*
X13532762Y-13606286D02*
X13542286Y-13558667D01*
X13542286Y-13558667D02*
X13551810Y-13530095D01*
X13551810Y-13530095D02*
X13561334Y-13511048D01*
X13561334Y-13511048D02*
X13580381Y-13482476D01*
X13580381Y-13482476D02*
X13589905Y-13472952D01*
X13761334Y-13501524D02*
X13666095Y-13501524D01*
X13666095Y-13501524D02*
X13656572Y-13596762D01*
X13656572Y-13596762D02*
X13666095Y-13587238D01*
X13666095Y-13587238D02*
X13685143Y-13577714D01*
X13685143Y-13577714D02*
X13732762Y-13577714D01*
X13732762Y-13577714D02*
X13751810Y-13587238D01*
X13751810Y-13587238D02*
X13761334Y-13596762D01*
X13761334Y-13596762D02*
X13770857Y-13615809D01*
X13770857Y-13615809D02*
X13770857Y-13663428D01*
X13770857Y-13663428D02*
X13761334Y-13682476D01*
X13761334Y-13682476D02*
X13751810Y-13692000D01*
X13751810Y-13692000D02*
X13732762Y-13701524D01*
X13732762Y-13701524D02*
X13685143Y-13701524D01*
X13685143Y-13701524D02*
X13666095Y-13692000D01*
X13666095Y-13692000D02*
X13656572Y-13682476D01*
X14008953Y-13701524D02*
X14008953Y-13501524D01*
X14094667Y-13701524D02*
X14094667Y-13596762D01*
X14094667Y-13596762D02*
X14085143Y-13577714D01*
X14085143Y-13577714D02*
X14066096Y-13568190D01*
X14066096Y-13568190D02*
X14037524Y-13568190D01*
X14037524Y-13568190D02*
X14018476Y-13577714D01*
X14018476Y-13577714D02*
X14008953Y-13587238D01*
X14218476Y-13701524D02*
X14199429Y-13692000D01*
X14199429Y-13692000D02*
X14189905Y-13682476D01*
X14189905Y-13682476D02*
X14180381Y-13663428D01*
X14180381Y-13663428D02*
X14180381Y-13606286D01*
X14180381Y-13606286D02*
X14189905Y-13587238D01*
X14189905Y-13587238D02*
X14199429Y-13577714D01*
X14199429Y-13577714D02*
X14218476Y-13568190D01*
X14218476Y-13568190D02*
X14247048Y-13568190D01*
X14247048Y-13568190D02*
X14266096Y-13577714D01*
X14266096Y-13577714D02*
X14275619Y-13587238D01*
X14275619Y-13587238D02*
X14285143Y-13606286D01*
X14285143Y-13606286D02*
X14285143Y-13663428D01*
X14285143Y-13663428D02*
X14275619Y-13682476D01*
X14275619Y-13682476D02*
X14266096Y-13692000D01*
X14266096Y-13692000D02*
X14247048Y-13701524D01*
X14247048Y-13701524D02*
X14218476Y-13701524D01*
X14399429Y-13701524D02*
X14380381Y-13692000D01*
X14380381Y-13692000D02*
X14370857Y-13672952D01*
X14370857Y-13672952D02*
X14370857Y-13501524D01*
X14551810Y-13692000D02*
X14532762Y-13701524D01*
X14532762Y-13701524D02*
X14494667Y-13701524D01*
X14494667Y-13701524D02*
X14475619Y-13692000D01*
X14475619Y-13692000D02*
X14466096Y-13672952D01*
X14466096Y-13672952D02*
X14466096Y-13596762D01*
X14466096Y-13596762D02*
X14475619Y-13577714D01*
X14475619Y-13577714D02*
X14494667Y-13568190D01*
X14494667Y-13568190D02*
X14532762Y-13568190D01*
X14532762Y-13568190D02*
X14551810Y-13577714D01*
X14551810Y-13577714D02*
X14561334Y-13596762D01*
X14561334Y-13596762D02*
X14561334Y-13615809D01*
X14561334Y-13615809D02*
X14466096Y-13634857D01*
X14637524Y-13692000D02*
X14656572Y-13701524D01*
X14656572Y-13701524D02*
X14694667Y-13701524D01*
X14694667Y-13701524D02*
X14713715Y-13692000D01*
X14713715Y-13692000D02*
X14723238Y-13672952D01*
X14723238Y-13672952D02*
X14723238Y-13663428D01*
X14723238Y-13663428D02*
X14713715Y-13644381D01*
X14713715Y-13644381D02*
X14694667Y-13634857D01*
X14694667Y-13634857D02*
X14666096Y-13634857D01*
X14666096Y-13634857D02*
X14647048Y-13625333D01*
X14647048Y-13625333D02*
X14637524Y-13606286D01*
X14637524Y-13606286D02*
X14637524Y-13596762D01*
X14637524Y-13596762D02*
X14647048Y-13577714D01*
X14647048Y-13577714D02*
X14666096Y-13568190D01*
X14666096Y-13568190D02*
X14694667Y-13568190D01*
X14694667Y-13568190D02*
X14713715Y-13577714D01*
X14789905Y-13777714D02*
X14799429Y-13768190D01*
X14799429Y-13768190D02*
X14818477Y-13739619D01*
X14818477Y-13739619D02*
X14828000Y-13720571D01*
X14828000Y-13720571D02*
X14837524Y-13692000D01*
X14837524Y-13692000D02*
X14847048Y-13644381D01*
X14847048Y-13644381D02*
X14847048Y-13606286D01*
X14847048Y-13606286D02*
X14837524Y-13558667D01*
X14837524Y-13558667D02*
X14828000Y-13530095D01*
X14828000Y-13530095D02*
X14818477Y-13511048D01*
X14818477Y-13511048D02*
X14799429Y-13482476D01*
X14799429Y-13482476D02*
X14789905Y-13472952D01*
D10*
X9978000Y-13823000D02*
X9978000Y-13923000D01*
X9928000Y-13873000D02*
X10028000Y-13873000D01*
D11*
X10380381Y-13965524D02*
X10266095Y-13965524D01*
X10323238Y-13965524D02*
X10323238Y-13765524D01*
X10323238Y-13765524D02*
X10304190Y-13794095D01*
X10304190Y-13794095D02*
X10285143Y-13813143D01*
X10285143Y-13813143D02*
X10266095Y-13822667D01*
X10466095Y-13946476D02*
X10475619Y-13956000D01*
X10475619Y-13956000D02*
X10466095Y-13965524D01*
X10466095Y-13965524D02*
X10456571Y-13956000D01*
X10456571Y-13956000D02*
X10466095Y-13946476D01*
X10466095Y-13946476D02*
X10466095Y-13965524D01*
X10599429Y-13765524D02*
X10618476Y-13765524D01*
X10618476Y-13765524D02*
X10637524Y-13775048D01*
X10637524Y-13775048D02*
X10647048Y-13784571D01*
X10647048Y-13784571D02*
X10656571Y-13803619D01*
X10656571Y-13803619D02*
X10666095Y-13841714D01*
X10666095Y-13841714D02*
X10666095Y-13889333D01*
X10666095Y-13889333D02*
X10656571Y-13927428D01*
X10656571Y-13927428D02*
X10647048Y-13946476D01*
X10647048Y-13946476D02*
X10637524Y-13956000D01*
X10637524Y-13956000D02*
X10618476Y-13965524D01*
X10618476Y-13965524D02*
X10599429Y-13965524D01*
X10599429Y-13965524D02*
X10580381Y-13956000D01*
X10580381Y-13956000D02*
X10570857Y-13946476D01*
X10570857Y-13946476D02*
X10561333Y-13927428D01*
X10561333Y-13927428D02*
X10551810Y-13889333D01*
X10551810Y-13889333D02*
X10551810Y-13841714D01*
X10551810Y-13841714D02*
X10561333Y-13803619D01*
X10561333Y-13803619D02*
X10570857Y-13784571D01*
X10570857Y-13784571D02*
X10580381Y-13775048D01*
X10580381Y-13775048D02*
X10599429Y-13765524D01*
X10789905Y-13765524D02*
X10808952Y-13765524D01*
X10808952Y-13765524D02*
X10828000Y-13775048D01*
X10828000Y-13775048D02*
X10837524Y-13784571D01*
X10837524Y-13784571D02*
X10847048Y-13803619D01*
X10847048Y-13803619D02*
X10856571Y-13841714D01*
X10856571Y-13841714D02*
X10856571Y-13889333D01*
X10856571Y-13889333D02*
X10847048Y-13927428D01*
X10847048Y-13927428D02*
X10837524Y-13946476D01*
X10837524Y-13946476D02*
X10828000Y-13956000D01*
X10828000Y-13956000D02*
X10808952Y-13965524D01*
X10808952Y-13965524D02*
X10789905Y-13965524D01*
X10789905Y-13965524D02*
X10770857Y-13956000D01*
X10770857Y-13956000D02*
X10761333Y-13946476D01*
X10761333Y-13946476D02*
X10751810Y-13927428D01*
X10751810Y-13927428D02*
X10742286Y-13889333D01*
X10742286Y-13889333D02*
X10742286Y-13841714D01*
X10742286Y-13841714D02*
X10751810Y-13803619D01*
X10751810Y-13803619D02*
X10761333Y-13784571D01*
X10761333Y-13784571D02*
X10770857Y-13775048D01*
X10770857Y-13775048D02*
X10789905Y-13765524D01*
X10980381Y-13765524D02*
X10999429Y-13765524D01*
X10999429Y-13765524D02*
X11018476Y-13775048D01*
X11018476Y-13775048D02*
X11028000Y-13784571D01*
X11028000Y-13784571D02*
X11037524Y-13803619D01*
X11037524Y-13803619D02*
X11047048Y-13841714D01*
X11047048Y-13841714D02*
X11047048Y-13889333D01*
X11047048Y-13889333D02*
X11037524Y-13927428D01*
X11037524Y-13927428D02*
X11028000Y-13946476D01*
X11028000Y-13946476D02*
X11018476Y-13956000D01*
X11018476Y-13956000D02*
X10999429Y-13965524D01*
X10999429Y-13965524D02*
X10980381Y-13965524D01*
X10980381Y-13965524D02*
X10961333Y-13956000D01*
X10961333Y-13956000D02*
X10951810Y-13946476D01*
X10951810Y-13946476D02*
X10942286Y-13927428D01*
X10942286Y-13927428D02*
X10932762Y-13889333D01*
X10932762Y-13889333D02*
X10932762Y-13841714D01*
X10932762Y-13841714D02*
X10942286Y-13803619D01*
X10942286Y-13803619D02*
X10951810Y-13784571D01*
X10951810Y-13784571D02*
X10961333Y-13775048D01*
X10961333Y-13775048D02*
X10980381Y-13765524D01*
X11132762Y-13965524D02*
X11132762Y-13832190D01*
X11132762Y-13851238D02*
X11142286Y-13841714D01*
X11142286Y-13841714D02*
X11161333Y-13832190D01*
X11161333Y-13832190D02*
X11189905Y-13832190D01*
X11189905Y-13832190D02*
X11208952Y-13841714D01*
X11208952Y-13841714D02*
X11218476Y-13860762D01*
X11218476Y-13860762D02*
X11218476Y-13965524D01*
X11218476Y-13860762D02*
X11228000Y-13841714D01*
X11228000Y-13841714D02*
X11247048Y-13832190D01*
X11247048Y-13832190D02*
X11275619Y-13832190D01*
X11275619Y-13832190D02*
X11294667Y-13841714D01*
X11294667Y-13841714D02*
X11304190Y-13860762D01*
X11304190Y-13860762D02*
X11304190Y-13965524D01*
X11399429Y-13965524D02*
X11399429Y-13832190D01*
X11399429Y-13851238D02*
X11408952Y-13841714D01*
X11408952Y-13841714D02*
X11428000Y-13832190D01*
X11428000Y-13832190D02*
X11456571Y-13832190D01*
X11456571Y-13832190D02*
X11475619Y-13841714D01*
X11475619Y-13841714D02*
X11485143Y-13860762D01*
X11485143Y-13860762D02*
X11485143Y-13965524D01*
X11485143Y-13860762D02*
X11494667Y-13841714D01*
X11494667Y-13841714D02*
X11513714Y-13832190D01*
X11513714Y-13832190D02*
X11542286Y-13832190D01*
X11542286Y-13832190D02*
X11561333Y-13841714D01*
X11561333Y-13841714D02*
X11570857Y-13860762D01*
X11570857Y-13860762D02*
X11570857Y-13965524D01*
X11961333Y-13756000D02*
X11789905Y-14013143D01*
X12218476Y-13765524D02*
X12237524Y-13765524D01*
X12237524Y-13765524D02*
X12256572Y-13775048D01*
X12256572Y-13775048D02*
X12266095Y-13784571D01*
X12266095Y-13784571D02*
X12275619Y-13803619D01*
X12275619Y-13803619D02*
X12285143Y-13841714D01*
X12285143Y-13841714D02*
X12285143Y-13889333D01*
X12285143Y-13889333D02*
X12275619Y-13927428D01*
X12275619Y-13927428D02*
X12266095Y-13946476D01*
X12266095Y-13946476D02*
X12256572Y-13956000D01*
X12256572Y-13956000D02*
X12237524Y-13965524D01*
X12237524Y-13965524D02*
X12218476Y-13965524D01*
X12218476Y-13965524D02*
X12199429Y-13956000D01*
X12199429Y-13956000D02*
X12189905Y-13946476D01*
X12189905Y-13946476D02*
X12180381Y-13927428D01*
X12180381Y-13927428D02*
X12170857Y-13889333D01*
X12170857Y-13889333D02*
X12170857Y-13841714D01*
X12170857Y-13841714D02*
X12180381Y-13803619D01*
X12180381Y-13803619D02*
X12189905Y-13784571D01*
X12189905Y-13784571D02*
X12199429Y-13775048D01*
X12199429Y-13775048D02*
X12218476Y-13765524D01*
X12370857Y-13946476D02*
X12380381Y-13956000D01*
X12380381Y-13956000D02*
X12370857Y-13965524D01*
X12370857Y-13965524D02*
X12361333Y-13956000D01*
X12361333Y-13956000D02*
X12370857Y-13946476D01*
X12370857Y-13946476D02*
X12370857Y-13965524D01*
X12504191Y-13765524D02*
X12523238Y-13765524D01*
X12523238Y-13765524D02*
X12542286Y-13775048D01*
X12542286Y-13775048D02*
X12551810Y-13784571D01*
X12551810Y-13784571D02*
X12561333Y-13803619D01*
X12561333Y-13803619D02*
X12570857Y-13841714D01*
X12570857Y-13841714D02*
X12570857Y-13889333D01*
X12570857Y-13889333D02*
X12561333Y-13927428D01*
X12561333Y-13927428D02*
X12551810Y-13946476D01*
X12551810Y-13946476D02*
X12542286Y-13956000D01*
X12542286Y-13956000D02*
X12523238Y-13965524D01*
X12523238Y-13965524D02*
X12504191Y-13965524D01*
X12504191Y-13965524D02*
X12485143Y-13956000D01*
X12485143Y-13956000D02*
X12475619Y-13946476D01*
X12475619Y-13946476D02*
X12466095Y-13927428D01*
X12466095Y-13927428D02*
X12456572Y-13889333D01*
X12456572Y-13889333D02*
X12456572Y-13841714D01*
X12456572Y-13841714D02*
X12466095Y-13803619D01*
X12466095Y-13803619D02*
X12475619Y-13784571D01*
X12475619Y-13784571D02*
X12485143Y-13775048D01*
X12485143Y-13775048D02*
X12504191Y-13765524D01*
X12637524Y-13765524D02*
X12761333Y-13765524D01*
X12761333Y-13765524D02*
X12694667Y-13841714D01*
X12694667Y-13841714D02*
X12723238Y-13841714D01*
X12723238Y-13841714D02*
X12742286Y-13851238D01*
X12742286Y-13851238D02*
X12751810Y-13860762D01*
X12751810Y-13860762D02*
X12761333Y-13879809D01*
X12761333Y-13879809D02*
X12761333Y-13927428D01*
X12761333Y-13927428D02*
X12751810Y-13946476D01*
X12751810Y-13946476D02*
X12742286Y-13956000D01*
X12742286Y-13956000D02*
X12723238Y-13965524D01*
X12723238Y-13965524D02*
X12666095Y-13965524D01*
X12666095Y-13965524D02*
X12647048Y-13956000D01*
X12647048Y-13956000D02*
X12637524Y-13946476D01*
X12856572Y-13965524D02*
X12894667Y-13965524D01*
X12894667Y-13965524D02*
X12913714Y-13956000D01*
X12913714Y-13956000D02*
X12923238Y-13946476D01*
X12923238Y-13946476D02*
X12942286Y-13917905D01*
X12942286Y-13917905D02*
X12951810Y-13879809D01*
X12951810Y-13879809D02*
X12951810Y-13803619D01*
X12951810Y-13803619D02*
X12942286Y-13784571D01*
X12942286Y-13784571D02*
X12932762Y-13775048D01*
X12932762Y-13775048D02*
X12913714Y-13765524D01*
X12913714Y-13765524D02*
X12875619Y-13765524D01*
X12875619Y-13765524D02*
X12856572Y-13775048D01*
X12856572Y-13775048D02*
X12847048Y-13784571D01*
X12847048Y-13784571D02*
X12837524Y-13803619D01*
X12837524Y-13803619D02*
X12837524Y-13851238D01*
X12837524Y-13851238D02*
X12847048Y-13870286D01*
X12847048Y-13870286D02*
X12856572Y-13879809D01*
X12856572Y-13879809D02*
X12875619Y-13889333D01*
X12875619Y-13889333D02*
X12913714Y-13889333D01*
X12913714Y-13889333D02*
X12932762Y-13879809D01*
X12932762Y-13879809D02*
X12942286Y-13870286D01*
X12942286Y-13870286D02*
X12951810Y-13851238D01*
X13123238Y-13832190D02*
X13123238Y-13965524D01*
X13075619Y-13756000D02*
X13028000Y-13898857D01*
X13028000Y-13898857D02*
X13151810Y-13898857D01*
X13218476Y-13765524D02*
X13218476Y-13803619D01*
X13294667Y-13765524D02*
X13294667Y-13803619D01*
X13589905Y-14041714D02*
X13580381Y-14032190D01*
X13580381Y-14032190D02*
X13561334Y-14003619D01*
X13561334Y-14003619D02*
X13551810Y-13984571D01*
X13551810Y-13984571D02*
X13542286Y-13956000D01*
X13542286Y-13956000D02*
X13532762Y-13908381D01*
X13532762Y-13908381D02*
X13532762Y-13870286D01*
X13532762Y-13870286D02*
X13542286Y-13822667D01*
X13542286Y-13822667D02*
X13551810Y-13794095D01*
X13551810Y-13794095D02*
X13561334Y-13775048D01*
X13561334Y-13775048D02*
X13580381Y-13746476D01*
X13580381Y-13746476D02*
X13589905Y-13736952D01*
X13770857Y-13965524D02*
X13656572Y-13965524D01*
X13713714Y-13965524D02*
X13713714Y-13765524D01*
X13713714Y-13765524D02*
X13694667Y-13794095D01*
X13694667Y-13794095D02*
X13675619Y-13813143D01*
X13675619Y-13813143D02*
X13656572Y-13822667D01*
X13894667Y-13765524D02*
X13913715Y-13765524D01*
X13913715Y-13765524D02*
X13932762Y-13775048D01*
X13932762Y-13775048D02*
X13942286Y-13784571D01*
X13942286Y-13784571D02*
X13951810Y-13803619D01*
X13951810Y-13803619D02*
X13961334Y-13841714D01*
X13961334Y-13841714D02*
X13961334Y-13889333D01*
X13961334Y-13889333D02*
X13951810Y-13927428D01*
X13951810Y-13927428D02*
X13942286Y-13946476D01*
X13942286Y-13946476D02*
X13932762Y-13956000D01*
X13932762Y-13956000D02*
X13913715Y-13965524D01*
X13913715Y-13965524D02*
X13894667Y-13965524D01*
X13894667Y-13965524D02*
X13875619Y-13956000D01*
X13875619Y-13956000D02*
X13866095Y-13946476D01*
X13866095Y-13946476D02*
X13856572Y-13927428D01*
X13856572Y-13927428D02*
X13847048Y-13889333D01*
X13847048Y-13889333D02*
X13847048Y-13841714D01*
X13847048Y-13841714D02*
X13856572Y-13803619D01*
X13856572Y-13803619D02*
X13866095Y-13784571D01*
X13866095Y-13784571D02*
X13875619Y-13775048D01*
X13875619Y-13775048D02*
X13894667Y-13765524D01*
X14151810Y-13965524D02*
X14037524Y-13965524D01*
X14094667Y-13965524D02*
X14094667Y-13765524D01*
X14094667Y-13765524D02*
X14075619Y-13794095D01*
X14075619Y-13794095D02*
X14056572Y-13813143D01*
X14056572Y-13813143D02*
X14037524Y-13822667D01*
X14389905Y-13965524D02*
X14389905Y-13765524D01*
X14475619Y-13965524D02*
X14475619Y-13860762D01*
X14475619Y-13860762D02*
X14466096Y-13841714D01*
X14466096Y-13841714D02*
X14447048Y-13832190D01*
X14447048Y-13832190D02*
X14418476Y-13832190D01*
X14418476Y-13832190D02*
X14399429Y-13841714D01*
X14399429Y-13841714D02*
X14389905Y-13851238D01*
X14599429Y-13965524D02*
X14580381Y-13956000D01*
X14580381Y-13956000D02*
X14570857Y-13946476D01*
X14570857Y-13946476D02*
X14561334Y-13927428D01*
X14561334Y-13927428D02*
X14561334Y-13870286D01*
X14561334Y-13870286D02*
X14570857Y-13851238D01*
X14570857Y-13851238D02*
X14580381Y-13841714D01*
X14580381Y-13841714D02*
X14599429Y-13832190D01*
X14599429Y-13832190D02*
X14628000Y-13832190D01*
X14628000Y-13832190D02*
X14647048Y-13841714D01*
X14647048Y-13841714D02*
X14656572Y-13851238D01*
X14656572Y-13851238D02*
X14666096Y-13870286D01*
X14666096Y-13870286D02*
X14666096Y-13927428D01*
X14666096Y-13927428D02*
X14656572Y-13946476D01*
X14656572Y-13946476D02*
X14647048Y-13956000D01*
X14647048Y-13956000D02*
X14628000Y-13965524D01*
X14628000Y-13965524D02*
X14599429Y-13965524D01*
X14780381Y-13965524D02*
X14761334Y-13956000D01*
X14761334Y-13956000D02*
X14751810Y-13936952D01*
X14751810Y-13936952D02*
X14751810Y-13765524D01*
X14932762Y-13956000D02*
X14913715Y-13965524D01*
X14913715Y-13965524D02*
X14875619Y-13965524D01*
X14875619Y-13965524D02*
X14856572Y-13956000D01*
X14856572Y-13956000D02*
X14847048Y-13936952D01*
X14847048Y-13936952D02*
X14847048Y-13860762D01*
X14847048Y-13860762D02*
X14856572Y-13841714D01*
X14856572Y-13841714D02*
X14875619Y-13832190D01*
X14875619Y-13832190D02*
X14913715Y-13832190D01*
X14913715Y-13832190D02*
X14932762Y-13841714D01*
X14932762Y-13841714D02*
X14942286Y-13860762D01*
X14942286Y-13860762D02*
X14942286Y-13879809D01*
X14942286Y-13879809D02*
X14847048Y-13898857D01*
X15018477Y-13956000D02*
X15037524Y-13965524D01*
X15037524Y-13965524D02*
X15075619Y-13965524D01*
X15075619Y-13965524D02*
X15094667Y-13956000D01*
X15094667Y-13956000D02*
X15104191Y-13936952D01*
X15104191Y-13936952D02*
X15104191Y-13927428D01*
X15104191Y-13927428D02*
X15094667Y-13908381D01*
X15094667Y-13908381D02*
X15075619Y-13898857D01*
X15075619Y-13898857D02*
X15047048Y-13898857D01*
X15047048Y-13898857D02*
X15028000Y-13889333D01*
X15028000Y-13889333D02*
X15018477Y-13870286D01*
X15018477Y-13870286D02*
X15018477Y-13860762D01*
X15018477Y-13860762D02*
X15028000Y-13841714D01*
X15028000Y-13841714D02*
X15047048Y-13832190D01*
X15047048Y-13832190D02*
X15075619Y-13832190D01*
X15075619Y-13832190D02*
X15094667Y-13841714D01*
X15170858Y-14041714D02*
X15180381Y-14032190D01*
X15180381Y-14032190D02*
X15199429Y-14003619D01*
X15199429Y-14003619D02*
X15208953Y-13984571D01*
X15208953Y-13984571D02*
X15218477Y-13956000D01*
X15218477Y-13956000D02*
X15228000Y-13908381D01*
X15228000Y-13908381D02*
X15228000Y-13870286D01*
X15228000Y-13870286D02*
X15218477Y-13822667D01*
X15218477Y-13822667D02*
X15208953Y-13794095D01*
X15208953Y-13794095D02*
X15199429Y-13775048D01*
X15199429Y-13775048D02*
X15180381Y-13746476D01*
X15180381Y-13746476D02*
X15170858Y-13736952D01*
M02*
